%FSTAX23Y23*%
%MOIN*%
%SFA1B1*%

%IPPOS*%
%ADD10R,0.040000X0.032000*%
%ADD11R,0.039370X0.035430*%
%ADD12R,0.035430X0.039370*%
%ADD13R,0.053150X0.015750*%
%ADD29C,0.010000*%
%ADD30C,0.005000*%
%ADD31C,0.020000*%
%ADD33C,0.016000*%
%ADD34C,0.006000*%
%ADD35C,0.057090*%
%ADD36R,0.070870X0.074800*%
%ADD37C,0.059060*%
%ADD38R,0.059060X0.059060*%
%ADD39R,0.059060X0.059060*%
%ADD40C,0.016000*%
%ADD41C,0.020000*%
%ADD42C,0.025000*%
%ADD43R,0.055120X0.064570*%
%ADD44R,0.032000X0.040000*%
%ADD45R,0.040000X0.080000*%
%ADD46R,0.120000X0.090000*%
%ADD47R,0.050000X0.060000*%
%ADD48R,0.059060X0.110240*%
%ADD49R,0.030000X0.016000*%
%ADD50R,0.030000X0.030000*%
%ADD51R,0.007870X0.039370*%
%ADD52R,0.039370X0.007870*%
%ADD53R,0.031500X0.062990*%
%ADD54R,0.059060X0.106300*%
%ADD55C,0.008000*%
%ADD56C,0.025000*%
%LNmb1180-1*%
%LPD*%
G36*
X00109Y01419D02*
X00114Y01416D01*
X0012Y01415*
X00125Y01416*
X0013Y01419*
X0013Y0142*
X00171*
Y01417*
X00197*
Y01407*
X00171*
Y01402*
Y01382*
Y01363*
Y01358*
X00197*
Y01348*
X00171*
Y01343*
Y01323*
Y01304*
Y01284*
Y01264*
Y01262*
X0017Y01261*
X00154Y01245*
X00151Y01239*
Y01166*
X00144Y01163*
X00095Y01212*
X00098Y01216*
X00101Y0123*
X00098Y01243*
X0009Y01255*
X00078Y01263*
X00065Y01266*
X00051Y01263*
X00041Y01256*
X00034Y0126*
Y01299*
X00041Y01303*
X00051Y01296*
X0006Y01294*
Y01329*
Y01365*
X00051Y01363*
X00041Y01356*
X00034Y0136*
Y01399*
X00041Y01403*
X00051Y01396*
X00065Y01393*
X00078Y01396*
X0009Y01404*
X00098Y01416*
X00099Y01421*
X00107Y01423*
X00109Y01419*
G37*
G36*
X00142Y01585D02*
Y01566D01*
X00144Y01561*
X00144Y0156*
X00144Y0156*
X00143Y01558*
X00143*
Y01557*
X00142Y01556*
Y01546*
X00143Y01545*
Y01514*
X00162*
X00222Y01454*
Y01442*
X00202*
X00197Y01444*
X00122*
X00121Y01443*
X0012Y01444*
X00114Y01443*
X00109Y0144*
X00107Y01436*
X00099Y01438*
X00098Y01443*
X00095Y01447*
X0011Y01461*
X00112Y01468*
Y01565*
X00135Y01588*
X00142Y01585*
G37*
G36*
X00218Y01506D02*
X00221Y01499D01*
X00236Y01484*
X00242Y01482*
X00246*
Y01465*
X00267*
Y01356*
X0026Y01352*
X00256Y01355*
X00251Y01356*
X00247Y01355*
X00241Y0136*
Y01458*
X00238Y01464*
X00193Y01509*
X00195Y01514*
Y01514*
X00202*
X00218*
Y01506*
G37*
G36*
X00639Y01404D02*
X00651Y01396D01*
X00665Y01393*
X00678Y01396*
X00682Y01399*
X00709Y01372*
Y01077*
X00702Y01074*
X00688Y01088*
X00682Y0109*
Y01098*
X0069Y01104*
X00698Y01116*
X00701Y0113*
X00698Y01143*
X0069Y01155*
X00678Y01163*
X00665Y01166*
X00651Y01163*
X00639Y01155*
X00631Y01143*
X00628Y0113*
X00631Y01116*
X00639Y01104*
X00648Y01098*
X00645Y0109*
X00597*
Y01103*
X00591*
X00587Y0111*
X00589Y01113*
X0059Y01119*
X00589Y01124*
X00587Y01126*
Y01147*
X00589Y01148*
X00603Y01162*
X00606Y01171*
Y01293*
X00624Y0131*
X00625Y01312*
X00633Y01313*
X00639Y01304*
X00651Y01296*
X00665Y01293*
X00678Y01296*
X0069Y01304*
X00698Y01316*
X00701Y0133*
X00698Y01343*
X0069Y01355*
X00678Y01363*
X00665Y01366*
X00651Y01363*
X00639Y01355*
X00635Y01349*
X00627Y01352*
Y01407*
X00635Y0141*
X00639Y01404*
G37*
G36*
X00309Y00763D02*
X00315Y0076D01*
X00367*
Y00708*
X00438*
Y0076*
X00489*
Y00641*
X00506*
Y00619*
X00497*
Y00527*
X00549*
Y00588*
X006*
X00607Y00589*
X00608Y0059*
X00615Y00586*
Y00403*
X00617Y00396*
X00635Y00379*
X00642Y00376*
X0068*
X00694Y00362*
X00689Y00356*
X00678Y00363*
X00665Y00366*
X00651Y00363*
X00639Y00355*
X00633Y00346*
X0061*
Y00356*
Y00357*
X00611Y00358*
X00616Y00361*
X0062Y00366*
X00621Y00373*
X0062Y00379*
X00616Y00384*
X00611Y00388*
X00605Y00389*
X00529*
X00522Y00388*
X00517Y00384*
X00509Y00376*
X00506Y00371*
X00504Y00365*
Y00356*
X00499*
X00496Y00359*
Y00374*
X00446*
Y00527*
X00456*
Y00612*
X00474Y00631*
X00478Y00636*
X00479Y00643*
X00478Y00649*
X00474Y00654*
X00469Y00658*
X00463Y00659*
X00456Y00658*
X00451Y00654*
X00445Y00648*
X00438Y00652*
Y00698*
X00407*
Y00641*
X00428*
X00431Y00634*
X00418Y00621*
X00416Y00619*
X00408*
X00407Y00622*
X00404Y00627*
X00399Y0063*
X00394Y00631*
X00389Y0063*
X00384Y00627*
X00381Y00622*
X0038Y00617*
X00381Y00611*
X00384Y00607*
X00385Y00606*
Y00547*
X00379Y00542*
X00377Y00543*
X00371Y00542*
X0037Y00541*
X00363Y00544*
Y00568*
X00342*
Y00527*
X00363*
X00363Y00527*
X00363Y00523*
X00365Y00521*
Y00503*
Y00482*
X00316Y00434*
X00286*
Y00446*
X00235*
Y00434*
X0022*
Y00443*
X00178*
X00175*
X0017Y00449*
Y00456*
X00178*
X0022*
Y0048*
X00227Y00488*
X00235Y00485*
Y0049*
X00286*
Y00509*
Y0051*
X00292Y00516*
X00298*
Y00547*
X00298Y00548*
Y00558*
X00298Y00559*
Y0056*
X00297*
X00296Y00562*
X00296Y00562*
X00296Y00563*
X00298Y00568*
Y00598*
X00298Y00599*
Y00627*
X00281*
Y00635*
X00282Y00637*
X00283Y00642*
X00282Y00647*
X00279Y00652*
X00274Y00655*
X00274Y00657*
X00278Y00662*
X00281Y00668*
Y00671*
X00298*
Y00702*
X00298Y00703*
Y00713*
X00298Y00714*
Y00715*
X00297*
X00296Y00717*
X00276Y00737*
X00277Y00738*
X00272Y00743*
X00252Y00723*
Y00753*
X00292*
Y00738*
X00298*
Y00755*
X00271*
Y00765*
X00298*
Y00764*
X00305Y00767*
X00309Y00763*
G37*
G36*
X00189Y01566D02*
X00169Y01586D01*
X00149Y01566*
Y01596*
X00189*
Y01566*
G37*
G36*
X00018Y01722D02*
X00066Y01674D01*
X00069Y01673*
X00069Y01673*
X00067Y01665*
X00029*
Y01639*
X00023*
X00016Y01636*
X00009Y01639*
Y01724*
X00017Y01726*
X00018Y01722*
G37*
G36*
X00189Y01556D02*
Y01546D01*
X00149*
Y01556*
X00169Y01576*
X00189Y01556*
G37*
G36*
X00256Y00824D02*
X00231D01*
X00224Y00821*
X00219Y00816*
X00216Y0081*
Y00792*
X00218Y00788*
X00213Y00782*
X00209*
Y00758*
X00199*
Y00782*
X00178*
Y00781*
X00172Y0078*
X00169Y00785*
X00164Y00788*
X00159Y00789*
X00153Y00788*
X00148Y00785*
X00145Y0078*
X00144Y00775*
X00145Y00769*
X00148Y00766*
X00144Y00758*
X00139Y00758*
X00127Y00769*
Y00803*
X00158Y00834*
X00256*
Y00824*
G37*
G36*
X00292Y00713D02*
Y00703D01*
X00252*
Y00713*
X00272Y00733*
X00292Y00713*
G37*
G36*
X00218Y01184D02*
X00215Y01181D01*
X00212Y01175*
Y01128*
X00211Y01128*
X00208Y01123*
X00207Y01118*
X00208Y01112*
X00211Y01107*
X00216Y01104*
X00222Y01103*
X00227Y01104*
X00232Y01107*
X00235Y01112*
X00235Y01113*
X00243*
X00243Y01111*
X00246Y01106*
X00251Y01103*
Y01103*
Y01055*
X00302*
Y0107*
X00311*
Y00992*
X00382*
X00386*
X00457*
Y0107*
X00467*
Y01055*
X00518*
Y01103*
Y01105*
X00522Y01106*
X00527Y01109*
X0053Y01113*
X00531Y01119*
X0053Y01124*
X00527Y01129*
X00522Y01132*
X00517Y01133*
X00511Y01132*
X00506Y01129*
X00506Y01128*
X00483*
Y0113*
Y01144*
X00564*
Y01126*
X00562Y01124*
X00561Y01119*
X00562Y01113*
X00564Y0111*
X0056Y01103*
X00545*
Y01072*
X00544Y01071*
Y01061*
X00545Y0106*
Y01059*
X00545*
X00546Y01057*
X00546Y01057*
X00546Y01056*
X00544Y01051*
Y01023*
X00542*
X00535Y0102*
X00526Y01011*
X00518Y01014*
Y01011*
X00498*
Y00992*
X00515*
X00521Y00987*
Y00953*
X00515Y00948*
X00514Y00948*
X00508Y00947*
X00503Y00944*
X005Y00939*
X00499Y00934*
X00499Y00932*
X00491Y00924*
X00395*
X00392Y00932*
X0041Y0095*
X00412Y0095*
X00417Y00951*
X00422Y00954*
X00425Y00959*
X00426Y00965*
X00425Y0097*
X00422Y00975*
X00417Y00978*
X00412Y00979*
X00406Y00978*
X00401Y00975*
X004Y00972*
X00392*
X00391Y00975*
X00386Y00978*
X00381Y00979*
X00375Y00978*
X0037Y00975*
X00367Y0097*
X00366Y00965*
X00366Y00963*
X00349Y00946*
X00329*
X00327Y00954*
X00328Y00954*
X00331Y00959*
X00332Y00965*
X00331Y0097*
X00328Y00975*
X00323Y00978*
X00318Y00979*
X00312Y00978*
X00307Y00975*
X00306Y00972*
X00298*
X00296Y00975*
X00291Y00978*
X00286Y00979*
X00284Y00979*
X00278Y00985*
X00281Y00992*
X00272*
Y01011*
X00251*
Y01012*
X00243Y01009*
X00181Y01072*
Y01174*
X00198Y01191*
X00215*
X00218Y01184*
G37*
G36*
X00338Y00815D02*
Y00795D01*
X00308*
X00328Y00815*
X00308Y00835*
X00338*
Y00815*
G37*
G36*
X00591Y00881D02*
X00551D01*
Y00911*
X00571Y00891*
X00591Y00911*
Y00881*
G37*
G36*
Y00921D02*
X00571Y00901D01*
X00551Y00921*
Y00931*
X00591*
Y00921*
G37*
G36*
X00631Y01016D02*
X00639Y01004D01*
X00651Y00996*
X00665Y00993*
X00678Y00996*
X0069Y01004*
X00691Y01005*
X00698Y01002*
Y00976*
X00682Y0096*
X00678Y00963*
X00665Y00966*
X00651Y00963*
X00639Y00955*
X00631Y00943*
X00628Y0093*
X00631Y00916*
X00639Y00904*
X00651Y00896*
X00665Y00893*
X00678Y00896*
X0069Y00904*
X00698Y00916*
X00701Y0093*
X00698Y00943*
X00695Y00947*
X00702Y00954*
X00709Y00951*
Y00535*
X00703Y0053*
X00701Y00531*
X00698Y00543*
X0069Y00555*
X00678Y00563*
X00665Y00566*
X00651Y00563*
X0064Y00556*
X00633Y0056*
Y00599*
X0064Y00603*
X00651Y00596*
X00665Y00593*
X00678Y00596*
X0069Y00604*
X00698Y00616*
X00701Y0063*
X00698Y00643*
X0069Y00655*
X00678Y00663*
X00665Y00666*
X00651Y00663*
X0064Y00656*
X00633Y0066*
Y00699*
X0064Y00703*
X00651Y00696*
X00665Y00693*
X00678Y00696*
X0069Y00704*
X00698Y00716*
X00701Y0073*
X00698Y00743*
X0069Y00755*
X00678Y00763*
X00665Y00766*
X00651Y00763*
X00639Y00755*
X00631Y00744*
X00623Y00743*
X00591Y00776*
X00584Y00779*
X00324*
X00319Y00785*
X0032Y00788*
X00338*
X00339Y00789*
X00367*
Y00789*
X00374*
X00422*
Y0084*
Y00849*
X00424Y0085*
X00427Y00855*
X00427Y00859*
X00435Y00858*
X00436Y00852*
X00439Y00848*
X00437Y0084*
Y0082*
X00456*
Y0084*
X00464*
X0046Y00847*
X00463Y00852*
X00464Y00858*
X00463Y00863*
X0046Y00868*
X0046Y00868*
X00501*
X00502Y00866*
X00507Y00863*
X00513Y00862*
X00518Y00863*
X00523Y00866*
X00523Y00868*
X00531Y00869*
X00533Y00867*
X00539Y00865*
X00545*
Y00852*
X00597*
Y0088*
X00597Y00881*
Y00911*
X00595Y00916*
X00595Y00917*
X00595Y00917*
X00596Y00919*
X00597*
Y0092*
X00597Y00921*
Y00931*
X00598Y00932*
X00598*
X00605Y00935*
X00618Y00948*
X00621Y00955*
Y01017*
X00622Y01018*
X00631*
X00631Y01016*
G37*
G36*
X00033Y01163D02*
X00034Y01163D01*
X00037Y01158*
X00038Y01154*
X00031Y01143*
X00028Y0113*
X00031Y01116*
X00039Y01104*
X00051Y01096*
X00065Y01093*
X00078Y01096*
X00082Y01099*
X001Y01081*
Y01054*
X00093Y01051*
X0009Y01055*
X00078Y01063*
X00065Y01066*
X00051Y01063*
X00039Y01055*
X00031Y01043*
X00028Y0103*
X00031Y01016*
X00034Y01012*
X00016Y00994*
X00009Y00997*
Y01177*
X00016Y0118*
X00033Y01163*
G37*
G36*
X00306Y01295D02*
X00306Y01295D01*
X00309Y01288*
X00309Y01283*
X00304Y0128*
X00301Y01275*
X003Y0127*
X00301Y01264*
X00304Y01259*
X00309Y01256*
X00315Y01255*
X00319Y01256*
X00331Y01244*
X00331Y01236*
X00328Y01234*
X00324Y01229*
X00323Y01223*
X00324Y01216*
X00328Y01211*
X00333Y01207*
X0034Y01206*
X00343Y01207*
X00349Y01202*
Y01182*
X0034*
Y01156*
X0033*
Y01182*
X00327*
Y01183*
X00324Y01191*
X00307Y01207*
Y01217*
X00309Y01219*
X0031Y01225*
X00309Y0123*
X00306Y01235*
X00301Y01238*
X00296Y01239*
X0029Y01238*
X00284Y01247*
Y01282*
X00297Y01295*
X00306*
G37*
G36*
X00591Y01061D02*
X00571Y01041D01*
X00551Y01061*
Y01071*
X00591*
Y01061*
G37*
G36*
X00318Y00815D02*
X00298Y00795D01*
X00288*
Y00835*
X00298*
X00318Y00815*
G37*
G36*
X00591Y01021D02*
X00551D01*
Y01051*
X00571Y01031*
X00591Y01051*
Y01021*
G37*
G36*
X00292Y00568D02*
X00272Y00588D01*
X00252Y00568*
Y00598*
X00292*
Y00568*
G37*
G36*
X0072Y00504D02*
Y0037D01*
X00712Y00369*
X00712Y0037*
X0069Y00392*
X00684Y00395*
Y00399*
X0069Y00404*
X00698Y00416*
X00701Y0043*
X00698Y00443*
X0069Y00455*
X00678Y00463*
X00665Y00466*
X00669Y0047*
X00673*
X00679Y00473*
X00713Y00507*
X0072Y00504*
G37*
G36*
X00425Y00113D02*
X00405Y00093D01*
X00395*
Y00133*
X00405*
X00425Y00113*
G37*
G36*
X00025Y00377D02*
X00025Y00376D01*
X00026Y0037*
X00029Y00365*
X00034Y00362*
X00034Y00362*
X00038Y00357*
X00039Y00355*
X00031Y00343*
X00028Y0033*
X00031Y00316*
X00039Y00304*
X00051Y00296*
X00065Y00293*
X00078Y00296*
X0009Y00304*
X00098Y00316*
X00101Y0033*
X00098Y00343*
X00095Y00347*
X00104Y00356*
X00111Y00353*
Y00302*
X00074Y00264*
X00065Y00266*
X00051Y00263*
X00039Y00255*
X00031Y00243*
X00028Y0023*
X00031Y00216*
X00039Y00204*
X00051Y00196*
X00065Y00193*
X00078Y00196*
X0009Y00204*
X00098Y00216*
X00101Y0023*
X00098Y00243*
X0009Y00255*
X00127Y00291*
X00129Y00296*
X00132*
X00135*
X00158*
Y00332*
X00162*
Y00337*
X00194*
Y00361*
X00199Y00365*
X00201Y00365*
X00205Y00362*
X00211Y00361*
X00216Y00362*
X00221Y00365*
X00224Y0037*
X00224Y00374*
X00242*
Y00368*
Y00296*
X00256*
Y00264*
X00228Y00236*
X00199*
Y00258*
X00132*
Y00181*
X00199*
Y00203*
X00235*
X00241Y00204*
X00246Y00208*
X00284Y00246*
X00284Y00246*
X00292Y00244*
Y00181*
X00311*
Y00147*
X00302Y00138*
X00254*
X00254*
X00252Y00137*
X00221*
Y0011*
X0024*
Y00079*
X0023*
Y00028*
X00278*
Y00079*
X00268*
Y00109*
X00308*
X00313Y0011*
X00318Y00113*
X00336Y00131*
X00337Y00134*
X00339Y00136*
X0034Y00142*
Y00181*
X00359*
Y00199*
X00365Y00205*
X00396*
X00401Y00199*
X00401Y00199*
X00402Y00192*
X00406Y00187*
X00411Y00183*
X00418Y00182*
X0051*
X00516Y00183*
X00522Y00187*
X00533Y00198*
X00536Y00203*
X00538Y0021*
Y0022*
X00543*
X00546*
X0055*
X0055*
X00593*
Y00273*
X006Y0028*
X00603Y00285*
X00605Y00291*
Y00304*
X0061*
Y00313*
X00633*
X00639Y00304*
X00651Y00296*
X00665Y00293*
X00678Y00296*
X00689Y00303*
X00696Y003*
Y00274*
X00682Y0026*
X00678Y00263*
X00665Y00266*
X00651Y00263*
X00639Y00255*
X00631Y00243*
X00628Y0023*
X00631Y00216*
X00634Y00212*
X00544Y00122*
X00474*
Y00139*
X00446*
X00445Y00139*
X00415*
X0041Y00137*
X00409Y00137*
X00409Y00137*
X00407Y00138*
Y00139*
X00406*
X00405Y00139*
X00395*
X00394Y00139*
X00363*
Y00087*
Y00079*
X00364*
Y0004*
X00358Y00035*
X00352Y00037*
X00351Y00042*
X00348Y00047*
X00343Y0005*
X00338Y00051*
X00332Y0005*
X00327Y00047*
X00324Y00042*
X00323Y00037*
X00324Y00031*
X00327Y00026*
X00332Y00023*
X00338Y00022*
X00339Y00022*
X00342Y00019*
X00348Y00017*
X00346Y00009*
X00009*
Y00383*
X00016Y00386*
X00025Y00377*
G37*
G36*
X00581Y0033D02*
Y0031D01*
X00551*
X00571Y0033*
X00551Y0035*
X00581*
Y0033*
G37*
G36*
X00445Y00113D02*
Y00093D01*
X00415*
X00435Y00113*
X00415Y00133*
X00445*
Y00113*
G37*
G36*
X00561Y0033D02*
X00541Y0031D01*
X00531*
Y0035*
X00541*
X00561Y0033*
G37*
G36*
X0072Y01813D02*
Y01771D01*
X00719*
X00715*
X00648*
Y017*
X00715*
X0072Y01694*
Y01397*
X00713Y01394*
X00695Y01412*
X00698Y01416*
X00701Y0143*
X00698Y01443*
X0069Y01455*
X00678Y01463*
X00665Y01466*
X00651Y01463*
X00639Y01455*
X00635Y01449*
X00627Y01452*
Y01487*
X00629Y01489*
X0063Y01495*
X00629Y015*
X00626Y01505*
X00621Y01508*
X00616Y01509*
X0061Y01508*
X00605Y01505*
X00602Y015*
X00601Y01495*
X00602Y01489*
X00604Y01487*
Y01323*
X00586Y01306*
X00583Y01298*
Y01175*
X00575Y01168*
X00562*
Y01214*
X0056Y01219*
X00559Y01222*
X00558Y01223*
Y01225*
Y0123*
X00506*
Y01225*
Y01205*
X00527*
X00532Y01203*
X00539*
Y01168*
X00483*
Y01182*
X00453*
X0045Y01189*
X00469Y01208*
X00472Y01205*
X00478Y01204*
X00483Y01205*
X00488Y01208*
X00491Y01213*
X00492Y01219*
X00491Y01224*
X00488Y01229*
X00483Y01232*
X00478Y01233*
X00472Y01232*
X00467Y01229*
X00467Y01228*
X00467*
X0046Y01225*
X00427Y01192*
X00424Y01185*
Y01182*
X00367*
Y01219*
X00369Y0122*
X00376Y01216*
X00376Y01215*
X00379Y0121*
X00384Y01207*
X0039Y01206*
X00395Y01207*
X004Y0121*
X00403Y01215*
X00404Y01221*
X00403Y01226*
X004Y01231*
X00395Y01234*
X0039Y01235*
X00388Y01235*
X00324Y01299*
Y01465*
X00448*
Y01491*
X00458*
Y01465*
X00483*
Y01479*
X00504*
X00512Y01482*
X00525Y01495*
X00528Y01504*
Y01519*
X0053Y01521*
X00531Y01527*
X0053Y01532*
X00527Y01537*
X00522Y0154*
X00517Y01541*
X00511Y0154*
X00506Y01537*
X00503Y01532*
X00502Y01527*
X00503Y01521*
X00505Y01519*
Y01508*
X00499Y01503*
X00483*
Y01517*
X00463*
X0046Y01524*
X00579Y01643*
X00586Y0164*
Y01527*
X00525Y01466*
X00523Y0146*
Y01442*
X00506*
Y01422*
Y01404*
X00498*
X00496Y01406*
X00491Y01407*
X00485Y01406*
X0048Y01403*
X00477Y01398*
X00476Y01393*
X00477Y01387*
X0048Y01382*
X00485Y01379*
X00491Y01378*
X00496Y01379*
X00498Y0138*
X00506*
Y01363*
Y01343*
Y01323*
Y01304*
Y01303*
X00458*
X00451Y013*
X00442Y01291*
X00441Y01291*
X00435Y0129*
X0043Y01287*
X00427Y01282*
X00426Y01277*
X00427Y01271*
X0043Y01266*
X00435Y01263*
X00441Y01262*
X00446Y01263*
X00451Y01266*
X00454Y01271*
X00454Y01273*
X00461Y01277*
X00463Y01276*
X00463Y01275*
X00464Y01269*
X00467Y01264*
X00472Y01261*
X00478Y0126*
X00483Y01261*
X00488Y01264*
X00491Y01269*
X00492Y01275*
X00491Y0128*
X00488Y01285*
X00488Y01285*
X00506*
Y01284*
Y01264*
Y01245*
Y0124*
X00558*
Y01245*
Y01264*
Y01284*
Y01304*
Y01323*
Y01343*
Y01363*
Y01379*
X00565Y01382*
X00565Y01381*
X0057Y01378*
X00576Y01377*
X00581Y01378*
X00586Y01381*
X00589Y01386*
X0059Y01392*
X00589Y01397*
X00586Y01402*
X00581Y01405*
X00576Y01406*
X00574Y01406*
X00561Y01419*
X00558Y0142*
Y01422*
Y01442*
X00541*
Y01456*
X00602Y01517*
X00605Y01524*
Y01648*
X00622Y01665*
X00625Y01663*
X00629Y01662*
Y01594*
X007*
Y01665*
X00632*
X00631Y01669*
X00629Y01672*
X00636Y01679*
X00639Y01686*
Y01778*
X00666Y01805*
X0067Y01802*
X00684Y01799*
X00697Y01802*
X00709Y0181*
X00713Y01815*
X0072Y01813*
G37*
G36*
X00224Y00585D02*
X00204Y00565D01*
X00184Y00585*
Y00595*
X00224*
Y00585*
G37*
G36*
Y00545D02*
X00184D01*
Y00575*
X00204Y00555*
X00224Y00575*
Y00545*
G37*
G36*
X00143Y01635D02*
Y01625D01*
Y01612*
X00137*
X00131Y0161*
X00096Y01576*
X00094Y01569*
Y01561*
X00087Y01557*
X00078Y01563*
X00065Y01566*
X00051Y01563*
X00039Y01555*
X00031Y01543*
X00031Y01541*
X00023Y01542*
Y01594*
X00029*
X001*
Y01665*
X00104Y01669*
X00107Y0167*
X00143Y01635*
G37*
G36*
X0066Y01963D02*
X00658Y01961D01*
X0065Y01949*
X00647Y01936*
X0065Y01922*
X00658Y0191*
X0067Y01902*
X00684Y01899*
X00697Y01902*
X00709Y0191*
X00713Y01915*
X0072Y01913*
Y01858*
X00713Y01856*
X00709Y01861*
X00697Y01869*
X00684Y01872*
X0067Y01869*
X00658Y01861*
X0065Y01849*
X00647Y01836*
X0065Y01822*
X00653Y01818*
X00623Y01788*
X0062Y01782*
Y01758*
X00613Y01756*
X00609Y01761*
X00597Y01769*
X00589Y01771*
Y01735*
X00579*
Y01771*
X0057Y01769*
X00558Y01761*
X00551Y01751*
X00543Y01753*
Y01776*
X00535*
Y01812*
X00542Y01819*
X00552*
X00558Y0181*
X0057Y01802*
X00584Y01799*
X00597Y01802*
X00609Y0181*
X00617Y01822*
X0062Y01836*
X00617Y01849*
X00609Y01861*
X00597Y01869*
X00584Y01872*
X0057Y01869*
X00558Y01861*
X00552Y01852*
X00542*
X00518Y01876*
X00519Y01878*
X00532*
Y01917*
X00449*
Y01881*
X00438*
Y01884*
X00425*
X00423Y01885*
X00417Y01886*
X0041Y01885*
X00409Y01884*
X00398*
X00396*
X00392Y01887*
Y01926*
X00398Y01931*
X00438*
Y01959*
X00396*
Y01957*
X00395*
X00389Y01954*
X00386Y01953*
X00372Y01939*
X00364*
X00347Y01956*
X00341Y0196*
X00335Y01961*
X0031*
X00304Y0196*
X00303Y01959*
X00289*
Y01931*
X00303*
X00304Y0193*
X00306Y01929*
X00305Y01922*
X00305Y01922*
X00289*
Y01913*
X0031*
Y01903*
X00289*
Y01894*
X00305*
X00306Y0189*
X003Y01884*
X00289*
Y0188*
X0028*
Y01917*
X00197*
Y0188*
X00194*
X00187Y01879*
X00182Y01875*
X00157Y0185*
X00153Y01845*
X00152Y01839*
Y01781*
X00147Y01776*
X00143*
X00141Y01777*
Y01837*
X00138Y01845*
X00126Y01857*
X00123Y01858*
Y01874*
Y01882*
Y01896*
X00134*
X00136Y01894*
X00142Y01893*
X00147Y01894*
X00152Y01897*
X00155Y01902*
X00156Y01908*
X00155Y01913*
X00152Y01918*
X00147Y01921*
X00142Y01922*
X00136Y01921*
X00134Y01919*
X00123*
Y01933*
X00075*
Y01882*
Y01874*
Y01823*
Y01815*
Y01783*
X00067Y01774*
X0006Y01778*
Y01815*
Y01823*
Y01874*
Y01882*
Y01933*
X00057*
X00055Y01941*
X00056Y01941*
X00059Y01946*
X0006Y01952*
X00059Y01957*
X00056Y01962*
X00054Y01963*
X00056Y0197*
X00191*
X00197Y01965*
Y01927*
X0028*
Y01965*
Y01965*
X00285Y0197*
X00443*
X00449Y01965*
Y01927*
X00532*
Y01965*
Y01965*
X00537Y0197*
X00658*
X0066Y01963*
G37*
G36*
X0072Y00264D02*
Y00009D01*
X0061*
X0061Y0001*
X00614Y00019*
X0062Y00025*
X00622Y00025*
X00627Y00026*
X00632Y00029*
X00635Y00034*
X00636Y0004*
X00635Y00045*
X00632Y0005*
X00627Y00053*
X00622Y00054*
X00616Y00053*
X00611Y0005*
X00608Y00045*
X00607Y0004*
X00582Y00035*
X00475*
Y00044*
X00574*
X0058Y00047*
Y00047*
Y00047*
X0061Y00077*
X00612Y00083*
X00612*
X00612*
Y00115*
X00613Y00116*
X00616Y00121*
X00617Y00126*
X00616Y00131*
X00613Y00136*
X00609Y00139*
X00603Y0014*
X00598Y00139*
X00594Y00146*
X00647Y00199*
X00651Y00196*
X00665Y00193*
X00678Y00196*
X0069Y00204*
X00698Y00216*
X00701Y0023*
X00698Y00243*
X00695Y00247*
X00712Y00264*
X00712Y00265*
X0072Y00264*
G37*
G36*
X00292Y00558D02*
Y00548D01*
X00252*
Y00558*
X00272Y00578*
X00292Y00558*
G37*
G36*
X00369Y0187D02*
Y01825D01*
X00372Y01817*
X00372Y01816*
Y01784*
X00405*
X00408Y01776*
X00404Y01774*
X00401Y01769*
X00399Y01762*
X00401Y01756*
X00404Y01751*
X00409Y01747*
X00416Y01746*
X00422Y01747*
X00423Y01748*
X00431Y01745*
X00433Y01728*
X00484*
X00492*
X00543*
X00549*
X0055Y01722*
X00558Y0171*
X0057Y01702*
X0057Y01702*
X0058Y01695*
X00581Y01687*
X00575Y01681*
X00572Y01675*
Y01662*
X00497Y01587*
X0049Y01591*
X00491Y01596*
X0049Y01601*
X00487Y01606*
X00482Y01609*
X00477Y0161*
X00471Y01609*
X00466Y01606*
X00463Y01601*
X00462Y01596*
X00463Y0159*
X00466Y01585*
X00471Y01582*
X00477Y01581*
X00481Y01582*
X00485Y01575*
X00429Y01519*
X00421Y0152*
X00421Y01521*
Y01694*
X00418Y01701*
X0039Y01728*
X00383Y01731*
X00346*
X00346Y01732*
X00343Y01737*
X00338Y0174*
X00333Y01741*
X00327Y0174*
X00322Y01737*
X00319Y01732*
X00318Y01727*
X00319Y01721*
X00322Y01716*
Y01713*
X00319Y01708*
X00318Y01703*
X00319Y01697*
X00322Y01692*
X00327Y01689*
X00333Y01688*
X00338Y01689*
X00343Y01692*
X00346Y01697*
X00346Y01698*
X00373*
X00387Y01684*
Y01521*
X00385Y01517*
X00365*
Y01535*
X00363Y01541*
X00362Y01543*
X00264Y01642*
X00256Y01645*
X00163*
X0015Y01658*
X00153Y01665*
X00164*
Y01684*
X00143*
Y01676*
X00135Y01673*
X00119Y01689*
X00112Y01692*
X00079*
X00049Y01721*
X0005Y01723*
X00055Y01726*
X00058Y01731*
X00058Y01731*
X0009Y01764*
X00102*
X00105Y01756*
X00099Y0175*
X00098Y0175*
X00093Y01747*
X0009Y01742*
X00089Y01737*
X0009Y01731*
X00093Y01726*
X00098Y01723*
X00104Y01722*
X00109Y01723*
X00114Y01726*
X00117Y01731*
X00118Y01735*
X00135Y01753*
X00143Y0175*
Y01728*
X00194*
X00202*
X00253*
Y01776*
X00202*
X00194*
X00185*
Y01787*
X00185Y01788*
X00187Y01794*
X00185Y018*
X00185Y01801*
Y01832*
X002Y01847*
X00237*
X00241Y0184*
X00234Y01829*
X00232Y01821*
X003*
X00299Y01829*
X00291Y0184*
X00293Y01847*
X00304*
X0031Y01848*
X00315Y01852*
X00317Y01854*
X00335*
X00341Y01855*
X00347Y01859*
X00361Y01873*
X00369Y0187*
G37*
%LNmb1180-2*%
%LPC*%
G36*
X00086Y0014D02*
X00079Y00139D01*
X00074Y00135*
X0007Y0013*
X00069Y00124*
X0007Y00118*
X00074Y00112*
X00079Y00109*
X00086Y00108*
X00092Y00109*
X00092Y00109*
X00159*
X00161Y0011*
X00192*
Y00137*
X00161*
X00159Y00138*
X00093*
X00092Y00139*
X00086Y0014*
G37*
G36*
X00665Y00866D02*
X00651Y00863D01*
X00639Y00855*
X00631Y00843*
X00628Y0083*
X00631Y00816*
X00639Y00804*
X00651Y00796*
X00665Y00793*
X00678Y00796*
X0069Y00804*
X00698Y00816*
X00701Y0083*
X00698Y00843*
X0069Y00855*
X00678Y00863*
X00665Y00866*
G37*
G36*
X00215Y00079D02*
X00167D01*
Y00065*
X00134*
X00132Y00067*
X00127Y00068*
X00121Y00067*
X00116Y00064*
X00113Y00059*
X00112Y00054*
X00113Y00048*
X00116Y00043*
X00121Y0004*
X00127Y00039*
X00132Y0004*
X00134Y00042*
X00167*
Y00028*
X00215*
Y00079*
G37*
G36*
X00603Y00841D02*
X00586D01*
Y0082*
X00603*
Y00841*
G37*
G36*
X00495Y00859D02*
X00489Y00858D01*
X00484Y00855*
X00481Y00851*
X0048Y00845*
X00476Y0084*
X00466*
Y00814*
Y00789*
X00485*
X00491*
X00492Y00789*
X00523*
X00524Y00788*
X00534*
X00535Y00789*
X00536*
Y00789*
X00538Y0079*
X00552Y00803*
X00552Y00803*
X00564Y00815*
X00552Y00826*
X00552Y00826*
X00538Y00839*
X00536Y0084*
Y00841*
X00535*
X00534Y00841*
X00524*
X00523Y00841*
X00515*
X00514Y00842*
X00508Y00848*
X00508Y00851*
X00505Y00855*
X005Y00858*
X00495Y00859*
G37*
G36*
X00332Y00568D02*
X00311D01*
Y00527*
X00332*
Y00568*
G37*
G36*
X00286Y0048D02*
X00266D01*
Y00461*
X00286*
Y0048*
G37*
G36*
X00397Y00698D02*
X00367D01*
Y00641*
X00397*
Y00698*
G37*
G36*
X00332Y00619D02*
X00311D01*
Y00578*
X00332*
Y00619*
G37*
G36*
X00363D02*
X00342D01*
Y00578*
X00363*
Y00619*
G37*
G36*
X00456Y0081D02*
X00437D01*
Y00789*
X00456*
Y0081*
G37*
G36*
X00194Y00327D02*
X00168D01*
Y00296*
X00194*
Y00327*
G37*
G36*
X00603Y0081D02*
X00586D01*
Y00789*
X00603*
Y0081*
G37*
G36*
X00256Y0048D02*
X00235D01*
Y00461*
X00256*
Y0048*
G37*
G36*
X00576Y00841D02*
X00559D01*
Y00835*
X00574*
Y00815*
Y00795*
X00559*
Y00789*
X00576*
Y00814*
Y00841*
G37*
G36*
X00281Y01725D02*
X00274Y01724D01*
X00269Y0172*
X00265Y01715*
X00264Y01709*
X00265Y01702*
X00269Y01697*
X00274Y01693*
X00281Y01692*
X00287Y01693*
X00292Y01697*
X00296Y01702*
X00297Y01709*
X00296Y01715*
X00292Y0172*
X00287Y01724*
X00281Y01725*
G37*
G36*
X00543Y01684D02*
X00523D01*
Y01665*
X00543*
Y01684*
G37*
G36*
X00253Y01713D02*
X00233D01*
Y01694*
X00253*
Y01713*
G37*
G36*
X00164D02*
X00143D01*
Y01694*
X00164*
Y01713*
G37*
G36*
X00492D02*
X00486D01*
X00484*
X00464*
Y01689*
Y01665*
X00484*
X00492*
X00513*
Y01689*
Y01713*
X00492*
G37*
G36*
X00194D02*
D01*
X00174*
Y01689*
Y01665*
X00194*
X00202*
X00223*
Y01689*
Y01713*
X00202*
X00194*
G37*
G36*
X00454Y01684D02*
X00433D01*
Y01665*
X00454*
Y01684*
G37*
G36*
X00253D02*
X00233D01*
Y01665*
X00253*
Y01684*
G37*
G36*
X00357Y01805D02*
X00338D01*
Y01784*
X00357*
Y01805*
G37*
G36*
X00328D02*
X00309D01*
Y01784*
X00328*
Y01805*
G37*
G36*
X00357Y01835D02*
X00338D01*
Y01815*
X00357*
Y01835*
G37*
G36*
X00328D02*
X00309D01*
Y01815*
X00328*
Y01835*
G37*
G36*
X00543Y01713D02*
X00523D01*
Y01694*
X00543*
Y01713*
G37*
G36*
X00454D02*
X00433D01*
Y01694*
X00454*
Y01713*
G37*
G36*
X003Y01811D02*
X00271D01*
Y01781*
X0028Y01783*
X00291Y01791*
X00299Y01802*
X003Y01811*
G37*
G36*
X00261D02*
X00232D01*
X00234Y01802*
X00241Y01791*
X00253Y01783*
X00261Y01781*
Y01811*
G37*
G36*
X00313Y01679D02*
X00306Y01678D01*
X00301Y01674*
X00297Y01669*
X00296Y01663*
X00297Y01656*
X00301Y01651*
X00306Y01647*
X00313Y01646*
X00319Y01647*
X00324Y01651*
X00328Y01656*
X00329Y01663*
X00328Y01669*
X00324Y01674*
X00319Y01678*
X00313Y01679*
G37*
G36*
X00488Y0104D02*
X00467D01*
Y01021*
X00488*
Y0104*
G37*
G36*
X00518D02*
X00498D01*
Y01021*
X00518*
Y0104*
G37*
G36*
X00665Y01266D02*
X00651Y01263D01*
X00639Y01255*
X00631Y01243*
X00628Y0123*
X00631Y01216*
X00639Y01204*
X00651Y01196*
X00665Y01193*
X00678Y01196*
X0069Y01204*
X00698Y01216*
X00701Y0123*
X00698Y01243*
X0069Y01255*
X00678Y01263*
X00665Y01266*
G37*
G36*
X00302Y0104D02*
X00282D01*
Y01021*
X00302*
Y0104*
G37*
G36*
Y01011D02*
X00282D01*
Y00992*
X00302*
Y01011*
G37*
G36*
X00488D02*
X00467D01*
Y00992*
X00488*
Y01011*
G37*
G36*
X00272Y0104D02*
X00251D01*
Y01021*
X00272*
Y0104*
G37*
G36*
X0039Y01303D02*
X00383Y01302D01*
X00378Y01298*
X00374Y01293*
X00373Y01287*
X00374Y0128*
X00378Y01275*
X00383Y01271*
X0039Y0127*
X00396Y01271*
X00401Y01275*
X00405Y0128*
X00406Y01287*
X00405Y01293*
X00401Y01298*
X00396Y01302*
X0039Y01303*
G37*
G36*
X0066Y01565D02*
X00651Y01563D01*
X00639Y01555*
X00631Y01543*
X00629Y01535*
X0066*
Y01565*
G37*
G36*
X0067D02*
Y01535D01*
X007*
X00698Y01543*
X0069Y01555*
X00678Y01563*
X0067Y01565*
G37*
G36*
X00345Y0161D02*
X00339Y01609D01*
X00334Y01606*
X00331Y01601*
X0033Y01596*
X00331Y0159*
X00334Y01585*
X00339Y01582*
X00345Y01581*
X0035Y01582*
X00355Y01585*
X00358Y0159*
X00359Y01596*
X00358Y01601*
X00355Y01606*
X0035Y01609*
X00345Y0161*
G37*
G36*
X007Y01525D02*
X0067D01*
Y01494*
X00678Y01496*
X0069Y01504*
X00698Y01516*
X007Y01525*
G37*
G36*
X0007Y01365D02*
Y01335D01*
X001*
X00098Y01343*
X0009Y01355*
X00078Y01363*
X0007Y01365*
G37*
G36*
X001Y01325D02*
X0007D01*
Y01294*
X00078Y01296*
X0009Y01304*
X00098Y01316*
X001Y01325*
G37*
G36*
X0066Y01525D02*
X00629D01*
X00631Y01516*
X00639Y01504*
X00651Y01496*
X0066Y01494*
Y01525*
G37*
%LNmb1180-3*%
%LPD*%
G36*
X00554Y00815D02*
X00534Y00795D01*
X00524*
Y00835*
X00534*
X00554Y00815*
G37*
G54D10*
X00571Y01014D03*
Y01081D03*
X00571Y00874D03*
Y00941D03*
X00204Y00538D03*
Y00605D03*
X00169Y01603D03*
Y01536D03*
X00272Y00538D03*
Y00605D03*
Y00693D03*
Y0076D03*
G54D11*
X00518Y01752D03*
Y01689D03*
X00459D03*
Y01752D03*
X00228Y01538D03*
Y01601D03*
X00277Y01079D03*
Y01016D03*
X00493Y01079D03*
Y01016D03*
X00261Y00422D03*
Y00485D03*
X00228Y01689D03*
Y01752D03*
X00169Y01689D03*
Y01752D03*
X00204Y00695D03*
Y00758D03*
G54D12*
X00398Y00815D03*
X00461D03*
X00191Y00054D03*
X00254D03*
X00333Y0181D03*
X00396D03*
X00036Y01908D03*
X00099D03*
X00036Y01849D03*
X00099D03*
X00036Y0179D03*
X00099D03*
X00451Y00054D03*
X00388D03*
G54D13*
X00159Y00124D03*
X00254D03*
G54D29*
X00472Y00784D02*
X00645D01*
X00402Y00735D02*
X00419Y00718D01*
X00277Y01803D02*
X00282Y01808D01*
X00459Y01689D02*
X00518D01*
X00461Y00842D02*
X00467Y00848D01*
X00461Y00815D02*
Y00842D01*
X00263Y00605D02*
X00269Y00612D01*
X0026Y00538D02*
X00272D01*
X002Y00477D02*
X0026Y00538D01*
X00199Y00477D02*
X002D01*
X00453Y0151D02*
X00469Y01527D01*
X00453Y01491D02*
Y0151D01*
X00469Y01527D02*
X00481D01*
X00159Y01353D02*
X00197D01*
X00154Y01359D02*
Y0138D01*
Y01359D02*
X00159Y01353D01*
X00487Y01192D02*
X00501Y01206D01*
X00474Y01192D02*
X00487D01*
X00501Y01206D02*
Y01228D01*
X00508Y01235*
X00406Y00356D02*
X0043Y00332D01*
X00576Y01156D02*
X0058D01*
X00551D02*
X00576D01*
Y01119D02*
Y01156D01*
X00551D02*
Y01214D01*
X0058Y01156D02*
X00595Y01171D01*
X00361Y00703D02*
X00402D01*
X0031Y00688D02*
Y00735D01*
X00036Y01908D02*
X00039Y01911D01*
X0012Y0143D02*
X00122Y01432D01*
X00532Y01215D02*
X00549D01*
X00551Y01214*
X00491Y01392D02*
X00532D01*
X00504Y01491D02*
X00517Y01504D01*
Y01527*
X00473Y01491D02*
X00504D01*
X00359Y00688D02*
Y00735D01*
X00473Y01156D02*
X00551D01*
X00315D02*
Y01183D01*
X00296Y01203D02*
X00315Y01183D01*
X00296Y01203D02*
Y01225D01*
X00317Y01234D02*
X00318Y01235D01*
X00317Y01212D02*
Y01234D01*
X00508Y01235D02*
X00532D01*
X00036Y01942D02*
X00046Y01952D01*
X00036Y01908D02*
Y01942D01*
X00099Y01849D02*
X00118D01*
X00104Y01737D02*
Y01738D01*
X0013Y01764*
Y01837*
X00118Y01849D02*
X0013Y01837D01*
X00099Y01908D02*
X00142D01*
X00122Y01432D02*
X00197D01*
X00227Y01922D02*
X00241Y01908D01*
X00395Y01945D02*
X00417D01*
X00381Y01931D02*
X00395Y01945D01*
X00381Y01825D02*
Y01931D01*
Y01825D02*
X00396Y0181D01*
X00272D02*
X00333D01*
X00266Y01816D02*
X00272Y0181D01*
X00518Y01689D02*
X00561D01*
X00169D02*
X00228D01*
X00129D02*
X00169D01*
X00119Y017D02*
X00129Y01689D01*
X00045Y01737D02*
X00046D01*
X00099Y0179*
X00616Y01319D02*
Y01495D01*
X00595Y01298D02*
X00616Y01319D01*
X00595Y01171D02*
Y01298D01*
X00449Y00857D02*
X0045Y00858D01*
X0031Y00735D02*
Y00748D01*
X00375Y0053D02*
X00377Y00529D01*
X0031Y00651D02*
Y00688D01*
Y00651D02*
X00337Y00624D01*
Y00573D02*
Y00624D01*
X00163Y00332D02*
X00165Y00334D01*
X00127Y00054D02*
X00191D01*
X00493Y00981D02*
Y01016D01*
X00492Y0098D02*
X00493Y00981D01*
X00277Y01016D02*
X0029Y01002D01*
Y00994D02*
Y01002D01*
Y00994D02*
X00303Y00982D01*
D01*
X00204Y00758D02*
Y00788D01*
X0019Y00802D02*
X00204Y00788D01*
X00377Y00503D02*
Y00529D01*
X00269Y00612D02*
Y00642D01*
X00256Y00605D02*
X00263D01*
X00204Y00658D02*
X00256Y00605D01*
X00204Y00658D02*
Y00695D01*
X00199Y00422D02*
X00262D01*
X00263Y00422*
X00321*
X00377Y00478*
Y00503*
X00337Y00507D02*
Y00573D01*
X00315Y00485D02*
X00337Y00507D01*
X00263Y00485D02*
X00315D01*
X00514Y00811D02*
Y00816D01*
X00506Y00824D02*
X00514Y00816D01*
X00506Y00824D02*
Y00834D01*
X00495Y00845D02*
X00506Y00834D01*
X00461Y00794D02*
Y00815D01*
Y00794D02*
X00472Y00784D01*
X00135Y00774D02*
Y00791D01*
X00146Y00802*
X0019*
X001Y01392D02*
X00101Y01391D01*
X00164Y01412D02*
X00197D01*
X00154Y0138D02*
Y01402D01*
X00164Y01412*
X00317Y01212D02*
X00335Y01193D01*
Y01156D02*
Y01193D01*
G54D30*
X00433Y0151D02*
X00582Y01659D01*
Y01675*
X00177Y01255D02*
X00197D01*
X00065Y0023D02*
Y00242D01*
X00158Y0075D02*
X00159D01*
X00082Y00682D02*
X0012Y0072D01*
X0063Y01782D02*
X00684Y01836D01*
X00433Y01156D02*
Y01185D01*
X00315Y01295D02*
X0039Y01221D01*
X00217Y01314D02*
X00232Y01329D01*
X00197Y01314D02*
X00217D01*
X00335Y01491D02*
Y01517D01*
X00453Y01129D02*
Y01156D01*
X00532Y01412D02*
X00532Y01412D01*
X00014Y01196D02*
Y01621D01*
Y01196D02*
X0004Y0117D01*
X00014Y01621D02*
X00023Y0163D01*
X00025Y012D02*
Y01492D01*
Y012D02*
X00044Y01181D01*
X00025Y01492D02*
X00063Y0153D01*
X00044Y01181D02*
X0009D01*
X0004Y0117D02*
X00086D01*
X00026Y007D02*
Y00891D01*
X00063Y0153D02*
X00065D01*
X00023Y0163D02*
X00065D01*
X00015Y0098D02*
X00065Y0103D01*
X00026Y00891D02*
X00065Y0093D01*
X00491Y01393D02*
X00491Y01392D01*
X00106Y00671D02*
X00122Y00687D01*
X0004Y00671D02*
X00106D01*
X00015Y00696D02*
X0004Y00671D01*
X00015Y00696D02*
Y0098D01*
X00026Y007D02*
X00044Y00682D01*
X00082*
X00467Y01219D02*
X00478D01*
X00355Y01156D02*
Y01175D01*
X00441Y01277D02*
X00458Y01294D01*
X00532*
X00355Y01175D02*
X00358Y01178D01*
X00197Y01215D02*
X00246D01*
X00296Y01156D02*
Y01182D01*
X00222Y01175D02*
X00237Y0119D01*
X00222Y01118D02*
Y01175D01*
X00256Y01117D02*
Y01156D01*
Y01117D02*
X00257Y01117D01*
X00315Y01295D02*
Y01491D01*
X00289Y0119D02*
X00296Y01182D01*
X00237Y0119D02*
X00289D01*
X00195Y01201D02*
X00257D01*
X00315Y0127D02*
X00319D01*
X00358Y0123*
X00197Y01255D02*
X00224D01*
X00276Y01307*
Y01491*
X00275Y01286D02*
X00296Y01307D01*
Y01491*
X00065Y0143D02*
X00103Y01468D01*
X00309Y01533D02*
X0032D01*
X00335Y01517*
X00646Y0048D02*
X00673D01*
X00169Y01521D02*
Y01556D01*
Y01521D02*
X00232Y01458D01*
Y01329D02*
Y01458D01*
X00103Y01468D02*
Y01569D01*
X00137Y01603*
X00169*
X00228Y01601D02*
X00256D01*
X00582Y01675D02*
X00596Y01689D01*
Y01652D02*
X0063Y01686D01*
Y01782*
X00684Y00386D02*
X00706Y00364D01*
X00665Y0023D02*
X00706Y00271D01*
Y00364*
X00065Y00242D02*
X00121Y00298D01*
Y0037*
X00642Y00386D02*
X00684D01*
X00388Y00054D02*
Y00109D01*
X00451Y00054D02*
X00574D01*
X00603Y00083*
Y00126*
X00452Y00113D02*
X00548D01*
X00665Y0023*
X00607Y00025D02*
X00622Y0004D01*
X00349Y00025D02*
X00607D01*
X00338Y00037D02*
X00349Y00025D01*
X00348Y01078D02*
X00374Y01104D01*
Y01156*
X00394Y01104D02*
Y01156D01*
Y01104D02*
X00422Y01076D01*
X0045Y01079D02*
X00493D01*
X00422Y01052D02*
X0045Y01079D01*
X00422Y01052D02*
Y01076D01*
X00277Y01079D02*
X00319D01*
X00347Y01052*
X00348D02*
Y01078D01*
X00453Y01129D02*
X00463Y01119D01*
X00517*
X00624Y00403D02*
X00642Y00386D01*
X00209Y00395D02*
X00377D01*
X00389Y00383D02*
X0039Y00384D01*
X00211Y00376D02*
X00218Y00383D01*
X00389*
X00278Y00808D02*
Y00811D01*
X00272Y00693D02*
X00273Y00692D01*
X00272Y00673D02*
Y00693D01*
Y00668D02*
Y00673D01*
X00244Y00639D02*
Y00641D01*
X00272Y00668*
X00244Y00639D02*
X00247Y00641D01*
Y00642*
X00175Y00538D02*
X00204D01*
X00161Y00524D02*
X00175Y00538D01*
X00161Y00411D02*
Y00524D01*
Y00411D02*
X00177Y00395D01*
X00209*
X00377D02*
X00394Y00412D01*
Y00617*
X00177Y00605D02*
X00204D01*
X00168Y00596D02*
X00177Y00605D01*
X00172Y01178D02*
X00195Y01201D01*
X00161Y01239D02*
X00177Y01255D01*
X00246Y00798D02*
X00258Y00786D01*
X00065Y0053D02*
X00072D01*
X00052Y00578D02*
X00091D01*
X00108Y00595*
X00121Y0037D02*
X00144Y00393D01*
X00065Y0033D02*
X00133Y00398D01*
X00072Y0053D02*
X00122Y0058D01*
X00133Y00398D02*
Y00636D01*
X00122Y0058D02*
Y00641D01*
X00108Y00595D02*
Y00643D01*
X00144Y00393D02*
Y00631D01*
X00159Y00775D02*
X00174Y00759D01*
X00144Y00631D02*
X00174Y00662D01*
Y00759*
X00108Y00643D02*
X0014Y00675D01*
X00162Y00665D02*
Y00747D01*
X00151Y0067D02*
Y00733D01*
X00122Y00641D02*
X00151Y0067D01*
X00118Y00766D02*
X00151Y00733D01*
X00133Y00636D02*
X00162Y00665D01*
X00159Y0075D02*
X00162Y00747D01*
X0014Y00675D02*
Y00725D01*
X00107Y00758D02*
X0014Y00725D01*
X00396Y00843D02*
X00414Y00861D01*
X00015Y004D02*
Y0058D01*
X00026Y00468D02*
X00065Y0043D01*
X00026Y00468D02*
Y00553D01*
X00052Y00578*
X00015Y004D02*
X0004Y00376D01*
X00015Y0058D02*
X00065Y0063D01*
X00345Y00815D02*
X00398D01*
X00345D02*
D01*
X00624Y00403D02*
Y0073D01*
X00584Y0077D02*
X00624Y0073D01*
X00315Y0077D02*
X00584D01*
X00299Y00786D02*
X00315Y0077D01*
X00258Y00786D02*
X00299D01*
X00512Y00878D02*
X00513Y00877D01*
X00118Y00766D02*
Y00807D01*
X00107Y00758D02*
Y00819D01*
X00118Y00807D02*
X00154Y00843D01*
X00396*
X00107Y00819D02*
X00148Y0086D01*
X00354*
X00065Y0083D02*
X00113Y00878D01*
X00065Y0103D02*
X00099Y00996D01*
X00301Y00948D02*
X00318Y00965D01*
X0024Y00948D02*
X00301D01*
X00262Y00988D02*
X00286Y00965D01*
X00251Y00988D02*
X00262D01*
X00148Y01041D02*
X0024Y00948D01*
X00161Y01059D02*
X00254Y00966D01*
X00161Y01059D02*
Y01239D01*
X00172Y01068D02*
X00251Y00988D01*
X00172Y01068D02*
Y01178D01*
X00099Y00967D02*
Y00996D01*
X00231Y00815D02*
X00278D01*
X00226Y0081D02*
X00231Y00815D01*
X00226Y00792D02*
Y0081D01*
X00236Y00663D02*
Y00781D01*
X00226Y00792D02*
X00236Y00781D01*
X00542Y01014D02*
X00571D01*
X00539Y00874D02*
X00571D01*
X0052Y00893D02*
X00539Y00874D01*
X0053Y01002D02*
X00542Y01014D01*
X00517Y00904D02*
X0053Y00917D01*
Y01002*
X00113Y00878D02*
X00512D01*
X00495Y00915D02*
X00514Y00934D01*
X00065Y0093D02*
X00101Y00893D01*
X00099Y00967D02*
X00161Y00904D01*
X0011Y00976D02*
X0017Y00915D01*
X00101Y00893D02*
X0052D01*
X00161Y00904D02*
X00327D01*
X00517*
X0017Y00915D02*
X00495D01*
X00175Y00926D02*
X00373D01*
X00412Y00965*
X0023Y00937D02*
X00353D01*
X00381Y00965*
X00653Y00941D02*
X00665Y0093D01*
X00532Y01432D02*
Y0146D01*
X00596Y01524*
Y01652*
X00532Y01412D02*
X00555D01*
X00576Y01392*
X0011Y00976D02*
Y01085D01*
X00065Y0113D02*
X0011Y01085D01*
X00086Y0117D02*
X00124Y01132D01*
X0009Y01181D02*
X00136Y01135D01*
X00065Y0123D02*
X00148Y01147D01*
X00124Y00978D02*
X00175Y00926D01*
X00124Y00978D02*
Y01132D01*
X00136Y01032D02*
X0023Y00937D01*
X00136Y01032D02*
Y01135D01*
X00148Y01041D02*
Y01147D01*
X00242Y01491D02*
X00256D01*
X00228Y01506D02*
Y01538D01*
Y01506D02*
X00242Y01491D01*
X00256Y01601D02*
X00273Y01585D01*
Y01539D02*
Y01585D01*
Y01539D02*
X00296Y01516D01*
Y01491D02*
Y01516D01*
X00433Y01491D02*
Y0151D01*
X00246Y01215D02*
X00253Y01222D01*
X00257Y01201D02*
X00275Y01219D01*
Y01286*
X00433Y01185D02*
X00467Y01219D01*
X00358Y01178D02*
Y0123D01*
X00571Y00941D02*
X00598D01*
X00612Y00955*
Y01021*
X00619Y01028*
X00663*
X00665Y0103*
X00571Y01081D02*
X00682D01*
X00708Y01056*
Y00973D02*
Y01056D01*
X00719Y00526D02*
Y01376D01*
X00673Y0048D02*
X00719Y00526D01*
X00665Y0143D02*
X00719Y01376D01*
X00665Y0093D02*
X00708Y00973D01*
G54D31*
X00521Y0021D02*
Y00258D01*
X0043Y00332D02*
Y00573D01*
Y00323D02*
Y00332D01*
Y00573D02*
Y0061D01*
X00463Y00643*
X00169Y01752D02*
X00228D01*
X0031Y01945D02*
X00335D01*
X00354Y01927*
Y01889D02*
Y01927D01*
X00335Y0187D02*
X00354Y01889D01*
X0031Y0187D02*
X00335D01*
X00304Y01864D02*
X0031Y0187D01*
X00241Y01908D02*
X0031D01*
X00417Y0187D02*
X00422Y01865D01*
X00459Y01752D02*
X00519D01*
X00536Y01836D02*
X00584D01*
X00422Y01865D02*
X00507D01*
X00536Y01836*
X00519Y01752D02*
Y01819D01*
X00536Y01836*
X00169Y01752D02*
Y01839D01*
X00194Y01864*
X00304*
X00282Y00323D02*
X0043D01*
X0051Y00199D02*
X00521Y0021D01*
X00418Y00199D02*
X0051D01*
X00588Y0033D02*
X00665D01*
X00572Y00258D02*
Y00275D01*
X00588Y00291*
Y0033*
X00529Y00373D02*
X00605D01*
X00521Y00365D02*
X00529Y00373D01*
X00521Y0033D02*
Y00365D01*
X00166Y0022D02*
X00235D01*
X00273Y00257*
Y00332*
G54D33*
X00326Y00142D02*
Y0022D01*
X00308Y00124D02*
X00326Y00142D01*
X00254Y00124D02*
X00308D01*
X00254Y00054D02*
Y00123D01*
X00254Y00124D02*
X00254Y00123D01*
X00086Y00124D02*
X00159D01*
X00086Y00124D02*
X00086Y00124D01*
X00326Y0022D02*
X00344Y00238D01*
X00419*
G54D34*
X00394Y01491D02*
Y01514D01*
X00414Y01491D02*
Y01514D01*
X00378Y01708D02*
X00397Y01688D01*
X00333Y01703D02*
X00338Y01708D01*
X00378*
X00333Y01727D02*
X00338Y01722D01*
X00383*
X00411Y01694*
X00397Y01517D02*
Y01688D01*
X00394Y01514D02*
X00397Y01517D01*
X00411D02*
Y01694D01*
Y01517D02*
X00414Y01514D01*
G54D35*
X00266Y01816D03*
X00463D03*
G54D36*
X0049Y01922D03*
X00239D03*
G54D37*
X00684Y01936D03*
Y01836D03*
X00584D03*
Y01736D03*
X00065Y0053D03*
Y0043D03*
Y0033D03*
Y0023D03*
Y0063D03*
Y0103D03*
Y0093D03*
Y0083D03*
Y0073D03*
Y0123D03*
Y0133D03*
Y0143D03*
Y0153D03*
Y0113D03*
X00665Y0053D03*
Y0043D03*
Y0033D03*
Y0023D03*
Y0063D03*
Y0103D03*
Y0093D03*
Y0083D03*
Y0073D03*
Y0123D03*
Y0133D03*
Y0143D03*
Y0153D03*
Y0113D03*
G54D38*
X00684Y01736D03*
G54D39*
X00065Y0163D03*
X00665D03*
G54D40*
X00431Y01532D03*
X00033Y01077D03*
X00084Y01076D03*
X00176Y00967D03*
X00136Y01243D03*
X00154Y0138D03*
X0045Y00858D03*
X00414Y00861D03*
X00474Y01192D03*
X00119Y017D03*
Y01648D03*
X00576Y01119D03*
X00619Y01271D03*
X00608Y0054D03*
X00603Y01118D03*
X00632Y00278D03*
X00158Y0075D03*
X0012Y0072D03*
X00159Y00775D03*
X00608Y00486D03*
Y0041D03*
X00616Y01495D03*
X00708Y01684D03*
X00379Y01532D03*
X00708Y01785D03*
X00035Y01576D03*
X00028Y017D03*
X00142Y01953D03*
X00611Y01784D03*
Y01953D03*
X00708Y01885D03*
X00611D03*
X00619Y01198D03*
X00578Y00577D03*
X00036Y00161D03*
X00122Y00687D03*
X00309Y01533D03*
X00045Y01737D03*
X0039Y00384D03*
X0012Y0143D03*
X00253Y01388D03*
X00491Y01393D03*
X00576Y01392D03*
X00441Y01277D03*
X00478Y01275D03*
X00492Y0098D03*
X00381Y00965D03*
X00412D03*
X00222Y01118D03*
X00257Y01117D03*
X00315Y0127D03*
X0012Y01462D03*
X00253Y01309D03*
X00576Y01189D03*
Y0131D03*
X00478Y01363D03*
X0012Y01532D03*
X00184Y01457D03*
X00478Y01313D03*
X00417Y01287D03*
X00253Y01249D03*
X003Y01287D03*
X00194Y01117D03*
X00437Y0098D03*
X00686Y0028D03*
X0069Y01479D03*
X00689Y0138D03*
Y0128D03*
Y01178D03*
X00351Y00982D03*
X00033Y00271D03*
X0004Y00376D03*
X00104Y01737D03*
X00105Y01954D03*
X00046Y01952D03*
X00704Y00481D03*
X00646Y0048D03*
X00142Y01908D03*
X00561Y01689D03*
X00596Y01689D03*
X00547Y01527D03*
X00517D03*
X00477Y01596D03*
X00345D03*
X00303Y00982D03*
X00286Y00965D03*
X00135Y00774D03*
X00377Y00529D03*
X00394Y00617D03*
X00603Y00126D03*
X00113Y00253D03*
X00211Y00376D03*
Y00332D03*
X00539Y00454D03*
X00479D03*
X00317Y00361D03*
X00622Y0004D03*
X00634Y0037D03*
X00127Y00054D03*
X00172Y00017D03*
X00706Y0004D03*
X00661Y00125D03*
X00687Y00187D03*
X00687Y00088D03*
X00599Y00203D03*
X0054Y00165D03*
X00338Y00081D03*
X00338Y00037D03*
X00418Y00166D03*
X00035Y0002D03*
X00204Y00166D03*
X00422Y01721D03*
X0043Y01626D03*
X00376D03*
X00147Y01853D03*
X00365Y01686D03*
X00517Y01119D03*
X00251Y01342D03*
X00495Y00845D03*
X00236Y00663D03*
X00269Y00642D03*
X00247Y00642D03*
X00168Y00596D03*
X00246Y00798D03*
X00645Y00783D03*
X00318Y00965D03*
X00354Y0086D03*
X00513Y00877D03*
X00154Y00979D03*
X00075D03*
X00547Y0098D03*
X00634Y0087D03*
X00254Y00966D03*
X00514Y00934D03*
X00689Y00978D03*
X00644Y00979D03*
X00333Y01703D03*
Y01727D03*
X00481Y01527D03*
X00318Y01235D03*
X00253Y01222D03*
X00296Y01225D03*
X0039Y01221D03*
X00478Y01219D03*
X0044Y0122D03*
X001Y01392D03*
G54D41*
X00463Y00643D03*
X0039Y01287D03*
X006Y00607D03*
X00359Y00688D03*
Y00735D03*
X0031Y00688D03*
Y00735D03*
X00281Y01709D03*
X00313Y01663D03*
X00416Y01762D03*
X0017Y01794D03*
X00086Y00124D03*
X00605Y00373D03*
X00418Y00199D03*
X0034Y01223D03*
G54D42*
X00419Y00238D03*
G54D43*
X00326Y0022D03*
X00166D03*
G54D44*
X00452Y00113D03*
X00385D03*
X00588Y0033D03*
X00521D03*
X00514Y00815D03*
X00581D03*
X00278D03*
X00345D03*
G54D45*
X0043Y00573D03*
X00523D03*
X00337D03*
G54D46*
X0043Y00323D03*
G54D47*
X00163Y00332D03*
X00273D03*
G54D48*
X00402Y00703D03*
X00525D03*
G54D49*
X0031Y0187D03*
Y01945D03*
Y01908D03*
X00417Y01945D03*
Y0187D03*
G54D50*
X00199Y00422D03*
Y00477D03*
G54D51*
X00473Y01491D03*
X00315Y01156D03*
X00473D03*
X00374Y01491D03*
X00315D03*
X00414D03*
X00394D03*
X00256Y01156D03*
Y01491D03*
X00296D03*
X00276D03*
X00355Y01156D03*
X00433Y01491D03*
X00374Y01156D03*
X00394D03*
X00335Y01491D03*
X00453Y01156D03*
X00433D03*
X00355Y01491D03*
X00276Y01156D03*
X00414D03*
X00453Y01491D03*
X00335Y01156D03*
X00296D03*
G54D52*
X00197Y01432D03*
Y01392D03*
X00532Y01274D03*
Y01314D03*
X00197Y01373D03*
X00532Y01255D03*
Y01215D03*
X00197Y01314D03*
Y01215D03*
Y01274D03*
Y01294D03*
Y01255D03*
X00532Y01432D03*
Y01294D03*
X00197Y01235D03*
Y01412D03*
Y01353D03*
X00532Y01235D03*
X00197Y01333D03*
X00532Y01373D03*
Y01392D03*
Y01412D03*
Y01353D03*
Y01333D03*
G54D53*
X00572Y00258D03*
X00521D03*
G54D54*
X00421Y01052D03*
X00347D03*
G54D55*
X00159Y01634D02*
X00256D01*
X00355Y01535*
X00112Y01682D02*
X00159Y01634D01*
X00036Y0179D02*
Y01849D01*
X00026Y0173D02*
Y01779D01*
X00036Y0179*
X00074Y01682D02*
X00112D01*
X00026Y0173D02*
X00074Y01682D01*
X00355Y01491D02*
Y01535D01*
G54D56*
X00525Y00575D02*
Y00703D01*
X00528Y00607D02*
X006D01*
M02*