M48
;Layer_Color=9474304
;FILE_FORMAT=2:3
INCH,LZ
;TYPE=PLATED
T1F00S00C0.008
T2F00S00C0.012
T4F00S00C0.033
T5F00S00C0.035
T6F00S00C0.040
%
T01
X00036Y0002
X00127Y00054
X00172Y00017
X00036Y00161
X00204Y00166
X00418
X00541Y00165
X006Y00204
X00604Y00126
X00661Y00125
X00687Y00089
X00707Y0004
X00622
X00687Y00187
X00339Y00081
X00338Y00037
X00317Y00361
X0039Y00384
X00377Y00529
X00395Y00617
X00269Y00642
X00247Y00642
X00237Y00663
X00247Y00798
X00354Y0086
X00414Y00861
X0045Y00858
X00495Y00846
X00513Y00877
X00514Y00934
X00492Y0098
X00437
X00412Y00965
X00381
X00351Y00982
X00303
X00318Y00965
X00286
X00254Y00966
X00257Y01117
X00222Y01118
X00194Y01117
X00253Y01222
Y01249
Y01309
X00251Y01342
X00253Y01388
X00184Y01457
X00309Y01533
X00379Y01532
X00431
X00481Y01527
X00517
X00547
X00616Y01495
X0069Y01479
X00689Y0138
Y0128
X00619Y01271
Y01198
X00576Y01189
Y01119
X00603Y01118
X00517Y01119
X00474Y01192
X00478Y01219
X0044Y0122
X0039Y01221
X00318Y01235
X00296Y01225
X00315Y0127
X003Y01287
X00417
X00441Y01277
X00478Y01275
Y01313
Y01363
X00491Y01393
X00576Y01392
Y0131
X00689Y01178
Y00978
X00644Y00979
X00547Y0098
X00634Y0087
X00645Y00783
X00578Y00577
X00608Y0054
Y00486
X00646Y0048
X00704Y00481
X00608Y0041
X00634Y0037
X00632Y00278
X00686Y0028
X00539Y00454
X00479
X00211Y00376
Y00332
X00345Y01596
X00376Y01626
X0043
X00477Y01596
X00561Y0169
X00596Y01689
X00611Y01784
X00708Y01786
Y01684
X00423Y01721
X00365Y01686
X00333Y01703
Y01727
X00104Y01737
X00119Y017
Y01648
X0012Y01532
Y01462
Y0143
X001Y01392
X00154Y0138
X00136Y01243
X00084Y01076
X00033Y01077
X00075Y00979
X00154
X00176Y00967
X00159Y00775
X00135Y00774
X00158Y0075
X0012Y0072
X00122Y00687
X00168Y00596
X0004Y00376
X00033Y00271
X00113Y00253
X00035Y01576
X00028Y017
X00045Y01737
X00046Y01952
X00105Y01954
X00142Y01953
Y01908
X00147Y01853
X00611Y01885
Y01953
X00708Y01885
T02
X00086Y00124
X00418Y00199
X00419Y00238
X00605Y00373
X006Y00607
X00463Y00643
X00359Y00688
Y00735
X0031
Y00688
X0034Y01223
X0039Y01287
X00313Y01663
X00281Y01709
X00416Y01763
X00171Y01794
T04
X00267Y01816
X00463
T05
X00584Y01736
X00684
Y01836
Y01936
X00584Y01836
T06
X00065Y0023
X00665
Y0033
Y0043
Y0053
Y0063
Y0073
Y0083
Y0093
Y0103
Y0113
Y0123
Y0133
Y0143
Y0153
Y0163
X00065
Y0153
Y0143
Y0133
Y0123
Y0113
Y0103
Y0093
Y0083
Y0073
Y0063
Y0053
Y0043
Y0033
M30
