%FSTAX23Y23*%
%MOIN*%
%SFA1B1*%

%IPPOS*%
%ADD29C,0.010000*%
%ADD30C,0.005000*%
%ADD34C,0.006000*%
%ADD55C,0.008000*%
%ADD102C,0.006670*%
%ADD103C,0.007000*%
%ADD104C,0.004000*%
%ADD105C,0.011800*%
%ADD106R,0.644000X0.017000*%
%ADD107C,0.005330*%
%LNmb1180-1*%
%LPD*%
G54D29*
X0073Y01992D02*
Y02299D01*
X0Y01992D02*
Y02299D01*
X00604Y02289D02*
X0073D01*
X0D02*
X00093D01*
X0067Y02309D02*
X0073Y02289D01*
X0067Y02269D02*
X0073Y02289D01*
X0D02*
X0006Y02269D01*
X0Y02289D02*
X0006Y02309D01*
X-00166Y0D02*
X-00012D01*
X-00166Y0198D02*
X-00012D01*
X-00156Y0D02*
Y00693D01*
Y01254D02*
Y0198D01*
Y0D02*
X-00136Y0006D01*
X-00176D02*
X-00156Y0D01*
X-00176Y0192D02*
X-00156Y0198D01*
X-00136Y0192*
X00665Y-00323D02*
Y00063D01*
X00065Y-00323D02*
Y00061D01*
X00604Y-00313D02*
X00665D01*
X00065D02*
X00093D01*
X00605Y-00293D02*
X00665Y-00313D01*
X00605Y-00333D02*
X00665Y-00313D01*
X00065D02*
X00125Y-00333D01*
X00065Y-00313D02*
X00125Y-00293D01*
X00065Y-00515D02*
Y00062D01*
X0Y-00515D02*
Y-00012D01*
X-001Y-00505D02*
X0D01*
X00065D02*
X00165D01*
X-0006Y-00485D02*
X0Y-00505D01*
X-0006Y-00525D02*
X0Y-00505D01*
X00065D02*
X00125Y-00525D01*
X00065Y-00505D02*
X00125Y-00485D01*
X02401Y0079D02*
X02968D01*
X02401Y00835D02*
X02968D01*
X01631Y01387D02*
X03294D01*
X01143Y00399D02*
X03766D01*
X01143D02*
Y01522D01*
X03766*
Y00399D02*
Y01522D01*
X02402Y01046D02*
X02969D01*
X02402Y01091D02*
X02969D01*
G54D30*
X00246Y01796D02*
Y01836D01*
X00286*
Y01796*
X00246*
X00443D02*
Y01836D01*
X00483*
Y01796*
X00443*
X00684Y01916D02*
X00664Y01956D01*
X00704*
X00684Y01916*
Y01816D02*
X00664Y01856D01*
X00704*
X00684Y01816*
X00584D02*
X00564Y01856D01*
X00604*
X00584Y01816*
Y01716D02*
X00564Y01756D01*
X00604*
X00584Y01716*
X00684D02*
X00664Y01756D01*
X00704*
X00684Y01716*
X00065Y0051D02*
X00075Y0052D01*
X00085*
X00075Y0053*
X00085Y0054*
X00075*
X00065Y0055*
X00055Y0054*
X00045*
X00055Y0053*
X00045Y0052*
X00055*
X00065Y0051*
Y0041D02*
X00075Y0042D01*
X00085*
X00075Y0043*
X00085Y0044*
X00075*
X00065Y0045*
X00055Y0044*
X00045*
X00055Y0043*
X00045Y0042*
X00055*
X00065Y0041*
Y0031D02*
X00075Y0032D01*
X00085*
X00075Y0033*
X00085Y0034*
X00075*
X00065Y0035*
X00055Y0034*
X00045*
X00055Y0033*
X00045Y0032*
X00055*
X00065Y0031*
Y0021D02*
X00075Y0022D01*
X00085*
X00075Y0023*
X00085Y0024*
X00075*
X00065Y0025*
X00055Y0024*
X00045*
X00055Y0023*
X00045Y0022*
X00055*
X00065Y0021*
Y0061D02*
X00075Y0062D01*
X00085*
X00075Y0063*
X00085Y0064*
X00075*
X00065Y0065*
X00055Y0064*
X00045*
X00055Y0063*
X00045Y0062*
X00055*
X00065Y0061*
Y0101D02*
X00075Y0102D01*
X00085*
X00075Y0103*
X00085Y0104*
X00075*
X00065Y0105*
X00055Y0104*
X00045*
X00055Y0103*
X00045Y0102*
X00055*
X00065Y0101*
Y0091D02*
X00075Y0092D01*
X00085*
X00075Y0093*
X00085Y0094*
X00075*
X00065Y0095*
X00055Y0094*
X00045*
X00055Y0093*
X00045Y0092*
X00055*
X00065Y0091*
Y0081D02*
X00075Y0082D01*
X00085*
X00075Y0083*
X00085Y0084*
X00075*
X00065Y0085*
X00055Y0084*
X00045*
X00055Y0083*
X00045Y0082*
X00055*
X00065Y0081*
Y0071D02*
X00075Y0072D01*
X00085*
X00075Y0073*
X00085Y0074*
X00075*
X00065Y0075*
X00055Y0074*
X00045*
X00055Y0073*
X00045Y0072*
X00055*
X00065Y0071*
Y0121D02*
X00075Y0122D01*
X00085*
X00075Y0123*
X00085Y0124*
X00075*
X00065Y0125*
X00055Y0124*
X00045*
X00055Y0123*
X00045Y0122*
X00055*
X00065Y0121*
Y0131D02*
X00075Y0132D01*
X00085*
X00075Y0133*
X00085Y0134*
X00075*
X00065Y0135*
X00055Y0134*
X00045*
X00055Y0133*
X00045Y0132*
X00055*
X00065Y0131*
Y0141D02*
X00075Y0142D01*
X00085*
X00075Y0143*
X00085Y0144*
X00075*
X00065Y0145*
X00055Y0144*
X00045*
X00055Y0143*
X00045Y0142*
X00055*
X00065Y0141*
Y0151D02*
X00075Y0152D01*
X00085*
X00075Y0153*
X00085Y0154*
X00075*
X00065Y0155*
X00055Y0154*
X00045*
X00055Y0153*
X00045Y0152*
X00055*
X00065Y0151*
Y0161D02*
X00075Y0162D01*
X00085*
X00075Y0163*
X00085Y0164*
X00075*
X00065Y0165*
X00055Y0164*
X00045*
X00055Y0163*
X00045Y0162*
X00055*
X00065Y0161*
Y0111D02*
X00075Y0112D01*
X00085*
X00075Y0113*
X00085Y0114*
X00075*
X00065Y0115*
X00055Y0114*
X00045*
X00055Y0113*
X00045Y0112*
X00055*
X00065Y0111*
X00665Y0051D02*
X00675Y0052D01*
X00685*
X00675Y0053*
X00685Y0054*
X00675*
X00665Y0055*
X00655Y0054*
X00645*
X00655Y0053*
X00645Y0052*
X00655*
X00665Y0051*
Y0041D02*
X00675Y0042D01*
X00685*
X00675Y0043*
X00685Y0044*
X00675*
X00665Y0045*
X00655Y0044*
X00645*
X00655Y0043*
X00645Y0042*
X00655*
X00665Y0041*
Y0031D02*
X00675Y0032D01*
X00685*
X00675Y0033*
X00685Y0034*
X00675*
X00665Y0035*
X00655Y0034*
X00645*
X00655Y0033*
X00645Y0032*
X00655*
X00665Y0031*
Y0021D02*
X00675Y0022D01*
X00685*
X00675Y0023*
X00685Y0024*
X00675*
X00665Y0025*
X00655Y0024*
X00645*
X00655Y0023*
X00645Y0022*
X00655*
X00665Y0021*
Y0061D02*
X00675Y0062D01*
X00685*
X00675Y0063*
X00685Y0064*
X00675*
X00665Y0065*
X00655Y0064*
X00645*
X00655Y0063*
X00645Y0062*
X00655*
X00665Y0061*
Y0101D02*
X00675Y0102D01*
X00685*
X00675Y0103*
X00685Y0104*
X00675*
X00665Y0105*
X00655Y0104*
X00645*
X00655Y0103*
X00645Y0102*
X00655*
X00665Y0101*
Y0091D02*
X00675Y0092D01*
X00685*
X00675Y0093*
X00685Y0094*
X00675*
X00665Y0095*
X00655Y0094*
X00645*
X00655Y0093*
X00645Y0092*
X00655*
X00665Y0091*
Y0081D02*
X00675Y0082D01*
X00685*
X00675Y0083*
X00685Y0084*
X00675*
X00665Y0085*
X00655Y0084*
X00645*
X00655Y0083*
X00645Y0082*
X00655*
X00665Y0081*
Y0071D02*
X00675Y0072D01*
X00685*
X00675Y0073*
X00685Y0074*
X00675*
X00665Y0075*
X00655Y0074*
X00645*
X00655Y0073*
X00645Y0072*
X00655*
X00665Y0071*
Y0121D02*
X00675Y0122D01*
X00685*
X00675Y0123*
X00685Y0124*
X00675*
X00665Y0125*
X00655Y0124*
X00645*
X00655Y0123*
X00645Y0122*
X00655*
X00665Y0121*
Y0131D02*
X00675Y0132D01*
X00685*
X00675Y0133*
X00685Y0134*
X00675*
X00665Y0135*
X00655Y0134*
X00645*
X00655Y0133*
X00645Y0132*
X00655*
X00665Y0131*
Y0141D02*
X00675Y0142D01*
X00685*
X00675Y0143*
X00685Y0144*
X00675*
X00665Y0145*
X00655Y0144*
X00645*
X00655Y0143*
X00645Y0142*
X00655*
X00665Y0141*
Y0151D02*
X00675Y0152D01*
X00685*
X00675Y0153*
X00685Y0154*
X00675*
X00665Y0155*
X00655Y0154*
X00645*
X00655Y0153*
X00645Y0152*
X00655*
X00665Y0151*
Y0161D02*
X00675Y0162D01*
X00685*
X00675Y0163*
X00685Y0164*
X00675*
X00665Y0165*
X00655Y0164*
X00645*
X00655Y0163*
X00645Y0162*
X00655*
X00665Y0161*
Y0111D02*
X00675Y0112D01*
X00685*
X00675Y0113*
X00685Y0114*
X00675*
X00665Y0115*
X00655Y0114*
X00645*
X00655Y0113*
X00645Y0112*
X00655*
X00665Y0111*
X00411Y01512D02*
X00421Y01532D01*
X00411Y01552*
X00431Y01542*
X00451Y01552*
X00441Y01532*
X00451Y01512*
X00431Y01522*
X00411Y01512*
X00013Y01057D02*
X00023Y01077D01*
X00013Y01097*
X00033Y01087*
X00053Y01097*
X00043Y01077*
X00053Y01057*
X00033Y01067*
X00013Y01057*
X00064Y01056D02*
X00074Y01076D01*
X00064Y01096*
X00084Y01086*
X00104Y01096*
X00094Y01076*
X00104Y01056*
X00084Y01066*
X00064Y01056*
X00156Y00947D02*
X00166Y00967D01*
X00156Y00987*
X00176Y00977*
X00196Y00987*
X00186Y00967*
X00196Y00947*
X00176Y00957*
X00156Y00947*
X00116Y01223D02*
X00126Y01243D01*
X00116Y01263*
X00136Y01253*
X00156Y01263*
X00146Y01243*
X00156Y01223*
X00136Y01233*
X00116Y01223*
X00134Y0136D02*
X00144Y0138D01*
X00134Y014*
X00154Y0139*
X00174Y014*
X00164Y0138*
X00174Y0136*
X00154Y0137*
X00134Y0136*
X0043Y00838D02*
X0044Y00858D01*
X0043Y00878*
X0045Y00868*
X0047Y00878*
X0046Y00858*
X0047Y00838*
X0045Y00848*
X0043Y00838*
X00394Y00841D02*
X00404Y00861D01*
X00394Y00881*
X00414Y00871*
X00434Y00881*
X00424Y00861*
X00434Y00841*
X00414Y00851*
X00394Y00841*
X00454Y01172D02*
X00464Y01192D01*
X00454Y01212*
X00474Y01202*
X00494Y01212*
X00484Y01192*
X00494Y01172*
X00474Y01182*
X00454Y01172*
X00099Y0168D02*
X00109Y017D01*
X00099Y0172*
X00119Y0171*
X00139Y0172*
X00129Y017*
X00139Y0168*
X00119Y0169*
X00099Y0168*
Y01628D02*
X00109Y01648D01*
X00099Y01668*
X00119Y01658*
X00139Y01668*
X00129Y01648*
X00139Y01628*
X00119Y01638*
X00099Y01628*
X00556Y01099D02*
X00566Y01119D01*
X00556Y01139*
X00576Y01129*
X00596Y01139*
X00586Y01119*
X00596Y01099*
X00576Y01109*
X00556Y01099*
X00599Y01251D02*
X00609Y01271D01*
X00599Y01291*
X00619Y01281*
X00639Y01291*
X00629Y01271*
X00639Y01251*
X00619Y01261*
X00599Y01251*
X00588Y0052D02*
X00598Y0054D01*
X00588Y0056*
X00608Y0055*
X00628Y0056*
X00618Y0054*
X00628Y0052*
X00608Y0053*
X00588Y0052*
X00583Y01098D02*
X00593Y01118D01*
X00583Y01138*
X00603Y01128*
X00623Y01138*
X00613Y01118*
X00623Y01098*
X00603Y01108*
X00583Y01098*
X00612Y00258D02*
X00622Y00278D01*
X00612Y00298*
X00632Y00288*
X00652Y00298*
X00642Y00278*
X00652Y00258*
X00632Y00268*
X00612Y00258*
X00453Y00633D02*
Y00623D01*
X00473*
Y00633*
X00483*
Y00653*
X00473*
Y00663*
X00453*
Y00653*
X00443*
Y00633*
X00453*
X00138Y0073D02*
X00148Y0075D01*
X00138Y0077*
X00158Y0076*
X00178Y0077*
X00168Y0075*
X00178Y0073*
X00158Y0074*
X00138Y0073*
X001Y007D02*
X0011Y0072D01*
X001Y0074*
X0012Y0073*
X0014Y0074*
X0013Y0072*
X0014Y007*
X0012Y0071*
X001Y007*
X00139Y00755D02*
X00149Y00775D01*
X00139Y00795*
X00159Y00785*
X00179Y00795*
X00169Y00775*
X00179Y00755*
X00159Y00765*
X00139Y00755*
X00588Y00466D02*
X00598Y00486D01*
X00588Y00506*
X00608Y00496*
X00628Y00506*
X00618Y00486*
X00628Y00466*
X00608Y00476*
X00588Y00466*
Y0039D02*
X00598Y0041D01*
X00588Y0043*
X00608Y0042*
X00628Y0043*
X00618Y0041*
X00628Y0039*
X00608Y004*
X00588Y0039*
X00596Y01475D02*
X00606Y01495D01*
X00596Y01515*
X00616Y01505*
X00636Y01515*
X00626Y01495*
X00636Y01475*
X00616Y01485*
X00596Y01475*
X00688Y01664D02*
X00698Y01684D01*
X00688Y01704*
X00708Y01694*
X00728Y01704*
X00718Y01684*
X00728Y01664*
X00708Y01674*
X00688Y01664*
X00359Y01512D02*
X00369Y01532D01*
X00359Y01552*
X00379Y01542*
X00399Y01552*
X00389Y01532*
X00399Y01512*
X00379Y01522*
X00359Y01512*
X00688Y01765D02*
X00698Y01785D01*
X00688Y01805*
X00708Y01795*
X00728Y01805*
X00718Y01785*
X00728Y01765*
X00708Y01775*
X00688Y01765*
X00015Y01556D02*
X00025Y01576D01*
X00015Y01596*
X00035Y01586*
X00055Y01596*
X00045Y01576*
X00055Y01556*
X00035Y01566*
X00015Y01556*
X00008Y0168D02*
X00018Y017D01*
X00008Y0172*
X00028Y0171*
X00048Y0172*
X00038Y017*
X00048Y0168*
X00028Y0169*
X00008Y0168*
X00122Y01933D02*
X00132Y01953D01*
X00122Y01973*
X00142Y01963*
X00162Y01973*
X00152Y01953*
X00162Y01933*
X00142Y01943*
X00122Y01933*
X00591Y01764D02*
X00601Y01784D01*
X00591Y01804*
X00611Y01794*
X00631Y01804*
X00621Y01784*
X00631Y01764*
X00611Y01774*
X00591Y01764*
Y01933D02*
X00601Y01953D01*
X00591Y01973*
X00611Y01963*
X00631Y01973*
X00621Y01953*
X00631Y01933*
X00611Y01943*
X00591Y01933*
X00688Y01865D02*
X00698Y01885D01*
X00688Y01905*
X00708Y01895*
X00728Y01905*
X00718Y01885*
X00728Y01865*
X00708Y01875*
X00688Y01865*
X00591D02*
X00601Y01885D01*
X00591Y01905*
X00611Y01895*
X00631Y01905*
X00621Y01885*
X00631Y01865*
X00611Y01875*
X00591Y01865*
X00599Y01178D02*
X00609Y01198D01*
X00599Y01218*
X00619Y01208*
X00639Y01218*
X00629Y01198*
X00639Y01178*
X00619Y01188*
X00599Y01178*
X00558Y00557D02*
X00568Y00577D01*
X00558Y00597*
X00578Y00587*
X00598Y00597*
X00588Y00577*
X00598Y00557*
X00578Y00567*
X00558Y00557*
X00016Y00141D02*
X00026Y00161D01*
X00016Y00181*
X00036Y00171*
X00056Y00181*
X00046Y00161*
X00056Y00141*
X00036Y00151*
X00016Y00141*
X00102Y00667D02*
X00112Y00687D01*
X00102Y00707*
X00122Y00697*
X00142Y00707*
X00132Y00687*
X00142Y00667*
X00122Y00677*
X00102Y00667*
X00289Y01513D02*
X00299Y01533D01*
X00289Y01553*
X00309Y01543*
X00329Y01553*
X00319Y01533*
X00329Y01513*
X00309Y01523*
X00289Y01513*
X0038Y01277D02*
Y01267D01*
X004*
Y01277*
X0041*
Y01297*
X004*
Y01307*
X0038*
Y01297*
X0037*
Y01277*
X0038*
X00025Y01717D02*
X00035Y01737D01*
X00025Y01757*
X00045Y01747*
X00065Y01757*
X00055Y01737*
X00065Y01717*
X00045Y01727*
X00025Y01717*
X0037Y00364D02*
X0038Y00384D01*
X0037Y00404*
X0039Y00394*
X0041Y00404*
X004Y00384*
X0041Y00364*
X0039Y00374*
X0037Y00364*
X001Y0141D02*
X0011Y0143D01*
X001Y0145*
X0012Y0144*
X0014Y0145*
X0013Y0143*
X0014Y0141*
X0012Y0142*
X001Y0141*
X00233Y01368D02*
X00243Y01388D01*
X00233Y01408*
X00253Y01398*
X00273Y01408*
X00263Y01388*
X00273Y01368*
X00253Y01378*
X00233Y01368*
X00471Y01373D02*
X00481Y01393D01*
X00471Y01413*
X00491Y01403*
X00511Y01413*
X00501Y01393*
X00511Y01373*
X00491Y01383*
X00471Y01373*
X00556Y01372D02*
X00566Y01392D01*
X00556Y01412*
X00576Y01402*
X00596Y01412*
X00586Y01392*
X00596Y01372*
X00576Y01382*
X00556Y01372*
X00421Y01257D02*
X00431Y01277D01*
X00421Y01297*
X00441Y01287*
X00461Y01297*
X00451Y01277*
X00461Y01257*
X00441Y01267*
X00421Y01257*
X00458Y01255D02*
X00468Y01275D01*
X00458Y01295*
X00478Y01285*
X00498Y01295*
X00488Y01275*
X00498Y01255*
X00478Y01265*
X00458Y01255*
X00472Y0096D02*
X00482Y0098D01*
X00472Y01*
X00492Y0099*
X00512Y01*
X00502Y0098*
X00512Y0096*
X00492Y0097*
X00472Y0096*
X00361Y00945D02*
X00371Y00965D01*
X00361Y00985*
X00381Y00975*
X00401Y00985*
X00391Y00965*
X00401Y00945*
X00381Y00955*
X00361Y00945*
X00392D02*
X00402Y00965D01*
X00392Y00985*
X00412Y00975*
X00432Y00985*
X00422Y00965*
X00432Y00945*
X00412Y00955*
X00392Y00945*
X00202Y01098D02*
X00212Y01118D01*
X00202Y01138*
X00222Y01128*
X00242Y01138*
X00232Y01118*
X00242Y01098*
X00222Y01108*
X00202Y01098*
X00237Y01097D02*
X00247Y01117D01*
X00237Y01137*
X00257Y01127*
X00277Y01137*
X00267Y01117*
X00277Y01097*
X00257Y01107*
X00237Y01097*
X00295Y0125D02*
X00305Y0127D01*
X00295Y0129*
X00315Y0128*
X00335Y0129*
X00325Y0127*
X00335Y0125*
X00315Y0126*
X00295Y0125*
X001Y01442D02*
X0011Y01462D01*
X001Y01482*
X0012Y01472*
X0014Y01482*
X0013Y01462*
X0014Y01442*
X0012Y01452*
X001Y01442*
X00233Y01289D02*
X00243Y01309D01*
X00233Y01329*
X00253Y01319*
X00273Y01329*
X00263Y01309*
X00273Y01289*
X00253Y01299*
X00233Y01289*
X00556Y01169D02*
X00566Y01189D01*
X00556Y01209*
X00576Y01199*
X00596Y01209*
X00586Y01189*
X00596Y01169*
X00576Y01179*
X00556Y01169*
Y0129D02*
X00566Y0131D01*
X00556Y0133*
X00576Y0132*
X00596Y0133*
X00586Y0131*
X00596Y0129*
X00576Y013*
X00556Y0129*
X00458Y01343D02*
X00468Y01363D01*
X00458Y01383*
X00478Y01373*
X00498Y01383*
X00488Y01363*
X00498Y01343*
X00478Y01353*
X00458Y01343*
X001Y01512D02*
X0011Y01532D01*
X001Y01552*
X0012Y01542*
X0014Y01552*
X0013Y01532*
X0014Y01512*
X0012Y01522*
X001Y01512*
X00164Y01437D02*
X00174Y01457D01*
X00164Y01477*
X00184Y01467*
X00204Y01477*
X00194Y01457*
X00204Y01437*
X00184Y01447*
X00164Y01437*
X00458Y01293D02*
X00468Y01313D01*
X00458Y01333*
X00478Y01323*
X00498Y01333*
X00488Y01313*
X00498Y01293*
X00478Y01303*
X00458Y01293*
X00397Y01267D02*
X00407Y01287D01*
X00397Y01307*
X00417Y01297*
X00437Y01307*
X00427Y01287*
X00437Y01267*
X00417Y01277*
X00397Y01267*
X00233Y01229D02*
X00243Y01249D01*
X00233Y01269*
X00253Y01259*
X00273Y01269*
X00263Y01249*
X00273Y01229*
X00253Y01239*
X00233Y01229*
X0028Y01267D02*
X0029Y01287D01*
X0028Y01307*
X003Y01297*
X0032Y01307*
X0031Y01287*
X0032Y01267*
X003Y01277*
X0028Y01267*
X00174Y01097D02*
X00184Y01117D01*
X00174Y01137*
X00194Y01127*
X00214Y01137*
X00204Y01117*
X00214Y01097*
X00194Y01107*
X00174Y01097*
X00417Y0096D02*
X00427Y0098D01*
X00417Y01*
X00437Y0099*
X00457Y01*
X00447Y0098*
X00457Y0096*
X00437Y0097*
X00417Y0096*
X00666Y0026D02*
X00676Y0028D01*
X00666Y003*
X00686Y0029*
X00706Y003*
X00696Y0028*
X00706Y0026*
X00686Y0027*
X00666Y0026*
X0067Y01459D02*
X0068Y01479D01*
X0067Y01499*
X0069Y01489*
X0071Y01499*
X007Y01479*
X0071Y01459*
X0069Y01469*
X0067Y01459*
X00669Y0136D02*
X00679Y0138D01*
X00669Y014*
X00689Y0139*
X00709Y014*
X00699Y0138*
X00709Y0136*
X00689Y0137*
X00669Y0136*
Y0126D02*
X00679Y0128D01*
X00669Y013*
X00689Y0129*
X00709Y013*
X00699Y0128*
X00709Y0126*
X00689Y0127*
X00669Y0126*
Y01158D02*
X00679Y01178D01*
X00669Y01198*
X00689Y01188*
X00709Y01198*
X00699Y01178*
X00709Y01158*
X00689Y01168*
X00669Y01158*
X00331Y00962D02*
X00341Y00982D01*
X00331Y01002*
X00351Y00992*
X00371Y01002*
X00361Y00982*
X00371Y00962*
X00351Y00972*
X00331Y00962*
X0059Y00597D02*
Y00587D01*
X0061*
Y00597*
X0062*
Y00617*
X0061*
Y00627*
X0059*
Y00617*
X0058*
Y00597*
X0059*
X00013Y00251D02*
X00023Y00271D01*
X00013Y00291*
X00033Y00281*
X00053Y00291*
X00043Y00271*
X00053Y00251*
X00033Y00261*
X00013Y00251*
X0002Y00356D02*
X0003Y00376D01*
X0002Y00396*
X0004Y00386*
X0006Y00396*
X0005Y00376*
X0006Y00356*
X0004Y00366*
X0002Y00356*
X00084Y01717D02*
X00094Y01737D01*
X00084Y01757*
X00104Y01747*
X00124Y01757*
X00114Y01737*
X00124Y01717*
X00104Y01727*
X00084Y01717*
X00085Y01934D02*
X00095Y01954D01*
X00085Y01974*
X00105Y01964*
X00125Y01974*
X00115Y01954*
X00125Y01934*
X00105Y01944*
X00085Y01934*
X00026Y01932D02*
X00036Y01952D01*
X00026Y01972*
X00046Y01962*
X00066Y01972*
X00056Y01952*
X00066Y01932*
X00046Y01942*
X00026Y01932*
X00684Y00461D02*
X00694Y00481D01*
X00684Y00501*
X00704Y00491*
X00724Y00501*
X00714Y00481*
X00724Y00461*
X00704Y00471*
X00684Y00461*
X00626Y0046D02*
X00636Y0048D01*
X00626Y005*
X00646Y0049*
X00666Y005*
X00656Y0048*
X00666Y0046*
X00646Y0047*
X00626Y0046*
X00122Y01888D02*
X00132Y01908D01*
X00122Y01928*
X00142Y01918*
X00162Y01928*
X00152Y01908*
X00162Y01888*
X00142Y01898*
X00122Y01888*
X00349Y00678D02*
Y00668D01*
X00369*
Y00678*
X00379*
Y00698*
X00369*
Y00708*
X00349*
Y00698*
X00339*
Y00678*
X00349*
Y00725D02*
Y00715D01*
X00369*
Y00725*
X00379*
Y00745*
X00369*
Y00755*
X00349*
Y00745*
X00339*
Y00725*
X00349*
X003Y00678D02*
Y00668D01*
X0032*
Y00678*
X0033*
Y00698*
X0032*
Y00708*
X003*
Y00698*
X0029*
Y00678*
X003*
Y00725D02*
Y00715D01*
X0032*
Y00725*
X0033*
Y00745*
X0032*
Y00755*
X003*
Y00745*
X0029*
Y00725*
X003*
X00271Y01699D02*
Y01689D01*
X00291*
Y01699*
X00301*
Y01719*
X00291*
Y01729*
X00271*
Y01719*
X00261*
Y01699*
X00271*
X00303Y01653D02*
Y01643D01*
X00323*
Y01653*
X00333*
Y01673*
X00323*
Y01683*
X00303*
Y01673*
X00293*
Y01653*
X00303*
X00406Y01752D02*
Y01742D01*
X00426*
Y01752*
X00436*
Y01772*
X00426*
Y01782*
X00406*
Y01772*
X00396*
Y01752*
X00406*
X0016Y01784D02*
Y01774D01*
X0018*
Y01784*
X0019*
Y01804*
X0018*
Y01814*
X0016*
Y01804*
X0015*
Y01784*
X0016*
X00541Y01669D02*
X00551Y01689D01*
X00541Y01709*
X00561Y01699*
X00581Y01709*
X00571Y01689*
X00581Y01669*
X00561Y01679*
X00541Y01669*
X00576Y01669D02*
X00586Y01689D01*
X00576Y01709*
X00596Y01699*
X00616Y01709*
X00606Y01689*
X00616Y01669*
X00596Y01679*
X00576Y01669*
X00527Y01507D02*
X00537Y01527D01*
X00527Y01547*
X00547Y01537*
X00567Y01547*
X00557Y01527*
X00567Y01507*
X00547Y01517*
X00527Y01507*
X00497D02*
X00507Y01527D01*
X00497Y01547*
X00517Y01537*
X00537Y01547*
X00527Y01527*
X00537Y01507*
X00517Y01517*
X00497Y01507*
X00457Y01576D02*
X00467Y01596D01*
X00457Y01616*
X00477Y01606*
X00497Y01616*
X00487Y01596*
X00497Y01576*
X00477Y01586*
X00457Y01576*
X00325D02*
X00335Y01596D01*
X00325Y01616*
X00345Y01606*
X00365Y01616*
X00355Y01596*
X00365Y01576*
X00345Y01586*
X00325Y01576*
X00283Y00962D02*
X00293Y00982D01*
X00283Y01002*
X00303Y00992*
X00323Y01002*
X00313Y00982*
X00323Y00962*
X00303Y00972*
X00283Y00962*
X00266Y00945D02*
X00276Y00965D01*
X00266Y00985*
X00286Y00975*
X00306Y00985*
X00296Y00965*
X00306Y00945*
X00286Y00955*
X00266Y00945*
X00115Y00754D02*
X00125Y00774D01*
X00115Y00794*
X00135Y00784*
X00155Y00794*
X00145Y00774*
X00155Y00754*
X00135Y00764*
X00115Y00754*
X00357Y00509D02*
X00367Y00529D01*
X00357Y00549*
X00377Y00539*
X00397Y00549*
X00387Y00529*
X00397Y00509*
X00377Y00519*
X00357Y00509*
X00374Y00597D02*
X00384Y00617D01*
X00374Y00637*
X00394Y00627*
X00414Y00637*
X00404Y00617*
X00414Y00597*
X00394Y00607*
X00374Y00597*
X00583Y00106D02*
X00593Y00126D01*
X00583Y00146*
X00603Y00136*
X00623Y00146*
X00613Y00126*
X00623Y00106*
X00603Y00116*
X00583Y00106*
X00076Y00114D02*
Y00104D01*
X00096*
Y00114*
X00106*
Y00134*
X00096*
Y00144*
X00076*
Y00134*
X00066*
Y00114*
X00076*
X00093Y00233D02*
X00103Y00253D01*
X00093Y00273*
X00113Y00263*
X00133Y00273*
X00123Y00253*
X00133Y00233*
X00113Y00243*
X00093Y00233*
X00191Y00356D02*
X00201Y00376D01*
X00191Y00396*
X00211Y00386*
X00231Y00396*
X00221Y00376*
X00231Y00356*
X00211Y00366*
X00191Y00356*
Y00312D02*
X00201Y00332D01*
X00191Y00352*
X00211Y00342*
X00231Y00352*
X00221Y00332*
X00231Y00312*
X00211Y00322*
X00191Y00312*
X00519Y00434D02*
X00529Y00454D01*
X00519Y00474*
X00539Y00464*
X00559Y00474*
X00549Y00454*
X00559Y00434*
X00539Y00444*
X00519Y00434*
X00459D02*
X00469Y00454D01*
X00459Y00474*
X00479Y00464*
X00499Y00474*
X00489Y00454*
X00499Y00434*
X00479Y00444*
X00459Y00434*
X00297Y00341D02*
X00307Y00361D01*
X00297Y00381*
X00317Y00371*
X00337Y00381*
X00327Y00361*
X00337Y00341*
X00317Y00351*
X00297Y00341*
X00602Y0002D02*
X00612Y0004D01*
X00602Y0006*
X00622Y0005*
X00642Y0006*
X00632Y0004*
X00642Y0002*
X00622Y0003*
X00602Y0002*
X00614Y0035D02*
X00624Y0037D01*
X00614Y0039*
X00634Y0038*
X00654Y0039*
X00644Y0037*
X00654Y0035*
X00634Y0036*
X00614Y0035*
X00595Y00363D02*
Y00353D01*
X00615*
Y00363*
X00625*
Y00383*
X00615*
Y00393*
X00595*
Y00383*
X00585*
Y00363*
X00595*
X00408Y00189D02*
Y00179D01*
X00428*
Y00189*
X00438*
Y00209*
X00428*
Y00219*
X00408*
Y00209*
X00398*
Y00189*
X00408*
X00107Y00034D02*
X00117Y00054D01*
X00107Y00074*
X00127Y00064*
X00147Y00074*
X00137Y00054*
X00147Y00034*
X00127Y00044*
X00107Y00034*
X00152Y-00003D02*
X00162Y00017D01*
X00152Y00037*
X00172Y00027*
X00192Y00037*
X00182Y00017*
X00192Y-00003*
X00172Y00007*
X00152Y-00003*
X00686Y0002D02*
X00696Y0004D01*
X00686Y0006*
X00706Y0005*
X00726Y0006*
X00716Y0004*
X00726Y0002*
X00706Y0003*
X00686Y0002*
X00641Y00105D02*
X00651Y00125D01*
X00641Y00145*
X00661Y00135*
X00681Y00145*
X00671Y00125*
X00681Y00105*
X00661Y00115*
X00641Y00105*
X00667Y00167D02*
X00677Y00187D01*
X00667Y00207*
X00687Y00197*
X00707Y00207*
X00697Y00187*
X00707Y00167*
X00687Y00177*
X00667Y00167*
X00667Y00068D02*
X00677Y00088D01*
X00667Y00108*
X00687Y00098*
X00707Y00108*
X00697Y00088*
X00707Y00068*
X00687Y00078*
X00667Y00068*
X00579Y00183D02*
X00589Y00203D01*
X00579Y00223*
X00599Y00213*
X00619Y00223*
X00609Y00203*
X00619Y00183*
X00599Y00193*
X00579Y00183*
X0052Y00145D02*
X0053Y00165D01*
X0052Y00185*
X0054Y00175*
X0056Y00185*
X0055Y00165*
X0056Y00145*
X0054Y00155*
X0052Y00145*
X00318Y00061D02*
X00328Y00081D01*
X00318Y00101*
X00338Y00091*
X00358Y00101*
X00348Y00081*
X00358Y00061*
X00338Y00071*
X00318Y00061*
X00318Y00017D02*
X00328Y00037D01*
X00318Y00057*
X00338Y00047*
X00358Y00057*
X00348Y00037*
X00358Y00017*
X00338Y00027*
X00318Y00017*
X00398Y00146D02*
X00408Y00166D01*
X00398Y00186*
X00418Y00176*
X00438Y00186*
X00428Y00166*
X00438Y00146*
X00418Y00156*
X00398Y00146*
X00015Y0D02*
X00025Y0002D01*
X00015Y0004*
X00035Y0003*
X00055Y0004*
X00045Y0002*
X00055Y0*
X00035Y0001*
X00015Y0*
X00184Y00146D02*
X00194Y00166D01*
X00184Y00186*
X00204Y00176*
X00224Y00186*
X00214Y00166*
X00224Y00146*
X00204Y00156*
X00184Y00146*
X00402Y01701D02*
X00412Y01721D01*
X00402Y01741*
X00422Y01731*
X00442Y01741*
X00432Y01721*
X00442Y01701*
X00422Y01711*
X00402Y01701*
X0041Y01606D02*
X0042Y01626D01*
X0041Y01646*
X0043Y01636*
X0045Y01646*
X0044Y01626*
X0045Y01606*
X0043Y01616*
X0041Y01606*
X00356D02*
X00366Y01626D01*
X00356Y01646*
X00376Y01636*
X00396Y01646*
X00386Y01626*
X00396Y01606*
X00376Y01616*
X00356Y01606*
X00127Y01833D02*
X00137Y01853D01*
X00127Y01873*
X00147Y01863*
X00167Y01873*
X00157Y01853*
X00167Y01833*
X00147Y01843*
X00127Y01833*
X00345Y01666D02*
X00355Y01686D01*
X00345Y01706*
X00365Y01696*
X00385Y01706*
X00375Y01686*
X00385Y01666*
X00365Y01676*
X00345Y01666*
X00497Y01099D02*
X00507Y01119D01*
X00497Y01139*
X00517Y01129*
X00537Y01139*
X00527Y01119*
X00537Y01099*
X00517Y01109*
X00497Y01099*
X00409Y00228D02*
Y00218D01*
X00429*
Y00228*
X00439*
Y00248*
X00429*
Y00258*
X00409*
Y00248*
X00399*
Y00228*
X00409*
X00231Y01322D02*
X00241Y01342D01*
X00231Y01362*
X00251Y01352*
X00271Y01362*
X00261Y01342*
X00271Y01322*
X00251Y01332*
X00231Y01322*
X00475Y00825D02*
X00485Y00845D01*
X00475Y00865*
X00495Y00855*
X00515Y00865*
X00505Y00845*
X00515Y00825*
X00495Y00835*
X00475Y00825*
X00216Y00643D02*
X00226Y00663D01*
X00216Y00683*
X00236Y00673*
X00256Y00683*
X00246Y00663*
X00256Y00643*
X00236Y00653*
X00216Y00643*
X00249Y00622D02*
X00259Y00642D01*
X00249Y00662*
X00269Y00652*
X00289Y00662*
X00279Y00642*
X00289Y00622*
X00269Y00632*
X00249Y00622*
X00227Y00622D02*
X00237Y00642D01*
X00227Y00662*
X00247Y00652*
X00267Y00662*
X00257Y00642*
X00267Y00622*
X00247Y00632*
X00227Y00622*
X00148Y00576D02*
X00158Y00596D01*
X00148Y00616*
X00168Y00606*
X00188Y00616*
X00178Y00596*
X00188Y00576*
X00168Y00586*
X00148Y00576*
X00226Y00778D02*
X00236Y00798D01*
X00226Y00818*
X00246Y00808*
X00266Y00818*
X00256Y00798*
X00266Y00778*
X00246Y00788*
X00226Y00778*
X00625Y00763D02*
X00635Y00783D01*
X00625Y00803*
X00645Y00793*
X00665Y00803*
X00655Y00783*
X00665Y00763*
X00645Y00773*
X00625Y00763*
X00298Y00945D02*
X00308Y00965D01*
X00298Y00985*
X00318Y00975*
X00338Y00985*
X00328Y00965*
X00338Y00945*
X00318Y00955*
X00298Y00945*
X00334Y0084D02*
X00344Y0086D01*
X00334Y0088*
X00354Y0087*
X00374Y0088*
X00364Y0086*
X00374Y0084*
X00354Y0085*
X00334Y0084*
X00493Y00857D02*
X00503Y00877D01*
X00493Y00897*
X00513Y00887*
X00533Y00897*
X00523Y00877*
X00533Y00857*
X00513Y00867*
X00493Y00857*
X00134Y00959D02*
X00144Y00979D01*
X00134Y00999*
X00154Y00989*
X00174Y00999*
X00164Y00979*
X00174Y00959*
X00154Y00969*
X00134Y00959*
X00055D02*
X00065Y00979D01*
X00055Y00999*
X00075Y00989*
X00095Y00999*
X00085Y00979*
X00095Y00959*
X00075Y00969*
X00055Y00959*
X00527Y0096D02*
X00537Y0098D01*
X00527Y01*
X00547Y0099*
X00567Y01*
X00557Y0098*
X00567Y0096*
X00547Y0097*
X00527Y0096*
X00614Y0085D02*
X00624Y0087D01*
X00614Y0089*
X00634Y0088*
X00654Y0089*
X00644Y0087*
X00654Y0085*
X00634Y0086*
X00614Y0085*
X00234Y00946D02*
X00244Y00966D01*
X00234Y00986*
X00254Y00976*
X00274Y00986*
X00264Y00966*
X00274Y00946*
X00254Y00956*
X00234Y00946*
X00494Y00914D02*
X00504Y00934D01*
X00494Y00954*
X00514Y00944*
X00534Y00954*
X00524Y00934*
X00534Y00914*
X00514Y00924*
X00494Y00914*
X00669Y00958D02*
X00679Y00978D01*
X00669Y00998*
X00689Y00988*
X00709Y00998*
X00699Y00978*
X00709Y00958*
X00689Y00968*
X00669Y00958*
X00624Y00959D02*
X00634Y00979D01*
X00624Y00999*
X00644Y00989*
X00664Y00999*
X00654Y00979*
X00664Y00959*
X00644Y00969*
X00624Y00959*
X00313Y01683D02*
X00323Y01703D01*
X00313Y01723*
X00333Y01713*
X00353Y01723*
X00343Y01703*
X00353Y01683*
X00333Y01693*
X00313Y01683*
Y01707D02*
X00323Y01727D01*
X00313Y01747*
X00333Y01737*
X00353Y01747*
X00343Y01727*
X00353Y01707*
X00333Y01717*
X00313Y01707*
X00461Y01507D02*
X00471Y01527D01*
X00461Y01547*
X00481Y01537*
X00501Y01547*
X00491Y01527*
X00501Y01507*
X00481Y01517*
X00461Y01507*
X00298Y01215D02*
X00308Y01235D01*
X00298Y01255*
X00318Y01245*
X00338Y01255*
X00328Y01235*
X00338Y01215*
X00318Y01225*
X00298Y01215*
X00233Y01202D02*
X00243Y01222D01*
X00233Y01242*
X00253Y01232*
X00273Y01242*
X00263Y01222*
X00273Y01202*
X00253Y01212*
X00233Y01202*
X00276Y01205D02*
X00286Y01225D01*
X00276Y01245*
X00296Y01235*
X00316Y01245*
X00306Y01225*
X00316Y01205*
X00296Y01215*
X00276Y01205*
X0037Y01201D02*
X0038Y01221D01*
X0037Y01241*
X0039Y01231*
X0041Y01241*
X004Y01221*
X0041Y01201*
X0039Y01211*
X0037Y01201*
X00458Y01199D02*
X00468Y01219D01*
X00458Y01239*
X00478Y01229*
X00498Y01239*
X00488Y01219*
X00498Y01199*
X00478Y01209*
X00458Y01199*
X0042Y012D02*
X0043Y0122D01*
X0042Y0124*
X0044Y0123*
X0046Y0124*
X0045Y0122*
X0046Y012*
X0044Y0121*
X0042Y012*
X0033Y01213D02*
Y01203D01*
X0035*
Y01213*
X0036*
Y01233*
X0035*
Y01243*
X0033*
Y01233*
X0032*
Y01213*
X0033*
X0008Y01372D02*
X0009Y01392D01*
X0008Y01412*
X001Y01402*
X0012Y01412*
X0011Y01392*
X0012Y01372*
X001Y01382*
X0008Y01372*
X0Y0198D02*
X0073D01*
X0Y0D02*
X0073D01*
Y0198*
X0Y0D02*
Y0198D01*
X0116Y00363D02*
Y00324D01*
Y00363D02*
X01186Y00324D01*
Y00363D02*
Y00324D01*
X01207Y0035D02*
X01203Y00348D01*
X01199Y00344*
X01197Y00339*
Y00335*
X01199Y00329*
X01203Y00325*
X01207Y00324*
X01212*
X01216Y00325*
X0122Y00329*
X01222Y00335*
Y00339*
X0122Y00344*
X01216Y00348*
X01212Y0035*
X01207*
X01236Y00363D02*
Y00331D01*
X01238Y00325*
X01242Y00324*
X01246*
X01231Y0035D02*
X01244D01*
X01252Y00339D02*
X01275D01*
Y00343*
X01273Y00346*
X01271Y00348*
X01267Y0035*
X01261*
X01257Y00348*
X01254Y00344*
X01252Y00339*
Y00335*
X01254Y00329*
X01257Y00325*
X01261Y00324*
X01267*
X01271Y00325*
X01275Y00329*
X01304Y00344D02*
X01302Y00348D01*
X01296Y0035*
X01291*
X01285Y00348*
X01283Y00344*
X01285Y00341*
X01289Y00339*
X01298Y00337*
X01302Y00335*
X01304Y00331*
Y00329*
X01302Y00325*
X01296Y00324*
X01291*
X01285Y00325*
X01283Y00329*
X01314Y0035D02*
X01312Y00348D01*
X01314Y00346*
X01316Y00348*
X01314Y0035*
Y00327D02*
X01312Y00325D01*
X01314Y00324*
X01316Y00325*
X01314Y00327*
X0164Y00762D02*
Y00713D01*
Y00762D02*
X01661D01*
X01668Y0076*
X0167Y00758*
X01673Y00753*
Y00748*
X0167Y00744*
X01668Y00741*
X01661Y00739*
X0164D02*
X01661D01*
X01668Y00737*
X0167Y00734*
X01673Y0073*
Y00723*
X0167Y00718*
X01668Y00715*
X01661Y00713*
X0164*
X01698Y00762D02*
X01693Y0076D01*
X01688Y00755*
X01686Y00751*
X01684Y00744*
Y00732*
X01686Y00725*
X01688Y0072*
X01693Y00715*
X01698Y00713*
X01707*
X01712Y00715*
X01716Y0072*
X01719Y00725*
X01721Y00732*
Y00744*
X01719Y00751*
X01716Y00755*
X01712Y0076*
X01707Y00762*
X01698*
X01749D02*
Y00713D01*
X01733Y00762D02*
X01765D01*
X01788D02*
Y00713D01*
X01771Y00762D02*
X01804D01*
X01824D02*
X01819Y0076D01*
X01815Y00755*
X01812Y00751*
X0181Y00744*
Y00732*
X01812Y00725*
X01815Y0072*
X01819Y00715*
X01824Y00713*
X01833*
X01838Y00715*
X01843Y0072*
X01845Y00725*
X01847Y00732*
Y00744*
X01845Y00751*
X01843Y00755*
X01838Y0076*
X01833Y00762*
X01824*
X01859D02*
Y00713D01*
Y00762D02*
X01878Y00713D01*
X01896Y00762D02*
X01878Y00713D01*
X01896Y00762D02*
Y00713D01*
X01949Y00762D02*
Y00713D01*
X01977*
X0202D02*
X02001Y00762D01*
X01983Y00713*
X0199Y0073D02*
X02013D01*
X02031Y00762D02*
X0205Y00739D01*
Y00713*
X02069Y00762D02*
X0205Y00739D01*
X02106Y00762D02*
X02075D01*
Y00713*
X02106*
X02075Y00739D02*
X02094D01*
X02114Y00762D02*
Y00713D01*
Y00762D02*
X02135D01*
X02142Y0076*
X02144Y00758*
X02147Y00753*
Y00748*
X02144Y00744*
X02142Y00741*
X02135Y00739*
X02114*
X0213D02*
X02147Y00713D01*
X0164Y00874D02*
X01661D01*
X01668Y00877*
X0167Y00879*
X01673Y00884*
Y00891*
X0167Y00895*
X01668Y00898*
X01661Y009*
X0164*
Y00851*
X01698Y009D02*
X01693Y00898D01*
X01688Y00893*
X01686Y00888*
X01684Y00881*
Y0087*
X01686Y00863*
X01688Y00858*
X01693Y00853*
X01698Y00851*
X01707*
X01712Y00853*
X01716Y00858*
X01719Y00863*
X01721Y0087*
Y00881*
X01719Y00888*
X01716Y00893*
X01712Y00898*
X01707Y009*
X01698*
X01733D02*
X01744Y00851D01*
X01756Y009D02*
X01744Y00851D01*
X01756Y009D02*
X01768Y00851D01*
X01779Y009D02*
X01768Y00851D01*
X0182Y009D02*
X01789D01*
Y00851*
X0182*
X01789Y00877D02*
X01808D01*
X01828Y009D02*
Y00851D01*
Y009D02*
X01849D01*
X01856Y00898*
X01858Y00895*
X01861Y00891*
Y00886*
X01858Y00881*
X01856Y00879*
X01849Y00877*
X01828*
X01844D02*
X01861Y00851D01*
X01675Y01026D02*
X01673Y01031D01*
X01668Y01036*
X01663Y01038*
X01654*
X01649Y01036*
X01644Y01031*
X01642Y01026*
X0164Y01019*
Y01007*
X01642Y01*
X01644Y00996*
X01649Y00991*
X01654Y00989*
X01663*
X01668Y00991*
X01673Y00996*
X01675Y01*
Y01007*
X01663D02*
X01675D01*
X01686Y01038D02*
Y00989D01*
Y01038D02*
X01719Y00989D01*
Y01038D02*
Y00989D01*
X01733Y01038D02*
Y00989D01*
Y01038D02*
X01749D01*
X01756Y01036*
X01761Y01031*
X01763Y01026*
X01765Y01019*
Y01007*
X01763Y01*
X01761Y00996*
X01756Y00991*
X01749Y00989*
X01733*
X01656Y01156D02*
Y01107D01*
X0164Y01156D02*
X01673D01*
X01692D02*
X01688Y01154D01*
X01683Y01149*
X01681Y01144*
X01678Y01137*
Y01126*
X01681Y01119*
X01683Y01114*
X01688Y01109*
X01692Y01107*
X01702*
X01707Y01109*
X01711Y01114*
X01714Y01119*
X01716Y01126*
Y01137*
X01714Y01144*
X01711Y01149*
X01707Y01154*
X01702Y01156*
X01692*
X01727Y0113D02*
X01748D01*
X01755Y01133*
X01758Y01135*
X0176Y0114*
Y01147*
X01758Y01151*
X01755Y01154*
X01748Y01156*
X01727*
Y01107*
X0181Y01156D02*
Y01107D01*
X01838*
X01881D02*
X01862Y01156D01*
X01843Y01107*
X0185Y01123D02*
X01874D01*
X01892Y01156D02*
X01911Y01133D01*
Y01107*
X0193Y01156D02*
X01911Y01133D01*
X01967Y01156D02*
X01936D01*
Y01107*
X01967*
X01936Y01133D02*
X01955D01*
X01975Y01156D02*
Y01107D01*
Y01156D02*
X01996D01*
X02003Y01154*
X02005Y01151*
X02008Y01147*
Y01142*
X02005Y01137*
X02003Y01135*
X01996Y01133*
X01975*
X01991D02*
X02008Y01107D01*
X02821Y00548D02*
X02816Y00543D01*
X02811Y00536*
X02807Y00526*
X02804Y00515*
Y00505*
X02807Y00494*
X02811Y00484*
X02816Y00477*
X02821Y00473*
X02816Y00543D02*
X02811Y00534D01*
X02809Y00526*
X02807Y00515*
Y00505*
X02809Y00494*
X02811Y00487*
X02816Y00477*
X0283Y00522D02*
Y00473D01*
Y00515D02*
X02835Y00519D01*
X02839Y00522*
X02846*
X02851Y00519*
X02856Y00515*
X02858Y00508*
Y00503*
X02856Y00496*
X02851Y00491*
X02846Y00489*
X02839*
X02835Y00491*
X0283Y00496*
X02869Y00538D02*
Y00489D01*
X02879Y00522D02*
Y00498D01*
X02881Y00491*
X02886Y00489*
X02893*
X02898Y00491*
X02905Y00498*
Y00522D02*
Y00489D01*
X02943Y00515D02*
X02941Y00519D01*
X02934Y00522*
X02927*
X0292Y00519*
X02918Y00515*
X0292Y0051*
X02925Y00508*
X02936Y00505*
X02941Y00503*
X02943Y00498*
Y00496*
X02941Y00491*
X02934Y00489*
X02927*
X0292Y00491*
X02918Y00496*
X03018Y00515D02*
X03016Y00519D01*
X03009Y00522*
X03002*
X02995Y00519*
X02992Y00515*
X02995Y0051*
X02999Y00508*
X03011Y00505*
X03016Y00503*
X03018Y00498*
Y00496*
X03016Y00491*
X03009Y00489*
X03002*
X02995Y00491*
X02992Y00496*
X0304Y00522D02*
X03035Y00519D01*
X03031Y00515*
X03028Y00508*
Y00503*
X03031Y00496*
X03035Y00491*
X0304Y00489*
X03047*
X03052Y00491*
X03057Y00496*
X03059Y00503*
Y00508*
X03057Y00515*
X03052Y00519*
X03047Y00522*
X0304*
X0307Y00538D02*
Y00489D01*
X03108Y00538D02*
Y00489D01*
Y00515D02*
X03103Y00519D01*
X03099Y00522*
X03092*
X03087Y00519*
X03082Y00515*
X0308Y00508*
Y00503*
X03082Y00496*
X03087Y00491*
X03092Y00489*
X03099*
X03103Y00491*
X03108Y00496*
X03121Y00508D02*
X03149D01*
Y00512*
X03147Y00517*
X03145Y00519*
X0314Y00522*
X03133*
X03128Y00519*
X03124Y00515*
X03121Y00508*
Y00503*
X03124Y00496*
X03128Y00491*
X03133Y00489*
X0314*
X03145Y00491*
X03149Y00496*
X0316Y00522D02*
Y00489D01*
Y00508D02*
X03162Y00515D01*
X03167Y00519*
X03172Y00522*
X03179*
X03183D02*
Y00489D01*
Y00512D02*
X0319Y00519D01*
X03195Y00522*
X03202*
X03206Y00519*
X03209Y00512*
Y00489*
Y00512D02*
X03216Y00519D01*
X03221Y00522*
X03228*
X03232Y00519*
X03235Y00512*
Y00489*
X03278Y00522D02*
Y00489D01*
Y00515D02*
X03274Y00519D01*
X03269Y00522*
X03262*
X03257Y00519*
X03252Y00515*
X0325Y00508*
Y00503*
X03252Y00496*
X03257Y00491*
X03262Y00489*
X03269*
X03274Y00491*
X03278Y00496*
X03317Y00515D02*
X03315Y00519D01*
X03308Y00522*
X03301*
X03294Y00519*
X03291Y00515*
X03294Y0051*
X03298Y00508*
X0331Y00505*
X03315Y00503*
X03317Y00498*
Y00496*
X03315Y00491*
X03308Y00489*
X03301*
X03294Y00491*
X03291Y00496*
X03327Y00538D02*
Y00489D01*
X03351Y00522D02*
X03327Y00498D01*
X03337Y00508D02*
X03353Y00489D01*
X03407Y00538D02*
Y00498D01*
X03409Y00491*
X03414Y00489*
X03418*
X034Y00522D02*
X03416D01*
X03425Y00538D02*
Y00489D01*
Y00512D02*
X03432Y00519D01*
X03437Y00522*
X03444*
X03449Y00519*
X03451Y00512*
Y00489*
X03469Y00538D02*
X03471Y00536D01*
X03473Y00538*
X03471Y00541*
X03469Y00538*
X03471Y00522D02*
Y00489D01*
X0351Y00515D02*
X03505Y00519D01*
X03501Y00522*
X03494*
X03489Y00519*
X03484Y00515*
X03482Y00508*
Y00503*
X03484Y00496*
X03489Y00491*
X03494Y00489*
X03501*
X03505Y00491*
X0351Y00496*
X03521Y00538D02*
Y00489D01*
X03544Y00522D02*
X03521Y00498D01*
X0353Y00508D02*
X03546Y00489D01*
X03554Y00522D02*
Y00489D01*
Y00512D02*
X03561Y00519D01*
X03566Y00522*
X03573*
X03578Y00519*
X0358Y00512*
Y00489*
X03593Y00508D02*
X03621D01*
Y00512*
X03619Y00517*
X03616Y00519*
X03612Y00522*
X03605*
X036Y00519*
X03595Y00515*
X03593Y00508*
Y00503*
X03595Y00496*
X036Y00491*
X03605Y00489*
X03612*
X03616Y00491*
X03621Y00496*
X03657Y00515D02*
X03655Y00519D01*
X03648Y00522*
X03641*
X03634Y00519*
X03632Y00515*
X03634Y0051*
X03639Y00508*
X0365Y00505*
X03655Y00503*
X03657Y00498*
Y00496*
X03655Y00491*
X03648Y00489*
X03641*
X03634Y00491*
X03632Y00496*
X03693Y00515D02*
X03691Y00519D01*
X03684Y00522*
X03677*
X0367Y00519*
X03668Y00515*
X0367Y0051*
X03675Y00508*
X03686Y00505*
X03691Y00503*
X03693Y00498*
Y00496*
X03691Y00491*
X03684Y00489*
X03677*
X0367Y00491*
X03668Y00496*
X03704Y00548D02*
X03708Y00543D01*
X03713Y00536*
X03718Y00526*
X0372Y00515*
Y00505*
X03718Y00494*
X03713Y00484*
X03708Y00477*
X03704Y00473*
X03708Y00543D02*
X03713Y00534D01*
X03715Y00526*
X03718Y00515*
Y00505*
X03715Y00494*
X03713Y00487*
X03708Y00477*
X02501Y00533D02*
X02498Y00537D01*
X02491Y0054*
X02487*
X0248Y00537*
X02475Y0053*
X02473Y00519*
Y00507*
X02475Y00498*
X0248Y00493*
X02487Y00491*
X02489*
X02496Y00493*
X02501Y00498*
X02503Y00505*
Y00507*
X02501Y00514*
X02496Y00519*
X02489Y00521*
X02487*
X0248Y00519*
X02475Y00514*
X02473Y00507*
X02518Y0054D02*
X02544D01*
X0253Y00521*
X02537*
X02542Y00519*
X02544Y00516*
X02547Y00509*
Y00505*
X02544Y00498*
X0254Y00493*
X02532Y00491*
X02525*
X02518Y00493*
X02516Y00495*
X02514Y005*
X02558Y00523D02*
Y00491D01*
Y00514D02*
X02565Y00521D01*
X02569Y00523*
X02576*
X02581Y00521*
X02583Y00514*
Y00491*
Y00514D02*
X0259Y00521D01*
X02595Y00523*
X02602*
X02607Y00521*
X02609Y00514*
Y00491*
X02629Y0054D02*
X02632Y00537D01*
X02634Y0054*
X02632Y00542*
X02629Y0054*
X02632Y00523D02*
Y00491D01*
X02643Y0054D02*
Y00491D01*
X01208Y00538D02*
Y00488D01*
X01191Y00538D02*
X01224D01*
X01244D02*
X01239Y00535D01*
X01235Y00531*
X01232Y00526*
X0123Y00519*
Y00507*
X01232Y005*
X01235Y00495*
X01239Y00491*
X01244Y00488*
X01253*
X01258Y00491*
X01263Y00495*
X01265Y005*
X01267Y00507*
Y00519*
X01265Y00526*
X01263Y00531*
X01258Y00535*
X01253Y00538*
X01244*
X01295D02*
Y00488D01*
X01279Y00538D02*
X01312D01*
X01355Y00488D02*
X01336Y00538D01*
X01318Y00488*
X01325Y00505D02*
X01348D01*
X01367Y00538D02*
Y00488D01*
X01395*
X01439Y00538D02*
Y00488D01*
Y00538D02*
X0146D01*
X01467Y00535*
X01469Y00533*
X01471Y00528*
Y00524*
X01469Y00519*
X01467Y00517*
X0146Y00514*
X01439D02*
X0146D01*
X01467Y00512*
X01469Y0051*
X01471Y00505*
Y00498*
X01469Y00493*
X01467Y00491*
X0146Y00488*
X01439*
X01497Y00538D02*
X01492Y00535D01*
X01487Y00531*
X01485Y00526*
X01483Y00519*
Y00507*
X01485Y005*
X01487Y00495*
X01492Y00491*
X01497Y00488*
X01506*
X01511Y00491*
X01515Y00495*
X01518Y005*
X0152Y00507*
Y00519*
X01518Y00526*
X01515Y00531*
X01511Y00535*
X01506Y00538*
X01497*
X01569Y00488D02*
X0155Y00538D01*
X01531Y00488*
X01539Y00505D02*
X01562D01*
X0158Y00538D02*
Y00488D01*
Y00538D02*
X01602D01*
X01609Y00535*
X01611Y00533*
X01613Y00528*
Y00524*
X01611Y00519*
X01609Y00517*
X01602Y00514*
X0158*
X01597D02*
X01613Y00488D01*
X01624Y00538D02*
Y00488D01*
Y00538D02*
X01641D01*
X01648Y00535*
X01652Y00531*
X01655Y00526*
X01657Y00519*
Y00507*
X01655Y005*
X01652Y00495*
X01648Y00491*
X01641Y00488*
X01624*
X01723Y00538D02*
Y00488D01*
X01707Y00538D02*
X0174D01*
X01745D02*
Y00488D01*
X01778Y00538D02*
Y00488D01*
X01745Y00514D02*
X01778D01*
X01792Y00538D02*
Y00488D01*
X01837Y00526D02*
X01835Y00531D01*
X0183Y00535*
X01826Y00538*
X01816*
X01811Y00535*
X01807Y00531*
X01804Y00526*
X01802Y00519*
Y00507*
X01804Y005*
X01807Y00495*
X01811Y00491*
X01816Y00488*
X01826*
X0183Y00491*
X01835Y00495*
X01837Y005*
X01851Y00538D02*
Y00488D01*
X01884Y00538D02*
X01851Y00505D01*
X01863Y00517D02*
X01884Y00488D01*
X01895Y00538D02*
Y00488D01*
Y00538D02*
X01928Y00488D01*
Y00538D02*
Y00488D01*
X01972Y00538D02*
X01941D01*
Y00488*
X01972*
X01941Y00514D02*
X0196D01*
X02013Y00531D02*
X02008Y00535D01*
X02001Y00538*
X01992*
X01985Y00535*
X0198Y00531*
Y00526*
X01982Y00521*
X01985Y00519*
X01989Y00517*
X02003Y00512*
X02008Y0051*
X0201Y00507*
X02013Y00503*
Y00495*
X02008Y00491*
X02001Y00488*
X01992*
X01985Y00491*
X0198Y00495*
X02057Y00531D02*
X02052Y00535D01*
X02045Y00538*
X02035*
X02028Y00535*
X02024Y00531*
Y00526*
X02026Y00521*
X02028Y00519*
X02033Y00517*
X02047Y00512*
X02052Y0051*
X02054Y00507*
X02057Y00503*
Y00495*
X02052Y00491*
X02045Y00488*
X02035*
X02028Y00491*
X02024Y00495*
X0207Y00521D02*
X02068Y00519D01*
X0207Y00517*
X02072Y00519*
X0207Y00521*
Y00493D02*
X02068Y00491D01*
X0207Y00488*
X02072Y00491*
X0207Y00493*
X02159Y00488D02*
X0214Y00538D01*
X02122Y00488*
X02129Y00505D02*
X02152D01*
X02171Y00512D02*
X02192D01*
X02199Y00514*
X02201Y00517*
X02203Y00521*
Y00528*
X02201Y00533*
X02199Y00535*
X02192Y00538*
X02171*
Y00488*
X02214Y00512D02*
X02236D01*
X02243Y00514*
X02245Y00517*
X02247Y00521*
Y00528*
X02245Y00533*
X02243Y00535*
X02236Y00538*
X02214*
Y00488*
X02258Y00538D02*
Y00488D01*
Y00538D02*
X02279D01*
X02286Y00535*
X02289Y00533*
X02291Y00528*
Y00524*
X02289Y00519*
X02286Y00517*
X02279Y00514*
X02258*
X02275D02*
X02291Y00488D01*
X02316Y00538D02*
X02311Y00535D01*
X02307Y00531*
X02304Y00526*
X02302Y00519*
Y00507*
X02304Y005*
X02307Y00495*
X02311Y00491*
X02316Y00488*
X02326*
X0233Y00491*
X02335Y00495*
X02337Y005*
X0234Y00507*
Y00519*
X02337Y00526*
X02335Y00531*
X0233Y00535*
X02326Y00538*
X02316*
X02351D02*
X02384Y00488D01*
Y00538D02*
X02351Y00488D01*
X03047Y01099D02*
X03073D01*
X03059Y0108*
X03066*
X03071Y01078*
X03073Y01076*
X03075Y01069*
Y01064*
X03073Y01057*
X03068Y01052*
X03061Y0105*
X03054*
X03047Y01052*
X03045Y01055*
X03042Y01059*
X03089Y01055D02*
X03086Y01052D01*
X03089Y0105*
X03091Y01052*
X03089Y01055*
X03113Y01099D02*
X03106Y01097D01*
X03104Y01092*
Y01088*
X03106Y01083*
X03111Y0108*
X0312Y01078*
X03127Y01076*
X03132Y01071*
X03134Y01066*
Y01059*
X03132Y01055*
X0313Y01052*
X03123Y0105*
X03113*
X03106Y01052*
X03104Y01055*
X03102Y01059*
Y01066*
X03104Y01071*
X03109Y01076*
X03116Y01078*
X03125Y0108*
X0313Y01083*
X03132Y01088*
Y01092*
X0313Y01097*
X03123Y01099*
X03113*
X03145Y01083D02*
Y0105D01*
Y01073D02*
X03153Y0108D01*
X03157Y01083*
X03164*
X03169Y0108*
X03171Y01073*
Y0105*
Y01073D02*
X03178Y0108D01*
X03183Y01083*
X0319*
X03195Y0108*
X03197Y01073*
Y0105*
X03217Y01099D02*
X0322Y01097D01*
X03222Y01099*
X0322Y01102*
X03217Y01099*
X0322Y01083D02*
Y0105D01*
X03231Y01099D02*
Y0105D01*
X03071Y00972D02*
X03048Y00939D01*
X03083*
X03071Y00972D02*
Y00923D01*
X03122Y00956D02*
X0312Y00949D01*
X03115Y00944*
X03108Y00942*
X03106*
X03099Y00944*
X03094Y00949*
X03092Y00956*
Y00958*
X03094Y00965*
X03099Y0097*
X03106Y00972*
X03108*
X03115Y0097*
X0312Y00965*
X03122Y00956*
Y00944*
X0312Y00932*
X03115Y00925*
X03108Y00923*
X03103*
X03096Y00925*
X03094Y0093*
X03138Y00928D02*
X03136Y00925D01*
X03138Y00923*
X0314Y00925*
X03138Y00928*
X03163Y00972D02*
X03156Y0097D01*
X03153Y00965*
Y00961*
X03156Y00956*
X0316Y00954*
X0317Y00951*
X03177Y00949*
X03181Y00944*
X03184Y00939*
Y00932*
X03181Y00928*
X03179Y00925*
X03172Y00923*
X03163*
X03156Y00925*
X03153Y00928*
X03151Y00932*
Y00939*
X03153Y00944*
X03158Y00949*
X03165Y00951*
X03174Y00954*
X03179Y00956*
X03181Y00961*
Y00965*
X03179Y0097*
X03172Y00972*
X03163*
X03195Y00956D02*
Y00923D01*
Y00947D02*
X03202Y00954D01*
X03206Y00956*
X03214*
X03218Y00954*
X03221Y00947*
Y00923*
Y00947D02*
X03228Y00954D01*
X03232Y00956*
X03239*
X03244Y00954*
X03246Y00947*
Y00923*
X03266Y00972D02*
X03269Y0097D01*
X03271Y00972*
X03269Y00975*
X03266Y00972*
X03269Y00956D02*
Y00923D01*
X0328Y00972D02*
Y00923D01*
X03051Y00843D02*
X03077D01*
X03063Y00825*
X0307*
X03074Y00822*
X03077Y0082*
X03079Y00813*
Y00808*
X03077Y00801*
X03072Y00796*
X03065Y00794*
X03058*
X03051Y00796*
X03049Y00799*
X03046Y00803*
X03092Y00799D02*
X0309Y00796D01*
X03092Y00794*
X03095Y00796*
X03092Y00799*
X03117Y00843D02*
X0311Y00841D01*
X03108Y00836*
Y00832*
X0311Y00827*
X03115Y00825*
X03124Y00822*
X03131Y0082*
X03136Y00815*
X03138Y00811*
Y00803*
X03136Y00799*
X03134Y00796*
X03127Y00794*
X03117*
X0311Y00796*
X03108Y00799*
X03106Y00803*
Y00811*
X03108Y00815*
X03113Y0082*
X0312Y00822*
X03129Y00825*
X03134Y00827*
X03136Y00832*
Y00836*
X03134Y00841*
X03127Y00843*
X03117*
X03149Y00827D02*
Y00794D01*
Y00818D02*
X03156Y00825D01*
X03161Y00827*
X03168*
X03173Y00825*
X03175Y00818*
Y00794*
Y00818D02*
X03182Y00825D01*
X03187Y00827*
X03194*
X03199Y00825*
X03201Y00818*
Y00794*
X03221Y00843D02*
X03223Y00841D01*
X03226Y00843*
X03223Y00846*
X03221Y00843*
X03223Y00827D02*
Y00794D01*
X03234Y00843D02*
Y00794D01*
X0327Y01164D02*
X03275Y01166D01*
X03282Y01173*
Y01124*
X03309Y01129D02*
X03306Y01126D01*
X03309Y01124*
X03311Y01126*
X03309Y01129*
X03345Y01173D02*
X03322Y0114D01*
X03357*
X03345Y01173D02*
Y01124D01*
X03366Y01157D02*
Y01124D01*
Y01147D02*
X03373Y01154D01*
X03377Y01157*
X03384*
X03389Y01154*
X03391Y01147*
Y01124*
Y01147D02*
X03398Y01154D01*
X03403Y01157*
X0341*
X03415Y01154*
X03417Y01147*
Y01124*
X03437Y01173D02*
X0344Y01171D01*
X03442Y01173*
X0344Y01175*
X03437Y01173*
X0344Y01157D02*
Y01124D01*
X03451Y01173D02*
Y01124D01*
X03276Y01022D02*
X03281Y01024D01*
X03288Y01031*
Y00982*
X03315Y00987D02*
X03312Y00984D01*
X03315Y00982*
X03317Y00984*
X03315Y00987*
X03351Y01031D02*
X03328Y00999D01*
X03363*
X03351Y01031D02*
Y00982D01*
X03372Y01015D02*
Y00982D01*
Y01006D02*
X03379Y01013D01*
X03383Y01015*
X0339*
X03395Y01013*
X03397Y01006*
Y00982*
Y01006D02*
X03404Y01013D01*
X03409Y01015*
X03416*
X03421Y01013*
X03423Y01006*
Y00982*
X03443Y01031D02*
X03446Y01029D01*
X03448Y01031*
X03446Y01034*
X03443Y01031*
X03446Y01015D02*
Y00982D01*
X03457Y01031D02*
Y00982D01*
X03274Y00876D02*
X03279Y00879D01*
X03286Y00886*
Y00836*
X03313Y00841D02*
X0331Y00839D01*
X03313Y00836*
X03315Y00839*
X03313Y00841*
X03349Y00886D02*
X03326Y00853D01*
X03361*
X03349Y00886D02*
Y00836D01*
X0337Y00869D02*
Y00836D01*
Y0086D02*
X03377Y00867D01*
X03381Y00869*
X03388*
X03393Y00867*
X03395Y0086*
Y00836*
Y0086D02*
X03402Y00867D01*
X03407Y00869*
X03414*
X03419Y00867*
X03421Y0086*
Y00836*
X03441Y00886D02*
X03444Y00883D01*
X03446Y00886*
X03444Y00888*
X03441Y00886*
X03444Y00869D02*
Y00836D01*
X03455Y00886D02*
Y00836D01*
X0327Y0076D02*
X03275Y00763D01*
X03282Y0077*
Y0072*
X03309Y00725D02*
X03306Y00723D01*
X03309Y0072*
X03311Y00723*
X03309Y00725*
X03345Y0077D02*
X03322Y00737D01*
X03357*
X03345Y0077D02*
Y0072D01*
X03366Y00753D02*
Y0072D01*
Y00744D02*
X03373Y00751D01*
X03377Y00753*
X03384*
X03389Y00751*
X03391Y00744*
Y0072*
Y00744D02*
X03398Y00751D01*
X03403Y00753*
X0341*
X03415Y00751*
X03417Y00744*
Y0072*
X03437Y0077D02*
X0344Y00767D01*
X03442Y0077*
X0344Y00772*
X03437Y0077*
X0344Y00753D02*
Y0072D01*
X03451Y0077D02*
Y0072D01*
X00805Y0223D02*
X00813Y02246D01*
X00805Y02262*
X00821Y02254*
X00837Y02262*
X00829Y02246*
X00837Y0223*
X00821Y02238*
X00805Y0223*
X011Y02258D02*
X01104Y0226D01*
X0111Y02265*
Y02226*
X01149Y02265D02*
X0113Y02239D01*
X01158*
X01149Y02265D02*
Y02226D01*
X01188Y0226D02*
X01186Y02264D01*
X0118Y02265*
X01177*
X01171Y02264*
X01167Y02258*
X01165Y02248*
Y02239*
X01167Y02231*
X01171Y02227*
X01177Y02226*
X01178*
X01184Y02227*
X01188Y02231*
X0119Y02237*
Y02239*
X01188Y02245*
X01184Y02248*
X01178Y0225*
X01177*
X01171Y02248*
X01167Y02245*
X01165Y02239*
X01489Y02265D02*
X01483Y02264D01*
X01481Y0226*
Y02256*
X01483Y02252*
X01487Y0225*
X01495Y02248*
X01501Y02246*
X01504Y02243*
X01506Y02239*
Y02233*
X01504Y02229*
X01502Y02227*
X01497Y02226*
X01489*
X01483Y02227*
X01481Y02229*
X0148Y02233*
Y02239*
X01481Y02243*
X01485Y02246*
X01491Y02248*
X01499Y0225*
X01502Y02252*
X01504Y02256*
Y0226*
X01502Y02264*
X01497Y02265*
X01489*
X01515Y02252D02*
Y02226D01*
Y02245D02*
X01521Y0225D01*
X01525Y02252*
X0153*
X01534Y0225*
X01536Y02245*
Y02226*
Y02245D02*
X01542Y0225D01*
X01546Y02252*
X01551*
X01555Y0225*
X01557Y02245*
Y02226*
X01573Y02265D02*
X01575Y02264D01*
X01577Y02265*
X01575Y02267*
X01573Y02265*
X01575Y02252D02*
Y02226D01*
X01584Y02265D02*
Y02226D01*
X01637Y02273D02*
X01634Y02269D01*
X0163Y02264*
X01626Y02256*
X01624Y02246*
Y02239*
X01626Y02229*
X0163Y02222*
X01634Y02216*
X01637Y02212*
X01634Y02269D02*
X0163Y02262D01*
X01628Y02256*
X01626Y02246*
Y02239*
X01628Y02229*
X0163Y02224*
X01634Y02216*
X01657Y02265D02*
X01651Y02264D01*
X01647Y02258*
X01645Y02248*
Y02243*
X01647Y02233*
X01651Y02227*
X01657Y02226*
X0166*
X01666Y02227*
X0167Y02233*
X01672Y02243*
Y02248*
X0167Y02258*
X01666Y02264*
X0166Y02265*
X01657*
X01683Y02229D02*
X01681Y02227D01*
X01683Y02226*
X01685Y02227*
X01683Y02229*
X01695Y02256D02*
Y02258D01*
X01697Y02262*
X01699Y02264*
X01703Y02265*
X0171*
X01714Y02264*
X01716Y02262*
X01718Y02258*
Y02254*
X01716Y0225*
X01712Y02245*
X01693Y02226*
X0172*
X0174Y02265D02*
X01735Y02264D01*
X01731Y02258*
X01729Y02248*
Y02243*
X01731Y02233*
X01735Y02227*
X0174Y02226*
X01744*
X0175Y02227*
X01754Y02233*
X01756Y02243*
Y02248*
X01754Y02258*
X0175Y02264*
X01744Y02265*
X0174*
X01768D02*
X01789D01*
X01778Y0225*
X01784*
X01787Y02248*
X01789Y02246*
X01791Y02241*
Y02237*
X01789Y02231*
X01785Y02227*
X0178Y02226*
X01774*
X01768Y02227*
X01766Y02229*
X01764Y02233*
X01802Y02256D02*
Y02258D01*
X01804Y02262*
X01806Y02264*
X0181Y02265*
X01817*
X01821Y02264*
X01823Y02262*
X01825Y02258*
Y02254*
X01823Y0225*
X01819Y02245*
X018Y02226*
X01827*
X01836Y02252D02*
Y02226D01*
Y02245D02*
X01841Y0225D01*
X01845Y02252*
X01851*
X01855Y0225*
X01857Y02245*
Y02226*
Y02245D02*
X01862Y0225D01*
X01866Y02252*
X01872*
X01876Y0225*
X01878Y02245*
Y02226*
X0189Y02252D02*
Y02226D01*
Y02245D02*
X01896Y0225D01*
X019Y02252*
X01905*
X01909Y0225*
X01911Y02245*
Y02226*
Y02245D02*
X01917Y0225D01*
X01921Y02252*
X01926*
X0193Y0225*
X01932Y02245*
Y02226*
X01945Y02273D02*
X01948Y02269D01*
X01952Y02264*
X01956Y02256*
X01958Y02246*
Y02239*
X01956Y02229*
X01952Y02222*
X01948Y02216*
X01945Y02212*
X01948Y02269D02*
X01952Y02262D01*
X01954Y02256*
X01956Y02246*
Y02239*
X01954Y02229*
X01952Y02224*
X01948Y02216*
X03347Y02245D02*
X03364D01*
X0337Y02246*
X03372Y02248*
X03374Y02252*
Y02258*
X03372Y02262*
X0337Y02264*
X03364Y02265*
X03347*
Y02226*
X03396Y02265D02*
Y02226D01*
X03383Y02265D02*
X03409D01*
X03414D02*
Y02226D01*
X03441Y02265D02*
Y02226D01*
X03414Y02246D02*
X03441D01*
X03602Y02265D02*
Y02226D01*
Y02265D02*
X03619D01*
X03625Y02264*
X03627Y02262*
X03629Y02258*
Y02254*
X03627Y0225*
X03625Y02248*
X03619Y02246*
X03602*
X03615D02*
X03629Y02226D01*
X03647Y02252D02*
X03643Y0225D01*
X0364Y02246*
X03638Y02241*
Y02237*
X0364Y02231*
X03643Y02227*
X03647Y02226*
X03653*
X03657Y02227*
X03661Y02231*
X03663Y02237*
Y02241*
X03661Y02246*
X03657Y0225*
X03653Y02252*
X03647*
X03671D02*
Y02233D01*
X03673Y02227*
X03677Y02226*
X03683*
X03687Y02227*
X03692Y02233*
Y02252D02*
Y02226D01*
X03703Y02252D02*
Y02226D01*
Y02245D02*
X03708Y0225D01*
X03712Y02252*
X03718*
X03722Y0225*
X03724Y02245*
Y02226*
X03757Y02265D02*
Y02226D01*
Y02246D02*
X03753Y0225D01*
X03749Y02252*
X03744*
X0374Y0225*
X03736Y02246*
X03734Y02241*
Y02237*
X03736Y02231*
X0374Y02227*
X03744Y02226*
X03749*
X03753Y02227*
X03757Y02231*
X00813Y02158D02*
Y0215D01*
X00829*
Y02158*
X00837*
Y02174*
X00829*
Y02182*
X00813*
Y02174*
X00805*
Y02158*
X00813*
X011Y02178D02*
X01104Y0218D01*
X0111Y02185*
Y02146*
X01152Y0218D02*
X01151Y02184D01*
X01145Y02185*
X01141*
X01135Y02184*
X01131Y02178*
X0113Y02168*
Y02159*
X01131Y02151*
X01135Y02147*
X01141Y02146*
X01143*
X01149Y02147*
X01152Y02151*
X01154Y02157*
Y02159*
X01152Y02165*
X01149Y02168*
X01143Y0217*
X01141*
X01135Y02168*
X01131Y02165*
X0113Y02159*
X0148Y02178D02*
X01483Y0218D01*
X01489Y02185*
Y02146*
X01511Y02176D02*
Y02178D01*
X01513Y02182*
X01515Y02184*
X01518Y02185*
X01526*
X0153Y02184*
X01532Y02182*
X01534Y02178*
Y02174*
X01532Y0217*
X01528Y02165*
X01509Y02146*
X01536*
X01545Y02172D02*
Y02146D01*
Y02165D02*
X0155Y0217D01*
X01554Y02172*
X0156*
X01564Y0217*
X01565Y02165*
Y02146*
Y02165D02*
X01571Y0217D01*
X01575Y02172*
X01581*
X01585Y0217*
X01586Y02165*
Y02146*
X01603Y02185D02*
X01605Y02184D01*
X01607Y02185*
X01605Y02187*
X01603Y02185*
X01605Y02172D02*
Y02146D01*
X01614Y02185D02*
Y02146D01*
X01667Y02193D02*
X01663Y02189D01*
X01659Y02184*
X01655Y02176*
X01653Y02166*
Y02159*
X01655Y02149*
X01659Y02142*
X01663Y02136*
X01667Y02132*
X01663Y02189D02*
X01659Y02182D01*
X01657Y02176*
X01655Y02166*
Y02159*
X01657Y02149*
X01659Y02144*
X01663Y02136*
X01686Y02185D02*
X0168Y02184D01*
X01676Y02178*
X01674Y02168*
Y02163*
X01676Y02153*
X0168Y02147*
X01686Y02146*
X0169*
X01695Y02147*
X01699Y02153*
X01701Y02163*
Y02168*
X01699Y02178*
X01695Y02184*
X0169Y02185*
X01686*
X01712Y02149D02*
X0171Y02147D01*
X01712Y02146*
X01714Y02147*
X01712Y02149*
X01726Y02185D02*
X01747D01*
X01736Y0217*
X01742*
X01745Y02168*
X01747Y02166*
X01749Y02161*
Y02157*
X01747Y02151*
X01744Y02147*
X01738Y02146*
X01732*
X01726Y02147*
X01724Y02149*
X01723Y02153*
X0177Y02185D02*
X01764Y02184D01*
X0176Y02178*
X01758Y02168*
Y02163*
X0176Y02153*
X01764Y02147*
X0177Y02146*
X01773*
X01779Y02147*
X01783Y02153*
X01785Y02163*
Y02168*
X01783Y02178*
X01779Y02184*
X01773Y02185*
X0177*
X01813D02*
X01794Y02159D01*
X01822*
X01813Y02185D02*
Y02146D01*
X01839Y02185D02*
X01833Y02184D01*
X01831Y0218*
Y02176*
X01833Y02172*
X01837Y0217*
X01845Y02168*
X0185Y02166*
X01854Y02163*
X01856Y02159*
Y02153*
X01854Y02149*
X01852Y02147*
X01847Y02146*
X01839*
X01833Y02147*
X01831Y02149*
X01829Y02153*
Y02159*
X01831Y02163*
X01835Y02166*
X01841Y02168*
X01848Y0217*
X01852Y02172*
X01854Y02176*
Y0218*
X01852Y02184*
X01847Y02185*
X01839*
X01865Y02172D02*
Y02146D01*
Y02165D02*
X01871Y0217D01*
X01875Y02172*
X0188*
X01884Y0217*
X01886Y02165*
Y02146*
Y02165D02*
X01892Y0217D01*
X01896Y02172*
X01901*
X01905Y0217*
X01907Y02165*
Y02146*
X01919Y02172D02*
Y02146D01*
Y02165D02*
X01925Y0217D01*
X01929Y02172*
X01935*
X01939Y0217*
X0194Y02165*
Y02146*
Y02165D02*
X01946Y0217D01*
X0195Y02172*
X01956*
X01959Y0217*
X01961Y02165*
Y02146*
X01974Y02193D02*
X01978Y02189D01*
X01982Y02184*
X01985Y02176*
X01987Y02166*
Y02159*
X01985Y02149*
X01982Y02142*
X01978Y02136*
X01974Y02132*
X01978Y02189D02*
X01982Y02182D01*
X01983Y02176*
X01985Y02166*
Y02159*
X01983Y02149*
X01982Y02144*
X01978Y02136*
X03347Y02165D02*
X03364D01*
X0337Y02166*
X03372Y02168*
X03374Y02172*
Y02178*
X03372Y02182*
X0337Y02184*
X03364Y02185*
X03347*
Y02146*
X03396Y02185D02*
Y02146D01*
X03383Y02185D02*
X03409D01*
X03414D02*
Y02146D01*
X03441Y02185D02*
Y02146D01*
X03414Y02166D02*
X03441D01*
X03602Y02185D02*
Y02146D01*
Y02185D02*
X03619D01*
X03625Y02184*
X03627Y02182*
X03629Y02178*
Y02174*
X03627Y0217*
X03625Y02168*
X03619Y02166*
X03602*
X03615D02*
X03629Y02146D01*
X03647Y02172D02*
X03643Y0217D01*
X0364Y02166*
X03638Y02161*
Y02157*
X0364Y02151*
X03643Y02147*
X03647Y02146*
X03653*
X03657Y02147*
X03661Y02151*
X03663Y02157*
Y02161*
X03661Y02166*
X03657Y0217*
X03653Y02172*
X03647*
X03671D02*
Y02153D01*
X03673Y02147*
X03677Y02146*
X03683*
X03687Y02147*
X03692Y02153*
Y02172D02*
Y02146D01*
X03703Y02172D02*
Y02146D01*
Y02165D02*
X03708Y0217D01*
X03712Y02172*
X03718*
X03722Y0217*
X03724Y02165*
Y02146*
X03757Y02185D02*
Y02146D01*
Y02166D02*
X03753Y0217D01*
X03749Y02172*
X03744*
X0374Y0217*
X03736Y02166*
X03734Y02161*
Y02157*
X03736Y02151*
X0374Y02147*
X03744Y02146*
X03749*
X03753Y02147*
X03757Y02151*
X00805Y0207D02*
Y02102D01*
X00837*
Y0207*
X00805*
X01102Y02096D02*
Y02098D01*
X01104Y02102*
X01106Y02104*
X0111Y02105*
X01117*
X01121Y02104*
X01123Y02102*
X01125Y02098*
Y02094*
X01123Y0209*
X01119Y02085*
X011Y02066*
X01127*
X01483Y02105D02*
X01504D01*
X01493Y0209*
X01499*
X01502Y02088*
X01504Y02086*
X01506Y02081*
Y02077*
X01504Y02071*
X01501Y02067*
X01495Y02066*
X01489*
X01483Y02067*
X01481Y02069*
X0148Y02073*
X01519Y02105D02*
X0154D01*
X01529Y0209*
X01534*
X01538Y02088*
X0154Y02086*
X01542Y02081*
Y02077*
X0154Y02071*
X01536Y02067*
X0153Y02066*
X01525*
X01519Y02067*
X01517Y02069*
X01515Y02073*
X01553Y02069D02*
X01551Y02067D01*
X01553Y02066*
X01555Y02067*
X01553Y02069*
X01582Y02105D02*
X01563Y02079D01*
X01592*
X01582Y02105D02*
Y02066D01*
X01622Y021D02*
X0162Y02104D01*
X01614Y02105*
X0161*
X01605Y02104*
X01601Y02098*
X01599Y02088*
Y02079*
X01601Y02071*
X01605Y02067*
X0161Y02066*
X01612*
X01618Y02067*
X01622Y02071*
X01624Y02077*
Y02079*
X01622Y02085*
X01618Y02088*
X01612Y0209*
X0161*
X01605Y02088*
X01601Y02085*
X01599Y02079*
X01655Y02105D02*
X01636D01*
X01634Y02088*
X01636Y0209*
X01642Y02092*
X01648*
X01653Y0209*
X01657Y02086*
X01659Y02081*
Y02077*
X01657Y02071*
X01653Y02067*
X01648Y02066*
X01642*
X01636Y02067*
X01634Y02069*
X01633Y02073*
X01668Y02092D02*
Y02066D01*
Y02085D02*
X01674Y0209D01*
X01678Y02092*
X01683*
X01687Y0209*
X01689Y02085*
Y02066*
Y02085D02*
X01695Y0209D01*
X01699Y02092*
X01704*
X01708Y0209*
X0171Y02085*
Y02066*
X01726Y02105D02*
X01728Y02104D01*
X0173Y02105*
X01728Y02107*
X01726Y02105*
X01728Y02092D02*
Y02066D01*
X01737Y02105D02*
Y02066D01*
X0179Y02113D02*
X01787Y02109D01*
X01783Y02104*
X01779Y02096*
X01777Y02086*
Y02079*
X01779Y02069*
X01783Y02062*
X01787Y02056*
X0179Y02052*
X01787Y02109D02*
X01783Y02102D01*
X01781Y02096*
X01779Y02086*
Y02079*
X01781Y02069*
X01783Y02064*
X01787Y02056*
X01809Y02105D02*
X01804Y02104D01*
X018Y02098*
X01798Y02088*
Y02083*
X018Y02073*
X01804Y02067*
X01809Y02066*
X01813*
X01819Y02067*
X01823Y02073*
X01825Y02083*
Y02088*
X01823Y02098*
X01819Y02104*
X01813Y02105*
X01809*
X01836Y02069D02*
X01834Y02067D01*
X01836Y02066*
X01837Y02067*
X01836Y02069*
X01856Y02105D02*
X0185Y02104D01*
X01848Y021*
Y02096*
X0185Y02092*
X01854Y0209*
X01861Y02088*
X01867Y02086*
X01871Y02083*
X01873Y02079*
Y02073*
X01871Y02069*
X01869Y02067*
X01863Y02066*
X01856*
X0185Y02067*
X01848Y02069*
X01846Y02073*
Y02079*
X01848Y02083*
X01852Y02086*
X01858Y02088*
X01865Y0209*
X01869Y02092*
X01871Y02096*
Y021*
X01869Y02104*
X01863Y02105*
X01856*
X01905D02*
X01886D01*
X01884Y02088*
X01886Y0209*
X01891Y02092*
X01897*
X01903Y0209*
X01907Y02086*
X01908Y02081*
Y02077*
X01907Y02071*
X01903Y02067*
X01897Y02066*
X01891*
X01886Y02067*
X01884Y02069*
X01882Y02073*
X01917Y02092D02*
Y02066D01*
Y02085D02*
X01923Y0209D01*
X01927Y02092*
X01933*
X01936Y0209*
X01938Y02085*
Y02066*
Y02085D02*
X01944Y0209D01*
X01948Y02092*
X01954*
X01957Y0209*
X01959Y02085*
Y02066*
X01972Y02092D02*
Y02066D01*
Y02085D02*
X01978Y0209D01*
X01981Y02092*
X01987*
X01991Y0209*
X01993Y02085*
Y02066*
Y02085D02*
X01999Y0209D01*
X02002Y02092*
X02008*
X02012Y0209*
X02014Y02085*
Y02066*
X02026Y02113D02*
X0203Y02109D01*
X02034Y02104*
X02038Y02096*
X0204Y02086*
Y02079*
X02038Y02069*
X02034Y02062*
X0203Y02056*
X02026Y02052*
X0203Y02109D02*
X02034Y02102D01*
X02036Y02096*
X02038Y02086*
Y02079*
X02036Y02069*
X02034Y02064*
X0203Y02056*
X03347Y02085D02*
X03364D01*
X0337Y02086*
X03372Y02088*
X03374Y02092*
Y02098*
X03372Y02102*
X0337Y02104*
X03364Y02105*
X03347*
Y02066*
X03396Y02105D02*
Y02066D01*
X03383Y02105D02*
X03409D01*
X03414D02*
Y02066D01*
X03441Y02105D02*
Y02066D01*
X03414Y02086D02*
X03441D01*
X03602Y02105D02*
Y02066D01*
Y02105D02*
X03619D01*
X03625Y02104*
X03627Y02102*
X03629Y02098*
Y02094*
X03627Y0209*
X03625Y02088*
X03619Y02086*
X03602*
X03615D02*
X03629Y02066D01*
X03647Y02092D02*
X03643Y0209D01*
X0364Y02086*
X03638Y02081*
Y02077*
X0364Y02071*
X03643Y02067*
X03647Y02066*
X03653*
X03657Y02067*
X03661Y02071*
X03663Y02077*
Y02081*
X03661Y02086*
X03657Y0209*
X03653Y02092*
X03647*
X03671D02*
Y02073D01*
X03673Y02067*
X03677Y02066*
X03683*
X03687Y02067*
X03692Y02073*
Y02092D02*
Y02066D01*
X03703Y02092D02*
Y02066D01*
Y02085D02*
X03708Y0209D01*
X03712Y02092*
X03718*
X03722Y0209*
X03724Y02085*
Y02066*
X03757Y02105D02*
Y02066D01*
Y02086D02*
X03753Y0209D01*
X03749Y02092*
X03744*
X0374Y0209*
X03736Y02086*
X03734Y02081*
Y02077*
X03736Y02071*
X0374Y02067*
X03744Y02066*
X03749*
X03753Y02067*
X03757Y02071*
X00821Y0199D02*
X00805Y02022D01*
X00837*
X00821Y0199*
X01123Y02025D02*
X01104D01*
X01102Y02008*
X01104Y0201*
X0111Y02012*
X01115*
X01121Y0201*
X01125Y02006*
X01127Y02001*
Y01997*
X01125Y01991*
X01121Y01987*
X01115Y01986*
X0111*
X01104Y01987*
X01102Y01989*
X011Y01993*
X01483Y02025D02*
X01504D01*
X01493Y0201*
X01499*
X01502Y02008*
X01504Y02006*
X01506Y02001*
Y01997*
X01504Y01991*
X01501Y01987*
X01495Y01986*
X01489*
X01483Y01987*
X01481Y01989*
X0148Y01993*
X01538Y02025D02*
X01519D01*
X01517Y02008*
X01519Y0201*
X01525Y02012*
X0153*
X01536Y0201*
X0154Y02006*
X01542Y02001*
Y01997*
X0154Y01991*
X01536Y01987*
X0153Y01986*
X01525*
X01519Y01987*
X01517Y01989*
X01515Y01993*
X01553Y01989D02*
X01551Y01987D01*
X01553Y01986*
X01555Y01987*
X01553Y01989*
X01582Y02025D02*
X01563Y01999D01*
X01592*
X01582Y02025D02*
Y01986D01*
X01603Y02025D02*
X01624D01*
X01612Y0201*
X01618*
X01622Y02008*
X01624Y02006*
X01626Y02001*
Y01997*
X01624Y01991*
X0162Y01987*
X01614Y01986*
X01609*
X01603Y01987*
X01601Y01989*
X01599Y01993*
X01638Y02025D02*
X01659D01*
X01648Y0201*
X01654*
X01657Y02008*
X01659Y02006*
X01661Y02001*
Y01997*
X01659Y01991*
X01656Y01987*
X0165Y01986*
X01644*
X01638Y01987*
X01637Y01989*
X01635Y01993*
X0167Y02012D02*
Y01986D01*
Y02005D02*
X01676Y0201D01*
X0168Y02012*
X01685*
X01689Y0201*
X01691Y02005*
Y01986*
Y02005D02*
X01697Y0201D01*
X01701Y02012*
X01706*
X0171Y0201*
X01712Y02005*
Y01986*
X01728Y02025D02*
X0173Y02024D01*
X01732Y02025*
X0173Y02027*
X01728Y02025*
X0173Y02012D02*
Y01986D01*
X01739Y02025D02*
Y01986D01*
X01792Y02033D02*
X01789Y02029D01*
X01785Y02024*
X01781Y02016*
X01779Y02006*
Y01999*
X01781Y01989*
X01785Y01982*
X01789Y01976*
X01792Y01972*
X01789Y02029D02*
X01785Y02022D01*
X01783Y02016*
X01781Y02006*
Y01999*
X01783Y01989*
X01785Y01984*
X01789Y01976*
X01812Y02025D02*
X01806Y02024D01*
X01802Y02018*
X018Y02008*
Y02003*
X01802Y01993*
X01806Y01987*
X01812Y01986*
X01815*
X01821Y01987*
X01825Y01993*
X01827Y02003*
Y02008*
X01825Y02018*
X01821Y02024*
X01815Y02025*
X01812*
X01838Y01989D02*
X01836Y01987D01*
X01838Y01986*
X0184Y01987*
X01838Y01989*
X01873Y02012D02*
X01871Y02006D01*
X01867Y02003*
X01862Y02001*
X0186*
X01854Y02003*
X0185Y02006*
X01848Y02012*
Y02014*
X0185Y0202*
X01854Y02024*
X0186Y02025*
X01862*
X01867Y02024*
X01871Y0202*
X01873Y02012*
Y02003*
X01871Y01993*
X01867Y01987*
X01862Y01986*
X01858*
X01852Y01987*
X0185Y01991*
X01884Y02012D02*
Y01986D01*
Y02005D02*
X0189Y0201D01*
X01893Y02012*
X01899*
X01903Y0201*
X01905Y02005*
Y01986*
Y02005D02*
X01911Y0201D01*
X01914Y02012*
X0192*
X01924Y0201*
X01926Y02005*
Y01986*
X01938Y02012D02*
Y01986D01*
Y02005D02*
X01944Y0201D01*
X01948Y02012*
X01954*
X01957Y0201*
X01959Y02005*
Y01986*
Y02005D02*
X01965Y0201D01*
X01969Y02012*
X01975*
X01978Y0201*
X0198Y02005*
Y01986*
X01993Y02033D02*
X01997Y02029D01*
X02Y02024*
X02004Y02016*
X02006Y02006*
Y01999*
X02004Y01989*
X02Y01982*
X01997Y01976*
X01993Y01972*
X01997Y02029D02*
X02Y02022D01*
X02002Y02016*
X02004Y02006*
Y01999*
X02002Y01989*
X02Y01984*
X01997Y01976*
X03347Y02005D02*
X03364D01*
X0337Y02006*
X03372Y02008*
X03374Y02012*
Y02018*
X03372Y02022*
X0337Y02024*
X03364Y02025*
X03347*
Y01986*
X03396Y02025D02*
Y01986D01*
X03383Y02025D02*
X03409D01*
X03414D02*
Y01986D01*
X03441Y02025D02*
Y01986D01*
X03414Y02006D02*
X03441D01*
X03602Y02025D02*
Y01986D01*
Y02025D02*
X03619D01*
X03625Y02024*
X03627Y02022*
X03629Y02018*
Y02014*
X03627Y0201*
X03625Y02008*
X03619Y02006*
X03602*
X03615D02*
X03629Y01986D01*
X03647Y02012D02*
X03643Y0201D01*
X0364Y02006*
X03638Y02001*
Y01997*
X0364Y01991*
X03643Y01987*
X03647Y01986*
X03653*
X03657Y01987*
X03661Y01991*
X03663Y01997*
Y02001*
X03661Y02006*
X03657Y0201*
X03653Y02012*
X03647*
X03671D02*
Y01993D01*
X03673Y01987*
X03677Y01986*
X03683*
X03687Y01987*
X03692Y01993*
Y02012D02*
Y01986D01*
X03703Y02012D02*
Y01986D01*
Y02005D02*
X03708Y0201D01*
X03712Y02012*
X03718*
X03722Y0201*
X03724Y02005*
Y01986*
X03757Y02025D02*
Y01986D01*
Y02006D02*
X03753Y0201D01*
X03749Y02012*
X03744*
X0374Y0201*
X03736Y02006*
X03734Y02001*
Y01997*
X03736Y01991*
X0374Y01987*
X03744Y01986*
X03749*
X03753Y01987*
X03757Y01991*
X00821Y0191D02*
X00829Y01918D01*
X00837*
X00829Y01926*
X00837Y01934*
X00829*
X00821Y01942*
X00813Y01934*
X00805*
X00813Y01926*
X00805Y01918*
X00813*
X00821Y0191*
X01104Y01945D02*
X01125D01*
X01114Y0193*
X01119*
X01123Y01928*
X01125Y01926*
X01127Y01921*
Y01917*
X01125Y01911*
X01121Y01907*
X01115Y01906*
X0111*
X01104Y01907*
X01102Y01909*
X011Y01913*
X01147Y01945D02*
X01142Y01944D01*
X01138Y01938*
X01136Y01928*
Y01923*
X01138Y01913*
X01142Y01907*
X01147Y01906*
X01151*
X01157Y01907*
X01161Y01913*
X01163Y01923*
Y01928*
X01161Y01938*
X01157Y01944*
X01151Y01945*
X01147*
X01499D02*
X0148Y01919D01*
X01508*
X01499Y01945D02*
Y01906D01*
X01527Y01945D02*
X01521Y01944D01*
X01517Y01938*
X01515Y01928*
Y01923*
X01517Y01913*
X01521Y01907*
X01527Y01906*
X0153*
X01536Y01907*
X0154Y01913*
X01542Y01923*
Y01928*
X0154Y01938*
X01536Y01944*
X0153Y01945*
X01527*
X01553Y01909D02*
X01551Y01907D01*
X01553Y01906*
X01555Y01907*
X01553Y01909*
X01563Y01938D02*
X01567Y0194D01*
X01573Y01945*
Y01906*
X01616Y01945D02*
X01597D01*
X01595Y01928*
X01597Y0193*
X01602Y01932*
X01608*
X01614Y0193*
X01617Y01926*
X01619Y01921*
Y01917*
X01617Y01911*
X01614Y01907*
X01608Y01906*
X01602*
X01597Y01907*
X01595Y01909*
X01593Y01913*
X01655Y01945D02*
X01636Y01906D01*
X01628Y01945D02*
X01655D01*
X01664Y01932D02*
Y01906D01*
Y01925D02*
X0167Y0193D01*
X01673Y01932*
X01679*
X01683Y0193*
X01685Y01925*
Y01906*
Y01925D02*
X01691Y0193D01*
X01694Y01932*
X017*
X01704Y0193*
X01706Y01925*
Y01906*
X01722Y01945D02*
X01724Y01944D01*
X01726Y01945*
X01724Y01947*
X01722Y01945*
X01724Y01932D02*
Y01906D01*
X01733Y01945D02*
Y01906D01*
X01786Y01953D02*
X01782Y01949D01*
X01779Y01944*
X01775Y01936*
X01773Y01926*
Y01919*
X01775Y01909*
X01779Y01902*
X01782Y01896*
X01786Y01892*
X01782Y01949D02*
X01779Y01942D01*
X01777Y01936*
X01775Y01926*
Y01919*
X01777Y01909*
X01779Y01904*
X01782Y01896*
X01794Y01938D02*
X01798Y0194D01*
X01803Y01945*
Y01906*
X01825Y01909D02*
X01823Y01907D01*
X01825Y01906*
X01827Y01907*
X01825Y01909*
X01847Y01945D02*
X01841Y01944D01*
X01838Y01938*
X01836Y01928*
Y01923*
X01838Y01913*
X01841Y01907*
X01847Y01906*
X01851*
X01857Y01907*
X0186Y01913*
X01862Y01923*
Y01928*
X0186Y01938*
X01857Y01944*
X01851Y01945*
X01847*
X01873Y01936D02*
Y01938D01*
X01875Y01942*
X01877Y01944*
X01881Y01945*
X01888*
X01892Y01944*
X01894Y01942*
X01896Y01938*
Y01934*
X01894Y0193*
X0189Y01925*
X01871Y01906*
X01898*
X01907Y01932D02*
Y01906D01*
Y01925D02*
X01913Y0193D01*
X01916Y01932*
X01922*
X01926Y0193*
X01928Y01925*
Y01906*
Y01925D02*
X01934Y0193D01*
X01937Y01932*
X01943*
X01947Y0193*
X01949Y01925*
Y01906*
X01961Y01932D02*
Y01906D01*
Y01925D02*
X01967Y0193D01*
X01971Y01932*
X01977*
X0198Y0193*
X01982Y01925*
Y01906*
Y01925D02*
X01988Y0193D01*
X01992Y01932*
X01998*
X02001Y0193*
X02003Y01925*
Y01906*
X02016Y01953D02*
X0202Y01949D01*
X02023Y01944*
X02027Y01936*
X02029Y01926*
Y01919*
X02027Y01909*
X02023Y01902*
X0202Y01896*
X02016Y01892*
X0202Y01949D02*
X02023Y01942D01*
X02025Y01936*
X02027Y01926*
Y01919*
X02025Y01909*
X02023Y01904*
X0202Y01896*
X03347Y01925D02*
X03364D01*
X0337Y01926*
X03372Y01928*
X03374Y01932*
Y01938*
X03372Y01942*
X0337Y01944*
X03364Y01945*
X03347*
Y01906*
X03396Y01945D02*
Y01906D01*
X03383Y01945D02*
X03409D01*
X03414D02*
Y01906D01*
X03441Y01945D02*
Y01906D01*
X03414Y01926D02*
X03441D01*
X03602Y01945D02*
Y01906D01*
Y01945D02*
X03619D01*
X03625Y01944*
X03627Y01942*
X03629Y01938*
Y01934*
X03627Y0193*
X03625Y01928*
X03619Y01926*
X03602*
X03615D02*
X03629Y01906D01*
X03647Y01932D02*
X03643Y0193D01*
X0364Y01926*
X03638Y01921*
Y01917*
X0364Y01911*
X03643Y01907*
X03647Y01906*
X03653*
X03657Y01907*
X03661Y01911*
X03663Y01917*
Y01921*
X03661Y01926*
X03657Y0193*
X03653Y01932*
X03647*
X03671D02*
Y01913D01*
X03673Y01907*
X03677Y01906*
X03683*
X03687Y01907*
X03692Y01913*
Y01932D02*
Y01906D01*
X03703Y01932D02*
Y01906D01*
Y01925D02*
X03708Y0193D01*
X03712Y01932*
X03718*
X03722Y0193*
X03724Y01925*
Y01906*
X03757Y01945D02*
Y01906D01*
Y01926D02*
X03753Y0193D01*
X03749Y01932*
X03744*
X0374Y0193*
X03736Y01926*
X03734Y01921*
Y01917*
X03736Y01911*
X0374Y01907*
X03744Y01906*
X03749*
X03753Y01907*
X03757Y01911*
X01102Y01856D02*
Y01858D01*
X01104Y01862*
X01106Y01864*
X0111Y01865*
X01117*
X01121Y01864*
X01123Y01862*
X01125Y01858*
Y01854*
X01123Y0185*
X01119Y01845*
X011Y01826*
X01127*
X01481Y01856D02*
Y01858D01*
X01483Y01862*
X01485Y01864*
X01489Y01865*
X01497*
X01501Y01864*
X01502Y01862*
X01504Y01858*
Y01854*
X01502Y0185*
X01499Y01845*
X0148Y01826*
X01506*
X01519Y01865D02*
X0154D01*
X01529Y0185*
X01534*
X01538Y01848*
X0154Y01846*
X01542Y01841*
Y01837*
X0154Y01831*
X01536Y01827*
X0153Y01826*
X01525*
X01519Y01827*
X01517Y01829*
X01515Y01833*
X01553Y01829D02*
X01551Y01827D01*
X01553Y01826*
X01555Y01827*
X01553Y01829*
X01586Y0186D02*
X01584Y01864D01*
X01579Y01865*
X01575*
X01569Y01864*
X01565Y01858*
X01563Y01848*
Y01839*
X01565Y01831*
X01569Y01827*
X01575Y01826*
X01577*
X01582Y01827*
X01586Y01831*
X01588Y01837*
Y01839*
X01586Y01845*
X01582Y01848*
X01577Y0185*
X01575*
X01569Y01848*
X01565Y01845*
X01563Y01839*
X01599Y01856D02*
Y01858D01*
X01601Y01862*
X01603Y01864*
X01606Y01865*
X01614*
X01618Y01864*
X0162Y01862*
X01622Y01858*
Y01854*
X0162Y0185*
X01616Y01845*
X01597Y01826*
X01624*
X01634Y01856D02*
Y01858D01*
X01636Y01862*
X01638Y01864*
X01642Y01865*
X0165*
X01653Y01864*
X01655Y01862*
X01657Y01858*
Y01854*
X01655Y0185*
X01652Y01845*
X01633Y01826*
X01659*
X01668Y01852D02*
Y01826D01*
Y01845D02*
X01674Y0185D01*
X01678Y01852*
X01683*
X01687Y0185*
X01689Y01845*
Y01826*
Y01845D02*
X01695Y0185D01*
X01699Y01852*
X01704*
X01708Y0185*
X0171Y01845*
Y01826*
X01726Y01865D02*
X01728Y01864D01*
X0173Y01865*
X01728Y01867*
X01726Y01865*
X01728Y01852D02*
Y01826D01*
X01737Y01865D02*
Y01826D01*
X0179Y01873D02*
X01787Y01869D01*
X01783Y01864*
X01779Y01856*
X01777Y01846*
Y01839*
X01779Y01829*
X01783Y01822*
X01787Y01816*
X0179Y01812*
X01787Y01869D02*
X01783Y01862D01*
X01781Y01856*
X01779Y01846*
Y01839*
X01781Y01829*
X01783Y01824*
X01787Y01816*
X01809Y01865D02*
X01804Y01864D01*
X018Y01858*
X01798Y01848*
Y01843*
X018Y01833*
X01804Y01827*
X01809Y01826*
X01813*
X01819Y01827*
X01823Y01833*
X01825Y01843*
Y01848*
X01823Y01858*
X01819Y01864*
X01813Y01865*
X01809*
X01836Y01829D02*
X01834Y01827D01*
X01836Y01826*
X01837Y01827*
X01836Y01829*
X01869Y0186D02*
X01867Y01864D01*
X01861Y01865*
X01858*
X01852Y01864*
X01848Y01858*
X01846Y01848*
Y01839*
X01848Y01831*
X01852Y01827*
X01858Y01826*
X0186*
X01865Y01827*
X01869Y01831*
X01871Y01837*
Y01839*
X01869Y01845*
X01865Y01848*
X0186Y0185*
X01858*
X01852Y01848*
X01848Y01845*
X01846Y01839*
X0188Y01852D02*
Y01826D01*
Y01845D02*
X01885Y0185D01*
X01889Y01852*
X01895*
X01899Y0185*
X01901Y01845*
Y01826*
Y01845D02*
X01906Y0185D01*
X0191Y01852*
X01916*
X0192Y0185*
X01922Y01845*
Y01826*
X01934Y01852D02*
Y01826D01*
Y01845D02*
X0194Y0185D01*
X01944Y01852*
X01949*
X01953Y0185*
X01955Y01845*
Y01826*
Y01845D02*
X01961Y0185D01*
X01965Y01852*
X0197*
X01974Y0185*
X01976Y01845*
Y01826*
X01989Y01873D02*
X01992Y01869D01*
X01996Y01864*
X02Y01856*
X02002Y01846*
Y01839*
X02Y01829*
X01996Y01822*
X01992Y01816*
X01989Y01812*
X01992Y01869D02*
X01996Y01862D01*
X01998Y01856*
X02Y01846*
Y01839*
X01998Y01829*
X01996Y01824*
X01992Y01816*
X02165Y01865D02*
X02146D01*
X02144Y01848*
X02146Y0185*
X02152Y01852*
X02157*
X02163Y0185*
X02167Y01846*
X02169Y01841*
Y01837*
X02167Y01831*
X02163Y01827*
X02157Y01826*
X02152*
X02146Y01827*
X02144Y01829*
X02142Y01833*
X02178Y01858D02*
X02182Y0186D01*
X02187Y01865*
Y01826*
X02209Y01829D02*
X02207Y01827D01*
X02209Y01826*
X02211Y01827*
X02209Y01829*
X0222Y01858D02*
X02223Y0186D01*
X02229Y01865*
Y01826*
X02258Y01865D02*
X02253Y01864D01*
X02251Y0186*
Y01856*
X02253Y01852*
X02257Y0185*
X02264Y01848*
X0227Y01846*
X02274Y01843*
X02276Y01839*
Y01833*
X02274Y01829*
X02272Y01827*
X02266Y01826*
X02258*
X02253Y01827*
X02251Y01829*
X02249Y01833*
Y01839*
X02251Y01843*
X02255Y01846*
X0226Y01848*
X02268Y0185*
X02272Y01852*
X02274Y01856*
Y0186*
X02272Y01864*
X02266Y01865*
X02258*
X02285Y01858D02*
X02288Y0186D01*
X02294Y01865*
Y01826*
X02314Y01852D02*
Y01826D01*
Y01845D02*
X0232Y0185D01*
X02323Y01852*
X02329*
X02333Y0185*
X02335Y01845*
Y01826*
Y01845D02*
X02341Y0185D01*
X02344Y01852*
X0235*
X02354Y0185*
X02356Y01845*
Y01826*
X02372Y01865D02*
X02374Y01864D01*
X02376Y01865*
X02374Y01867*
X02372Y01865*
X02374Y01852D02*
Y01826D01*
X02383Y01865D02*
Y01826D01*
X02436Y01873D02*
X02432Y01869D01*
X02429Y01864*
X02425Y01856*
X02423Y01846*
Y01839*
X02425Y01829*
X02429Y01822*
X02432Y01816*
X02436Y01812*
X02432Y01869D02*
X02429Y01862D01*
X02427Y01856*
X02425Y01846*
Y01839*
X02427Y01829*
X02429Y01824*
X02432Y01816*
X02444Y01858D02*
X02448Y0186D01*
X02453Y01865*
Y01826*
X02475Y01829D02*
X02473Y01827D01*
X02475Y01826*
X02477Y01827*
X02475Y01829*
X02489Y01865D02*
X0251D01*
X02499Y0185*
X02505*
X02508Y01848*
X0251Y01846*
X02512Y01841*
Y01837*
X0251Y01831*
X02507Y01827*
X02501Y01826*
X02495*
X02489Y01827*
X02488Y01829*
X02486Y01833*
X02521Y01852D02*
Y01826D01*
Y01845D02*
X02527Y0185D01*
X02531Y01852*
X02536*
X0254Y0185*
X02542Y01845*
Y01826*
Y01845D02*
X02548Y0185D01*
X02552Y01852*
X02557*
X02561Y0185*
X02563Y01845*
Y01826*
X02576Y01852D02*
Y01826D01*
Y01845D02*
X02581Y0185D01*
X02585Y01852*
X02591*
X02595Y0185*
X02597Y01845*
Y01826*
Y01845D02*
X02602Y0185D01*
X02606Y01852*
X02612*
X02616Y0185*
X02618Y01845*
Y01826*
X0263Y01873D02*
X02634Y01869D01*
X02638Y01864*
X02642Y01856*
X02644Y01846*
Y01839*
X02642Y01829*
X02638Y01822*
X02634Y01816*
X0263Y01812*
X02634Y01869D02*
X02638Y01862D01*
X0264Y01856*
X02642Y01846*
Y01839*
X0264Y01829*
X02638Y01824*
X02634Y01816*
X02711Y01856D02*
Y01858D01*
X02713Y01862*
X02715Y01864*
X02719Y01865*
X02726*
X0273Y01864*
X02732Y01862*
X02734Y01858*
Y01854*
X02732Y0185*
X02728Y01845*
X02709Y01826*
X02736*
X02772Y01865D02*
X02753Y01826D01*
X02745Y01865D02*
X02772D01*
X02782Y01829D02*
X02781Y01827D01*
X02782Y01826*
X02784Y01827*
X02782Y01829*
X02816Y01865D02*
X02797D01*
X02795Y01848*
X02797Y0185*
X02803Y01852*
X02808*
X02814Y0185*
X02818Y01846*
X0282Y01841*
Y01837*
X02818Y01831*
X02814Y01827*
X02808Y01826*
X02803*
X02797Y01827*
X02795Y01829*
X02793Y01833*
X02852Y01865D02*
X02833D01*
X02831Y01848*
X02833Y0185*
X02838Y01852*
X02844*
X0285Y0185*
X02853Y01846*
X02855Y01841*
Y01837*
X02853Y01831*
X0285Y01827*
X02844Y01826*
X02838*
X02833Y01827*
X02831Y01829*
X02829Y01833*
X02889Y01852D02*
X02887Y01846D01*
X02883Y01843*
X02878Y01841*
X02876*
X0287Y01843*
X02866Y01846*
X02864Y01852*
Y01854*
X02866Y0186*
X0287Y01864*
X02876Y01865*
X02878*
X02883Y01864*
X02887Y0186*
X02889Y01852*
Y01843*
X02887Y01833*
X02883Y01827*
X02878Y01826*
X02874*
X02868Y01827*
X02866Y01831*
X029Y01852D02*
Y01826D01*
Y01845D02*
X02906Y0185D01*
X02909Y01852*
X02915*
X02919Y0185*
X02921Y01845*
Y01826*
Y01845D02*
X02927Y0185D01*
X0293Y01852*
X02936*
X0294Y0185*
X02942Y01845*
Y01826*
X02958Y01865D02*
X0296Y01864D01*
X02962Y01865*
X0296Y01867*
X02958Y01865*
X0296Y01852D02*
Y01826D01*
X02969Y01865D02*
Y01826D01*
X03022Y01873D02*
X03018Y01869D01*
X03015Y01864*
X03011Y01856*
X03009Y01846*
Y01839*
X03011Y01829*
X03015Y01822*
X03018Y01816*
X03022Y01812*
X03018Y01869D02*
X03015Y01862D01*
X03013Y01856*
X03011Y01846*
Y01839*
X03013Y01829*
X03015Y01824*
X03018Y01816*
X03041Y01865D02*
X03036Y01864D01*
X03032Y01858*
X0303Y01848*
Y01843*
X03032Y01833*
X03036Y01827*
X03041Y01826*
X03045*
X03051Y01827*
X03055Y01833*
X03056Y01843*
Y01848*
X03055Y01858*
X03051Y01864*
X03045Y01865*
X03041*
X03067Y01829D02*
X03065Y01827D01*
X03067Y01826*
X03069Y01827*
X03067Y01829*
X03105Y01865D02*
X03086Y01826D01*
X03078Y01865D02*
X03105D01*
X03114Y01852D02*
Y01826D01*
Y01845D02*
X03119Y0185D01*
X03123Y01852*
X03129*
X03133Y0185*
X03135Y01845*
Y01826*
Y01845D02*
X0314Y0185D01*
X03144Y01852*
X0315*
X03154Y0185*
X03155Y01845*
Y01826*
X03168Y01852D02*
Y01826D01*
Y01845D02*
X03174Y0185D01*
X03178Y01852*
X03183*
X03187Y0185*
X03189Y01845*
Y01826*
Y01845D02*
X03195Y0185D01*
X03199Y01852*
X03204*
X03208Y0185*
X0321Y01845*
Y01826*
X03223Y01873D02*
X03226Y01869D01*
X0323Y01864*
X03234Y01856*
X03236Y01846*
Y01839*
X03234Y01829*
X0323Y01822*
X03226Y01816*
X03223Y01812*
X03226Y01869D02*
X0323Y01862D01*
X03232Y01856*
X03234Y01846*
Y01839*
X03232Y01829*
X0323Y01824*
X03226Y01816*
X03347Y01845D02*
X03364D01*
X0337Y01846*
X03372Y01848*
X03374Y01852*
Y01858*
X03372Y01862*
X0337Y01864*
X03364Y01865*
X03347*
Y01826*
X03396Y01865D02*
Y01826D01*
X03383Y01865D02*
X03409D01*
X03414D02*
Y01826D01*
X03441Y01865D02*
Y01826D01*
X03414Y01846D02*
X03441D01*
X03629Y0186D02*
X03625Y01864D01*
X03619Y01865*
X03612*
X03606Y01864*
X03602Y0186*
Y01856*
X03604Y01852*
X03606Y0185*
X0361Y01848*
X03621Y01845*
X03625Y01843*
X03627Y01841*
X03629Y01837*
Y01831*
X03625Y01827*
X03619Y01826*
X03612*
X03606Y01827*
X03602Y01831*
X03638Y01865D02*
Y01826D01*
X03656Y01852D02*
X03652Y0185D01*
X03648Y01846*
X03646Y01841*
Y01837*
X03648Y01831*
X03652Y01827*
X03656Y01826*
X03661*
X03665Y01827*
X03669Y01831*
X03671Y01837*
Y01841*
X03669Y01846*
X03665Y0185*
X03661Y01852*
X03656*
X03685Y01865D02*
Y01833D01*
X03687Y01827*
X03691Y01826*
X03695*
X0368Y01852D02*
X03693D01*
X01102Y01776D02*
Y01778D01*
X01104Y01782*
X01106Y01784*
X0111Y01785*
X01117*
X01121Y01784*
X01123Y01782*
X01125Y01778*
Y01774*
X01123Y0177*
X01119Y01765*
X011Y01746*
X01127*
X01147Y01785D02*
X01142Y01784D01*
X01138Y01778*
X01136Y01768*
Y01763*
X01138Y01753*
X01142Y01747*
X01147Y01746*
X01151*
X01157Y01747*
X01161Y01753*
X01163Y01763*
Y01768*
X01161Y01778*
X01157Y01784*
X01151Y01785*
X01147*
X01171Y01778D02*
X01175Y0178D01*
X01181Y01785*
Y01746*
X0126Y01785D02*
Y01746D01*
X01247Y01785D02*
X01274D01*
X01288Y01772D02*
X01284Y0177D01*
X0128Y01766*
X01278Y01761*
Y01757*
X0128Y01751*
X01284Y01747*
X01288Y01746*
X01294*
X01297Y01747*
X01301Y01751*
X01303Y01757*
Y01761*
X01301Y01766*
X01297Y0177*
X01294Y01772*
X01288*
X01318Y01785D02*
Y01753D01*
X0132Y01747*
X01323Y01746*
X01327*
X01312Y01772D02*
X01325D01*
X01356D02*
Y01746D01*
Y01766D02*
X01352Y0177D01*
X01348Y01772*
X01342*
X01339Y0177*
X01335Y01766*
X01333Y01761*
Y01757*
X01335Y01751*
X01339Y01747*
X01342Y01746*
X01348*
X01352Y01747*
X01356Y01751*
X01366Y01785D02*
Y01746D01*
X01833Y01688D02*
X01867D01*
X01833Y01677D02*
X01867D01*
X01939Y01696D02*
X01937Y017D01*
X01933Y01704*
X01929Y01705*
X01922*
X01918Y01704*
X01914Y017*
X01912Y01696*
X0191Y0169*
Y01681*
X01912Y01675*
X01914Y01671*
X01918Y01667*
X01922Y01666*
X01929*
X01933Y01667*
X01937Y01671*
X01939Y01675*
X01973Y01692D02*
Y01666D01*
Y01686D02*
X01969Y0169D01*
X01965Y01692*
X0196*
X01956Y0169*
X01952Y01686*
X0195Y01681*
Y01677*
X01952Y01671*
X01956Y01667*
X0196Y01666*
X01965*
X01969Y01667*
X01973Y01671*
X01984Y01705D02*
Y01666D01*
X02015Y01686D02*
X02011Y0169D01*
X02007Y01692*
X02002*
X01998Y0169*
X01994Y01686*
X01992Y01681*
Y01677*
X01994Y01671*
X01998Y01667*
X02002Y01666*
X02007*
X02011Y01667*
X02015Y01671*
X02023Y01692D02*
Y01673D01*
X02025Y01667*
X02029Y01666*
X02035*
X02039Y01667*
X02044Y01673*
Y01692D02*
Y01666D01*
X02055Y01705D02*
Y01666D01*
X02086Y01692D02*
Y01666D01*
Y01686D02*
X02082Y0169D01*
X02079Y01692*
X02073*
X02069Y0169*
X02065Y01686*
X02063Y01681*
Y01677*
X02065Y01671*
X02069Y01667*
X02073Y01666*
X02079*
X02082Y01667*
X02086Y01671*
X02103Y01705D02*
Y01673D01*
X02104Y01667*
X02108Y01666*
X02112*
X02097Y01692D02*
X0211D01*
X02118Y01681D02*
X02141D01*
Y01685*
X02139Y01688*
X02137Y0169*
X02133Y01692*
X02127*
X02123Y0169*
X0212Y01686*
X02118Y01681*
Y01677*
X0212Y01671*
X02123Y01667*
X02127Y01666*
X02133*
X02137Y01667*
X02141Y01671*
X02172Y01705D02*
Y01666D01*
Y01686D02*
X02168Y0169D01*
X02164Y01692*
X02159*
X02155Y0169*
X02151Y01686*
X02149Y01681*
Y01677*
X02151Y01671*
X02155Y01667*
X02159Y01666*
X02164*
X02168Y01667*
X02172Y01671*
X02229Y01705D02*
X02226D01*
X02222Y01704*
X0222Y01698*
Y01666*
X02214Y01692D02*
X02227D01*
X02235D02*
Y01666D01*
Y01681D02*
X02237Y01686D01*
X02241Y0169*
X02245Y01692*
X0225*
X02263D02*
X0226Y0169D01*
X02256Y01686*
X02254Y01681*
Y01677*
X02256Y01671*
X0226Y01667*
X02263Y01666*
X02269*
X02273Y01667*
X02277Y01671*
X02279Y01677*
Y01681*
X02277Y01686*
X02273Y0169*
X02269Y01692*
X02263*
X02287D02*
Y01666D01*
Y01685D02*
X02293Y0169D01*
X02297Y01692*
X02303*
X02306Y0169*
X02308Y01685*
Y01666*
Y01685D02*
X02314Y0169D01*
X02318Y01692*
X02324*
X02327Y0169*
X02329Y01685*
Y01666*
X02379Y01705D02*
Y01673D01*
X02381Y01667*
X02385Y01666*
X02389*
X02373Y01692D02*
X02387D01*
X02404D02*
X024Y0169D01*
X02396Y01686*
X02394Y01681*
Y01677*
X02396Y01671*
X024Y01667*
X02404Y01666*
X0241*
X02413Y01667*
X02417Y01671*
X02419Y01677*
Y01681*
X02417Y01686*
X02413Y0169*
X0241Y01692*
X02404*
X02437D02*
X02434Y0169D01*
X0243Y01686*
X02428Y01681*
Y01677*
X0243Y01671*
X02434Y01667*
X02437Y01666*
X02443*
X02447Y01667*
X02451Y01671*
X02453Y01677*
Y01681*
X02451Y01686*
X02447Y0169*
X02443Y01692*
X02437*
X02461Y01705D02*
Y01666D01*
X02522Y01686D02*
X0252Y0169D01*
X02514Y01692*
X02509*
X02503Y0169*
X02501Y01686*
X02503Y01683*
X02507Y01681*
X02516Y01679*
X0252Y01677*
X02522Y01673*
Y01671*
X0252Y01667*
X02514Y01666*
X02509*
X02503Y01667*
X02501Y01671*
X02536Y01705D02*
Y01673D01*
X02538Y01667*
X02542Y01666*
X02546*
X0253Y01692D02*
X02544D01*
X02574D02*
Y01666D01*
Y01686D02*
X0257Y0169D01*
X02567Y01692*
X02561*
X02557Y0169*
X02553Y01686*
X02551Y01681*
Y01677*
X02553Y01671*
X02557Y01667*
X02561Y01666*
X02567*
X0257Y01667*
X02574Y01671*
X02585Y01692D02*
Y01666D01*
Y01681D02*
X02587Y01686D01*
X02591Y0169*
X02594Y01692*
X026*
X02609Y01705D02*
Y01673D01*
X02611Y01667*
X02615Y01666*
X02619*
X02604Y01692D02*
X02617D01*
X02679Y01686D02*
X02675Y0169D01*
X02671Y01692*
X02666*
X02662Y0169*
X02658Y01686*
X02656Y01681*
Y01677*
X02658Y01671*
X02662Y01667*
X02666Y01666*
X02671*
X02675Y01667*
X02679Y01671*
X02688Y01681D02*
X0271D01*
Y01685*
X02708Y01688*
X02707Y0169*
X02703Y01692*
X02697*
X02693Y0169*
X02689Y01686*
X02688Y01681*
Y01677*
X02689Y01671*
X02693Y01667*
X02697Y01666*
X02703*
X02707Y01667*
X0271Y01671*
X02719Y01692D02*
Y01666D01*
Y01685D02*
X02725Y0169D01*
X02728Y01692*
X02734*
X02738Y0169*
X0274Y01685*
Y01666*
X02756Y01705D02*
Y01673D01*
X02758Y01667*
X02762Y01666*
X02766*
X0275Y01692D02*
X02764D01*
X02771D02*
Y01666D01*
Y01681D02*
X02773Y01686D01*
X02777Y0169*
X02781Y01692*
X02787*
X0279Y01681D02*
X02813D01*
Y01685*
X02811Y01688*
X02809Y0169*
X02805Y01692*
X028*
X02796Y0169*
X02792Y01686*
X0279Y01681*
Y01677*
X02792Y01671*
X02796Y01667*
X028Y01666*
X02805*
X02809Y01667*
X02813Y01671*
X02853Y01692D02*
Y01652D01*
Y01686D02*
X02857Y0169D01*
X02861Y01692*
X02866*
X0287Y0169*
X02874Y01686*
X02876Y01681*
Y01677*
X02874Y01671*
X0287Y01667*
X02866Y01666*
X02861*
X02857Y01667*
X02853Y01671*
X02894Y01692D02*
X0289Y0169D01*
X02886Y01686*
X02884Y01681*
Y01677*
X02886Y01671*
X0289Y01667*
X02894Y01666*
X029*
X02904Y01667*
X02907Y01671*
X02909Y01677*
Y01681*
X02907Y01686*
X02904Y0169*
X029Y01692*
X02894*
X02939Y01686D02*
X02937Y0169D01*
X02931Y01692*
X02926*
X0292Y0169*
X02918Y01686*
X0292Y01683*
X02924Y01681*
X02933Y01679*
X02937Y01677*
X02939Y01673*
Y01671*
X02937Y01667*
X02931Y01666*
X02926*
X0292Y01667*
X02918Y01671*
X02951Y01705D02*
X02953Y01704D01*
X02955Y01705*
X02953Y01707*
X02951Y01705*
X02953Y01692D02*
Y01666D01*
X02968Y01705D02*
Y01673D01*
X0297Y01667*
X02973Y01666*
X02977*
X02962Y01692D02*
X02975D01*
X02987Y01705D02*
X02989Y01704D01*
X02991Y01705*
X02989Y01707*
X02987Y01705*
X02989Y01692D02*
Y01666D01*
X03007Y01692D02*
X03003Y0169D01*
X02999Y01686*
X02998Y01681*
Y01677*
X02999Y01671*
X03003Y01667*
X03007Y01666*
X03013*
X03017Y01667*
X0302Y01671*
X03022Y01677*
Y01681*
X0302Y01686*
X03017Y0169*
X03013Y01692*
X03007*
X03031D02*
Y01666D01*
Y01685D02*
X03037Y0169D01*
X03041Y01692*
X03046*
X0305Y0169*
X03052Y01685*
Y01666*
X031Y01705D02*
Y01673D01*
X03102Y01667*
X03105Y01666*
X03109*
X03094Y01692D02*
X03107D01*
X03124D02*
X03121Y0169D01*
X03117Y01686*
X03115Y01681*
Y01677*
X03117Y01671*
X03121Y01667*
X03124Y01666*
X0313*
X03134Y01667*
X03138Y01671*
X0314Y01677*
Y01681*
X03138Y01686*
X03134Y0169*
X0313Y01692*
X03124*
X03186Y01705D02*
Y01673D01*
X03187Y01667*
X03191Y01666*
X03195*
X0318Y01692D02*
X03193D01*
X0321D02*
X03206Y0169D01*
X03203Y01686*
X03201Y01681*
Y01677*
X03203Y01671*
X03206Y01667*
X0321Y01666*
X03216*
X0322Y01667*
X03224Y01671*
X03226Y01677*
Y01681*
X03224Y01686*
X0322Y0169*
X03216Y01692*
X0321*
X03244D02*
X0324Y0169D01*
X03236Y01686*
X03234Y01681*
Y01677*
X03236Y01671*
X0324Y01667*
X03244Y01666*
X0325*
X03253Y01667*
X03257Y01671*
X03259Y01677*
Y01681*
X03257Y01686*
X03253Y0169*
X0325Y01692*
X03244*
X03268Y01705D02*
Y01666D01*
X03308Y01681D02*
X0333D01*
Y01685*
X03329Y01688*
X03327Y0169*
X03323Y01692*
X03317*
X03313Y0169*
X0331Y01686*
X03308Y01681*
Y01677*
X0331Y01671*
X03313Y01667*
X03317Y01666*
X03323*
X03327Y01667*
X0333Y01671*
X03339Y01692D02*
Y01666D01*
Y01685D02*
X03345Y0169D01*
X03349Y01692*
X03354*
X03358Y0169*
X0336Y01685*
Y01666*
X03393Y01705D02*
Y01666D01*
Y01686D02*
X03389Y0169D01*
X03386Y01692*
X0338*
X03376Y0169*
X03372Y01686*
X0337Y01681*
Y01677*
X03372Y01671*
X03376Y01667*
X0338Y01666*
X03386*
X03389Y01667*
X03393Y01671*
X03458Y01686D02*
X03454Y0169D01*
X03451Y01692*
X03445*
X03441Y0169*
X03437Y01686*
X03435Y01681*
Y01677*
X03437Y01671*
X03441Y01667*
X03445Y01666*
X03451*
X03454Y01667*
X03458Y01671*
X03467Y01681D02*
X0349D01*
Y01685*
X03488Y01688*
X03486Y0169*
X03482Y01692*
X03476*
X03473Y0169*
X03469Y01686*
X03467Y01681*
Y01677*
X03469Y01671*
X03473Y01667*
X03476Y01666*
X03482*
X03486Y01667*
X0349Y01671*
X03498Y01692D02*
Y01666D01*
Y01685D02*
X03504Y0169D01*
X03508Y01692*
X03513*
X03517Y0169*
X03519Y01685*
Y01666*
X03535Y01705D02*
Y01673D01*
X03537Y01667*
X03541Y01666*
X03545*
X0353Y01692D02*
X03543D01*
X03551D02*
Y01666D01*
Y01681D02*
X03553Y01686D01*
X03556Y0169*
X0356Y01692*
X03566*
X03569Y01681D02*
X03592D01*
Y01685*
X0359Y01688*
X03588Y0169*
X03585Y01692*
X03579*
X03575Y0169*
X03571Y01686*
X03569Y01681*
Y01677*
X03571Y01671*
X03575Y01667*
X03579Y01666*
X03585*
X03588Y01667*
X03592Y01671*
X03632Y01692D02*
Y01652D01*
Y01686D02*
X03636Y0169D01*
X0364Y01692*
X03646*
X03649Y0169*
X03653Y01686*
X03655Y01681*
Y01677*
X03653Y01671*
X03649Y01667*
X03646Y01666*
X0364*
X03636Y01667*
X03632Y01671*
X03673Y01692D02*
X03669Y0169D01*
X03666Y01686*
X03664Y01681*
Y01677*
X03666Y01671*
X03669Y01667*
X03673Y01666*
X03679*
X03683Y01667*
X03687Y01671*
X03688Y01677*
Y01681*
X03687Y01686*
X03683Y0169*
X03679Y01692*
X03673*
X03718Y01686D02*
X03716Y0169D01*
X03711Y01692*
X03705*
X03699Y0169*
X03697Y01686*
X03699Y01683*
X03703Y01681*
X03712Y01679*
X03716Y01677*
X03718Y01673*
Y01671*
X03716Y01667*
X03711Y01666*
X03705*
X03699Y01667*
X03697Y01671*
X0373Y01705D02*
X03732Y01704D01*
X03734Y01705*
X03732Y01707*
X0373Y01705*
X03732Y01692D02*
Y01666D01*
X03747Y01705D02*
Y01673D01*
X03749Y01667*
X03753Y01666*
X03756*
X03741Y01692D02*
X03755D01*
X03766Y01705D02*
X03768Y01704D01*
X0377Y01705*
X03768Y01707*
X03766Y01705*
X03768Y01692D02*
Y01666D01*
X03786Y01692D02*
X03783Y0169D01*
X03779Y01686*
X03777Y01681*
Y01677*
X03779Y01671*
X03783Y01667*
X03786Y01666*
X03792*
X03796Y01667*
X038Y01671*
X03802Y01677*
Y01681*
X038Y01686*
X03796Y0169*
X03792Y01692*
X03786*
X0381D02*
Y01666D01*
Y01685D02*
X03816Y0169D01*
X0382Y01692*
X03826*
X03829Y0169*
X03831Y01685*
Y01666*
X03844Y01669D02*
X03842Y01667D01*
X03844Y01666*
X03846Y01667*
X03844Y01669*
X01833Y01608D02*
X01867D01*
X01833Y01597D02*
X01867D01*
X0191Y01625D02*
Y01586D01*
Y01625D02*
X01928D01*
X01933Y01624*
X01935Y01622*
X01937Y01618*
Y01614*
X01935Y0161*
X01933Y01608*
X01928Y01606*
X0191*
X01924D02*
X01937Y01586D01*
X01956Y01612D02*
X01952Y0161D01*
X01948Y01606*
X01946Y01601*
Y01597*
X01948Y01591*
X01952Y01587*
X01956Y01586*
X01961*
X01965Y01587*
X01969Y01591*
X01971Y01597*
Y01601*
X01969Y01606*
X01965Y0161*
X01961Y01612*
X01956*
X0198D02*
Y01593D01*
X01981Y01587*
X01985Y01586*
X01991*
X01995Y01587*
X02Y01593*
Y01612D02*
Y01586D01*
X02017Y01625D02*
Y01593D01*
X02019Y01587*
X02022Y01586*
X02026*
X02011Y01612D02*
X02024D01*
X02063Y01605D02*
X0208D01*
X02086Y01606*
X02088Y01608*
X0209Y01612*
Y01618*
X02088Y01622*
X02086Y01624*
X0208Y01625*
X02063*
Y01586*
X02122Y01612D02*
Y01586D01*
Y01606D02*
X02118Y0161D01*
X02114Y01612*
X02108*
X02105Y0161*
X02101Y01606*
X02099Y01601*
Y01597*
X02101Y01591*
X02105Y01587*
X02108Y01586*
X02114*
X02118Y01587*
X02122Y01591*
X02138Y01625D02*
Y01593D01*
X0214Y01587*
X02144Y01586*
X02148*
X02132Y01612D02*
X02146D01*
X02153Y01625D02*
Y01586D01*
Y01605D02*
X02159Y0161D01*
X02163Y01612*
X02169*
X02172Y0161*
X02174Y01605*
Y01586*
X02216Y01625D02*
Y01586D01*
X02239*
X02243Y01601D02*
X02266D01*
Y01605*
X02264Y01608*
X02262Y0161*
X02259Y01612*
X02253*
X02249Y0161*
X02245Y01606*
X02243Y01601*
Y01597*
X02245Y01591*
X02249Y01587*
X02253Y01586*
X02259*
X02262Y01587*
X02266Y01591*
X02275Y01612D02*
Y01586D01*
Y01605D02*
X02281Y0161D01*
X02284Y01612*
X0229*
X02294Y0161*
X02296Y01605*
Y01586*
X02329Y01612D02*
Y01582D01*
X02327Y01576*
X02325Y01574*
X02322Y01572*
X02316*
X02312Y01574*
X02329Y01606D02*
X02325Y0161D01*
X02322Y01612*
X02316*
X02312Y0161*
X02308Y01606*
X02306Y01601*
Y01597*
X02308Y01591*
X02312Y01587*
X02316Y01586*
X02322*
X02325Y01587*
X02329Y01591*
X02346Y01625D02*
Y01593D01*
X02347Y01587*
X02351Y01586*
X02355*
X0234Y01612D02*
X02353D01*
X02361Y01625D02*
Y01586D01*
Y01605D02*
X02366Y0161D01*
X0237Y01612*
X02376*
X0238Y0161*
X02382Y01605*
Y01586*
X02441Y0162D02*
Y01586D01*
X02424Y01603D02*
X02458D01*
X02514Y01625D02*
Y01586D01*
X02501Y01625D02*
X02528D01*
X02542Y01612D02*
X02538Y0161D01*
X02534Y01606*
X02533Y01601*
Y01597*
X02534Y01591*
X02538Y01587*
X02542Y01586*
X02548*
X02552Y01587*
X02555Y01591*
X02557Y01597*
Y01601*
X02555Y01606*
X02552Y0161*
X02548Y01612*
X02542*
X02576D02*
X02572Y0161D01*
X02568Y01606*
X02566Y01601*
Y01597*
X02568Y01591*
X02572Y01587*
X02576Y01586*
X02581*
X02585Y01587*
X02589Y01591*
X02591Y01597*
Y01601*
X02589Y01606*
X02585Y0161*
X02581Y01612*
X02576*
X026Y01625D02*
Y01586D01*
X02666Y0162D02*
X02662Y01624D01*
X02657Y01625*
X02649*
X02643Y01624*
X02639Y0162*
Y01616*
X02641Y01612*
X02643Y0161*
X02647Y01608*
X02658Y01605*
X02662Y01603*
X02664Y01601*
X02666Y01597*
Y01591*
X02662Y01587*
X02657Y01586*
X02649*
X02643Y01587*
X02639Y01591*
X02679Y01625D02*
X02681Y01624D01*
X02683Y01625*
X02681Y01627*
X02679Y01625*
X02681Y01612D02*
Y01586D01*
X02711Y01612D02*
X0269Y01586D01*
Y01612D02*
X02711D01*
X0269Y01586D02*
X02711D01*
X02719Y01601D02*
X02742D01*
Y01605*
X0274Y01608*
X02738Y0161*
X02734Y01612*
X02728*
X02725Y0161*
X02721Y01606*
X02719Y01601*
Y01597*
X02721Y01591*
X02725Y01587*
X02728Y01586*
X02734*
X02738Y01587*
X02742Y01591*
X02782Y01608D02*
X02816D01*
X02782Y01597D02*
X02816D01*
X02886Y0162D02*
X02882Y01624D01*
X02876Y01625*
X02869*
X02863Y01624*
X02859Y0162*
Y01616*
X02861Y01612*
X02863Y0161*
X02867Y01608*
X02878Y01605*
X02882Y01603*
X02884Y01601*
X02886Y01597*
Y01591*
X02882Y01587*
X02876Y01586*
X02869*
X02863Y01587*
X02859Y01591*
X02895Y01625D02*
Y01586D01*
X02913Y01612D02*
X02909Y0161D01*
X02905Y01606*
X02903Y01601*
Y01597*
X02905Y01591*
X02909Y01587*
X02913Y01586*
X02919*
X02922Y01587*
X02926Y01591*
X02928Y01597*
Y01601*
X02926Y01606*
X02922Y0161*
X02919Y01612*
X02913*
X02943Y01625D02*
Y01593D01*
X02944Y01587*
X02948Y01586*
X02952*
X02937Y01612D02*
X0295D01*
X02989Y01625D02*
Y01586D01*
X02998Y01601D02*
X0302D01*
Y01605*
X03019Y01608*
X03017Y0161*
X03013Y01612*
X03007*
X03003Y0161*
X02999Y01606*
X02998Y01601*
Y01597*
X02999Y01591*
X03003Y01587*
X03007Y01586*
X03013*
X03017Y01587*
X0302Y01591*
X03029Y01612D02*
Y01586D01*
Y01605D02*
X03035Y0161D01*
X03039Y01612*
X03044*
X03048Y0161*
X0305Y01605*
Y01586*
X03083Y01612D02*
Y01582D01*
X03081Y01576*
X03079Y01574*
X03076Y01572*
X0307*
X03066Y01574*
X03083Y01606D02*
X03079Y0161D01*
X03076Y01612*
X0307*
X03066Y0161*
X03062Y01606*
X0306Y01601*
Y01597*
X03062Y01591*
X03066Y01587*
X0307Y01586*
X03076*
X03079Y01587*
X03083Y01591*
X031Y01625D02*
Y01593D01*
X03102Y01587*
X03105Y01586*
X03109*
X03094Y01612D02*
X03107D01*
X03115Y01625D02*
Y01586D01*
Y01605D02*
X03121Y0161D01*
X03124Y01612*
X0313*
X03134Y0161*
X03136Y01605*
Y01586*
X03201Y01612D02*
Y01586D01*
Y01606D02*
X03197Y0161D01*
X03193Y01612*
X03187*
X03183Y0161*
X0318Y01606*
X03178Y01601*
Y01597*
X0318Y01591*
X03183Y01587*
X03187Y01586*
X03193*
X03197Y01587*
X03201Y01591*
X03232Y01606D02*
X0323Y0161D01*
X03225Y01612*
X03219*
X03213Y0161*
X03211Y01606*
X03213Y01603*
X03217Y01601*
X03226Y01599*
X0323Y01597*
X03232Y01593*
Y01591*
X0323Y01587*
X03225Y01586*
X03219*
X03213Y01587*
X03211Y01591*
X03295Y01625D02*
Y01586D01*
Y01606D02*
X03291Y0161D01*
X03287Y01612*
X03282*
X03278Y0161*
X03274Y01606*
X03272Y01601*
Y01597*
X03274Y01591*
X03278Y01587*
X03282Y01586*
X03287*
X03291Y01587*
X03295Y01591*
X03306Y01601D02*
X03328D01*
Y01605*
X03326Y01608*
X03325Y0161*
X03321Y01612*
X03315*
X03311Y0161*
X03307Y01606*
X03306Y01601*
Y01597*
X03307Y01591*
X03311Y01587*
X03315Y01586*
X03321*
X03325Y01587*
X03328Y01591*
X03352Y01625D02*
X03348D01*
X03345Y01624*
X03343Y01618*
Y01586*
X03337Y01612D02*
X0335D01*
X03362Y01625D02*
X03364Y01624D01*
X03365Y01625*
X03364Y01627*
X03362Y01625*
X03364Y01612D02*
Y01586D01*
X03373Y01612D02*
Y01586D01*
Y01605D02*
X03378Y0161D01*
X03382Y01612*
X03388*
X03392Y0161*
X03393Y01605*
Y01586*
X03404Y01601D02*
X03427D01*
Y01605*
X03425Y01608*
X03423Y0161*
X03419Y01612*
X03413*
X0341Y0161*
X03406Y01606*
X03404Y01601*
Y01597*
X03406Y01591*
X0341Y01587*
X03413Y01586*
X03419*
X03423Y01587*
X03427Y01591*
X03458Y01625D02*
Y01586D01*
Y01606D02*
X03454Y0161D01*
X03451Y01612*
X03445*
X03441Y0161*
X03437Y01606*
X03435Y01601*
Y01597*
X03437Y01591*
X03441Y01587*
X03445Y01586*
X03451*
X03454Y01587*
X03458Y01591*
X03504Y01625D02*
X03506Y01624D01*
X03508Y01625*
X03506Y01627*
X03504Y01625*
X03506Y01612D02*
Y01586D01*
X03515Y01612D02*
Y01586D01*
Y01605D02*
X03521Y0161D01*
X03525Y01612*
X0353*
X03534Y0161*
X03536Y01605*
Y01586*
X03584Y01625D02*
Y01593D01*
X03585Y01587*
X03589Y01586*
X03593*
X03578Y01612D02*
X03591D01*
X03599Y01625D02*
Y01586D01*
Y01605D02*
X03604Y0161D01*
X03608Y01612*
X03614*
X03618Y0161*
X0362Y01605*
Y01586*
X0363Y01601D02*
X03653D01*
Y01605*
X03651Y01608*
X03649Y0161*
X03645Y01612*
X0364*
X03636Y0161*
X03632Y01606*
X0363Y01601*
Y01597*
X03632Y01591*
X03636Y01587*
X0364Y01586*
X03645*
X03649Y01587*
X03653Y01591*
X03693Y01605D02*
X0371D01*
X03716Y01606*
X03718Y01608*
X0372Y01612*
Y01618*
X03718Y01622*
X03716Y01624*
X0371Y01625*
X03693*
Y01586*
X03757Y01616D02*
X03755Y0162D01*
X03752Y01624*
X03748Y01625*
X0374*
X03736Y01624*
X03732Y0162*
X03731Y01616*
X03729Y0161*
Y01601*
X03731Y01595*
X03732Y01591*
X03736Y01587*
X0374Y01586*
X03748*
X03752Y01587*
X03755Y01591*
X03757Y01595*
X03768Y01625D02*
Y01586D01*
Y01625D02*
X03786D01*
X03791Y01624*
X03793Y01622*
X03795Y01618*
Y01614*
X03793Y0161*
X03791Y01608*
X03786Y01606*
X03768D02*
X03786D01*
X03791Y01605*
X03793Y01603*
X03795Y01599*
Y01593*
X03793Y01589*
X03791Y01587*
X03786Y01586*
X03768*
X03835Y01625D02*
Y01586D01*
X03867Y01612D02*
Y01586D01*
Y01606D02*
X03863Y0161D01*
X03859Y01612*
X03853*
X0385Y0161*
X03846Y01606*
X03844Y01601*
Y01597*
X03846Y01591*
X0385Y01587*
X03853Y01586*
X03859*
X03863Y01587*
X03867Y01591*
X03879Y01612D02*
X03891Y01586D01*
X03902Y01612D02*
X03891Y01586D01*
X03887Y01578*
X03883Y01574*
X03879Y01572*
X03877*
X03918Y01612D02*
X03915Y0161D01*
X03911Y01606*
X03909Y01601*
Y01597*
X03911Y01591*
X03915Y01587*
X03918Y01586*
X03924*
X03928Y01587*
X03932Y01591*
X03934Y01597*
Y01601*
X03932Y01606*
X03928Y0161*
X03924Y01612*
X03918*
X03942D02*
Y01593D01*
X03944Y01587*
X03948Y01586*
X03954*
X03958Y01587*
X03963Y01593*
Y01612D02*
Y01586D01*
X03979Y01625D02*
Y01593D01*
X03981Y01587*
X03985Y01586*
X03989*
X03974Y01612D02*
X03987D01*
G54D34*
X00109Y02312D02*
X00149D01*
Y02302*
X00109Y02263*
Y02253*
X00169Y02302D02*
X00179Y02312D01*
X00199*
X00209Y02302*
Y02293*
X00199Y02283*
X00189*
X00199*
X00209Y02273*
Y02263*
X00199Y02253*
X00179*
X00169Y02263*
X00229Y02302D02*
X00239Y02312D01*
X00259*
X00269Y02302*
Y02263*
X00259Y02253*
X00239*
X00229Y02263*
Y02302*
X00289Y02253D02*
Y02263D01*
X00299*
Y02253*
X00289*
X00339Y02302D02*
X00349Y02312D01*
X00368*
X00378Y02302*
Y02263*
X00368Y02253*
X00349*
X00339Y02263*
Y02302*
X00398D02*
X00408Y02312D01*
X00428*
X00438Y02302*
Y02263*
X00428Y02253*
X00408*
X00398Y02263*
Y02302*
X00458Y02253D02*
Y02293D01*
X00468*
X00478Y02283*
Y02253*
Y02283*
X00488Y02293*
X00498Y02283*
Y02253*
X00518D02*
X00538D01*
X00528*
Y02293*
X00518*
X00568Y02253D02*
X00588D01*
X00578*
Y02312*
X00568*
X-0012Y00709D02*
Y00729D01*
Y00719*
X-00179*
X-00169Y00709*
X-0013Y00759D02*
X-0012Y00769D01*
Y00789*
X-0013Y00799*
X-00169*
X-00179Y00789*
Y00769*
X-00169Y00759*
X-0016*
X-0015Y00769*
Y00799*
X-00169Y00819D02*
X-00179Y00829D01*
Y00849*
X-00169Y00859*
X-0016*
X-0015Y00849*
X-0014Y00859*
X-0013*
X-0012Y00849*
Y00829*
X-0013Y00819*
X-0014*
X-0015Y00829*
X-0016Y00819*
X-00169*
X-0015Y00829D02*
Y00849D01*
X-00169Y00879D02*
X-00179Y00889D01*
Y00909*
X-00169Y00919*
X-0013*
X-0012Y00909*
Y00889*
X-0013Y00879*
X-00169*
X-0012Y00939D02*
X-0013D01*
Y00949*
X-0012*
Y00939*
X-00169Y00989D02*
X-00179Y00998D01*
Y01018*
X-00169Y01028*
X-0013*
X-0012Y01018*
Y00998*
X-0013Y00989*
X-00169*
Y01048D02*
X-00179Y01058D01*
Y01078*
X-00169Y01088*
X-0013*
X-0012Y01078*
Y01058*
X-0013Y01048*
X-00169*
X-0012Y01108D02*
X-0016D01*
Y01118*
X-0015Y01128*
X-0012*
X-0015*
X-0016Y01138*
X-0015Y01148*
X-0012*
Y01168D02*
Y01188D01*
Y01178*
X-0016*
Y01168*
X-0012Y01218D02*
Y01238D01*
Y01228*
X-00179*
Y01218*
X00149Y-00289D02*
X00129Y-00299D01*
X00109Y-00319*
Y-00338*
X00119Y-00348*
X00139*
X00149Y-00338*
Y-00329*
X00139Y-00319*
X00109*
X00169Y-00299D02*
X00179Y-00289D01*
X00199*
X00209Y-00299*
Y-00338*
X00199Y-00348*
X00179*
X00169Y-00338*
Y-00299*
X00229D02*
X00239Y-00289D01*
X00259*
X00269Y-00299*
Y-00338*
X00259Y-00348*
X00239*
X00229Y-00338*
Y-00299*
X00289Y-00348D02*
Y-00338D01*
X00299*
Y-00348*
X00289*
X00339Y-00299D02*
X00349Y-00289D01*
X00368*
X00378Y-00299*
Y-00338*
X00368Y-00348*
X00349*
X00339Y-00338*
Y-00299*
X00398D02*
X00408Y-00289D01*
X00428*
X00438Y-00299*
Y-00338*
X00428Y-00348*
X00408*
X00398Y-00338*
Y-00299*
X00458Y-00348D02*
Y-00309D01*
X00468*
X00478Y-00319*
Y-00348*
Y-00319*
X00488Y-00309*
X00498Y-00319*
Y-00348*
X00518D02*
X00538D01*
X00528*
Y-00309*
X00518*
X00568Y-00348D02*
X00588D01*
X00578*
Y-00289*
X00568*
X-00153Y-00588D02*
X-00173Y-00598D01*
X-00193Y-00618*
Y-00638*
X-00183Y-00648*
X-00163*
X-00153Y-00638*
Y-00628*
X-00163Y-00618*
X-00193*
X-00093Y-00588D02*
X-00133D01*
Y-00618*
X-00113Y-00608*
X-00103*
X-00093Y-00618*
Y-00638*
X-00103Y-00648*
X-00123*
X-00133Y-00638*
X-00073Y-00648D02*
Y-00638D01*
X-00063*
Y-00648*
X-00073*
X-00023Y-00598D02*
X-00013Y-00588D01*
X00006*
X00016Y-00598*
Y-00638*
X00006Y-00648*
X-00013*
X-00023Y-00638*
Y-00598*
X00036D02*
X00046Y-00588D01*
X00066*
X00076Y-00598*
Y-00638*
X00066Y-00648*
X00046*
X00036Y-00638*
Y-00598*
X00096Y-00648D02*
Y-00608D01*
X00106*
X00116Y-00618*
Y-00648*
Y-00618*
X00126Y-00608*
X00136Y-00618*
Y-00648*
X00156D02*
X00176D01*
X00166*
Y-00608*
X00156*
X00206Y-00648D02*
X00226D01*
X00216*
Y-00588*
X00206*
G54D55*
X02416Y00553D02*
X02993D01*
X02416Y0047D02*
X02994D01*
X00836Y02363D02*
X00832Y02367D01*
X00825Y02369*
X00816*
X00809Y02367*
X00805Y02363*
Y02358*
X00807Y02353*
X00809Y02351*
X00814Y02349*
X00827Y02344*
X00832Y02342*
X00834Y0234*
X00836Y02335*
Y02328*
X00832Y02324*
X00825Y02322*
X00816*
X00809Y02324*
X00805Y02328*
X0085Y02353D02*
X00863Y02322D01*
X00877Y02353D02*
X00863Y02322D01*
X00859Y02312*
X00854Y02308*
X0085Y02306*
X00847*
X00885Y02353D02*
Y02322D01*
Y02344D02*
X00892Y02351D01*
X00896Y02353*
X00903*
X00908Y02351*
X0091Y02344*
Y02322*
Y02344D02*
X00917Y02351D01*
X00922Y02353*
X00928*
X00933Y02351*
X00935Y02344*
Y02322*
X0095Y02369D02*
Y02322D01*
Y02347D02*
X00955Y02351D01*
X00959Y02353*
X00966*
X00971Y02351*
X00975Y02347*
X00978Y0234*
Y02335*
X00975Y02328*
X00971Y02324*
X00966Y02322*
X00959*
X00955Y02324*
X0095Y02328*
X00999Y02353D02*
X00995Y02351D01*
X0099Y02347*
X00988Y0234*
Y02335*
X0099Y02328*
X00995Y02324*
X00999Y02322*
X01006*
X01011Y02324*
X01015Y02328*
X01018Y02335*
Y0234*
X01015Y02347*
X01011Y02351*
X01006Y02353*
X00999*
X01028Y02369D02*
Y02322D01*
X011Y02369D02*
Y02322D01*
X01132Y02369D02*
Y02322D01*
X011Y02347D02*
X01132D01*
X0115Y02369D02*
X01152Y02367D01*
X01155Y02369*
X01152Y02372*
X0115Y02369*
X01152Y02353D02*
Y02322D01*
X0117Y02369D02*
Y02331D01*
X01172Y02324*
X01177Y02322*
X01181*
X01163Y02353D02*
X01179D01*
X0126Y02358D02*
X01258Y02363D01*
X01253Y02367*
X01249Y02369*
X0124*
X01235Y02367*
X0123Y02363*
X01228Y02358*
X01226Y02351*
Y0234*
X01228Y02333*
X0123Y02328*
X01235Y02324*
X0124Y02322*
X01249*
X01253Y02324*
X01258Y02328*
X0126Y02333*
X01285Y02353D02*
X01281Y02351D01*
X01276Y02347*
X01274Y0234*
Y02335*
X01276Y02328*
X01281Y02324*
X01285Y02322*
X01292*
X01297Y02324*
X01301Y02328*
X01303Y02335*
Y0234*
X01301Y02347*
X01297Y02351*
X01292Y02353*
X01285*
X01314D02*
Y02331D01*
X01316Y02324*
X01321Y02322*
X01328*
X01332Y02324*
X01339Y02331*
Y02353D02*
Y02322D01*
X01352Y02353D02*
Y02322D01*
Y02344D02*
X01358Y02351D01*
X01363Y02353*
X0137*
X01374Y02351*
X01377Y02344*
Y02322*
X01396Y02369D02*
Y02331D01*
X01398Y02324*
X01403Y02322*
X01408*
X01389Y02353D02*
X01405D01*
X0148Y02369D02*
Y02322D01*
Y02369D02*
X01509D01*
X0148Y02347D02*
X01498D01*
X01519Y02369D02*
X01522Y02367D01*
X01524Y02369*
X01522Y02372*
X01519Y02369*
X01522Y02353D02*
Y02322D01*
X01532Y02353D02*
Y02322D01*
Y02344D02*
X01539Y02351D01*
X01544Y02353*
X01551*
X01555Y02351*
X01558Y02344*
Y02322*
X01575Y02369D02*
X01577Y02367D01*
X01579Y02369*
X01577Y02372*
X01575Y02369*
X01577Y02353D02*
Y02322D01*
X01613Y02347D02*
X01611Y02351D01*
X01604Y02353*
X01597*
X0159Y02351*
X01588Y02347*
X0159Y02342*
X01595Y0234*
X01606Y02338*
X01611Y02335*
X01613Y02331*
Y02328*
X01611Y02324*
X01604Y02322*
X01597*
X0159Y02324*
X01588Y02328*
X01623Y02369D02*
Y02322D01*
Y02344D02*
X0163Y02351D01*
X01634Y02353*
X01641*
X01646Y02351*
X01648Y02344*
Y02322*
X01661Y0234D02*
X01688D01*
Y02344*
X01686Y02349*
X01683Y02351*
X01679Y02353*
X01672*
X01667Y02351*
X01663Y02347*
X01661Y0234*
Y02335*
X01663Y02328*
X01667Y02324*
X01672Y02322*
X01679*
X01683Y02324*
X01688Y02328*
X01726Y02369D02*
Y02322D01*
Y02347D02*
X01721Y02351D01*
X01717Y02353*
X0171*
X01705Y02351*
X01701Y02347*
X01698Y0234*
Y02335*
X01701Y02328*
X01705Y02324*
X0171Y02322*
X01717*
X01721Y02324*
X01726Y02328*
X01776Y02369D02*
Y02322D01*
X01808Y02369D02*
Y02322D01*
X01776Y02347D02*
X01808D01*
X01833Y02353D02*
X01828Y02351D01*
X01824Y02347*
X01821Y0234*
Y02335*
X01824Y02328*
X01828Y02324*
X01833Y02322*
X0184*
X01844Y02324*
X01849Y02328*
X01851Y02335*
Y0234*
X01849Y02347*
X01844Y02351*
X0184Y02353*
X01833*
X01862Y02369D02*
Y02322D01*
X01872Y0234D02*
X01899D01*
Y02344*
X01897Y02349*
X01895Y02351*
X0189Y02353*
X01883*
X01879Y02351*
X01874Y02347*
X01872Y0234*
Y02335*
X01874Y02328*
X01879Y02324*
X01883Y02322*
X0189*
X01895Y02324*
X01899Y02328*
X01979Y02363D02*
X01975Y02367D01*
X01968Y02369*
X01959*
X01952Y02367*
X01947Y02363*
Y02358*
X01949Y02353*
X01952Y02351*
X01956Y02349*
X0197Y02344*
X01975Y02342*
X01977Y0234*
X01979Y02335*
Y02328*
X01975Y02324*
X01968Y02322*
X01959*
X01952Y02324*
X01947Y02328*
X01994Y02369D02*
X01997Y02367D01*
X01999Y02369*
X01997Y02372*
X01994Y02369*
X01997Y02353D02*
Y02322D01*
X02033Y02353D02*
X02007Y02322D01*
Y02353D02*
X02033D01*
X02007Y02322D02*
X02033D01*
X02043Y0234D02*
X0207D01*
Y02344*
X02068Y02349*
X02066Y02351*
X02061Y02353*
X02054*
X0205Y02351*
X02045Y02347*
X02043Y0234*
Y02335*
X02045Y02328*
X0205Y02324*
X02054Y02322*
X02061*
X02066Y02324*
X0207Y02328*
X02142Y02344D02*
X02163D01*
X0217Y02347*
X02172Y02349*
X02174Y02353*
Y0236*
X02172Y02365*
X0217Y02367*
X02163Y02369*
X02142*
Y02322*
X02185Y02369D02*
Y02322D01*
Y02344D02*
X02192Y02351D01*
X02196Y02353*
X02203*
X02208Y02351*
X0221Y02344*
Y02322*
X02225Y02353D02*
X02239Y02322D01*
X02252Y02353D02*
X02239Y02322D01*
X02234Y02312*
X02229Y02308*
X02225Y02306*
X02223*
X02285Y02347D02*
X02283Y02351D01*
X02276Y02353*
X02269*
X02263Y02351*
X0226Y02347*
X02263Y02342*
X02267Y0234*
X02279Y02338*
X02283Y02335*
X02285Y02331*
Y02328*
X02283Y02324*
X02276Y02322*
X02269*
X02263Y02324*
X0226Y02328*
X023Y02369D02*
X02302Y02367D01*
X02305Y02369*
X02302Y02372*
X023Y02369*
X02302Y02353D02*
Y02322D01*
X0234Y02347D02*
X02336Y02351D01*
X02331Y02353*
X02324*
X0232Y02351*
X02315Y02347*
X02313Y0234*
Y02335*
X02315Y02328*
X0232Y02324*
X02324Y02322*
X02331*
X02336Y02324*
X0234Y02328*
X02378Y02353D02*
Y02322D01*
Y02347D02*
X02374Y02351D01*
X02369Y02353*
X02362*
X02358Y02351*
X02353Y02347*
X02351Y0234*
Y02335*
X02353Y02328*
X02358Y02324*
X02362Y02322*
X02369*
X02374Y02324*
X02378Y02328*
X02391Y02369D02*
Y02322D01*
X02439Y02369D02*
Y02322D01*
X02466*
X02471Y0234D02*
X02499D01*
Y02344*
X02497Y02349*
X02494Y02351*
X0249Y02353*
X02483*
X02478Y02351*
X02474Y02347*
X02471Y0234*
Y02335*
X02474Y02328*
X02478Y02324*
X02483Y02322*
X0249*
X02494Y02324*
X02499Y02328*
X02509Y02353D02*
Y02322D01*
Y02344D02*
X02516Y02351D01*
X02521Y02353*
X02527*
X02532Y02351*
X02534Y02344*
Y02322*
X02574Y02353D02*
Y02317D01*
X02572Y0231*
X0257Y02308*
X02565Y02306*
X02558*
X02554Y02308*
X02574Y02347D02*
X0257Y02351D01*
X02565Y02353*
X02558*
X02554Y02351*
X02549Y02347*
X02547Y0234*
Y02335*
X02549Y02328*
X02554Y02324*
X02558Y02322*
X02565*
X0257Y02324*
X02574Y02328*
X02594Y02369D02*
Y02331D01*
X02596Y02324*
X02601Y02322*
X02605*
X02587Y02353D02*
X02603D01*
X02612Y02369D02*
Y02322D01*
Y02344D02*
X02619Y02351D01*
X02624Y02353*
X0263*
X02635Y02351*
X02637Y02344*
Y02322*
X02709Y02369D02*
Y02322D01*
Y02369D02*
X0273D01*
X02737Y02367*
X02739Y02365*
X02741Y0236*
Y02356*
X02739Y02351*
X02737Y02349*
X0273Y02347*
X02709*
X02725D02*
X02741Y02322D01*
X02763Y02353D02*
X02759Y02351D01*
X02754Y02347*
X02752Y0234*
Y02335*
X02754Y02328*
X02759Y02324*
X02763Y02322*
X0277*
X02775Y02324*
X02779Y02328*
X02782Y02335*
Y0234*
X02779Y02347*
X02775Y02351*
X0277Y02353*
X02763*
X02792D02*
Y02331D01*
X02795Y02324*
X02799Y02322*
X02806*
X02811Y02324*
X02817Y02331*
Y02353D02*
Y02322D01*
X02837Y02369D02*
Y02331D01*
X02839Y02324*
X02844Y02322*
X02848*
X0283Y02353D02*
X02846D01*
X02893Y02344D02*
X02913D01*
X0292Y02347*
X02923Y02349*
X02925Y02353*
Y0236*
X02923Y02365*
X0292Y02367*
X02913Y02369*
X02893*
Y02322*
X02963Y02353D02*
Y02322D01*
Y02347D02*
X02958Y02351D01*
X02954Y02353*
X02947*
X02942Y02351*
X02938Y02347*
X02936Y0234*
Y02335*
X02938Y02328*
X02942Y02324*
X02947Y02322*
X02954*
X02958Y02324*
X02963Y02328*
X02983Y02369D02*
Y02331D01*
X02985Y02324*
X02989Y02322*
X02994*
X02976Y02353D02*
X02992D01*
X03001Y02369D02*
Y02322D01*
Y02344D02*
X03008Y02351D01*
X03012Y02353*
X03019*
X03024Y02351*
X03026Y02344*
Y02322*
X03076Y02369D02*
Y02322D01*
X03104*
X03109Y0234D02*
X03136D01*
Y02344*
X03134Y02349*
X03132Y02351*
X03127Y02353*
X0312*
X03116Y02351*
X03111Y02347*
X03109Y0234*
Y02335*
X03111Y02328*
X03116Y02324*
X0312Y02322*
X03127*
X03132Y02324*
X03136Y02328*
X03147Y02353D02*
Y02322D01*
Y02344D02*
X03154Y02351D01*
X03158Y02353*
X03165*
X0317Y02351*
X03172Y02344*
Y02322*
X03212Y02353D02*
Y02317D01*
X0321Y0231*
X03207Y02308*
X03203Y02306*
X03196*
X03191Y02308*
X03212Y02347D02*
X03207Y02351D01*
X03203Y02353*
X03196*
X03191Y02351*
X03187Y02347*
X03184Y0234*
Y02335*
X03187Y02328*
X03191Y02324*
X03196Y02322*
X03203*
X03207Y02324*
X03212Y02328*
X03231Y02369D02*
Y02331D01*
X03234Y02324*
X03238Y02322*
X03243*
X03225Y02353D02*
X03241D01*
X0325Y02369D02*
Y02322D01*
Y02344D02*
X03257Y02351D01*
X03261Y02353*
X03268*
X03273Y02351*
X03275Y02344*
Y02322*
X03347Y02344D02*
X03367D01*
X03374Y02347*
X03377Y02349*
X03379Y02353*
Y0236*
X03377Y02365*
X03374Y02367*
X03367Y02369*
X03347*
Y02322*
X0339Y02369D02*
Y02322D01*
X03427Y02353D02*
Y02322D01*
Y02347D02*
X03423Y02351D01*
X03418Y02353*
X03411*
X03407Y02351*
X03402Y02347*
X034Y0234*
Y02335*
X03402Y02328*
X03407Y02324*
X03411Y02322*
X03418*
X03423Y02324*
X03427Y02328*
X03447Y02369D02*
Y02331D01*
X03449Y02324*
X03454Y02322*
X03458*
X0344Y02353D02*
X03456D01*
X03465Y0234D02*
X03492D01*
Y02344*
X0349Y02349*
X03488Y02351*
X03483Y02353*
X03476*
X03472Y02351*
X03467Y02347*
X03465Y0234*
Y02335*
X03467Y02328*
X03472Y02324*
X03476Y02322*
X03483*
X03488Y02324*
X03492Y02328*
X0353Y02369D02*
Y02322D01*
Y02347D02*
X03526Y02351D01*
X03521Y02353*
X03514*
X0351Y02351*
X03505Y02347*
X03503Y0234*
Y02335*
X03505Y02328*
X0351Y02324*
X03514Y02322*
X03521*
X03526Y02324*
X0353Y02328*
X03602Y02369D02*
Y02322D01*
X03634Y02369D02*
Y02322D01*
X03602Y02347D02*
X03634D01*
X03659Y02353D02*
X03654Y02351D01*
X0365Y02347*
X03647Y0234*
Y02335*
X0365Y02328*
X03654Y02324*
X03659Y02322*
X03666*
X0367Y02324*
X03675Y02328*
X03677Y02335*
Y0234*
X03675Y02347*
X0367Y02351*
X03666Y02353*
X03659*
X03688Y02369D02*
Y02322D01*
X03698Y0234D02*
X03725D01*
Y02344*
X03723Y02349*
X03721Y02351*
X03716Y02353*
X03709*
X03705Y02351*
X037Y02347*
X03698Y0234*
Y02335*
X037Y02328*
X03705Y02324*
X03709Y02322*
X03716*
X03721Y02324*
X03725Y02328*
X03789Y02369D02*
Y02322D01*
X03773Y02369D02*
X03805D01*
X03813Y02353D02*
X03827Y02322D01*
X03841Y02353D02*
X03827Y02322D01*
X03822Y02312*
X03818Y02308*
X03813Y02306*
X03811*
X03849Y02353D02*
Y02306D01*
Y02347D02*
X03853Y02351D01*
X03858Y02353*
X03865*
X03869Y02351*
X03874Y02347*
X03876Y0234*
Y02335*
X03874Y02328*
X03869Y02324*
X03865Y02322*
X03858*
X03853Y02324*
X03849Y02328*
X03886Y0234D02*
X03914D01*
Y02344*
X03911Y02349*
X03909Y02351*
X03905Y02353*
X03898*
X03893Y02351*
X03889Y02347*
X03886Y0234*
Y02335*
X03889Y02328*
X03893Y02324*
X03898Y02322*
X03905*
X03909Y02324*
X03914Y02328*
X00749Y02394D02*
X03986D01*
X00749Y02286D02*
X03986D01*
X00749Y02394D02*
Y01726D01*
X03986Y02394D02*
Y01726D01*
X01072Y02394D02*
Y01726D01*
X01452Y02394D02*
Y01726D01*
X02114Y02394D02*
Y01726D01*
X02681Y02394D02*
Y01726D01*
X03319Y02394D02*
Y01726D01*
X03574Y02394D02*
Y01726D01*
X00749Y01806D02*
X03986D01*
X00749Y01726D02*
X03986D01*
G54D102*
X00522Y01922D02*
D01*
X00522Y01923*
X00522Y01925*
X00522Y01926*
X00522Y01927*
X00521Y01929*
X00521Y0193*
X0052Y01931*
X00519Y01932*
X00518Y01934*
X00518Y01935*
X00517Y01936*
X00516Y01937*
X00515Y01938*
X00513Y01938*
X00512Y01939*
X00511Y0194*
X0051Y0194*
X00508Y01941*
X00507Y01941*
X00506Y01941*
X00504Y01942*
X00503Y01942*
X00502*
X005Y01942*
X00499Y01941*
X00497Y01941*
X00496Y01941*
X00495Y0194*
X00494Y0194*
X00492Y01939*
X00491Y01938*
X0049Y01938*
X00489Y01937*
X00488Y01936*
X00487Y01935*
X00486Y01934*
X00485Y01932*
X00485Y01931*
X00484Y0193*
X00484Y01929*
X00483Y01927*
X00483Y01926*
X00482Y01925*
X00482Y01923*
X00482Y01922*
X00482Y0192*
X00482Y01919*
X00483Y01918*
X00483Y01916*
X00484Y01915*
X00484Y01914*
X00485Y01912*
X00485Y01911*
X00486Y0191*
X00487Y01909*
X00488Y01908*
X00489Y01907*
X0049Y01906*
X00491Y01905*
X00492Y01904*
X00494Y01904*
X00495Y01903*
X00496Y01903*
X00497Y01902*
X00499Y01902*
X005Y01902*
X00502Y01902*
X00503*
X00504Y01902*
X00506Y01902*
X00507Y01902*
X00508Y01903*
X0051Y01903*
X00511Y01904*
X00512Y01904*
X00513Y01905*
X00515Y01906*
X00516Y01907*
X00517Y01908*
X00518Y01909*
X00518Y0191*
X00519Y01911*
X0052Y01912*
X00521Y01914*
X00521Y01915*
X00522Y01916*
X00522Y01918*
X00522Y01919*
X00522Y0192*
X00522Y01922*
X00247D02*
D01*
X00247Y01923*
X00247Y01925*
X00246Y01926*
X00246Y01927*
X00246Y01929*
X00245Y0193*
X00244Y01931*
X00244Y01932*
X00243Y01934*
X00242Y01935*
X00241Y01936*
X0024Y01937*
X00239Y01938*
X00238Y01938*
X00237Y01939*
X00235Y0194*
X00234Y0194*
X00233Y01941*
X00232Y01941*
X0023Y01941*
X00229Y01942*
X00227Y01942*
X00226*
X00225Y01942*
X00223Y01941*
X00222Y01941*
X00221Y01941*
X00219Y0194*
X00218Y0194*
X00217Y01939*
X00216Y01938*
X00214Y01938*
X00213Y01937*
X00212Y01936*
X00211Y01935*
X00211Y01934*
X0021Y01932*
X00209Y01931*
X00208Y0193*
X00208Y01929*
X00207Y01927*
X00207Y01926*
X00207Y01925*
X00207Y01923*
X00207Y01922*
X00207Y0192*
X00207Y01919*
X00207Y01918*
X00207Y01916*
X00208Y01915*
X00208Y01914*
X00209Y01912*
X0021Y01911*
X00211Y0191*
X00211Y01909*
X00212Y01908*
X00213Y01907*
X00214Y01906*
X00216Y01905*
X00217Y01904*
X00218Y01904*
X00219Y01903*
X00221Y01903*
X00222Y01902*
X00223Y01902*
X00225Y01902*
X00226Y01902*
X00227*
X00229Y01902*
X0023Y01902*
X00232Y01902*
X00233Y01903*
X00234Y01903*
X00235Y01904*
X00237Y01904*
X00238Y01905*
X00239Y01906*
X0024Y01907*
X00241Y01908*
X00242Y01909*
X00243Y0191*
X00244Y01911*
X00244Y01912*
X00245Y01914*
X00246Y01915*
X00246Y01916*
X00246Y01918*
X00247Y01919*
X00247Y0192*
X00247Y01922*
G54D103*
X02847Y00961D02*
X02965D01*
X02808Y00922D02*
X02965D01*
X02591D02*
X02768D01*
X02414D02*
X02552D01*
X02414Y00961D02*
X02591D01*
X0265D02*
X02788D01*
X02965Y00922D02*
Y00961D01*
X02414Y00922D02*
Y00961D01*
X00831Y017D02*
X00827Y01704D01*
X00822Y01705*
X00814*
X00808Y01704*
X00805Y017*
Y01696*
X00806Y01692*
X00808Y0169*
X00812Y01688*
X00824Y01685*
X00827Y01683*
X00829Y01681*
X00831Y01677*
Y01671*
X00827Y01667*
X00822Y01666*
X00814*
X00808Y01667*
X00805Y01671*
X0084Y01705D02*
Y01666D01*
X00858Y01692D02*
X00854Y0169D01*
X0085Y01686*
X00848Y01681*
Y01677*
X0085Y01671*
X00854Y01667*
X00858Y01666*
X00864*
X00868Y01667*
X00871Y01671*
X00873Y01677*
Y01681*
X00871Y01686*
X00868Y0169*
X00864Y01692*
X00858*
X00888Y01705D02*
Y01673D01*
X0089Y01667*
X00893Y01666*
X00897*
X00882Y01692D02*
X00895D01*
X00957Y01705D02*
Y01666D01*
Y01686D02*
X00953Y0169D01*
X0095Y01692*
X00944*
X0094Y0169*
X00936Y01686*
X00934Y01681*
Y01677*
X00936Y01671*
X0094Y01667*
X00944Y01666*
X0095*
X00953Y01667*
X00957Y01671*
X00968Y01681D02*
X00991D01*
Y01685*
X00989Y01688*
X00987Y0169*
X00983Y01692*
X00977*
X00974Y0169*
X0097Y01686*
X00968Y01681*
Y01677*
X0097Y01671*
X00974Y01667*
X00977Y01666*
X00983*
X00987Y01667*
X00991Y01671*
X01015Y01705D02*
X01011D01*
X01007Y01704*
X01005Y01698*
Y01666*
X00999Y01692D02*
X01013D01*
X01024Y01705D02*
X01026Y01704D01*
X01028Y01705*
X01026Y01707*
X01024Y01705*
X01026Y01692D02*
Y01666D01*
X01035Y01692D02*
Y01666D01*
Y01685D02*
X01041Y0169D01*
X01044Y01692*
X0105*
X01054Y0169*
X01056Y01685*
Y01666*
X0107Y01705D02*
X01072Y01704D01*
X01074Y01705*
X01072Y01707*
X0107Y01705*
X01072Y01692D02*
Y01666D01*
X01087Y01705D02*
Y01673D01*
X01089Y01667*
X01092Y01666*
X01096*
X01081Y01692D02*
X01094D01*
X01106Y01705D02*
X01108Y01704D01*
X0111Y01705*
X01108Y01707*
X01106Y01705*
X01108Y01692D02*
Y01666D01*
X01126Y01692D02*
X01122Y0169D01*
X01119Y01686*
X01117Y01681*
Y01677*
X01119Y01671*
X01122Y01667*
X01126Y01666*
X01132*
X01136Y01667*
X01139Y01671*
X01141Y01677*
Y01681*
X01139Y01686*
X01136Y0169*
X01132Y01692*
X01126*
X0115D02*
Y01666D01*
Y01685D02*
X01156Y0169D01*
X0116Y01692*
X01165*
X01169Y0169*
X01171Y01685*
Y01666*
X01203Y01686D02*
X01201Y0169D01*
X01195Y01692*
X01189*
X01183Y0169*
X01182Y01686*
X01183Y01683*
X01187Y01681*
X01197Y01679*
X01201Y01677*
X01203Y01673*
Y01671*
X01201Y01667*
X01195Y01666*
X01189*
X01183Y01667*
X01182Y01671*
X01244Y01692D02*
X01242Y0169D01*
X01244Y01688*
X01246Y0169*
X01244Y01692*
Y01669D02*
X01242Y01667D01*
X01244Y01666*
X01246Y01667*
X01244Y01669*
X01316Y01705D02*
Y01666D01*
Y01705D02*
X01333D01*
X01339Y01704*
X01341Y01702*
X01343Y01698*
Y01694*
X01341Y0169*
X01339Y01688*
X01333Y01686*
X01316*
X01329D02*
X01343Y01666D01*
X01361Y01692D02*
X01357Y0169D01*
X01354Y01686*
X01352Y01681*
Y01677*
X01354Y01671*
X01357Y01667*
X01361Y01666*
X01367*
X01371Y01667*
X01375Y01671*
X01376Y01677*
Y01681*
X01375Y01686*
X01371Y0169*
X01367Y01692*
X01361*
X01385D02*
Y01673D01*
X01387Y01667*
X01391Y01666*
X01397*
X014Y01667*
X01406Y01673*
Y01692D02*
Y01666D01*
X01422Y01705D02*
Y01673D01*
X01424Y01667*
X01428Y01666*
X01432*
X01417Y01692D02*
X0143D01*
X01469Y01685D02*
X01486D01*
X01492Y01686*
X01494Y01688*
X01496Y01692*
Y01698*
X01494Y01702*
X01492Y01704*
X01486Y01705*
X01469*
Y01666*
X01528Y01692D02*
Y01666D01*
Y01686D02*
X01524Y0169D01*
X0152Y01692*
X01514*
X0151Y0169*
X01507Y01686*
X01505Y01681*
Y01677*
X01507Y01671*
X0151Y01667*
X01514Y01666*
X0152*
X01524Y01667*
X01528Y01671*
X01544Y01705D02*
Y01673D01*
X01546Y01667*
X0155Y01666*
X01553*
X01538Y01692D02*
X01552D01*
X01559Y01705D02*
Y01666D01*
Y01685D02*
X01565Y0169D01*
X01569Y01692*
X01574*
X01578Y0169*
X0158Y01685*
Y01666*
X01622Y01705D02*
Y01666D01*
X01645*
X01649Y01681D02*
X01672D01*
Y01685*
X0167Y01688*
X01668Y0169*
X01664Y01692*
X01659*
X01655Y0169*
X01651Y01686*
X01649Y01681*
Y01677*
X01651Y01671*
X01655Y01667*
X01659Y01666*
X01664*
X01668Y01667*
X01672Y01671*
X01681Y01692D02*
Y01666D01*
Y01685D02*
X01686Y0169D01*
X0169Y01692*
X01696*
X017Y0169*
X01702Y01685*
Y01666*
X01735Y01692D02*
Y01662D01*
X01733Y01656*
X01731Y01654*
X01727Y01652*
X01722*
X01718Y01654*
X01735Y01686D02*
X01731Y0169D01*
X01727Y01692*
X01722*
X01718Y0169*
X01714Y01686*
X01712Y01681*
Y01677*
X01714Y01671*
X01718Y01667*
X01722Y01666*
X01727*
X01731Y01667*
X01735Y01671*
X01751Y01705D02*
Y01673D01*
X01753Y01667*
X01757Y01666*
X01761*
X01746Y01692D02*
X01759D01*
X01767Y01705D02*
Y01666D01*
Y01685D02*
X01772Y0169D01*
X01776Y01692*
X01782*
X01786Y0169*
X01787Y01685*
Y01666*
X01316Y01605D02*
X01333D01*
X01339Y01606*
X01341Y01608*
X01343Y01612*
Y01618*
X01341Y01622*
X01339Y01624*
X01333Y01625*
X01316*
Y01586*
X01352Y01625D02*
Y01586D01*
Y01605D02*
X01357Y0161D01*
X01361Y01612*
X01367*
X01371Y0161*
X01373Y01605*
Y01586*
X01385Y01612D02*
X01396Y01586D01*
X01408Y01612D02*
X01396Y01586D01*
X01393Y01578*
X01389Y01574*
X01385Y01572*
X01383*
X01436Y01606D02*
X01434Y0161D01*
X01428Y01612*
X01422*
X01416Y0161*
X01415Y01606*
X01416Y01603*
X0142Y01601*
X0143Y01599*
X01434Y01597*
X01436Y01593*
Y01591*
X01434Y01587*
X01428Y01586*
X01422*
X01416Y01587*
X01415Y01591*
X01448Y01625D02*
X0145Y01624D01*
X01452Y01625*
X0145Y01627*
X01448Y01625*
X0145Y01612D02*
Y01586D01*
X01481Y01606D02*
X01478Y0161D01*
X01474Y01612*
X01468*
X01464Y0161*
X0146Y01606*
X01459Y01601*
Y01597*
X0146Y01591*
X01464Y01587*
X01468Y01586*
X01474*
X01478Y01587*
X01481Y01591*
X01513Y01612D02*
Y01586D01*
Y01606D02*
X01509Y0161D01*
X01505Y01612*
X015*
X01496Y0161*
X01492Y01606*
X0149Y01601*
Y01597*
X01492Y01591*
X01496Y01587*
X015Y01586*
X01505*
X01509Y01587*
X01513Y01591*
X01524Y01625D02*
Y01586D01*
X01563Y01625D02*
Y01586D01*
X01586*
X01591Y01601D02*
X01613D01*
Y01605*
X01611Y01608*
X0161Y0161*
X01606Y01612*
X016*
X01596Y0161*
X01592Y01606*
X01591Y01601*
Y01597*
X01592Y01591*
X01596Y01587*
X016Y01586*
X01606*
X0161Y01587*
X01613Y01591*
X01622Y01612D02*
Y01586D01*
Y01605D02*
X01628Y0161D01*
X01631Y01612*
X01637*
X01641Y0161*
X01643Y01605*
Y01586*
X01676Y01612D02*
Y01582D01*
X01674Y01576*
X01672Y01574*
X01669Y01572*
X01663*
X01659Y01574*
X01676Y01606D02*
X01672Y0161D01*
X01669Y01612*
X01663*
X01659Y0161*
X01655Y01606*
X01653Y01601*
Y01597*
X01655Y01591*
X01659Y01587*
X01663Y01586*
X01669*
X01672Y01587*
X01676Y01591*
X01693Y01625D02*
Y01593D01*
X01695Y01587*
X01698Y01586*
X01702*
X01687Y01612D02*
X017D01*
X01708Y01625D02*
Y01586D01*
Y01605D02*
X01714Y0161D01*
X01717Y01612*
X01723*
X01727Y0161*
X01729Y01605*
Y01586*
G54D104*
X01243Y00283D02*
X0124Y00287D01*
X01235Y00288*
X01228*
X01223Y00287*
X0122Y00283*
Y0028*
X01221Y00277*
X01223Y00275*
X01226Y00274*
X01236Y0027*
X0124Y00269*
X01241Y00267*
X01243Y00264*
Y00259*
X0124Y00255*
X01235Y00254*
X01228*
X01223Y00255*
X0122Y00259*
X01254Y00288D02*
X01256Y00287D01*
X01257Y00288*
X01256Y0029*
X01254Y00288*
X01256Y00277D02*
Y00254D01*
X01263Y00288D02*
Y00254D01*
X01271Y00288D02*
Y00254D01*
X01287Y00277D02*
X01271Y0026D01*
X01277Y00267D02*
X01289Y00254D01*
X01313Y00272D02*
X01311Y00275D01*
X01306Y00277*
X01301*
X01296Y00275*
X01295Y00272*
X01296Y00269*
X013Y00267*
X01308Y00265*
X01311Y00264*
X01313Y0026*
Y00259*
X01311Y00255*
X01306Y00254*
X01301*
X01296Y00255*
X01295Y00259*
X0134Y00272D02*
X01337Y00275D01*
X01334Y00277*
X01329*
X01325Y00275*
X01322Y00272*
X0132Y00267*
Y00264*
X01322Y00259*
X01325Y00255*
X01329Y00254*
X01334*
X01337Y00255*
X0134Y00259*
X01348Y00277D02*
Y00254D01*
Y00267D02*
X01349Y00272D01*
X01353Y00275*
X01356Y00277*
X01361*
X01364Y00267D02*
X01384D01*
Y0027*
X01383Y00274*
X01381Y00275*
X01378Y00277*
X01373*
X01369Y00275*
X01366Y00272*
X01364Y00267*
Y00264*
X01366Y00259*
X01369Y00255*
X01373Y00254*
X01378*
X01381Y00255*
X01384Y00259*
X01392Y00267D02*
X01412D01*
Y0027*
X0141Y00274*
X01408Y00275*
X01405Y00277*
X014*
X01397Y00275*
X01393Y00272*
X01392Y00267*
Y00264*
X01393Y00259*
X01397Y00255*
X014Y00254*
X01405*
X01408Y00255*
X01412Y00259*
X01419Y00277D02*
Y00254D01*
Y0027D02*
X01424Y00275D01*
X01428Y00277*
X01433*
X01436Y00275*
X01438Y0027*
Y00254*
X01494Y00272D02*
X01491Y00275D01*
X01488Y00277*
X01483*
X01479Y00275*
X01476Y00272*
X01474Y00267*
Y00264*
X01476Y00259*
X01479Y00255*
X01483Y00254*
X01488*
X01491Y00255*
X01494Y00259*
X0151Y00277D02*
X01507Y00275D01*
X01503Y00272*
X01502Y00267*
Y00264*
X01503Y00259*
X01507Y00255*
X0151Y00254*
X01515*
X01518Y00255*
X01522Y00259*
X01523Y00264*
Y00267*
X01522Y00272*
X01518Y00275*
X01515Y00277*
X0151*
X01531Y00288D02*
Y00254D01*
X01547Y00277D02*
X01543Y00275D01*
X0154Y00272*
X01538Y00267*
Y00264*
X0154Y00259*
X01543Y00255*
X01547Y00254*
X01552*
X01555Y00255*
X01558Y00259*
X0156Y00264*
Y00267*
X01558Y00272*
X01555Y00275*
X01552Y00277*
X01547*
X01568D02*
Y00254D01*
Y00267D02*
X01569Y00272D01*
X01573Y00275*
X01576Y00277*
X01581*
X01613D02*
X01612Y00275D01*
X01613Y00274*
X01615Y00275*
X01613Y00277*
Y00257D02*
X01612Y00255D01*
X01613Y00254*
X01615Y00255*
X01613Y00257*
X0165Y00288D02*
Y00254D01*
Y00288D02*
X01665D01*
X0167Y00287*
X01672Y00285*
X01674Y00282*
Y00279*
X01672Y00275*
X0167Y00274*
X01665Y00272*
X0165D02*
X01665D01*
X0167Y0027*
X01672Y00269*
X01674Y00265*
Y0026*
X01672Y00257*
X0167Y00255*
X01665Y00254*
X0165*
X01681Y00288D02*
Y00254D01*
X01689Y00277D02*
Y0026D01*
X0169Y00255*
X01694Y00254*
X01699*
X01702Y00255*
X01707Y0026*
Y00277D02*
Y00254D01*
X01716Y00267D02*
X01736D01*
Y0027*
X01735Y00274*
X01733Y00275*
X0173Y00277*
X01725*
X01721Y00275*
X01718Y00272*
X01716Y00267*
Y00264*
X01718Y00259*
X01721Y00255*
X01725Y00254*
X0173*
X01733Y00255*
X01736Y00259*
X01775Y00288D02*
X01776Y00287D01*
X01778Y00288*
X01776Y0029*
X01775Y00288*
X01776Y00277D02*
Y00254D01*
X01784Y00277D02*
Y00254D01*
Y0027D02*
X01789Y00275D01*
X01792Y00277*
X01797*
X01801Y00275*
X01802Y0027*
Y00254*
X01812Y00288D02*
Y00254D01*
X01828Y00277D02*
X01812Y0026D01*
X01818Y00267D02*
X0183Y00254D01*
X01863Y0027D02*
X01878D01*
X01883Y00272*
X01885Y00274*
X01886Y00277*
Y00282*
X01885Y00285*
X01883Y00287*
X01878Y00288*
X01863*
Y00254*
X01921D02*
X01907Y00288D01*
X01894Y00254*
X01899Y00265D02*
X01916D01*
X01929Y00288D02*
Y00254D01*
Y00288D02*
X01952Y00254D01*
Y00288D02*
Y00254D01*
X01974Y00288D02*
Y00254D01*
X01962Y00288D02*
X01985D01*
X01999D02*
X01996Y00287D01*
X01993Y00283*
X01991Y0028*
X01989Y00275*
Y00267*
X01991Y00262*
X01993Y00259*
X01996Y00255*
X01999Y00254*
X02006*
X02009Y00255*
X02013Y00259*
X02014Y00262*
X02016Y00267*
Y00275*
X02014Y0028*
X02013Y00283*
X02009Y00287*
X02006Y00288*
X01999*
X02024D02*
Y00254D01*
Y00288D02*
X02047Y00254D01*
Y00288D02*
Y00254D01*
X02079Y00288D02*
X02057D01*
Y00254*
X02079*
X02057Y00272D02*
X0207D01*
X02114Y0028D02*
Y00282D01*
X02115Y00285*
X02117Y00287*
X0212Y00288*
X02127*
X0213Y00287*
X02132Y00285*
X02134Y00282*
Y00279*
X02132Y00275*
X02129Y0027*
X02112Y00254*
X02135*
X02165Y00277D02*
X02163Y00272D01*
X0216Y00269*
X02155Y00267*
X02153*
X02148Y00269*
X02145Y00272*
X02143Y00277*
Y00279*
X02145Y00283*
X02148Y00287*
X02153Y00288*
X02155*
X0216Y00287*
X02163Y00283*
X02165Y00277*
Y00269*
X02163Y0026*
X0216Y00255*
X02155Y00254*
X02152*
X02147Y00255*
X02145Y00259*
X02194Y00288D02*
X02178D01*
X02176Y00274*
X02178Y00275*
X02183Y00277*
X02188*
X02193Y00275*
X02196Y00272*
X02198Y00267*
Y00264*
X02196Y00259*
X02193Y00255*
X02188Y00254*
X02183*
X02178Y00255*
X02176Y00257*
X02174Y0026*
X02226Y00288D02*
X02209D01*
X02207Y00274*
X02209Y00275*
X02214Y00277*
X02219*
X02224Y00275*
X02227Y00272*
X02229Y00267*
Y00264*
X02227Y00259*
X02224Y00255*
X02219Y00254*
X02214*
X02209Y00255*
X02207Y00257*
X02206Y0026*
X01243Y00223D02*
X0124Y00227D01*
X01235Y00228*
X01228*
X01223Y00227*
X0122Y00223*
Y0022*
X01221Y00217*
X01223Y00215*
X01226Y00214*
X01236Y0021*
X0124Y00209*
X01241Y00207*
X01243Y00204*
Y00199*
X0124Y00195*
X01235Y00194*
X01228*
X01223Y00195*
X0122Y00199*
X01259Y00217D02*
X01256Y00215D01*
X01252Y00212*
X01251Y00207*
Y00204*
X01252Y00199*
X01256Y00195*
X01259Y00194*
X01264*
X01267Y00195*
X01271Y00199*
X01272Y00204*
Y00207*
X01271Y00212*
X01267Y00215*
X01264Y00217*
X01259*
X0128Y00228D02*
Y00194D01*
X01307Y00228D02*
Y00194D01*
Y00212D02*
X01304Y00215D01*
X01301Y00217*
X01296*
X01292Y00215*
X01289Y00212*
X01287Y00207*
Y00204*
X01289Y00199*
X01292Y00195*
X01296Y00194*
X01301*
X01304Y00195*
X01307Y00199*
X01317Y00207D02*
X01337D01*
Y0021*
X01335Y00214*
X01333Y00215*
X0133Y00217*
X01325*
X01322Y00215*
X01318Y00212*
X01317Y00207*
Y00204*
X01318Y00199*
X01322Y00195*
X01325Y00194*
X0133*
X01333Y00195*
X01337Y00199*
X01344Y00217D02*
Y00194D01*
Y00207D02*
X01346Y00212D01*
X01349Y00215*
X01352Y00217*
X01357*
X01388D02*
Y00194D01*
Y00207D02*
X0139Y00212D01*
X01393Y00215*
X01396Y00217*
X01401*
X01405Y00207D02*
X01425D01*
Y0021*
X01423Y00214*
X01421Y00215*
X01418Y00217*
X01413*
X0141Y00215*
X01406Y00212*
X01405Y00207*
Y00204*
X01406Y00199*
X0141Y00195*
X01413Y00194*
X01418*
X01421Y00195*
X01425Y00199*
X0145Y00212D02*
X01449Y00215D01*
X01444Y00217*
X01439*
X01434Y00215*
X01432Y00212*
X01434Y00209*
X01437Y00207*
X01445Y00205*
X01449Y00204*
X0145Y002*
Y00199*
X01449Y00195*
X01444Y00194*
X01439*
X01434Y00195*
X01432Y00199*
X01461Y00228D02*
X01463Y00227D01*
X01464Y00228*
X01463Y0023*
X01461Y00228*
X01463Y00217D02*
Y00194D01*
X01489Y00212D02*
X01487Y00215D01*
X01482Y00217*
X01477*
X01472Y00215*
X01471Y00212*
X01472Y00209*
X01476Y00207*
X01484Y00205*
X01487Y00204*
X01489Y002*
Y00199*
X01487Y00195*
X01482Y00194*
X01477*
X01472Y00195*
X01471Y00199*
X01501Y00228D02*
Y002D01*
X01503Y00195*
X01506Y00194*
X0151*
X01496Y00217D02*
X01508D01*
X01562Y00212D02*
X01559Y00215D01*
X01555Y00217*
X0155*
X01547Y00215*
X01544Y00212*
X01542Y00207*
Y00204*
X01544Y00199*
X01547Y00195*
X0155Y00194*
X01555*
X01559Y00195*
X01562Y00199*
X01578Y00217D02*
X01575Y00215D01*
X01571Y00212*
X0157Y00207*
Y00204*
X01571Y00199*
X01575Y00195*
X01578Y00194*
X01583*
X01586Y00195*
X0159Y00199*
X01591Y00204*
Y00207*
X0159Y00212*
X01586Y00215*
X01583Y00217*
X01578*
X01599Y00228D02*
Y00194D01*
X01615Y00217D02*
X01611Y00215D01*
X01608Y00212*
X01606Y00207*
Y00204*
X01608Y00199*
X01611Y00195*
X01615Y00194*
X0162*
X01623Y00195*
X01626Y00199*
X01628Y00204*
Y00207*
X01626Y00212*
X01623Y00215*
X0162Y00217*
X01615*
X01636D02*
Y00194D01*
Y00207D02*
X01637Y00212D01*
X01641Y00215*
X01644Y00217*
X01649*
X01681D02*
X0168Y00215D01*
X01681Y00214*
X01683Y00215*
X01681Y00217*
Y00197D02*
X0168Y00195D01*
X01681Y00194*
X01683Y00195*
X01681Y00197*
X01718Y00228D02*
X01726Y00194D01*
X01735Y00228D02*
X01726Y00194D01*
X01735Y00228D02*
X01743Y00194D01*
X01751Y00228D02*
X01743Y00194D01*
X01758Y00228D02*
Y00194D01*
Y0021D02*
X01763Y00215D01*
X01767Y00217*
X01772*
X01775Y00215*
X01777Y0021*
Y00194*
X01789Y00228D02*
X01791Y00227D01*
X01793Y00228*
X01791Y0023*
X01789Y00228*
X01791Y00217D02*
Y00194D01*
X01804Y00228D02*
Y002D01*
X01805Y00195*
X01809Y00194*
X01812*
X01799Y00217D02*
X0181D01*
X01817Y00207D02*
X01837D01*
Y0021*
X01835Y00214*
X01834Y00215*
X0183Y00217*
X01825*
X01822Y00215*
X01819Y00212*
X01817Y00207*
Y00204*
X01819Y00199*
X01822Y00195*
X01825Y00194*
X0183*
X01834Y00195*
X01837Y00199*
X0122Y0015D02*
X01235D01*
X0124Y00152*
X01241Y00154*
X01243Y00157*
Y00162*
X01241Y00165*
X0124Y00167*
X01235Y00168*
X0122*
Y00134*
X01251Y00168D02*
Y00134D01*
X01278Y00157D02*
Y00134D01*
Y00152D02*
X01275Y00155D01*
X01271Y00157*
X01266*
X01263Y00155*
X0126Y00152*
X01258Y00147*
Y00144*
X0126Y00139*
X01263Y00135*
X01266Y00134*
X01271*
X01275Y00135*
X01278Y00139*
X01292Y00168D02*
Y0014D01*
X01294Y00135*
X01297Y00134*
X01301*
X01287Y00157D02*
X01299D01*
X01309Y00168D02*
X01311Y00167D01*
X01312Y00168*
X01311Y0017*
X01309Y00168*
X01311Y00157D02*
Y00134D01*
X01318Y00157D02*
Y00134D01*
Y0015D02*
X01323Y00155D01*
X01327Y00157*
X01332*
X01335Y00155*
X01337Y0015*
Y00134*
X01366Y00157D02*
Y0013D01*
X01364Y00125*
X01363Y00124*
X01359Y00122*
X01354*
X01351Y00124*
X01366Y00152D02*
X01363Y00155D01*
X01359Y00157*
X01354*
X01351Y00155*
X01348Y00152*
X01346Y00147*
Y00144*
X01348Y00139*
X01351Y00135*
X01354Y00134*
X01359*
X01363Y00135*
X01366Y00139*
X01408Y00168D02*
Y0014D01*
X01409Y00135*
X01413Y00134*
X01416*
X01403Y00157D02*
X01414D01*
X01423D02*
X01433Y00134D01*
X01443Y00157D02*
X01433Y00134D01*
X01429Y00127*
X01426Y00124*
X01423Y00122*
X01421*
X01449Y00157D02*
Y00122D01*
Y00152D02*
X01452Y00155D01*
X01455Y00157*
X0146*
X01464Y00155*
X01467Y00152*
X01469Y00147*
Y00144*
X01467Y00139*
X01464Y00135*
X0146Y00134*
X01455*
X01452Y00135*
X01449Y00139*
X01476Y00147D02*
X01496D01*
Y0015*
X01494Y00154*
X01493Y00155*
X01489Y00157*
X01484*
X01481Y00155*
X01478Y00152*
X01476Y00147*
Y00144*
X01478Y00139*
X01481Y00135*
X01484Y00134*
X01489*
X01493Y00135*
X01496Y00139*
X01533Y00157D02*
X01531Y00155D01*
X01533Y00154*
X01534Y00155*
X01533Y00157*
Y00137D02*
X01531Y00135D01*
X01533Y00134*
X01534Y00135*
X01533Y00137*
X0157Y00168D02*
Y00134D01*
X01577Y00147D02*
X01597D01*
Y0015*
X01595Y00154*
X01594Y00155*
X0159Y00157*
X01585*
X01582Y00155*
X01579Y00152*
X01577Y00147*
Y00144*
X01579Y00139*
X01582Y00135*
X01585Y00134*
X0159*
X01594Y00135*
X01597Y00139*
X01624Y00157D02*
Y00134D01*
Y00152D02*
X01621Y00155D01*
X01618Y00157*
X01613*
X01609Y00155*
X01606Y00152*
X01604Y00147*
Y00144*
X01606Y00139*
X01609Y00135*
X01613Y00134*
X01618*
X01621Y00135*
X01624Y00139*
X01654Y00168D02*
Y00134D01*
Y00152D02*
X0165Y00155D01*
X01647Y00157*
X01642*
X01639Y00155*
X01635Y00152*
X01634Y00147*
Y00144*
X01635Y00139*
X01639Y00135*
X01642Y00134*
X01647*
X0165Y00135*
X01654Y00139*
X01716Y0016D02*
X01714Y00163D01*
X01711Y00167*
X01707Y00168*
X01701*
X01697Y00167*
X01694Y00163*
X01692Y0016*
X01691Y00155*
Y00147*
X01692Y00142*
X01694Y00139*
X01697Y00135*
X01701Y00134*
X01707*
X01711Y00135*
X01714Y00139*
X01716Y00142*
Y00147*
X01707D02*
X01716D01*
X01732Y00157D02*
X01729Y00155D01*
X01725Y00152*
X01724Y00147*
Y00144*
X01725Y00139*
X01729Y00135*
X01732Y00134*
X01737*
X0174Y00135*
X01744Y00139*
X01745Y00144*
Y00147*
X01744Y00152*
X0174Y00155*
X01737Y00157*
X01732*
X01753Y00168D02*
Y00134D01*
X0178Y00168D02*
Y00134D01*
Y00152D02*
X01777Y00155D01*
X01774Y00157*
X01769*
X01765Y00155*
X01762Y00152*
X0176Y00147*
Y00144*
X01762Y00139*
X01765Y00135*
X01769Y00134*
X01774*
X01777Y00135*
X0178Y00139*
G54D105*
X0168Y0148D02*
Y01431D01*
X01708*
X01741Y01463D02*
Y01431D01*
Y01456D02*
X01736Y01461D01*
X01732Y01463*
X01725*
X0172Y01461*
X01715Y01456*
X01713Y01449*
Y01445*
X01715Y01438*
X0172Y01433*
X01725Y01431*
X01732*
X01736Y01433*
X01741Y01438*
X01757Y01463D02*
X01771Y01431D01*
X01785Y01463D02*
X01771Y01431D01*
X01766Y01421*
X01761Y01416*
X01757Y01414*
X01754*
X01793Y01449D02*
X01821D01*
Y01454*
X01819Y01459*
X01816Y01461*
X01812Y01463*
X01805*
X018Y01461*
X01795Y01456*
X01793Y01449*
Y01445*
X01795Y01438*
X018Y01433*
X01805Y01431*
X01812*
X01816Y01433*
X01821Y01438*
X01832Y01463D02*
Y01431D01*
Y01449D02*
X01834Y01456D01*
X01839Y01461*
X01843Y01463*
X0185*
X01926Y01473D02*
X01922Y01477D01*
X01915Y0148*
X01905*
X01898Y01477*
X01893Y01473*
Y01468*
X01896Y01463*
X01898Y01461*
X01903Y01459*
X01917Y01454*
X01922Y01452*
X01924Y01449*
X01926Y01445*
Y01438*
X01922Y01433*
X01915Y01431*
X01905*
X01898Y01433*
X01893Y01438*
X01944Y0148D02*
Y0144D01*
X01947Y01433*
X01951Y01431*
X01956*
X01937Y01463D02*
X01954D01*
X01991D02*
Y01431D01*
Y01456D02*
X01986Y01461D01*
X01982Y01463*
X01975*
X0197Y01461*
X01965Y01456*
X01963Y01449*
Y01445*
X01965Y01438*
X0197Y01433*
X01975Y01431*
X01982*
X01986Y01433*
X01991Y01438*
X02032Y01456D02*
X02028Y01461D01*
X02023Y01463*
X02016*
X02011Y01461*
X02007Y01456*
X02004Y01449*
Y01445*
X02007Y01438*
X02011Y01433*
X02016Y01431*
X02023*
X02028Y01433*
X02032Y01438*
X02043Y0148D02*
Y01431D01*
X02066Y01463D02*
X02043Y0144D01*
X02052Y01449D02*
X02069Y01431D01*
X02115Y0148D02*
Y01445D01*
X02117Y01438*
X02122Y01433*
X02129Y01431*
X02134*
X02141Y01433*
X02146Y01438*
X02148Y01445*
Y0148*
X02161Y01463D02*
Y01414D01*
Y01456D02*
X02166Y01461D01*
X02171Y01463*
X02178*
X02183Y01461*
X02187Y01456*
X0219Y01449*
Y01445*
X02187Y01438*
X02183Y01433*
X02178Y01431*
X02171*
X02166Y01433*
X02161Y01438*
X02239Y0148D02*
Y01431D01*
Y0148D02*
X02255D01*
X02262Y01477*
X02267Y01473*
X02269Y01468*
X02272Y01461*
Y01449*
X02269Y01442*
X02267Y01438*
X02262Y01433*
X02255Y01431*
X02239*
X02283Y01449D02*
X02311D01*
Y01454*
X02308Y01459*
X02306Y01461*
X02301Y01463*
X02294*
X0229Y01461*
X02285Y01456*
X02283Y01449*
Y01445*
X02285Y01438*
X0229Y01433*
X02294Y01431*
X02301*
X02306Y01433*
X02311Y01438*
X02328Y0148D02*
Y0144D01*
X02331Y01433*
X02335Y01431*
X0234*
X02321Y01463D02*
X02338D01*
X02375D02*
Y01431D01*
Y01456D02*
X0237Y01461D01*
X02366Y01463*
X02359*
X02354Y01461*
X02349Y01456*
X02347Y01449*
Y01445*
X02349Y01438*
X02354Y01433*
X02359Y01431*
X02366*
X0237Y01433*
X02375Y01438*
X02393Y0148D02*
X02395Y01477D01*
X02398Y0148*
X02395Y01482*
X02393Y0148*
X02395Y01463D02*
Y01431D01*
X02406Y0148D02*
Y01431D01*
X02474Y0148D02*
X02469D01*
X02465Y01477*
X02462Y0147*
Y01431*
X02455Y01463D02*
X02472D01*
X02493D02*
X02488Y01461D01*
X02483Y01456*
X02481Y01449*
Y01445*
X02483Y01438*
X02488Y01433*
X02493Y01431*
X025*
X02504Y01433*
X02509Y01438*
X02511Y01445*
Y01449*
X02509Y01456*
X02504Y01461*
X025Y01463*
X02493*
X02522D02*
Y01431D01*
Y01449D02*
X02525Y01456D01*
X02529Y01461*
X02534Y01463*
X02541*
X02548D02*
X02545Y01461D01*
X02548Y01459*
X0255Y01461*
X02548Y01463*
Y01435D02*
X02545Y01433D01*
X02548Y01431*
X0255Y01433*
X02548Y01435*
X026Y0148D02*
Y01431D01*
Y0148D02*
X02632Y01431D01*
Y0148D02*
Y01431D01*
X02646Y01463D02*
Y0144D01*
X02648Y01433*
X02653Y01431*
X0266*
X02665Y01433*
X02672Y0144*
Y01463D02*
Y01431D01*
X02713Y01456D02*
X02708Y01461D01*
X02703Y01463*
X02696*
X02692Y01461*
X02687Y01456*
X02685Y01449*
Y01445*
X02687Y01438*
X02692Y01433*
X02696Y01431*
X02703*
X02708Y01433*
X02713Y01438*
X02723Y0148D02*
Y01431D01*
X02734Y01449D02*
X02762D01*
Y01454*
X02759Y01459*
X02757Y01461*
X02752Y01463*
X02745*
X02741Y01461*
X02736Y01456*
X02734Y01449*
Y01445*
X02736Y01438*
X02741Y01433*
X02745Y01431*
X02752*
X02757Y01433*
X02762Y01438*
X02784Y01463D02*
X02779Y01461D01*
X02775Y01456*
X02772Y01449*
Y01445*
X02775Y01438*
X02779Y01433*
X02784Y01431*
X02791*
X02796Y01433*
X028Y01438*
X02803Y01445*
Y01449*
X028Y01456*
X02796Y01461*
X02791Y01463*
X02784*
X02813Y01414D02*
X02851D01*
X02862Y0148D02*
X02888D01*
X02874Y01461*
X02881*
X02885Y01459*
X02888Y01456*
X0289Y01449*
Y01445*
X02888Y01438*
X02883Y01433*
X02876Y01431*
X02869*
X02862Y01433*
X0286Y01435*
X02857Y0144*
X02903Y01468D02*
Y0147D01*
X02906Y01475*
X02908Y01477*
X02913Y0148*
X02922*
X02927Y01477*
X02929Y01475*
X02932Y0147*
Y01466*
X02929Y01461*
X02925Y01454*
X02901Y01431*
X02934*
X02947Y01435D02*
X02945Y01433D01*
X02947Y01431*
X0295Y01433*
X02947Y01435*
X0296Y01454D02*
X02981D01*
X02989Y01456*
X02991Y01459*
X02993Y01463*
Y0147*
X02991Y01475*
X02989Y01477*
X02981Y0148*
X0296*
Y01431*
X03032Y01456D02*
X03028Y01461D01*
X03023Y01463*
X03016*
X03011Y01461*
X03007Y01456*
X03004Y01449*
Y01445*
X03007Y01438*
X03011Y01433*
X03016Y01431*
X03023*
X03028Y01433*
X03032Y01438*
X03043Y0148D02*
Y01431D01*
Y01456D02*
X03048Y01461D01*
X03052Y01463*
X03059*
X03064Y01461*
X03069Y01456*
X03071Y01449*
Y01445*
X03069Y01438*
X03064Y01433*
X03059Y01431*
X03052*
X03048Y01433*
X03043Y01438*
X03082Y0148D02*
Y01431D01*
Y0148D02*
X03098D01*
X03105Y01477*
X0311Y01473*
X03112Y01468*
X03114Y01461*
Y01449*
X03112Y01442*
X0311Y01438*
X03105Y01433*
X03098Y01431*
X03082*
X03137Y01463D02*
X03132Y01461D01*
X03128Y01456*
X03125Y01449*
Y01445*
X03128Y01438*
X03132Y01433*
X03137Y01431*
X03144*
X03149Y01433*
X03153Y01438*
X03156Y01445*
Y01449*
X03153Y01456*
X03149Y01461*
X03144Y01463*
X03137*
X03195Y01456D02*
X0319Y01461D01*
X03185Y01463*
X03178*
X03174Y01461*
X03169Y01456*
X03167Y01449*
Y01445*
X03169Y01438*
X03174Y01433*
X03178Y01431*
X03185*
X0319Y01433*
X03195Y01438*
X02089Y01294D02*
X02066Y01261D01*
X02101*
X02089Y01294D02*
Y01245D01*
X02148Y01294D02*
Y01245D01*
X02176*
X02219D02*
X022Y01294D01*
X02181Y01245*
X02189Y01261D02*
X02212D01*
X0223Y01294D02*
X02249Y0127D01*
Y01245*
X02268Y01294D02*
X02249Y0127D01*
X02305Y01294D02*
X02274D01*
Y01245*
X02305*
X02274Y0127D02*
X02293D01*
X02313Y01294D02*
Y01245D01*
Y01294D02*
X02334D01*
X02341Y01291*
X02343Y01289*
X02346Y01284*
Y0128*
X02343Y01275*
X02341Y01273*
X02334Y0127*
X02313*
X02329D02*
X02346Y01245D01*
X02395Y01294D02*
Y01245D01*
Y01294D02*
X02416D01*
X02424Y01291*
X02426Y01289*
X02428Y01284*
Y0128*
X02426Y01275*
X02424Y01273*
X02416Y0127*
X02395D02*
X02416D01*
X02424Y01268*
X02426Y01266*
X02428Y01261*
Y01254*
X02426Y01249*
X02424Y01247*
X02416Y01245*
X02395*
X02439Y01294D02*
Y01259D01*
X02442Y01252*
X02446Y01247*
X02453Y01245*
X02458*
X02465Y01247*
X0247Y01252*
X02472Y01259*
Y01294*
X02486D02*
Y01245D01*
X02496Y01294D02*
Y01245D01*
X02524*
X02529Y01294D02*
Y01245D01*
Y01294D02*
X02546D01*
X02553Y01291*
X02558Y01287*
X0256Y01282*
X02562Y01275*
Y01263*
X0256Y01256*
X02558Y01252*
X02553Y01247*
X02546Y01245*
X02529*
G54D106*
X0269Y00883D03*
Y00743D03*
X02691Y01138D03*
Y00998D03*
G54D107*
X00837Y01846D02*
D01*
X00836Y01847*
X00836Y01848*
X00836Y01849*
X00836Y0185*
X00836Y01851*
X00835Y01852*
X00835Y01853*
X00834Y01854*
X00833Y01855*
X00833Y01856*
X00832Y01857*
X00831Y01857*
X0083Y01858*
X00829Y01859*
X00829Y01859*
X00828Y0186*
X00826Y0186*
X00825Y01861*
X00824Y01861*
X00823Y01861*
X00822Y01861*
X00821Y01861*
X0082*
X00819Y01861*
X00818Y01861*
X00817Y01861*
X00816Y01861*
X00815Y0186*
X00813Y0186*
X00813Y01859*
X00812Y01859*
X00811Y01858*
X0081Y01857*
X00809Y01857*
X00808Y01856*
X00808Y01855*
X00807Y01854*
X00806Y01853*
X00806Y01852*
X00805Y01851*
X00805Y0185*
X00805Y01849*
X00805Y01848*
X00805Y01847*
X00805Y01846*
X00805Y01844*
X00805Y01843*
X00805Y01842*
X00805Y01841*
X00805Y0184*
X00806Y01839*
X00806Y01838*
X00807Y01837*
X00808Y01836*
X00808Y01835*
X00809Y01834*
X0081Y01834*
X00811Y01833*
X00812Y01832*
X00813Y01832*
X00813Y01831*
X00815Y01831*
X00816Y0183*
X00817Y0183*
X00818Y0183*
X00819Y0183*
X0082Y0183*
X00821*
X00822Y0183*
X00823Y0183*
X00824Y0183*
X00825Y0183*
X00826Y01831*
X00828Y01831*
X00829Y01832*
X00829Y01832*
X0083Y01833*
X00831Y01834*
X00832Y01834*
X00833Y01835*
X00833Y01836*
X00834Y01837*
X00835Y01838*
X00835Y01839*
X00836Y0184*
X00836Y01841*
X00836Y01842*
X00836Y01843*
X00836Y01844*
X00837Y01846*
M02*