%FSTAX23Y23*%
%MOIN*%
%SFA1B1*%

%IPPOS*%
%ADD31C,0.020000*%
%ADD37C,0.059060*%
%ADD39R,0.059060X0.059060*%
%ADD40C,0.016000*%
%ADD41C,0.020000*%
%ADD42C,0.025000*%
%LNmb1180-1*%
%LPD*%
G36*
X00453Y00898D02*
X00453Y00862D01*
X00453Y00862*
X00453Y00862*
X00453Y00861*
X00453Y0086*
X00453Y0086*
X00453Y00859*
X00453Y00858*
X00453Y00858*
X00453Y00857*
X00453Y00855*
X00453Y00855*
X00453Y00855*
X00453Y00854*
X00453Y00853*
X00453Y00853*
X00453Y00853*
X00453Y00844*
X00452Y00844*
X00436Y00844*
X00435Y00844*
X00435Y00844*
X00432Y00843*
X00431Y00843*
X0043Y00843*
X00427Y00842*
X00426Y00842*
X00425Y00841*
X00423Y0084*
X00422Y0084*
X00421Y00839*
X00419Y00837*
X00418Y00837*
X00418Y00836*
X00416Y00834*
X00415Y00833*
X00415Y00832*
X00414Y0083*
X00413Y00829*
X00413Y00828*
X00412Y00825*
X00412Y00824*
X00412Y00823*
X00411Y00821*
X00411Y0082*
X00411Y0082*
X00411Y00819*
X00411Y00638*
X00411Y00637*
Y00636*
X00412Y00634*
X00412Y00632*
X00411Y00632*
X00408*
X00407Y00632*
X00407Y00632*
X00406Y00631*
X00405Y00631*
X00405Y00631*
X00404Y00631*
X00404Y00631*
X00403Y0063*
X00402Y0063*
X00402Y00629*
X00401Y00629*
X00401Y00629*
X00399Y0063*
X00397Y00631*
X00394Y00631*
X00391Y00631*
X00389Y0063*
X00387Y00629*
X00387Y00629*
X00386Y00629*
X00386Y0063*
X00385Y0063*
X00385Y00631*
X00384Y00631*
X00383Y00631*
X00383Y00631*
X00382Y00631*
X00381Y00632*
X00381Y00632*
X0038Y00632*
X00294Y00632*
X00293Y00632*
X00293Y00632*
X00288Y00631*
X00287Y00631*
X00287Y00631*
X00282Y0063*
X00281Y0063*
X00281Y00629*
X00276Y00628*
X00276Y00627*
X00275Y00627*
X00271Y00625*
X00271Y00624*
X0027Y00624*
X00266Y00621*
X00266Y0062*
X00265Y0062*
X00262Y00616*
X00262Y00615*
X00261Y00615*
X00259Y00611*
X00259Y0061*
X00258Y0061*
X00257Y00605*
X00256Y00605*
X00256Y00604*
X00255Y00599*
X00255Y00599*
X00255Y00598*
X00254Y00593*
X00254Y00593*
X00254Y00593*
X00254Y00592*
X00254Y00406*
X00254Y00405*
Y00404*
X00255Y00402*
X00255Y00399*
X00256Y00397*
X00257Y00397*
X00258Y00395*
X00259Y00393*
X00261Y00391*
X00263Y0039*
X00265Y00388*
X00267Y00387*
X0027Y00387*
X00272Y00386*
X00272*
X00273Y00386*
X00273Y00386*
X00274*
X00274*
X00332Y00386*
X00335Y00386*
X00337Y00386*
X00338Y00385*
X0034Y00384*
X00341Y00383*
X00342Y00382*
X00342Y00382*
X00342Y00382*
X00342Y00382*
X00342Y00382*
X00343Y00381*
X00343Y00381*
X00344Y00379*
X00345Y00378*
X00345Y00376*
X00345Y00374*
X00345Y00374*
X00345Y00245*
X00345Y00244*
X00345Y00244*
X00346Y0024*
X00346Y00239*
X00346Y00238*
X00347Y00235*
X00347Y00234*
X00348Y00233*
X00349Y0023*
X0035Y00229*
X00351Y00229*
X00352Y00227*
X00352Y00226*
X00354Y00224*
X00356Y00222*
X00358Y00221*
X00359Y00221*
X00361Y0022*
X00362Y00219*
X00363Y00219*
X00366Y00218*
X00367Y00218*
X00368Y00218*
X00371Y00217*
X00372Y00217*
X00372Y00217*
X00373Y00217*
X00469Y00217*
X0047Y00217*
X00471Y00218*
X00473Y00218*
X00473Y00217*
X00473Y00161*
X00473Y0016*
X00473Y00159*
X00473Y00158*
X00472Y00157*
X00471Y00156*
X0047Y00156*
X00469Y00156*
X00469Y00156*
X00468Y00156*
X00468*
X00429Y00156*
X00428Y00156*
X00429Y00158*
X00431Y0016*
X00431Y00163*
X00432Y00166*
X00431Y00168*
X00431Y00171*
X00429Y00173*
X00427Y00175*
X00425Y00177*
X00423Y00179*
X0042Y00179*
X00418Y0018*
X00415Y00179*
X00412Y00179*
X0041Y00177*
X00408Y00175*
X00406Y00173*
X00405Y00171*
X00404Y00168*
X00403Y00166*
X00404Y00163*
X00405Y0016*
X00406Y00158*
X00407Y00156*
X00406Y00156*
X00253Y00156*
X00251Y00156*
X00247Y00157*
X00244Y00159*
X00241Y00161*
X00239Y00164*
X00237Y00167*
X00237Y00168*
X00237Y00168*
X00237Y00168*
X00237Y00317*
X00237Y00318*
X00237Y00318*
X00236Y00322*
X00236Y00323*
X00236Y00324*
X00235Y00327*
X00234Y00328*
X00234Y00329*
X00233Y00331*
X00233Y00331*
X00233Y00331*
X00232Y00332*
X00232Y00333*
X00232Y00333*
X00232Y00333*
X00231Y00334*
X0023Y00335*
X0023Y00335*
X00229Y00335*
X00228Y00335*
X00227Y00336*
X00224Y00339*
X00221Y00341*
X0022Y00341*
X00218Y00343*
X00216Y00345*
X00213Y00345*
X00211Y00346*
X00208Y00345*
X00205Y00345*
X00205Y00344*
X00201Y00344*
X002Y00345*
X002Y00345*
X00199Y00345*
X00198Y00345*
X00198Y00345*
X00197Y00345*
X00196Y00346*
X00178Y00346*
X00178Y00346*
X00176Y00347*
X00175Y00349*
X00175Y00349*
Y00582*
X00174Y00583*
X00174Y00583*
X00175Y00584*
X00177Y00586*
X00179Y00588*
X00181Y0059*
X00181Y00593*
X00182Y00596*
X00181Y00598*
X00181Y00601*
X00179Y00603*
X00177Y00605*
X00175Y00607*
X00174Y00608*
X00174Y00608*
X00175Y00609*
X00175Y00672*
X00175Y00675*
X00175Y00678*
X00176Y0068*
X00178Y00682*
X0018Y00684*
X00182Y00686*
X00184Y00688*
X00186Y00689*
X00189Y00689*
X00191Y00689*
X00192Y00689*
X00192*
X00192*
X00233Y0069*
X00234Y0069*
X00234Y0069*
X00237Y0069*
X00238Y0069*
X00239Y0069*
X00241Y00691*
X00242Y00691*
X00243Y00692*
X00245Y00693*
X00246Y00694*
X00247Y00694*
X00249Y00696*
X0025Y00696*
X0025Y00697*
X00252Y00699*
X00252Y007*
X00253Y00701*
X00254Y00703*
X00255Y00704*
X00255Y00705*
X00256Y00707*
X00256Y00708*
X00256Y00709*
X00256Y00712*
X00256Y00712*
X00256Y00712*
X00256Y00713*
Y00713*
X00256Y00784*
X00256Y00784*
X00256Y00784*
X00256Y00785*
X00256Y00786*
X00256Y00786*
X00256Y00787*
X00256Y00787*
X00256Y00788*
X00258Y0079*
X00259Y00792*
X0026Y00795*
X0026Y00798*
X0026Y00801*
X00259Y00803*
X00258Y00806*
X00256Y00808*
X00256Y00808*
X00256Y00809*
X00256Y00809*
X00256Y00809*
X00256Y0081*
X00256Y00812*
X00256Y00812*
X00256Y00812*
X00256Y00894*
X00257Y00894*
X00259Y00896*
X00442Y00896*
X00442Y00896*
X00442Y00896*
X00445Y00897*
X00446Y00897*
X00447Y00897*
X00449Y00898*
X0045Y00898*
X00451Y00899*
X00452Y00899*
X00453Y00898*
G37*
G36*
X00674Y01382D02*
X00675Y01382D01*
X00674Y0138*
X00675Y01377*
X00676Y01374*
X00677Y01372*
X00679Y0137*
X00681Y01368*
X00682Y01367*
Y01362*
X00681Y01361*
X00678Y01362*
X00674Y01364*
X0067Y01365*
Y01329*
Y01294*
X00674Y01295*
X00678Y01297*
X00681Y01298*
X00682Y01297*
Y01292*
X00681Y01291*
X00679Y01289*
X00677Y01287*
X00676Y01285*
X00675Y01282*
X00674Y0128*
X00675Y01277*
X00675Y01275*
X00673Y01274*
X00671Y01273*
X00632Y01273*
X00632Y01276*
X0063Y01278*
X00628Y0128*
X00626Y01282*
X00624Y01284*
X00621Y01284*
X00619Y01285*
X00616Y01284*
X00613Y01284*
X00611Y01282*
X00609Y0128*
X00607Y01278*
X00606Y01276*
X00605Y01273*
X00589Y01274*
Y01274*
X00587Y01273*
X00585Y01273*
X00584Y01271*
X00582Y0127*
X00582Y01268*
X00581Y01267*
X00581Y01202*
X00581Y01202*
X00578Y01202*
X00576Y01203*
X00573Y01202*
X0057Y01202*
X00568Y012*
X00566Y01198*
X00564Y01196*
X00563Y01194*
X00562Y01191*
X00561Y01189*
X00562Y01186*
X00563Y01183*
X00564Y01181*
X00566Y01179*
X00568Y01177*
X0057Y01176*
X00573Y01175*
X00576Y01174*
X00578Y01175*
X00581Y01175*
X00581Y01175*
Y01132*
X00581Y01132*
X00581Y01132*
X00578Y01132*
X00576Y01133*
X00573Y01132*
X0057Y01132*
X00568Y0113*
X00566Y01128*
X00564Y01126*
X00563Y01124*
X00562Y01121*
X00561Y01119*
X00562Y01116*
X00563Y01113*
X00564Y01111*
X00566Y01109*
X00568Y01107*
X0057Y01106*
X00573Y01105*
X00576Y01104*
X00578Y01105*
X00581Y01105*
X00581Y01105*
X00582Y00591*
X00581Y0059*
X0058Y0059*
X00578Y00591*
X00575Y0059*
X00572Y0059*
X0057Y00588*
X00568Y00586*
X00566Y00584*
X00565Y00582*
X00564Y00579*
X00563Y00577*
X00564Y00574*
X00565Y00571*
X00566Y00569*
X00567Y00567*
X00566Y00567*
X00358*
X00347Y00567*
X00346Y00567*
X00345*
X00344Y00566*
X00341Y00566*
X0034Y00565*
X00339Y00565*
X00337Y00564*
X00336Y00563*
X00334Y00561*
X00333Y0056*
X00333Y00559*
X00333Y00559*
X00333Y00559*
X00333Y00559*
X00332Y00557*
X00331Y00556*
X00331Y00555*
X00331Y00553*
X0033Y00552*
Y00552*
X0033Y00551*
X0033Y00551*
X0033Y00551*
X0033Y00493*
X0033Y00492*
X00331Y00491*
X00331Y00489*
X00331Y00488*
X00331Y00487*
X00332Y00487*
X00332Y00486*
X00332Y00486*
X00333Y00483*
X00334Y00481*
X00336Y0048*
X00339Y00479*
X00339Y00479*
X0034Y00479*
X0034Y00478*
X00341Y00478*
X00342Y00478*
X00343Y00478*
X00344Y00478*
X00344Y00477*
X00345Y00477*
X00346Y00477*
X00346Y00477*
X00466Y00477*
X00468Y00476*
X0047Y00474*
X00472Y00472*
X00472Y00472*
X00472Y00467*
X00473Y00466*
X00471Y00465*
X00469Y00463*
X00467Y00461*
X00466Y00459*
X00465Y00456*
X00464Y00454*
X00465Y00451*
X00466Y00448*
X00467Y00446*
X00469Y00444*
X00471Y00442*
X00472Y00441*
X00472Y0044*
X00472Y00395*
X00472Y00394*
X00472Y00394*
X00473Y00391*
X00473Y0039*
X00473Y00389*
X00474Y00387*
X00474Y00386*
X00474Y00385*
X00475Y00385*
Y0037*
X00474Y00369*
X00474Y00368*
X00474Y00367*
X00473Y00365*
X00473Y00364*
X00473Y00364*
X00473Y00364*
X00473Y00364*
X00473Y00229*
X00473Y00229*
X00471Y00228*
X0047Y00227*
X00373Y00228*
X00372Y00227*
X00369Y00228*
X00366Y00229*
X00363Y0023*
X0036Y00232*
X00358Y00235*
X00357Y00238*
X00356Y00241*
X00355Y00245*
X00356Y00374*
X00356*
X00355Y00377*
X00354Y00381*
X00353Y00384*
X00351Y00387*
X00349Y0039*
X00346Y00392*
X00343Y00394*
X0034Y00395*
X00336Y00396*
X00333Y00397*
X00274Y00397*
X00273Y00396*
X00271Y00397*
X00269Y00398*
X00267Y00399*
X00266Y00401*
X00265Y00403*
X00264Y00406*
X00265Y00593*
X00264Y00593*
X00265Y00597*
X00266Y00601*
X00268Y00606*
X0027Y0061*
X00273Y00613*
X00276Y00616*
X0028Y00618*
X00285Y0062*
X00289Y00621*
X00294Y00622*
X0038Y00622*
X00381Y00621*
X0038Y0062*
X0038Y00617*
X0038Y00614*
X00381Y00611*
X00382Y00609*
X00384Y00607*
X00386Y00605*
X00389Y00604*
X00391Y00603*
X00394Y00603*
X00397Y00603*
X00399Y00604*
X00402Y00605*
X00404Y00607*
X00406Y00609*
X00407Y00611*
X00408Y00614*
X00408Y00617*
X00408Y0062*
X00407Y00621*
X00408Y00622*
X00419*
X0042Y00621*
X00421Y0062*
X00423Y00619*
X00425Y00618*
X00428Y00618*
X0043Y00617*
X0043*
X00431Y00617*
X00432Y00617*
X00516Y00617*
X00517Y00617*
X00518*
X00519Y00618*
X00522Y00618*
X00523Y00619*
X00524Y00619*
X00526Y0062*
X00527Y00621*
X00529Y00623*
X0053Y00624*
X0053Y00625*
X00531Y00627*
X00532Y00628*
X00532Y00629*
X00532Y00631*
X00533Y00632*
Y00632*
X00533Y00633*
X00533Y00633*
X00533Y00634*
X00533Y00865*
X00533Y00866*
X00533Y00866*
X00532Y00867*
X00532Y00868*
X00532Y00868*
X00532Y00869*
X00532Y0087*
X00532Y0087*
Y00883*
X00532Y00883*
X00532Y00884*
X00532Y00885*
X00532Y00885*
X00532Y00886*
X00533Y00887*
X00533Y00887*
X00533Y00888*
Y00922*
X00533Y00922*
X00533Y00922*
X00532Y00923*
X00532Y00924*
X00532Y00925*
X00532Y00925*
X00532Y00926*
X00532Y00926*
X00532Y00941*
X00532Y00941*
X00532Y00942*
X00532Y00942*
X00532Y00943*
X00532Y00944*
X00533Y00945*
X00533Y00945*
X00533Y00945*
Y00974*
X00534Y00974*
X00535Y00972*
X00537Y0097*
X00539Y00968*
X00541Y00967*
X00544Y00966*
X00547Y00965*
X00549Y00966*
X00552Y00967*
X00554Y00968*
X00556Y0097*
X00558Y00972*
X0056Y00974*
X0056Y00977*
X00561Y0098*
X0056Y00982*
X0056Y00985*
X00558Y00987*
X00556Y00989*
X00554Y00991*
X00552Y00993*
X00549Y00993*
X00547Y00994*
X00544Y00993*
X00541Y00993*
X00539Y00991*
X00537Y00989*
X00535Y00987*
X00534Y00985*
X00533Y00985*
X00533Y01105*
X00533Y01106*
X00533Y01107*
X00532Y01107*
X00532Y01108*
X00532Y01108*
X00532Y01109*
X00532Y0111*
Y01128*
X00532Y01128*
X00532Y01129*
X00532Y0113*
X00532Y0113*
X00533Y01131*
X00533Y01132*
X00533Y01132*
X00533Y01372*
X00533Y01372*
X00534Y01375*
X00536Y01378*
X00539Y0138*
X0054Y0138*
X00561Y0138*
X00561Y0138*
X00561Y0138*
X00562Y01381*
X00563Y01381*
X00564Y01381*
X00564Y01381*
X00565Y01381*
X00566Y01382*
X00566Y01382*
X00568Y0138*
X0057Y01379*
X00573Y01378*
X00576Y01377*
X00578Y01378*
X00581Y01379*
X00583Y0138*
X00585Y01382*
X00585Y01382*
X00586Y01381*
X00587Y01381*
X00587Y01381*
X00588Y01381*
X00589Y01381*
X0059Y0138*
X0059Y0138*
X0059Y0138*
X00618Y0138*
X00619Y0138*
X0062*
X00623Y01381*
X00624Y01381*
X00625Y01381*
X00628Y01383*
X00656Y01383*
X00672*
X00672Y01383*
X00674Y01382*
G37*
G36*
X00493Y01772D02*
D01*
X00493Y01772*
X00498Y01771*
X00502Y01768*
X00505Y01764*
X00506Y01759*
X00506Y01606*
Y01584*
X00503Y0158*
X00503Y0158*
X00503Y0158*
X00503Y01581*
X00503Y0158*
X00503Y0158*
X00502Y01577*
X005Y01575*
X00498Y01573*
X00495Y01572*
X00449Y01573*
X00448Y01572*
X00444Y01573*
X0044Y01576*
X00437Y0158*
X00436Y01585*
X00436Y01613*
X0044Y01615*
X00443Y0162*
X00444Y01626*
X00443Y01631*
X0044Y01636*
X00436Y01638*
X00437Y01678*
X00437*
X00436Y01682*
X00433Y01685*
X0043Y01688*
X00426Y01689*
X00378Y01689*
X00378Y01691*
X00375Y01696*
X0037Y01699*
X00365Y017*
X00359Y01699*
X00354Y01696*
X00351Y01691*
X00351Y01689*
X00345*
X00343Y01693*
X00346Y01697*
X00347Y01703*
X00346Y01708*
X00343Y01713*
Y01716*
X00346Y01721*
X00347Y01727*
X00346Y01732*
X00343Y01737*
X00338Y0174*
X00333Y01741*
X00327Y0174*
X00322Y01737*
X00319Y01732*
X00318Y01727*
X00319Y01721*
X00322Y01716*
Y01713*
X00319Y01708*
X00318Y01703*
X00319Y01697*
X00322Y01693*
X0032Y01689*
X00282Y01689*
X00282Y01689*
X00275Y01688*
X00269Y01684*
X00265Y01678*
X00264Y01672*
X00265Y01443*
X00264Y01443*
X00265Y01436*
X00269Y0143*
X00275Y01426*
X00282Y01425*
X00348Y01426*
X00348Y01426*
X00355Y01424*
X00361Y0142*
X00365Y01414*
X00367Y01407*
X00367Y01311*
X00366Y0131*
Y01309*
X00366Y01309*
X00366Y01308*
X00366Y01308*
Y01307*
X00366Y01228*
X00367Y01227*
X00366Y01227*
X00367Y01226*
X00367Y01215*
X00366Y01214*
X00367Y01214*
X00366Y01213*
X00366Y01174*
X00366Y0117*
X00364Y01168*
X00364Y01168*
X00363Y01167*
X00362Y01167*
X00361Y01167*
X00361Y01167*
X00319Y01167*
X00317Y0117*
X00316Y01175*
X00317Y01215*
Y01219*
X00318Y0122*
X00323Y01221*
X00328Y01224*
X00331Y01229*
X00332Y01235*
X00331Y0124*
X00328Y01245*
X00323Y01248*
X00318Y01249*
X00317Y0125*
Y01256*
X0032Y01256*
X00325Y01259*
X00328Y01264*
X00329Y0127*
X00328Y01275*
X00325Y0128*
X0032Y01283*
X00317Y01283*
Y01387*
X00317*
X00316Y0139*
X00314Y01394*
X0031Y01396*
X00307Y01397*
X00263Y01397*
X00263Y01398*
X00258Y01401*
X00253Y01402*
X00247Y01401*
X00242Y01398*
X00242Y01396*
X00238Y01397*
X00234Y014*
X00231Y01404*
X0023Y01409*
X00231Y01757*
X0023Y01757*
X00231Y01762*
X00235Y01767*
X0024Y01771*
X00246Y01772*
X00493Y01772*
G37*
G36*
X00705Y01698D02*
Y01697D01*
X00702Y01697*
X007Y01695*
X00698Y01693*
X00696Y01691*
X00695Y01689*
X00694Y01686*
X00693Y01684*
X00694Y01681*
X00695Y01678*
X00696Y01676*
X00698Y01674*
X007Y01672*
X00702Y01671*
X00705Y0167*
X00708Y01669*
X0071Y0167*
X00713Y01671*
X00715Y01672*
X00717Y01674*
X00719Y01676*
X0072Y01677*
X00721Y01677*
Y00583*
X0072Y00582*
X00719Y00579*
X00716Y00578*
X00716Y00578*
X00594Y00578*
X00593Y00578*
X00591Y00579*
X00591Y0058*
X00591Y00582*
X00589Y00584*
X00589Y00584*
X0059Y00585*
X0059Y00586*
X0059Y00586*
X00591Y00587*
X00591Y00587*
X00591Y00588*
X00591Y00589*
X00591Y00589*
X00591Y0059*
X00592Y00591*
X00592Y01105*
X00591Y01106*
X00591Y01106*
X00591Y01107*
X00591Y01107*
X00591Y01108*
X00592Y01108*
X00593Y01108*
X00595Y01106*
X00597Y01105*
X006Y01104*
X00603Y01103*
X00605Y01104*
X00608Y01105*
X0061Y01106*
X00612Y01108*
X00614Y0111*
X00616Y01112*
X00616Y01115*
X00617Y01118*
X00616Y0112*
X00616Y01123*
X00614Y01125*
X00612Y01127*
X0061Y01129*
X00608Y01131*
X00605Y01131*
X00603Y01132*
X006Y01131*
X00597Y01131*
X00595Y01129*
X00593Y01127*
X00591Y01125*
X0059Y01123*
X00589Y01123*
X00589Y01124*
X00588Y01125*
X00589Y01125*
X00589Y01125*
X00589Y01126*
X0059Y01127*
X0059Y01127*
X0059Y01128*
X00591Y01128*
X00591Y01129*
X00591Y0113*
X00591Y0113*
X00591Y01131*
X00591Y01131*
X00592Y01132*
Y01132*
X00592Y01175*
X00591Y01176*
X00591Y01176*
X00591Y01177*
X00591Y01177*
X00591Y01178*
X00591Y01179*
X0059Y01179*
X0059Y0118*
X0059Y0118*
X00589Y01181*
X00589Y01182*
X00589Y01182*
X00588Y01182*
X00589Y01183*
X00589Y01186*
X0059Y01189*
X00589Y01191*
X00589Y01194*
X00588Y01195*
X00589Y01195*
X00589Y01195*
X00589Y01196*
X0059Y01197*
X0059Y01197*
X0059Y01198*
X00591Y01198*
X00591Y01199*
X00591Y012*
X00591Y012*
X00591Y01201*
X00591Y01201*
X00592Y01202*
Y01263*
X00592Y01263*
X00605Y01263*
X00606Y01264*
X00606Y01264*
X00607Y01263*
X00609Y01261*
X00611Y01259*
X00613Y01258*
X00616Y01257*
X00619Y01256*
X00621Y01257*
X00624Y01258*
X00626Y01259*
X00628Y01261*
X0063Y01263*
X00631Y01264*
X00631Y01264*
X00632Y01263*
X00651Y01263*
X00651Y01262*
X00647Y0126*
X00643Y01258*
X00639Y01255*
X00636Y01251*
X00634Y01247*
X00632Y01243*
X0063Y01239*
X00629Y01234*
X00629Y0123*
X00629Y01225*
X0063Y0122*
X00632Y01216*
X00634Y01212*
X00636Y01208*
X00639Y01204*
X00643Y01201*
X00647Y01199*
X00651Y01197*
X00655Y01195*
X0066Y01194*
X00665Y01194*
X00669Y01194*
X00674Y01195*
X00678Y01197*
X00682Y01199*
X00686Y01201*
X0069Y01204*
X00693Y01208*
X00695Y01212*
X00697Y01216*
X00699Y0122*
X007Y01225*
X007Y0123*
X007Y01234*
X00699Y01239*
X00697Y01243*
X00695Y01247*
X00693Y01251*
X0069Y01255*
X00686Y01258*
X00682Y0126*
X00678Y01262*
X00675Y01264*
X00675Y01264*
X00675Y01264*
X00677Y01264*
X00679Y01265*
X0068Y01266*
X00681Y01266*
X00681Y01266*
X00681Y01267*
X00682Y01267*
X00683Y01267*
X00686Y01266*
X00689Y01265*
X00691Y01266*
X00694Y01267*
X00696Y01268*
X00698Y0127*
X007Y01272*
X00702Y01274*
X00702Y01277*
X00703Y0128*
X00702Y01282*
X00702Y01285*
X007Y01287*
X00698Y01289*
X00696Y01291*
X00694Y01293*
X00692Y01293*
X00692Y01297*
X00691Y01298*
X00691Y013*
X00691Y013*
X00691Y013*
X00691Y01301*
X0069Y01302*
X0069Y01302*
X0069Y01302*
X0069Y01303*
X00689Y01304*
X0069Y01304*
X00693Y01308*
X00695Y01312*
X00697Y01316*
X00699Y0132*
X007Y01325*
X007Y0133*
X007Y01334*
X00699Y01339*
X00697Y01343*
X00695Y01347*
X00693Y01351*
X0069Y01355*
X00689Y01355*
X0069Y01356*
X0069Y01357*
X0069Y01357*
X0069Y01357*
X00691Y01358*
X00691Y01359*
X00691Y01359*
X00691Y01359*
X00692Y0136*
X00692Y01362*
X00692Y01366*
X00694Y01367*
X00696Y01368*
X00698Y0137*
X007Y01372*
X00702Y01374*
X00702Y01377*
X00703Y0138*
X00702Y01382*
X00702Y01385*
X007Y01387*
X00698Y01389*
X00696Y01391*
X00694Y01393*
X00691Y01393*
X00689Y01394*
X00686Y01393*
X00683Y01393*
X00681Y01391*
X0068Y01391*
X0068Y01391*
X00679Y01391*
X00678Y01392*
X00677Y01392*
X00675Y01392*
X00673Y01393*
X00673*
X00672Y01393*
X00671Y01393*
X00656*
X00653*
X00653Y01393*
X00651Y01395*
X00651Y01396*
X00652Y01396*
X00655Y01395*
X0066Y01394*
X00665Y01394*
X00669Y01394*
X00674Y01395*
X00678Y01397*
X00682Y01399*
X00686Y01401*
X0069Y01404*
X00693Y01408*
X00695Y01412*
X00697Y01416*
X00699Y0142*
X007Y01425*
X007Y0143*
X007Y01434*
X00699Y01439*
X00697Y01443*
X00695Y01447*
X00693Y01451*
X0069Y01455*
X00686Y01458*
X00682Y0146*
X00678Y01462*
X00674Y01464*
X00669Y01465*
X00665Y01465*
X0066Y01465*
X00655Y01464*
X00651Y01462*
X0065Y01462*
X00649Y01463*
X0065Y01496*
X0065Y01497*
X00651Y01497*
X00655Y01495*
X0066Y01494*
X00665Y01494*
X00669Y01494*
X00674Y01495*
X00678Y01497*
X00682Y01499*
X00686Y01501*
X0069Y01504*
X00693Y01508*
X00695Y01512*
X00697Y01516*
X00699Y0152*
X007Y01525*
X007Y0153*
X007Y01534*
X00699Y01539*
X00697Y01543*
X00695Y01547*
X00693Y01551*
X0069Y01555*
X00686Y01558*
X00682Y0156*
X00678Y01562*
X00674Y01564*
X00669Y01565*
X00665Y01565*
X0066Y01565*
X00655Y01564*
X00651Y01562*
X00647Y0156*
X00643Y01558*
X00639Y01555*
X00636Y01551*
X00634Y01547*
X00632Y01543*
X0063Y01539*
X00629Y01534*
X00629Y0153*
X00629Y01525*
X0063Y0152*
X00632Y01516*
X00634Y01512*
X00636Y01508*
X00637Y01506*
X00637Y01506*
X0063Y01506*
X00628Y01507*
X00626Y01508*
X00623Y01508*
X00621Y01509*
X00621*
X0062Y01509*
X00619Y01509*
X006Y01509*
X00599Y01509*
X00598Y01509*
X00598Y01509*
X00597Y01509*
X00597Y0151*
X00597Y0151*
X00597Y01511*
X00597Y01511*
X00597Y01512*
Y01512*
X00597Y01675*
X00598Y01675*
X00601Y01676*
X00603Y01677*
X00605Y01679*
X00607Y01681*
X00609Y01683*
X00609Y01686*
X0061Y01689*
X00609Y01691*
X00609Y01694*
X00608Y01695*
X00608Y01696*
X0061Y01697*
X00613Y01697*
X00615Y01697*
X00615Y01697*
X00647Y01697*
X00649Y01698*
X00705Y01698*
G37*
G36*
X00337Y01683D02*
X00338Y01682D01*
X00338Y01682*
X00338Y01681*
X00339Y01681*
X0034Y0168*
X0034Y0168*
X0034Y0168*
X00341Y01679*
X00342Y01679*
X00343Y01679*
X00343Y01679*
X00344Y01679*
X00345Y01679*
X00345Y01679*
X00345Y01679*
X00351Y01679*
X00351Y01679*
X00352Y01679*
X00352Y01679*
X00353Y01678*
X00355Y01676*
X00357Y01674*
X00359Y01673*
X00362Y01672*
X00365Y01671*
X00367Y01672*
X0037Y01673*
X00372Y01674*
X00374Y01676*
X00376Y01678*
X00377Y01679*
X00377Y01679*
X00378Y01679*
X00378Y01679*
X00425Y01679*
X00426Y01678*
X00426Y01678*
X00426Y01678*
X00426Y01678*
X00426Y01678*
X00426Y01639*
X00424Y01639*
X00422Y01637*
X0042Y01635*
X00418Y01633*
X00417Y01631*
X00416Y01628*
X00415Y01626*
X00416Y01624*
X00415Y01623*
X0039Y01623*
X00389Y01624*
X0039Y01626*
X00389Y01628*
X00389Y01631*
X00387Y01633*
X00385Y01635*
X00383Y01637*
X00381Y01639*
X00378Y01639*
X00376Y0164*
X00373Y01639*
X0037Y01639*
X00368Y01637*
X00366Y01635*
X00364Y01633*
X00363Y01631*
X00362Y01628*
X00361Y01626*
X00362Y01624*
X00361Y01623*
X00334Y01624*
Y01624*
X00331Y01623*
X00329Y01622*
X00328Y01621*
X00327Y0162*
X00326Y01618*
X00325Y01616*
X00326Y01487*
X00325Y01487*
X00326Y01483*
X00327Y0148*
X00328Y01477*
X0033Y01474*
X00333Y01472*
X00336Y01471*
X00339Y0147*
X00343Y01469*
X00498Y0147*
X00498Y0147*
X00501Y01469*
X00505Y01468*
X00509Y01467*
X00512Y01465*
X00515Y01462*
X00518Y01459*
X0052Y01456*
X00521Y01452*
X00522Y01448*
X00523Y01445*
X00523Y01132*
X00522Y01132*
X00519Y01133*
X00517Y01133*
X00514Y01133*
X00511Y01132*
X00509Y0113*
X00507Y01129*
X00505Y01127*
X00504Y01124*
X00503Y01122*
X00502Y01119*
X00503Y01116*
X00504Y01113*
X00505Y01111*
X00507Y01109*
X00509Y01107*
X00511Y01106*
X00514Y01105*
X00517Y01105*
X00519Y01105*
X00522Y01106*
X00522Y01105*
X00523Y01105*
X00523Y00945*
X00522Y00945*
X00521Y00945*
X00519Y00947*
X00516Y00947*
X00514Y00948*
X00511Y00947*
X00508Y00947*
X00506Y00945*
X00504Y00943*
X00502Y00941*
X00501Y00939*
X005Y00936*
X00499Y00934*
X005Y00931*
X00501Y00928*
X00502Y00926*
X00504Y00924*
X00506Y00922*
X00508Y00921*
X00511Y0092*
X00514Y00919*
X00516Y0092*
X00519Y00921*
X00521Y00922*
X00522Y00922*
X00523Y00922*
X00523Y00888*
X00522Y00887*
X0052Y00888*
X00518Y0089*
X00515Y0089*
X00513Y00891*
X0051Y0089*
X00507Y0089*
X00505Y00888*
X00503Y00886*
X00501Y00884*
X005Y00882*
X00499Y00879*
X00498Y00877*
X00499Y00874*
X005Y00871*
X00501Y00869*
X00503Y00867*
X00505Y00865*
X00507Y00864*
X0051Y00863*
X00513Y00862*
X00515Y00863*
X00518Y00864*
X0052Y00865*
X00522Y00866*
X00523Y00865*
X00523Y00634*
X00523Y00633*
X00522Y00632*
X00522Y0063*
X00521Y00629*
X0052Y00628*
X00518Y00628*
X00517Y00627*
X00432Y00628*
X00431Y00627*
X00429Y00628*
X00426Y00629*
X00424Y0063*
X00423Y00632*
X00422Y00635*
X00421Y00638*
X00422Y0082*
X00421Y0082*
X00422Y00822*
X00423Y00825*
X00424Y00827*
X00426Y00829*
X00428Y00831*
X0043Y00833*
X00433Y00833*
X00436Y00834*
X00456Y00833*
Y00833*
X00457Y00834*
X00459Y00834*
X00461Y00835*
X00462Y00837*
X00462Y00839*
X00463Y0084*
X00463Y00853*
X00463Y00855*
X00464Y00858*
X00463Y0086*
X00463Y00862*
X00463Y0091*
X00463Y00911*
X00463Y00912*
X00464Y00914*
X00464Y00915*
X00464Y00916*
X00465Y00918*
Y00919*
X00465Y00919*
X00465Y00919*
X00465Y01005*
X00465Y01006*
X00465Y01006*
X00464Y0101*
X00464Y01011*
X00464Y01012*
X00463Y01015*
X00463Y01015*
X00463Y01039*
X00464Y01042*
X00464Y01043*
X00464Y01044*
X00465Y01047*
X00465Y01048*
X00465Y01048*
X00465Y01049*
X00465Y0118*
X00466Y0118*
X00466Y0118*
X00468Y01179*
X00471Y01178*
X00474Y01177*
X00476Y01178*
X00479Y01179*
X00481Y0118*
X00483Y01182*
X00485Y01184*
X00487Y01186*
X00487Y01189*
X00488Y01192*
X00487Y01194*
X00487Y01197*
X00485Y01199*
X00483Y01201*
X00481Y01203*
X00479Y01205*
X00479Y01205*
X0048Y01205*
X00483Y01206*
X00485Y01207*
X00487Y01209*
X00489Y01211*
X00491Y01213*
X00491Y01216*
X00492Y01219*
X00491Y01221*
X00491Y01224*
X00489Y01226*
X00487Y01228*
X00485Y0123*
X00483Y01232*
X0048Y01232*
X00478Y01233*
X00475Y01232*
X00472Y01232*
X0047Y0123*
X00468Y01228*
X00466Y01226*
X00466Y01226*
X00465Y01226*
X00465Y01271*
X00465Y01272*
X00465Y01272*
X00464Y01273*
X00464Y01274*
X00464Y01274*
X00464Y01275*
X00464Y01276*
X00463Y01276*
Y01277*
X00464Y01277*
X00464Y01278*
X00464Y01279*
X00464Y01279*
X00464Y0128*
X00465Y01281*
X00465Y01281*
X00465Y01282*
X00465Y01305*
X00465Y01305*
X00466Y01305*
X00466Y01305*
X00468Y01303*
X0047Y01301*
X00472Y013*
X00475Y01299*
X00478Y01298*
X0048Y01299*
X00483Y013*
X00485Y01301*
X00487Y01303*
X00489Y01305*
X00491Y01307*
X00491Y0131*
X00492Y01313*
X00491Y01315*
X00491Y01318*
X00489Y0132*
X00487Y01322*
X00485Y01324*
X00483Y01326*
X0048Y01326*
X00478Y01327*
X00475Y01326*
X00472Y01326*
X0047Y01324*
X00468Y01322*
X00466Y0132*
X00465Y01318*
X00464Y01315*
X00463Y01313*
X00463Y01313*
X00462Y01314*
X00461Y01315*
X0046Y01316*
X00459Y01317*
X00458Y01318*
X00457Y01319*
X00456Y0132*
X00454Y01321*
X00452Y01322*
X00451Y01322*
X0045Y01322*
X00448Y01323*
X00448*
X00447Y01323*
X00447Y01323*
X00447Y01323*
X00382Y01323*
X00381Y01323*
X0038Y01322*
X00378Y01322*
X00378Y01322*
X00377Y01324*
X00377Y01406*
X00377Y01407*
X00377Y01408*
X00375Y01416*
X00375Y01417*
X00375Y01417*
X00375Y01418*
X00374Y01418*
X00374Y01419*
X00374Y0142*
X0037Y01426*
X0037Y01426*
X00369Y01427*
X00368Y01429*
X00366Y0143*
X00363Y01431*
X00363Y01431*
X00361Y01433*
X0036Y01433*
X00359Y01433*
X00359Y01434*
X00358Y01434*
X00358Y01434*
X00357Y01434*
X0035Y01436*
X00349Y01436*
X00349Y01436*
X00348Y01436*
X00347Y01436*
X00347Y01436*
X00346Y01436*
X00346Y01436*
X00282Y01435*
X00279Y01436*
X00277Y01438*
X00275Y0144*
X00275Y01442*
X00275Y01443*
Y01443*
X00274Y01671*
X00275Y01673*
X00275Y01674*
X00278Y01676*
X0028Y01678*
X00281Y01679*
X00282Y01678*
Y01678*
X00282Y01678*
X0032Y01678*
X0032Y01678*
X0032Y01678*
X00321Y01679*
X00322Y01679*
X00322Y01679*
X00323Y01679*
X00324Y01679*
X00325Y0168*
X00325Y0168*
X00325Y0168*
X00326Y01681*
X00327Y01681*
X00327Y01682*
X00327Y01682*
X00328Y01683*
X00337Y01683*
G37*
G36*
X00447Y01313D02*
D01*
X00447Y01313*
X00449Y01312*
X00451Y01311*
X00452Y0131*
X00453Y01309*
X00454Y01307*
X00455Y01305*
X00455Y01282*
X00454Y01282*
X00454Y01282*
X00452Y01284*
X0045Y01286*
X00448Y01288*
X00446Y0129*
X00443Y0129*
X00441Y01291*
X00438Y0129*
X00435Y0129*
X00433Y01288*
X00431Y01287*
X0043Y01288*
X0043Y01289*
X0043Y01292*
X00428Y01294*
X00426Y01296*
X00424Y01298*
X00422Y013*
X00419Y013*
X00417Y01301*
X00414Y013*
X00411Y013*
X00409Y01298*
X00407Y01296*
X00405Y01294*
X00404Y01292*
X00403Y01289*
X00402Y01287*
X00403Y01284*
X00404Y01281*
X00405Y01279*
X00407Y01277*
X00409Y01275*
X00411Y01274*
X00414Y01273*
X00417Y01272*
X00419Y01273*
X00422Y01274*
X00424Y01275*
X00426Y01276*
X00427Y01275*
X00427Y01274*
X00428Y01271*
X00429Y01269*
X00431Y01267*
X00433Y01265*
X00435Y01264*
X00438Y01263*
X00441Y01262*
X00443Y01263*
X00446Y01264*
X00448Y01265*
X0045Y01267*
X00452Y01269*
X00454Y01271*
X00454Y01271*
X00455Y01271*
X00455Y0122*
X00454Y0122*
X00453Y01222*
X00453Y01225*
X00451Y01227*
X00449Y01229*
X00447Y01231*
X00445Y01233*
X00442Y01233*
X0044Y01234*
X00437Y01233*
X00434Y01233*
X00432Y01231*
X0043Y01229*
X00428Y01227*
X00427Y01225*
X00426Y01222*
X00425Y0122*
X00426Y01217*
X00427Y01214*
X00428Y01212*
X0043Y0121*
X00432Y01208*
X00434Y01207*
X00437Y01206*
X0044Y01205*
X00442Y01206*
X00445Y01207*
X00447Y01208*
X00449Y0121*
X00451Y01212*
X00453Y01214*
X00453Y01217*
X00454Y01219*
X00455Y01219*
X00455Y01049*
X00455Y01048*
X00454Y01045*
X00453Y01042*
X00452Y01038*
X00449Y01036*
X00447Y01033*
X00443Y01032*
X0044Y01031*
X00437Y0103*
X00149Y01031*
Y01031*
X00144Y0103*
X0014Y01029*
X00136Y01028*
X00133Y01025*
X00129Y01023*
X00127Y01019*
X00124Y01016*
X00123Y01012*
X00122Y01008*
X00121Y01004*
X00121Y00779*
X00121Y00776*
X0012Y00774*
X00121Y00771*
X00121Y00768*
Y00734*
X00121Y00733*
X0012Y00734*
X00117Y00733*
X00114Y00733*
X00112Y00731*
X0011Y00729*
X00108Y00727*
X00107Y00725*
X00106Y00722*
X00105Y0072*
X00106Y00717*
X00107Y00714*
X00108Y00712*
X0011Y0071*
X00112Y00708*
X00114Y00707*
X00117Y00706*
X0012Y00705*
X00121Y00706*
X00121Y00705*
Y00701*
X00119Y007*
X00116Y007*
X00114Y00698*
X00112Y00696*
X0011Y00694*
X00109Y00692*
X00108Y00689*
X00107Y00687*
X00108Y00684*
X00109Y00681*
X0011Y00679*
X00112Y00677*
X00114Y00675*
X00116Y00674*
X00119Y00673*
X00121Y00672*
X00121Y00264*
X00121Y00264*
X0012Y00264*
X00118Y00266*
X00115Y00266*
X00113Y00267*
X0011Y00266*
X00107Y00266*
X00105Y00264*
X00103Y00262*
X00101Y0026*
X001Y00258*
X00099Y00255*
X00098Y00253*
X00099Y0025*
X001Y00247*
X00101Y00245*
X00103Y00243*
X00105Y00241*
X00107Y0024*
X0011Y00239*
X00113Y00238*
X00115Y00239*
X00118Y0024*
X0012Y00241*
X00121Y00241*
X00121Y00241*
X00122Y00153*
X00121Y00153*
X00122Y0015*
X00123Y00148*
X00124Y00146*
X00126Y00145*
X00128Y00144*
X00131Y00143*
X00175Y00144*
X00175Y00144*
X00178Y00143*
X00181Y00142*
X00184Y00141*
X00187Y00139*
X00189Y00136*
X0019Y00133*
X00191Y0013*
X00192Y00127*
X00192Y00019*
X00192Y00019*
X00192Y00016*
X00191Y00013*
X00189Y00011*
X00188Y00008*
X00187Y00008*
X00184*
X00183Y00009*
X00185Y00011*
X00185Y00014*
X00186Y00017*
X00185Y00019*
X00185Y00022*
X00183Y00024*
X00181Y00026*
X00179Y00028*
X00177Y0003*
X00174Y0003*
X00172Y00031*
X00169Y0003*
X00166Y0003*
X00164Y00028*
X00162Y00026*
X0016Y00024*
X00159Y00022*
X00158Y00019*
X00157Y00017*
X00158Y00014*
X00159Y00011*
X0016Y00009*
X00159Y00008*
X00045*
X00045Y00009*
X00045Y0001*
X00047Y00012*
X00048Y00014*
X00049Y00017*
X00049Y0002*
X00049Y00022*
X00048Y00025*
X00047Y00027*
X00045Y00029*
X00043Y00031*
X00041Y00033*
X00038Y00033*
X00035Y00034*
X00033Y00033*
X0003Y00033*
X00027Y00031*
X00025Y00029*
X00024Y00027*
X00022Y00025*
X00021Y00022*
X00021Y0002*
X00021Y00017*
X00022Y00014*
X00024Y00012*
X00025Y0001*
X00026Y00009*
X00026Y00008*
X00009*
X00008Y00009*
Y01152*
X00009Y01154*
X00011Y01155*
X00014Y01156*
X00017Y01157*
X0004Y01157*
X0004Y01156*
X00039Y01155*
X00036Y01151*
X00034Y01147*
X00032Y01143*
X0003Y01139*
X00029Y01134*
X00029Y0113*
X00029Y01125*
X0003Y0112*
X00032Y01116*
X00034Y01112*
X00036Y01108*
X00039Y01104*
X00043Y01101*
X00047Y01099*
X00051Y01097*
X00055Y01095*
X0006Y01094*
X00065Y01094*
X00069Y01094*
X00074Y01095*
X00078Y01097*
X00082Y01099*
X00086Y01101*
X0009Y01104*
X00093Y01108*
X00095Y01112*
X00097Y01116*
X00099Y0112*
X001Y01125*
X001Y0113*
X001Y01134*
X00099Y01139*
X00097Y01143*
X00095Y01147*
X00093Y01151*
X0009Y01155*
X00089Y01156*
X00089Y01157*
X00361Y01157*
Y01156*
X00364Y01157*
X00367Y01158*
X00369Y01159*
X00372Y01161*
X00374Y01164*
X00375Y01166*
X00376Y01169*
X00377Y01173*
X00377Y01213*
X00378Y01213*
X00378Y01213*
X0038Y01211*
X00382Y01209*
X00384Y01208*
X00387Y01207*
X0039Y01206*
X00392Y01207*
X00395Y01208*
X00397Y01209*
X00399Y01211*
X00401Y01213*
X00403Y01215*
X00403Y01218*
X00404Y01221*
X00403Y01223*
X00403Y01226*
X00401Y01228*
X00399Y0123*
X00397Y01232*
X00395Y01234*
X00392Y01234*
X0039Y01235*
X00387Y01234*
X00384Y01234*
X00382Y01232*
X0038Y0123*
X00378Y01228*
X00378Y01228*
X00377Y01228*
X00377Y01308*
X00376Y01308*
X00377Y01309*
X00378Y01311*
X0038Y01312*
X00382Y01313*
X00447Y01313*
G37*
G36*
X00721Y01891D02*
X0072Y01891D01*
X00719Y01892*
X00717Y01894*
X00715Y01896*
X00713Y01898*
X0071Y01898*
X00708Y01899*
X00705Y01898*
X00702Y01898*
X007Y01896*
X00698Y01894*
X00696Y01892*
X00695Y0189*
X00694Y01887*
X00693Y01885*
X00694Y01882*
X00695Y01879*
X00696Y01877*
X00698Y01875*
X007Y01873*
X00702Y01872*
X00705Y01871*
X00708Y0187*
X0071Y01871*
X00713Y01872*
X00715Y01873*
X00717Y01875*
X00719Y01877*
X0072Y01878*
X00721Y01878*
Y01792*
X0072Y01792*
X00719Y01793*
X00717Y01795*
X00715Y01797*
X00713Y01798*
X0071Y01799*
X00708Y01799*
X00705Y01799*
X00702Y01798*
X007Y01797*
X00698Y01795*
X00696Y01793*
X00695Y01791*
X00694Y01788*
X00693Y01785*
X00694Y01782*
X00695Y0178*
X00696Y01777*
X00698Y01775*
X007Y01773*
X00702Y01772*
X00703Y01772*
X00702Y01771*
X00648*
Y01708*
X00647Y01707*
X00616Y01708*
Y01708*
X00611Y01707*
X00607Y01706*
X00603Y01705*
X00603Y01706*
X00605Y01707*
X00609Y0171*
X00612Y01714*
X00614Y01718*
X00616Y01722*
X00618Y01726*
X00619Y01731*
X00619Y01736*
X00619Y0174*
X00618Y01745*
X00616Y01749*
X00614Y01753*
X00612Y01757*
X00609Y01761*
X00605Y01764*
X00601Y01766*
X00597Y01768*
X00593Y0177*
X00588Y01771*
X00584Y01771*
X00579Y01771*
X00574Y0177*
X0057Y01768*
X00566Y01766*
X00562Y01764*
X00558Y01761*
X00555Y01757*
X00553Y01753*
X00551Y01749*
X00549Y01745*
X00548Y0174*
X00548Y01736*
X00548Y01731*
X00549Y01726*
X00551Y01722*
X00553Y01718*
X00555Y01714*
X00558Y0171*
X00562Y01707*
X00566Y01705*
X0057Y01703*
X00574Y01701*
X00579Y017*
X00584Y017*
X00586Y017*
X00586Y01699*
X00586Y01698*
X00584Y01696*
X00583Y01694*
X00582Y01691*
X00581Y01689*
X00582Y01686*
X00583Y01683*
X00584Y01681*
X00586Y01679*
X00586Y01678*
X00587Y01512*
X00586Y01512*
X00587Y01509*
X00587Y01507*
X00589Y01504*
X0059Y01502*
X00592Y01501*
X00595Y01499*
X00597Y01499*
X006Y01498*
X0062Y01499*
X0062Y01499*
X00622Y01498*
X00625Y01497*
X00627Y01496*
X00628Y01494*
X00629Y01491*
X0063Y01489*
X0063Y01436*
X00629Y01434*
X00629Y0143*
X00629Y01425*
X0063Y01423*
X0063Y01402*
X0063Y01401*
X00629Y01399*
X00628Y01396*
X00626Y01394*
X00624Y01392*
X00621Y01391*
X00619Y0139*
X0059Y0139*
X0059Y01391*
X0059Y01392*
X00589Y01394*
X00589Y01397*
X00587Y01399*
X00585Y01401*
X00583Y01403*
X00581Y01405*
X00578Y01405*
X00576Y01406*
X00573Y01405*
X0057Y01405*
X00568Y01403*
X00566Y01401*
X00564Y01399*
X00563Y01397*
X00562Y01394*
X00561Y01392*
X00561Y01391*
X00561Y0139*
X00537Y01391*
X00536Y0139*
X00535Y01391*
X00533Y01391*
X00533Y01392*
Y01445*
X00533Y01445*
X00533Y01445*
X00532Y01449*
X00532Y0145*
X00532Y01451*
X00531Y01455*
X00531Y01455*
X00531Y01456*
X00529Y0146*
X00529Y0146*
X00528Y01461*
X00526Y01465*
X00526Y01465*
X00525Y01466*
X00523Y01469*
X00522Y01469*
X00522Y0147*
X00519Y01472*
X00518Y01473*
X00518Y01473*
X00514Y01475*
X00513Y01476*
X00513Y01476*
X00509Y01478*
X00508Y01478*
X00508Y01478*
X00504Y01479*
X00503Y01479*
X00502Y01479*
X00498Y0148*
X00498Y0148*
X00498Y0148*
X00497Y0148*
X00343Y0148*
X00341Y0148*
X0034Y0148*
X00339Y01481*
X00338Y01482*
X00337Y01483*
X00336Y01484*
X00336Y01485*
X00336Y01486*
X00336Y01487*
Y01487*
X00336Y01613*
X00336Y01613*
X00361Y01613*
X00361Y01613*
X00361Y01613*
X00362Y01614*
X00363Y01614*
X00364Y01614*
X00364Y01614*
X00365Y01614*
X00366Y01615*
X00366Y01615*
X00366Y01615*
X00368Y01614*
X0037Y01613*
X00373Y01612*
X00376Y01611*
X00378Y01612*
X00381Y01613*
X00383Y01614*
X00385Y01615*
X00385Y01615*
X00385Y01615*
X00386Y01614*
X00387Y01614*
X00387Y01614*
X00387Y01614*
X00389Y01614*
X0039Y01613*
X0039Y01613*
X0039Y01613*
X00415Y01613*
X00415Y01613*
X00415Y01613*
X00416Y01614*
X00417Y01614*
X00418Y01614*
X00418Y01614*
X00419Y01614*
X0042Y01615*
X0042Y01615*
X0042Y01615*
X00422Y01614*
X00424Y01613*
X00426Y01612*
X00426Y01585*
X00426Y01584*
X00426Y01583*
X00427Y01578*
X00428Y01577*
X00428Y01577*
X00428Y01576*
X00428Y01575*
X00429Y01575*
Y01573*
X00428*
X00429Y0157*
X0043Y01568*
X00431Y01566*
X00433Y01565*
X00435Y01564*
X00438Y01563*
X00441Y01563*
X00442Y01563*
X00446Y01562*
X00447Y01562*
X00447Y01562*
X00448Y01562*
X00449Y01562*
X00449Y01562*
X0045Y01562*
X0045Y01562*
X00494Y01562*
X00495Y01562*
X00496Y01562*
X005Y01563*
X005Y01563*
X00501Y01563*
X00501Y01564*
X00502Y01564*
X00503Y01564*
X00503Y01565*
X00505Y01566*
X00506Y01566*
X00509Y01568*
X00511Y01571*
X00512Y01574*
X00513Y01577*
X00514Y01578*
X00514Y01578*
X00514Y01579*
X00515Y01579*
X00515Y0158*
X00515Y01581*
X00515Y01581*
X00515Y01582*
X00515Y01583*
X00516Y01584*
Y01605*
X00516Y01758*
X00516Y01759*
X00516Y0176*
X00515Y01766*
X00514Y01766*
X00514Y01767*
X00514Y01767*
X00514Y01768*
X00513Y01769*
X00513Y01769*
X0051Y01773*
X0051Y01774*
X00509Y01775*
X00509Y01775*
X00509Y01775*
X00508Y01776*
X00507Y01776*
X00503Y01779*
X00503Y01779*
X00502Y0178*
X00501Y0178*
X00501Y0178*
X005Y0178*
X005Y01781*
X00495Y01782*
X00494Y01782*
X00494Y01782*
X00493Y01782*
X00492Y01782*
X00492Y01782*
X00491Y01782*
X00491Y01782*
X00472Y01782*
X00472Y01782*
X00476Y01784*
X0048Y01786*
X00484Y01788*
X00487Y01791*
X0049Y01794*
X00493Y01798*
X00495Y01802*
X00496Y01807*
X00497Y01811*
X00498Y01816*
X00497Y0182*
X00496Y01824*
X00495Y01829*
X00493Y01833*
X0049Y01837*
X00487Y0184*
X00484Y01843*
X0048Y01845*
X00476Y01847*
X00472Y01849*
X00467Y0185*
X00463Y0185*
X00458Y0185*
X00454Y01849*
X0045Y01847*
X00446Y01845*
X00442Y01843*
X00438Y0184*
X00435Y01837*
X00433Y01833*
X00431Y01829*
X00429Y01824*
X00429Y0182*
X00428Y01816*
X00429Y01811*
X00429Y01807*
X00431Y01802*
X00433Y01798*
X00435Y01794*
X00438Y01791*
X00442Y01788*
X00446Y01786*
X0045Y01784*
X00452Y01783*
X00452Y01782*
X00275Y01782*
X00275Y01782*
X00279Y01784*
X00283Y01786*
X00287Y01788*
X00291Y01791*
X00294Y01794*
X00296Y01798*
X00298Y01802*
X003Y01807*
X003Y01811*
X00301Y01816*
X003Y0182*
X003Y01824*
X00298Y01829*
X00296Y01833*
X00294Y01837*
X00291Y0184*
X00287Y01843*
X00283Y01845*
X00279Y01847*
X00275Y01849*
X00271Y0185*
X00266Y0185*
X00262Y0185*
X00257Y01849*
X00253Y01847*
X00249Y01845*
X00245Y01843*
X00242Y0184*
X00239Y01837*
X00236Y01833*
X00234Y01829*
X00233Y01824*
X00232Y0182*
X00231Y01816*
X00232Y01811*
X00233Y01807*
X00234Y01802*
X00236Y01798*
X00239Y01794*
X00242Y01791*
X00245Y01788*
X00249Y01786*
X00253Y01784*
X00255Y01783*
X00255Y01782*
X00246Y01782*
X00245Y01782*
X00244Y01782*
X00238Y01781*
X00237Y0178*
X00236Y0178*
X00236Y0178*
X00235Y0178*
X00235Y01779*
X00234Y01779*
X00229Y01776*
X00229Y01775*
X00228Y01775*
X00228Y01774*
X00227Y01774*
X00227Y01773*
X00226Y01773*
X00223Y01768*
X00223Y01767*
X00222Y01767*
X00222Y01766*
X00222Y01766*
X00222Y01765*
X00221Y01764*
X0022Y01759*
X0022Y01758*
X0022Y01758*
X0022Y01757*
X0022Y01756*
X0022Y01756*
X0022Y01755*
X0022Y01755*
X0022Y01409*
X0022Y01408*
X0022Y01407*
X00221Y01402*
X00222Y01401*
X00222Y01401*
X00222Y014*
X00222Y01399*
X00223Y01399*
X00223Y01398*
X00225Y01394*
X00226Y01394*
X00226Y01393*
X00227Y01393*
X00227Y01392*
X00228Y01392*
X00228Y01391*
X00232Y01389*
X00233Y01389*
X00233Y01388*
X00234Y01388*
X00235Y01388*
X00235Y01388*
X00236Y01387*
X00239Y01387*
X00239Y01385*
X0024Y01382*
X00241Y0138*
X00243Y01378*
X00245Y01376*
X00247Y01375*
X0025Y01374*
X00253Y01373*
X00255Y01374*
X00258Y01375*
X0026Y01376*
X00262Y01378*
X00264Y0138*
X00266Y01382*
X00266Y01385*
X00266Y01386*
X00303Y01387*
X00305Y01385*
X00306Y01383*
Y013*
X00306Y01299*
X00305Y013*
X00302Y013*
X003Y01301*
X00297Y013*
X00294Y013*
X00292Y01298*
X0029Y01296*
X00288Y01294*
X00287Y01292*
X00286Y01289*
X00285Y01287*
X00286Y01284*
X00287Y01281*
X00288Y01279*
X0029Y01277*
X00292Y01275*
X00294Y01274*
X00297Y01273*
X003Y01272*
X003Y01272*
X00301Y01272*
X003Y0127*
X00301Y01267*
X00302Y01264*
X00303Y01262*
X00305Y0126*
X00307Y01258*
X00307*
X00307Y01257*
X00306Y01256*
X00306Y01256*
X00306Y01256*
Y0125*
X00306Y01249*
X00306Y01249*
X00307Y01248*
X00307Y01247*
X00307Y01247*
X00307Y01246*
X00307Y01245*
X00308Y01245*
X00308Y01244*
X00306Y01242*
X00305Y0124*
X00304Y01237*
X00303Y01235*
X00304Y01232*
X00305Y01229*
X00306Y01227*
X00308Y01225*
X00308Y01224*
X00307Y01224*
X00307Y01223*
X00307Y01222*
X00307Y01222*
X00307Y01221*
X00306Y0122*
X00306Y0122*
X00306Y01219*
Y01215*
X00306Y01175*
X00306Y01174*
X00306Y01173*
X00307Y01169*
X00307Y01169*
X00305Y01167*
X00304Y01167*
X00089Y01167*
X00088Y01167*
X00087Y01167*
X00087Y01166*
X00086Y01166*
X00086Y01166*
X00085Y01166*
X00084Y01165*
X00084*
X00045*
X00045Y01166*
X00044Y01166*
X00043Y01166*
X00043Y01166*
X00042Y01166*
X00042Y01167*
X00041Y01167*
X0004Y01167*
X00017*
X00016Y01167*
X00015*
X00013Y01166*
X00012Y01166*
X0001Y01167*
X00008Y01168*
X00008Y01169*
Y01971*
X00674*
X00674Y0197*
X00674Y0197*
X0067Y01968*
X00666Y01966*
X00662Y01964*
X00658Y01961*
X00655Y01957*
X00653Y01953*
X00651Y01949*
X00649Y01945*
X00648Y0194*
X00648Y01936*
X00648Y01931*
X00649Y01926*
X00651Y01922*
X00653Y01918*
X00655Y01914*
X00658Y0191*
X00662Y01907*
X00666Y01905*
X0067Y01903*
X00674Y01901*
X00679Y019*
X00684Y019*
X00688Y019*
X00693Y01901*
X00697Y01903*
X00701Y01905*
X00705Y01907*
X00709Y0191*
X00712Y01914*
X00714Y01918*
X00716Y01922*
X00718Y01926*
X00719Y01931*
X00719Y01936*
X00719Y0194*
X00718Y01945*
X00716Y01949*
X00714Y01953*
X00712Y01957*
X00709Y01961*
X00705Y01964*
X00701Y01966*
X00697Y01968*
X00693Y0197*
X00688Y01971*
Y01971*
X00721*
Y01891*
G37*
G36*
X00718Y00568D02*
D01*
X00718Y00568*
X00719Y00567*
X00721Y00567*
Y00385*
X0072Y00384*
X00719Y00385*
X00718Y00385*
X00717Y00385*
X00714Y00386*
X00714*
X00713Y00386*
X00712Y00386*
X00647Y00386*
X00647Y00386*
X00646Y00386*
X00645Y00385*
X00645Y00385*
X00644Y00385*
X00643Y00385*
X00643Y00384*
X00642Y00384*
X00642Y00384*
X00641Y00383*
X00641Y00383*
X0064Y00383*
X0064Y00382*
X0064*
X00639Y00383*
X00636Y00384*
X00634Y00384*
X00631Y00384*
X00628Y00383*
X00627Y00382*
X00627*
X00627Y00383*
X00626Y00383*
X00626Y00383*
X00625Y00384*
X00625Y00384*
X00624Y00384*
X00624Y00385*
X00623Y00385*
X00622Y00385*
X00622Y00385*
X00621Y00386*
X0062Y00386*
X0062Y00386*
X00614*
X00614Y00386*
X00611Y00388*
X00608Y00388*
X00605Y00389*
X00602Y00388*
X00599Y00388*
X00596Y00386*
X00595Y00386*
X00496Y00386*
X00495Y00386*
X00495Y00386*
X00492Y00385*
X00491Y00385*
X0049Y00385*
X00488Y00384*
X00488Y00384*
X00486Y00386*
X00484Y00388*
X00483Y0039*
X00483Y00392*
X00482Y00395*
X00482Y0044*
X00484Y00441*
X00486Y00442*
X00488Y00444*
X0049Y00446*
X00492Y00448*
X00492Y00451*
X00493Y00454*
X00492Y00456*
X00492Y00459*
X0049Y00461*
X00488Y00463*
X00486Y00465*
X00484Y00467*
X00482Y00467*
X00483Y00484*
X00483*
X00482Y00485*
X00481Y00486*
X0048Y00487*
X00479Y00488*
X00346Y00488*
X00345Y00487*
X00344Y00488*
X00342Y00489*
X00341Y00491*
X0034Y00493*
X00341Y00551*
X0034Y00551*
X00341Y00552*
X00341Y00554*
X00342Y00555*
X00343Y00556*
X00345Y00556*
X00347Y00557*
X00358Y00557*
X00582*
Y00556*
X00582Y00557*
X00583Y00557*
X00583Y00558*
X00584Y00559*
X00583Y00559*
X00584Y00561*
X00585Y00563*
X00586Y00565*
X00588Y00566*
X0059Y00567*
X00593Y00568*
X00718Y00568*
G37*
G36*
X00445Y0102D02*
X00447Y01019D01*
X0045Y01017*
X00452Y01014*
X00453Y01012*
X00454Y01009*
X00455Y01006*
X00455Y0092*
X00455Y00919*
X00454Y00917*
X00454Y00915*
X00452Y00912*
X00451Y0091*
X00449Y00909*
X00447Y00907*
X00444Y00907*
X00442Y00906*
X00258Y00907*
Y00907*
X00255Y00906*
X00252Y00905*
X0025Y00903*
X00248Y00901*
X00247Y00898*
X00246Y00896*
X00246Y00812*
X00246Y00812*
X00243Y00812*
X00241Y00811*
X00238Y00809*
X00236Y00808*
X00234Y00806*
X00233Y00803*
X00232Y00801*
X00232Y00798*
X00232Y00795*
X00233Y00792*
X00234Y0079*
X00236Y00788*
X00238Y00786*
X00241Y00785*
X00243Y00784*
X00246Y00784*
X00246Y00784*
X00246Y00713*
X00246Y00713*
X00246Y0071*
X00245Y00708*
X00244Y00705*
X00243Y00703*
X00241Y00702*
X00238Y00701*
X00236Y007*
X00233Y007*
X00192Y00699*
X00192Y00699*
X00187Y00699*
X00183Y00698*
X00179Y00697*
X00176Y00694*
X00172Y00692*
X0017Y00688*
X00167Y00685*
X00166Y00681*
X00165Y00677*
X00165Y00672*
Y00609*
X00162Y00609*
X0016Y00607*
X00158Y00605*
X00156Y00603*
X00155Y00601*
X00154Y00598*
X00153Y00596*
X00154Y00593*
X00155Y0059*
X00156Y00588*
X00158Y00586*
X0016Y00584*
X00162Y00583*
X00165Y00582*
X00165Y00349*
X00164*
X00165Y00346*
X00165Y00344*
X00167Y00341*
X00168Y00339*
X0017Y00338*
X00173Y00336*
X00175Y00336*
X00178Y00335*
X00196Y00335*
X00197Y00335*
X00197Y00334*
X00196Y00332*
X00197Y00329*
X00198Y00326*
X00199Y00324*
X00201Y00322*
X00203Y0032*
X00205Y00319*
X00208Y00318*
X00211Y00317*
X00213Y00318*
X00216Y00319*
X00218Y0032*
X0022Y00322*
X00222Y00324*
X00223Y00326*
X00224*
X00225Y00324*
X00226Y00321*
X00227Y00318*
X00227Y00169*
X00226*
X00227Y00165*
X00228Y00161*
X00229Y00158*
X00231Y00155*
X00233Y00152*
X00236Y0015*
X00239Y00148*
X00242Y00147*
X00246Y00146*
X0025Y00145*
X00468Y00146*
X00469Y00145*
X00471Y00146*
X00474Y00147*
X00477Y00148*
X00479Y0015*
X00481Y00152*
X00482Y00155*
X00483Y00158*
X00484Y00161*
X00484Y00364*
X00483Y00364*
X00484Y00366*
X00484Y00368*
X00485Y0037*
X00487Y00372*
X00489Y00374*
X00491Y00375*
X00493Y00375*
X00496Y00376*
X0062Y00376*
X0062Y00375*
X0062Y00373*
X00619Y0037*
X0062Y00367*
X00621Y00365*
X00622Y00362*
X00624Y0036*
X00626Y00358*
X00628Y00357*
X00631Y00356*
X00634Y00356*
X00636Y00356*
X00639Y00357*
X00641Y00358*
X00643Y0036*
X00645Y00362*
X00647Y00365*
X00647Y00367*
X00648Y0037*
X00647Y00373*
X00647Y00375*
X00647Y00376*
X00713Y00376*
X00713Y00376*
X00715Y00375*
X00718Y00374*
X0072Y00372*
X00721Y00372*
Y00043*
X0072Y00043*
X00719Y00045*
X00718Y00047*
X00716Y00049*
X00714Y00051*
X00712Y00053*
X00709Y00053*
X00706Y00054*
X00704Y00053*
X00701Y00053*
X00698Y00051*
X00696Y00049*
X00695Y00047*
X00693Y00045*
X00692Y00042*
X00692Y0004*
X00692Y00037*
X00693Y00034*
X00695Y00032*
X00696Y0003*
X00698Y00028*
X00701Y00027*
X00704Y00026*
X00706Y00025*
X00709Y00026*
X00712Y00027*
X00714Y00028*
X00716Y0003*
X00718Y00032*
X00719Y00034*
X0072Y00036*
X00721Y00036*
Y00009*
X0072Y00008*
X002*
X002Y00009*
X002Y00009*
X002Y0001*
X00201Y00013*
X00201Y00014*
X00202Y00015*
X00202Y00018*
X00202Y00018*
X00202Y00018*
X00202Y00019*
X00202Y00127*
X00202Y00127*
X00202Y00127*
X00201Y00131*
X00201Y00132*
X00201Y00133*
X002Y00136*
X002Y00137*
X00199Y00138*
X00198Y0014*
X00197Y00142*
X00196Y00146*
X00193Y00148*
X00191Y00151*
X00187Y00152*
X00184Y00153*
X00181Y00154*
X00176Y00154*
X00176Y00154*
X00175Y00154*
X00175Y00154*
X00174Y00154*
X00137Y00154*
X00136Y00154*
X00135Y00155*
X00134Y00156*
X00133Y00158*
X00133Y00679*
X00135Y00681*
X00135Y00684*
X00136Y00687*
X00135Y00689*
X00135Y00692*
X00133Y00694*
Y00719*
X00134Y0072*
X00133Y0072*
X00133Y00759*
X00134Y00759*
X00135Y00759*
X00137Y0076*
X0014Y00761*
X00142Y00762*
X00144Y00764*
X00146Y00766*
X00146Y00766*
X00147Y00766*
X00149Y00765*
X00151Y00763*
X00151Y00763*
Y00762*
X0015Y00761*
X00148Y00759*
X00146Y00757*
X00145Y00755*
X00144Y00752*
X00143Y0075*
X00144Y00747*
X00145Y00744*
X00146Y00742*
X00148Y0074*
X0015Y00738*
X00152Y00737*
X00155Y00736*
X00158Y00735*
X0016Y00736*
X00163Y00737*
X00165Y00738*
X00167Y0074*
X00169Y00742*
X00171Y00744*
X00171Y00747*
X00172Y0075*
X00171Y00752*
X00171Y00755*
X00169Y00757*
X00167Y00759*
X00165Y00761*
X00165Y00761*
Y00762*
X00166Y00763*
X00168Y00765*
X0017Y00767*
X00172Y00769*
X00172Y00772*
X00173Y00775*
X00172Y00777*
X00172Y0078*
X0017Y00782*
X00168Y00784*
X00166Y00786*
X00164Y00788*
X00161Y00788*
X00159Y00789*
X00156Y00788*
X00153Y00788*
X00151Y00786*
X00149Y00784*
X00147Y00782*
X00147Y00782*
X00146Y00782*
X00144Y00783*
X00142Y00785*
X0014Y00787*
X00137Y00787*
X00135Y00788*
X00134Y00788*
X00133Y00788*
X00134Y00999*
X00133Y00999*
X00134Y01002*
X00135Y01006*
X00136Y01009*
X00138Y01012*
X0014Y01015*
X00143Y01017*
X00146Y01019*
X00149Y0102*
X00437Y0102*
X00437Y0102*
X00437Y0102*
X00441Y01021*
X00442Y01021*
X00442Y01021*
X00445Y0102*
G37*
%LNmb1180-2*%
%LPC*%
G36*
X0031Y00751D02*
X00306Y0075D01*
X00303Y00749*
X00301Y00748*
X00298Y00746*
X00296Y00743*
X00295Y00741*
X00294Y00738*
X00293Y00735*
X00294Y00731*
X00295Y00728*
X00296Y00726*
X00298Y00723*
X00301Y00721*
X00303Y0072*
X00306Y00719*
X0031Y00718*
X00313Y00719*
X00316Y0072*
X00318Y00721*
X00321Y00723*
X00323Y00726*
X00324Y00728*
X00325Y00731*
X00326Y00735*
X00325Y00738*
X00324Y00741*
X00323Y00743*
X00321Y00746*
X00318Y00748*
X00316Y00749*
X00313Y0075*
X0031Y00751*
G37*
G36*
X00665Y00765D02*
X0066Y00765D01*
X00655Y00764*
X00651Y00762*
X00647Y0076*
X00643Y00758*
X00639Y00755*
X00636Y00751*
X00634Y00747*
X00632Y00743*
X0063Y00739*
X00629Y00734*
X00629Y0073*
X00629Y00725*
X0063Y0072*
X00632Y00716*
X00634Y00712*
X00636Y00708*
X00639Y00704*
X00643Y00701*
X00647Y00699*
X00651Y00697*
X00655Y00695*
X0066Y00694*
X00665Y00694*
X00669Y00694*
X00674Y00695*
X00678Y00697*
X00682Y00699*
X00686Y00701*
X0069Y00704*
X00693Y00708*
X00695Y00712*
X00697Y00716*
X00699Y0072*
X007Y00725*
X007Y0073*
X007Y00734*
X00699Y00739*
X00697Y00743*
X00695Y00747*
X00693Y00751*
X0069Y00755*
X00686Y00758*
X00682Y0076*
X00678Y00762*
X00674Y00764*
X00669Y00765*
X00665Y00765*
G37*
G36*
Y00565D02*
X0066Y00565D01*
X00655Y00564*
X00651Y00562*
X00647Y0056*
X00643Y00558*
X00639Y00555*
X00636Y00551*
X00634Y00547*
X00632Y00543*
X0063Y00539*
X00629Y00534*
X00629Y0053*
X00629Y00525*
X0063Y0052*
X00632Y00516*
X00634Y00512*
X00636Y00508*
X00639Y00504*
X00643Y00501*
X00647Y00499*
X00651Y00497*
X00655Y00495*
X0066Y00494*
X00665Y00494*
X00669Y00494*
X00674Y00495*
X00678Y00497*
X00682Y00499*
X00686Y00501*
X0069Y00504*
X00693Y00508*
X00695Y00512*
X00697Y00516*
X00699Y0052*
X007Y00525*
X007Y0053*
X007Y00534*
X00699Y00539*
X00697Y00543*
X00695Y00547*
X00693Y00551*
X0069Y00555*
X00686Y00558*
X00682Y0056*
X00678Y00562*
X00674Y00564*
X00669Y00565*
X00665Y00565*
G37*
G36*
X00359Y00751D02*
X00355Y0075D01*
X00352Y00749*
X0035Y00748*
X00347Y00746*
X00345Y00743*
X00344Y00741*
X00343Y00738*
X00342Y00735*
X00343Y00731*
X00344Y00728*
X00345Y00726*
X00347Y00723*
X0035Y00721*
X00352Y0072*
X00355Y00719*
X00359Y00718*
X00362Y00719*
X00365Y0072*
X00367Y00721*
X0037Y00723*
X00372Y00726*
X00373Y00728*
X00374Y00731*
X00375Y00735*
X00374Y00738*
X00373Y00741*
X00372Y00743*
X0037Y00746*
X00367Y00748*
X00365Y00749*
X00362Y0075*
X00359Y00751*
G37*
G36*
X00608Y00554D02*
X00605Y00553D01*
X00602Y00553*
X006Y00551*
X00598Y00549*
X00596Y00547*
X00595Y00545*
X00594Y00542*
X00593Y0054*
X00594Y00537*
X00595Y00534*
X00596Y00532*
X00598Y0053*
X006Y00528*
X00602Y00527*
X00605Y00526*
X00608Y00525*
X0061Y00526*
X00613Y00527*
X00615Y00528*
X00617Y0053*
X00619Y00532*
X00621Y00534*
X00621Y00537*
X00622Y0054*
X00621Y00542*
X00621Y00545*
X00619Y00547*
X00617Y00549*
X00615Y00551*
X00613Y00553*
X0061Y00553*
X00608Y00554*
G37*
G36*
X00065Y00665D02*
X0006Y00665D01*
X00055Y00664*
X00051Y00662*
X00047Y0066*
X00043Y00658*
X00039Y00655*
X00036Y00651*
X00034Y00647*
X00032Y00643*
X0003Y00639*
X00029Y00634*
X00029Y0063*
X00029Y00625*
X0003Y0062*
X00032Y00616*
X00034Y00612*
X00036Y00608*
X00039Y00604*
X00043Y00601*
X00047Y00599*
X00051Y00597*
X00055Y00595*
X0006Y00594*
X00065Y00594*
X00069Y00594*
X00074Y00595*
X00078Y00597*
X00082Y00599*
X00086Y00601*
X0009Y00604*
X00093Y00608*
X00095Y00612*
X00097Y00616*
X00099Y0062*
X001Y00625*
X001Y0063*
X001Y00634*
X00099Y00639*
X00097Y00643*
X00095Y00647*
X00093Y00651*
X0009Y00655*
X00086Y00658*
X00082Y0066*
X00078Y00662*
X00074Y00664*
X00069Y00665*
X00065Y00665*
G37*
G36*
X00236Y00677D02*
X00234Y00676D01*
X00231Y00676*
X00228Y00674*
X00226Y00672*
X00225Y0067*
X00223Y00668*
X00223Y00665*
X00222Y00663*
X00223Y0066*
X00223Y00657*
X00225Y00655*
X00226Y00653*
X00228Y00651*
X00231Y0065*
X00234Y00649*
X00234Y00648*
X00234Y00647*
X00233Y00644*
X00232Y00642*
X00233Y00639*
X00234Y00636*
X00235Y00634*
X00237Y00632*
X00239Y0063*
X00241Y00629*
X00244Y00628*
X00247Y00627*
X00249Y00628*
X00252Y00629*
X00254Y0063*
X00256Y00632*
X00258Y00634*
X0026Y00636*
X0026Y00639*
X00261Y00642*
X0026Y00644*
X0026Y00647*
X00258Y00649*
X00256Y00651*
X00254Y00653*
X00252Y00655*
X00249Y00655*
X00249Y00656*
X00249Y00657*
X0025Y0066*
X0025Y00663*
X0025Y00665*
X00249Y00668*
X00248Y0067*
X00246Y00672*
X00244Y00674*
X00242Y00676*
X00239Y00676*
X00236Y00677*
G37*
G36*
X00665Y00665D02*
X0066Y00665D01*
X00655Y00664*
X00651Y00662*
X00647Y0066*
X00643Y00658*
X00639Y00655*
X00636Y00651*
X00634Y00647*
X00632Y00643*
X0063Y00639*
X00629Y00634*
X00629Y0063*
X00629Y00625*
X0063Y0062*
X00632Y00616*
X00634Y00612*
X00636Y00608*
X00639Y00604*
X00643Y00601*
X00647Y00599*
X00651Y00597*
X00655Y00595*
X0066Y00594*
X00665Y00594*
X00669Y00594*
X00674Y00595*
X00678Y00597*
X00682Y00599*
X00686Y00601*
X0069Y00604*
X00693Y00608*
X00695Y00612*
X00697Y00616*
X00699Y0062*
X007Y00625*
X007Y0063*
X007Y00634*
X00699Y00639*
X00697Y00643*
X00695Y00647*
X00693Y00651*
X0069Y00655*
X00686Y00658*
X00682Y0066*
X00678Y00662*
X00674Y00664*
X00669Y00665*
X00665Y00665*
G37*
G36*
X00065Y00765D02*
X0006Y00765D01*
X00055Y00764*
X00051Y00762*
X00047Y0076*
X00043Y00758*
X00039Y00755*
X00036Y00751*
X00034Y00747*
X00032Y00743*
X0003Y00739*
X00029Y00734*
X00029Y0073*
X00029Y00725*
X0003Y0072*
X00032Y00716*
X00034Y00712*
X00036Y00708*
X00039Y00704*
X00043Y00701*
X00047Y00699*
X00051Y00697*
X00055Y00695*
X0006Y00694*
X00065Y00694*
X00069Y00694*
X00074Y00695*
X00078Y00697*
X00082Y00699*
X00086Y00701*
X0009Y00704*
X00093Y00708*
X00095Y00712*
X00097Y00716*
X00099Y0072*
X001Y00725*
X001Y0073*
X001Y00734*
X00099Y00739*
X00097Y00743*
X00095Y00747*
X00093Y00751*
X0009Y00755*
X00086Y00758*
X00082Y0076*
X00078Y00762*
X00074Y00764*
X00069Y00765*
X00065Y00765*
G37*
G36*
X00359Y00704D02*
X00355Y00703D01*
X00352Y00702*
X0035Y00701*
X00347Y00699*
X00345Y00696*
X00344Y00694*
X00343Y00691*
X00342Y00688*
X00343Y00684*
X00344Y00681*
X00345Y00679*
X00347Y00676*
X0035Y00674*
X00352Y00673*
X00355Y00672*
X00359Y00671*
X00362Y00672*
X00365Y00673*
X00367Y00674*
X0037Y00676*
X00372Y00679*
X00373Y00681*
X00374Y00684*
X00375Y00688*
X00374Y00691*
X00373Y00694*
X00372Y00696*
X0037Y00699*
X00367Y00701*
X00365Y00702*
X00362Y00703*
X00359Y00704*
G37*
G36*
X0031D02*
X00306Y00703D01*
X00303Y00702*
X00301Y00701*
X00298Y00699*
X00296Y00696*
X00295Y00694*
X00294Y00691*
X00293Y00688*
X00294Y00684*
X00295Y00681*
X00296Y00679*
X00298Y00676*
X00301Y00674*
X00303Y00673*
X00306Y00672*
X0031Y00671*
X00313Y00672*
X00316Y00673*
X00318Y00674*
X00321Y00676*
X00323Y00679*
X00324Y00681*
X00325Y00684*
X00326Y00688*
X00325Y00691*
X00324Y00694*
X00323Y00696*
X00321Y00699*
X00318Y00701*
X00316Y00702*
X00313Y00703*
X0031Y00704*
G37*
G36*
X00645Y00797D02*
X00642Y00796D01*
X00639Y00796*
X00637Y00794*
X00635Y00792*
X00633Y0079*
X00632Y00788*
X00631Y00785*
X0063Y00783*
X00631Y0078*
X00632Y00777*
X00633Y00775*
X00635Y00773*
X00637Y00771*
X00639Y0077*
X00642Y00769*
X00645Y00768*
X00647Y00769*
X0065Y0077*
X00652Y00771*
X00654Y00773*
X00656Y00775*
X00658Y00777*
X00658Y0078*
X00659Y00783*
X00658Y00785*
X00658Y00788*
X00656Y0079*
X00654Y00792*
X00652Y00794*
X0065Y00796*
X00647Y00796*
X00645Y00797*
G37*
G36*
X00176Y00981D02*
X00173Y0098D01*
X0017Y0098*
X00168Y00978*
X00166Y00976*
X00164Y00974*
X00163Y00972*
X00162Y00969*
X00161Y00967*
X00162Y00964*
X00163Y00961*
X00164Y00959*
X00166Y00957*
X00168Y00955*
X0017Y00954*
X00173Y00953*
X00176Y00952*
X00178Y00953*
X00181Y00954*
X00183Y00955*
X00185Y00957*
X00187Y00959*
X00189Y00961*
X00189Y00964*
X0019Y00967*
X00189Y00969*
X00189Y00972*
X00187Y00974*
X00185Y00976*
X00183Y00978*
X00181Y0098*
X00178Y0098*
X00176Y00981*
G37*
G36*
X00254Y0098D02*
X00251Y00979D01*
X00249Y00979*
X00246Y00977*
X00244Y00975*
X00242Y00973*
X00241Y00971*
X0024Y00968*
X0024Y00966*
X0024Y00963*
X00241Y0096*
X00242Y00958*
X00244Y00956*
X00246Y00954*
X00249Y00953*
X00251Y00952*
X00254Y00951*
X00257Y00952*
X00259Y00953*
X00262Y00954*
X00264Y00956*
X00266Y00958*
X00267Y0096*
X00268Y00963*
X00268Y00966*
X00268Y00968*
X00267Y00971*
X00266Y00973*
X00264Y00975*
X00262Y00977*
X00259Y00979*
X00257Y00979*
X00254Y0098*
G37*
G36*
X00412Y00979D02*
X00409Y00978D01*
X00406Y00978*
X00404Y00976*
X00402Y00974*
X004Y00972*
X00399Y0097*
X00398Y00967*
X00397Y00965*
X00398Y00962*
X00399Y00959*
X004Y00957*
X00402Y00955*
X00404Y00953*
X00406Y00952*
X00409Y00951*
X00412Y0095*
X00414Y00951*
X00417Y00952*
X00419Y00953*
X00421Y00955*
X00423Y00957*
X00425Y00959*
X00425Y00962*
X00426Y00965*
X00425Y00967*
X00425Y0097*
X00423Y00972*
X00421Y00974*
X00419Y00976*
X00417Y00978*
X00414Y00978*
X00412Y00979*
G37*
G36*
X00689Y00992D02*
X00686Y00991D01*
X00683Y00991*
X00681Y00989*
X00679Y00987*
X00677Y00985*
X00676Y00983*
X00675Y0098*
X00674Y00978*
X00675Y00975*
X00676Y00972*
X00677Y0097*
X00679Y00968*
X00681Y00966*
X00683Y00965*
X00686Y00964*
X00689Y00963*
X00691Y00964*
X00694Y00965*
X00696Y00966*
X00698Y00968*
X007Y0097*
X00702Y00972*
X00702Y00975*
X00703Y00978*
X00702Y0098*
X00702Y00983*
X007Y00985*
X00698Y00987*
X00696Y00989*
X00694Y00991*
X00691Y00991*
X00689Y00992*
G37*
G36*
X00437Y00994D02*
X00434Y00993D01*
X00431Y00993*
X00429Y00991*
X00427Y00989*
X00425Y00987*
X00424Y00985*
X00423Y00982*
X00422Y0098*
X00423Y00977*
X00424Y00974*
X00425Y00972*
X00427Y0097*
X00429Y00968*
X00431Y00967*
X00434Y00966*
X00437Y00965*
X00439Y00966*
X00442Y00967*
X00444Y00968*
X00446Y0097*
X00448Y00972*
X0045Y00974*
X0045Y00977*
X00451Y0098*
X0045Y00982*
X0045Y00985*
X00448Y00987*
X00446Y00989*
X00444Y00991*
X00442Y00993*
X00439Y00993*
X00437Y00994*
G37*
G36*
X00075Y00993D02*
X00072Y00992D01*
X00069Y00992*
X00067Y0099*
X00065Y00988*
X00063Y00986*
X00062Y00984*
X00061Y00981*
X0006Y00979*
X00061Y00976*
X00062Y00973*
X00063Y00971*
X00065Y00969*
X00067Y00967*
X00069Y00966*
X00068Y00965*
X00065Y00965*
X0006Y00965*
X00055Y00964*
X00051Y00962*
X00047Y0096*
X00043Y00958*
X00039Y00955*
X00036Y00951*
X00034Y00947*
X00032Y00943*
X0003Y00939*
X00029Y00934*
X00029Y0093*
X00029Y00925*
X0003Y0092*
X00032Y00916*
X00034Y00912*
X00036Y00908*
X00039Y00904*
X00043Y00901*
X00047Y00899*
X00051Y00897*
X00055Y00895*
X0006Y00894*
X00065Y00894*
X00069Y00894*
X00074Y00895*
X00078Y00897*
X00082Y00899*
X00086Y00901*
X0009Y00904*
X00093Y00908*
X00095Y00912*
X00097Y00916*
X00099Y0092*
X001Y00925*
X001Y0093*
X001Y00934*
X00099Y00939*
X00097Y00943*
X00095Y00947*
X00093Y00951*
X0009Y00955*
X00086Y00958*
X00082Y0096*
X00078Y00962*
X00075Y00963*
X00075Y00964*
X00077Y00965*
X0008Y00966*
X00082Y00967*
X00084Y00969*
X00086Y00971*
X00088Y00973*
X00088Y00976*
X00089Y00979*
X00088Y00981*
X00088Y00984*
X00086Y00986*
X00084Y00988*
X00082Y0099*
X0008Y00992*
X00077Y00992*
X00075Y00993*
G37*
G36*
X00644D02*
X00641Y00992D01*
X00638Y00992*
X00636Y0099*
X00634Y00988*
X00632Y00986*
X00631Y00984*
X0063Y00981*
X00629Y00979*
X0063Y00976*
X00631Y00973*
X00632Y00971*
X00634Y00969*
X00636Y00967*
X00638Y00966*
X00641Y00965*
X00644Y00964*
X00646Y00965*
X00649Y00966*
X00651Y00967*
X00653Y00969*
X00655Y00971*
X00657Y00973*
X00657Y00976*
X00658Y00979*
X00657Y00981*
X00657Y00984*
X00655Y00986*
X00653Y00988*
X00651Y0099*
X00649Y00992*
X00646Y00992*
X00644Y00993*
G37*
G36*
X00381Y00979D02*
X00378Y00978D01*
X00375Y00978*
X00373Y00976*
X00371Y00974*
X00369Y00972*
X00368Y0097*
X00367Y00967*
X00366Y00965*
X00367Y00962*
X00368Y00959*
X00369Y00957*
X00371Y00955*
X00373Y00953*
X00375Y00952*
X00378Y00951*
X00381Y0095*
X00383Y00951*
X00386Y00952*
X00388Y00953*
X0039Y00955*
X00392Y00957*
X00394Y00959*
X00394Y00962*
X00395Y00965*
X00394Y00967*
X00394Y0097*
X00392Y00972*
X0039Y00974*
X00388Y00976*
X00386Y00978*
X00383Y00978*
X00381Y00979*
G37*
G36*
X00495Y00859D02*
X00492Y00859D01*
X00489Y00858*
X00487Y00857*
X00485Y00855*
X00483Y00853*
X00482Y0085*
X00481Y00848*
X0048Y00845*
X00481Y00842*
X00482Y0084*
X00483Y00837*
X00485Y00835*
X00487Y00833*
X00489Y00832*
X00492Y00831*
X00495Y00831*
X00497Y00831*
X005Y00832*
X00502Y00833*
X00504Y00835*
X00506Y00837*
X00508Y0084*
X00508Y00842*
X00509Y00845*
X00508Y00848*
X00508Y0085*
X00506Y00853*
X00504Y00855*
X00502Y00857*
X005Y00858*
X00497Y00859*
X00495Y00859*
G37*
G36*
X00665Y00865D02*
X0066Y00865D01*
X00655Y00864*
X00651Y00862*
X00647Y0086*
X00643Y00858*
X00639Y00855*
X00636Y00851*
X00634Y00847*
X00632Y00843*
X0063Y00839*
X00629Y00834*
X00629Y0083*
X00629Y00825*
X0063Y0082*
X00632Y00816*
X00634Y00812*
X00636Y00808*
X00639Y00804*
X00643Y00801*
X00647Y00799*
X00651Y00797*
X00655Y00795*
X0066Y00794*
X00665Y00794*
X00669Y00794*
X00674Y00795*
X00678Y00797*
X00682Y00799*
X00686Y00801*
X0069Y00804*
X00693Y00808*
X00695Y00812*
X00697Y00816*
X00699Y0082*
X007Y00825*
X007Y0083*
X007Y00834*
X00699Y00839*
X00697Y00843*
X00695Y00847*
X00693Y00851*
X0069Y00855*
X00686Y00858*
X00682Y0086*
X00678Y00862*
X00674Y00864*
X00669Y00865*
X00665Y00865*
G37*
G36*
X00065D02*
X0006Y00865D01*
X00055Y00864*
X00051Y00862*
X00047Y0086*
X00043Y00858*
X00039Y00855*
X00036Y00851*
X00034Y00847*
X00032Y00843*
X0003Y00839*
X00029Y00834*
X00029Y0083*
X00029Y00825*
X0003Y0082*
X00032Y00816*
X00034Y00812*
X00036Y00808*
X00039Y00804*
X00043Y00801*
X00047Y00799*
X00051Y00797*
X00055Y00795*
X0006Y00794*
X00065Y00794*
X00069Y00794*
X00074Y00795*
X00078Y00797*
X00082Y00799*
X00086Y00801*
X0009Y00804*
X00093Y00808*
X00095Y00812*
X00097Y00816*
X00099Y0082*
X001Y00825*
X001Y0083*
X001Y00834*
X00099Y00839*
X00097Y00843*
X00095Y00847*
X00093Y00851*
X0009Y00855*
X00086Y00858*
X00082Y0086*
X00078Y00862*
X00074Y00864*
X00069Y00865*
X00065Y00865*
G37*
G36*
X00354Y00874D02*
X00351Y00873D01*
X00348Y00873*
X00346Y00871*
X00344Y00869*
X00342Y00867*
X00341Y00865*
X0034Y00862*
X00339Y0086*
X0034Y00857*
X00341Y00854*
X00342Y00852*
X00344Y0085*
X00346Y00848*
X00348Y00847*
X00351Y00846*
X00354Y00845*
X00356Y00846*
X00359Y00847*
X00361Y00848*
X00363Y0085*
X00365Y00852*
X00367Y00854*
X00367Y00857*
X00368Y0086*
X00367Y00862*
X00367Y00865*
X00365Y00867*
X00363Y00869*
X00361Y00871*
X00359Y00873*
X00356Y00873*
X00354Y00874*
G37*
G36*
X00665Y00965D02*
X0066Y00965D01*
X00655Y00964*
X00651Y00962*
X00647Y0096*
X00643Y00958*
X00639Y00955*
X00636Y00951*
X00634Y00947*
X00632Y00943*
X0063Y00939*
X00629Y00934*
X00629Y0093*
X00629Y00925*
X0063Y0092*
X00632Y00916*
X00634Y00912*
X00636Y00908*
X00639Y00904*
X00643Y00901*
X00647Y00899*
X00651Y00897*
X00655Y00895*
X0066Y00894*
X00665Y00894*
X00669Y00894*
X00674Y00895*
X00678Y00897*
X00682Y00899*
X00686Y00901*
X0069Y00904*
X00693Y00908*
X00695Y00912*
X00697Y00916*
X00699Y0092*
X007Y00925*
X007Y0093*
X007Y00934*
X00699Y00939*
X00697Y00943*
X00695Y00947*
X00693Y00951*
X0069Y00955*
X00686Y00958*
X00682Y0096*
X00678Y00962*
X00674Y00964*
X00669Y00965*
X00665Y00965*
G37*
G36*
X00634Y00884D02*
X00631Y00883D01*
X00628Y00883*
X00626Y00881*
X00624Y00879*
X00622Y00877*
X00621Y00875*
X0062Y00872*
X00619Y0087*
X0062Y00867*
X00621Y00864*
X00622Y00862*
X00624Y0086*
X00626Y00858*
X00628Y00857*
X00631Y00856*
X00634Y00855*
X00636Y00856*
X00639Y00857*
X00641Y00858*
X00643Y0086*
X00645Y00862*
X00647Y00864*
X00647Y00867*
X00648Y0087*
X00647Y00872*
X00647Y00875*
X00645Y00877*
X00643Y00879*
X00641Y00881*
X00639Y00883*
X00636Y00883*
X00634Y00884*
G37*
G36*
X00414Y00875D02*
X00411Y00874D01*
X00408Y00874*
X00406Y00872*
X00404Y0087*
X00402Y00868*
X00401Y00866*
X004Y00863*
X00399Y00861*
X004Y00858*
X00401Y00855*
X00402Y00853*
X00404Y00851*
X00406Y00849*
X00408Y00848*
X00411Y00847*
X00414Y00846*
X00416Y00847*
X00419Y00848*
X00421Y00849*
X00423Y00851*
X00425Y00853*
X00427Y00855*
X00427Y00858*
X00428Y00861*
X00427Y00863*
X00427Y00866*
X00425Y00868*
X00423Y0087*
X00421Y00872*
X00419Y00874*
X00416Y00874*
X00414Y00875*
G37*
G36*
X00065Y00565D02*
X0006Y00565D01*
X00055Y00564*
X00051Y00562*
X00047Y0056*
X00043Y00558*
X00039Y00555*
X00036Y00551*
X00034Y00547*
X00032Y00543*
X0003Y00539*
X00029Y00534*
X00029Y0053*
X00029Y00525*
X0003Y0052*
X00032Y00516*
X00034Y00512*
X00036Y00508*
X00039Y00504*
X00043Y00501*
X00047Y00499*
X00051Y00497*
X00055Y00495*
X0006Y00494*
X00065Y00494*
X00069Y00494*
X00074Y00495*
X00078Y00497*
X00082Y00499*
X00086Y00501*
X0009Y00504*
X00093Y00508*
X00095Y00512*
X00097Y00516*
X00099Y0052*
X001Y00525*
X001Y0053*
X001Y00534*
X00099Y00539*
X00097Y00543*
X00095Y00547*
X00093Y00551*
X0009Y00555*
X00086Y00558*
X00082Y0056*
X00078Y00562*
X00074Y00564*
X00069Y00565*
X00065Y00565*
G37*
G36*
X00665Y00265D02*
X0066Y00265D01*
X00655Y00264*
X00651Y00262*
X00647Y0026*
X00643Y00258*
X00639Y00255*
X00636Y00251*
X00634Y00247*
X00632Y00243*
X0063Y00239*
X00629Y00234*
X00629Y0023*
X00629Y00225*
X0063Y0022*
X00632Y00216*
X00634Y00212*
X00636Y00208*
X00639Y00204*
X00643Y00201*
X00647Y00199*
X00651Y00197*
X00655Y00195*
X0066Y00194*
X00665Y00194*
X00669Y00194*
X00674Y00195*
X00675Y00195*
X00675Y00195*
X00675Y00194*
X00674Y00192*
X00673Y00189*
X00673Y00187*
X00673Y00184*
X00674Y00181*
X00675Y00179*
X00677Y00177*
X00679Y00175*
X00681Y00174*
X00684Y00173*
X00687Y00172*
X0069Y00173*
X00692Y00174*
X00695Y00175*
X00697Y00177*
X00698Y00179*
X007Y00181*
X00701Y00184*
X00701Y00187*
X00701Y00189*
X007Y00192*
X00698Y00194*
X00697Y00196*
X00695Y00198*
X00692Y002*
X0069Y002*
X00687Y00201*
X00687Y00202*
X0069Y00204*
X00693Y00208*
X00695Y00212*
X00697Y00216*
X00699Y0022*
X007Y00225*
X007Y0023*
X007Y00234*
X00699Y00239*
X00697Y00243*
X00695Y00247*
X00693Y00251*
X0069Y00255*
X00686Y00258*
X00682Y0026*
X00678Y00262*
X00674Y00264*
X00669Y00265*
X00665Y00265*
G37*
G36*
X00599Y00217D02*
X00597Y00217D01*
X00594Y00216*
X00592Y00215*
X00589Y00213*
X00588Y00211*
X00586Y00209*
X00586Y00206*
X00585Y00203*
X00586Y002*
X00586Y00198*
X00588Y00195*
X00589Y00193*
X00592Y00191*
X00594Y0019*
X00597Y00189*
X00599Y00189*
X00602Y00189*
X00605Y0019*
X00607Y00191*
X00609Y00193*
X00611Y00195*
X00612Y00198*
X00613Y002*
X00613Y00203*
X00613Y00206*
X00612Y00209*
X00611Y00211*
X00609Y00213*
X00607Y00215*
X00605Y00216*
X00602Y00217*
X00599Y00217*
G37*
G36*
X0054Y00179D02*
X00537Y00178D01*
X00535Y00178*
X00532Y00176*
X0053Y00174*
X00528Y00172*
X00527Y0017*
X00526Y00167*
X00526Y00165*
X00526Y00162*
X00527Y00159*
X00528Y00157*
X0053Y00155*
X00532Y00153*
X00535Y00152*
X00537Y00151*
X0054Y0015*
X00543Y00151*
X00545Y00152*
X00548Y00153*
X0055Y00155*
X00552Y00157*
X00553Y00159*
X00554Y00162*
X00554Y00165*
X00554Y00167*
X00553Y0017*
X00552Y00172*
X0055Y00174*
X00548Y00176*
X00545Y00178*
X00543Y00178*
X0054Y00179*
G37*
G36*
X00204Y0018D02*
X00201Y00179D01*
X00198Y00179*
X00196Y00177*
X00194Y00175*
X00192Y00173*
X00191Y00171*
X0019Y00168*
X00189Y00166*
X0019Y00163*
X00191Y0016*
X00192Y00158*
X00194Y00156*
X00196Y00154*
X00198Y00153*
X00201Y00152*
X00204Y00151*
X00206Y00152*
X00209Y00153*
X00211Y00154*
X00213Y00156*
X00215Y00158*
X00217Y0016*
X00217Y00163*
X00218Y00166*
X00217Y00168*
X00217Y00171*
X00215Y00173*
X00213Y00175*
X00211Y00177*
X00209Y00179*
X00206Y00179*
X00204Y0018*
G37*
G36*
X00632Y00292D02*
X00629Y00291D01*
X00626Y00291*
X00624Y00289*
X00622Y00287*
X0062Y00285*
X00619Y00283*
X00618Y0028*
X00617Y00278*
X00618Y00275*
X00619Y00272*
X0062Y0027*
X00622Y00268*
X00624Y00266*
X00626Y00265*
X00629Y00264*
X00632Y00263*
X00634Y00264*
X00637Y00265*
X00639Y00266*
X00641Y00268*
X00643Y0027*
X00645Y00272*
X00645Y00275*
X00646Y00278*
X00645Y0028*
X00645Y00283*
X00643Y00285*
X00641Y00287*
X00639Y00289*
X00637Y00291*
X00634Y00291*
X00632Y00292*
G37*
G36*
X00686Y00294D02*
X00683Y00293D01*
X0068Y00293*
X00678Y00291*
X00676Y00289*
X00674Y00287*
X00673Y00285*
X00672Y00282*
X00671Y0028*
X00672Y00277*
X00673Y00274*
X00674Y00272*
X00676Y0027*
X00678Y00268*
X0068Y00267*
X00683Y00266*
X00686Y00265*
X00688Y00266*
X00691Y00267*
X00693Y00268*
X00695Y0027*
X00697Y00272*
X00699Y00274*
X00699Y00277*
X007Y0028*
X00699Y00282*
X00699Y00285*
X00697Y00287*
X00695Y00289*
X00693Y00291*
X00691Y00293*
X00688Y00293*
X00686Y00294*
G37*
G36*
X00065Y00265D02*
X0006Y00265D01*
X00055Y00264*
X00051Y00262*
X00047Y0026*
X00043Y00258*
X00039Y00255*
X00036Y00251*
X00034Y00247*
X00032Y00243*
X0003Y00239*
X00029Y00234*
X00029Y0023*
X00029Y00225*
X0003Y0022*
X00032Y00216*
X00034Y00212*
X00036Y00208*
X00039Y00204*
X00043Y00201*
X00047Y00199*
X00051Y00197*
X00055Y00195*
X0006Y00194*
X00065Y00194*
X00069Y00194*
X00074Y00195*
X00078Y00197*
X00082Y00199*
X00086Y00201*
X0009Y00204*
X00093Y00208*
X00095Y00212*
X00097Y00216*
X00099Y0022*
X001Y00225*
X001Y0023*
X001Y00234*
X00099Y00239*
X00097Y00243*
X00095Y00247*
X00093Y00251*
X0009Y00255*
X00086Y00258*
X00082Y0026*
X00078Y00262*
X00074Y00264*
X00069Y00265*
X00065Y00265*
G37*
G36*
X00033Y00285D02*
X0003Y00284D01*
X00027Y00284*
X00025Y00282*
X00023Y0028*
X00021Y00278*
X0002Y00276*
X00019Y00273*
X00018Y00271*
X00019Y00268*
X0002Y00265*
X00021Y00263*
X00023Y00261*
X00025Y00259*
X00027Y00258*
X0003Y00257*
X00033Y00256*
X00035Y00257*
X00038Y00258*
X0004Y00259*
X00042Y00261*
X00044Y00263*
X00046Y00265*
X00046Y00268*
X00047Y00271*
X00046Y00273*
X00046Y00276*
X00044Y00278*
X00042Y0028*
X0004Y00282*
X00038Y00284*
X00035Y00284*
X00033Y00285*
G37*
G36*
X00127Y00068D02*
X00124Y00067D01*
X00121Y00067*
X00119Y00065*
X00117Y00063*
X00115Y00061*
X00114Y00059*
X00113Y00056*
X00112Y00054*
X00113Y00051*
X00114Y00048*
X00115Y00046*
X00117Y00044*
X00119Y00042*
X00121Y00041*
X00124Y0004*
X00127Y00039*
X00129Y0004*
X00132Y00041*
X00134Y00042*
X00136Y00044*
X00138Y00046*
X0014Y00048*
X0014Y00051*
X00141Y00054*
X0014Y00056*
X0014Y00059*
X00138Y00061*
X00136Y00063*
X00134Y00065*
X00132Y00067*
X00129Y00067*
X00127Y00068*
G37*
G36*
X00338Y00095D02*
X00336Y00094D01*
X00333Y00094*
X00331Y00092*
X00328Y0009*
X00327Y00088*
X00325Y00086*
X00325Y00083*
X00324Y00081*
X00325Y00078*
X00325Y00075*
X00327Y00073*
X00328Y00071*
X00331Y00069*
X00333Y00068*
X00336Y00067*
X00338Y00066*
X00341Y00067*
X00344Y00068*
X00346Y00069*
X00348Y00071*
X0035Y00073*
X00351Y00075*
X00352Y00078*
X00352Y00081*
X00352Y00083*
X00351Y00086*
X0035Y00088*
X00348Y0009*
X00346Y00092*
X00344Y00094*
X00341Y00094*
X00338Y00095*
G37*
G36*
X00338Y00051D02*
X00335Y0005D01*
X00332Y0005*
X0033Y00048*
X00328Y00046*
X00326Y00044*
X00325Y00042*
X00324Y00039*
X00323Y00037*
X00324Y00034*
X00325Y00031*
X00326Y00029*
X00328Y00027*
X0033Y00025*
X00332Y00024*
X00335Y00023*
X00338Y00022*
X0034Y00023*
X00343Y00024*
X00345Y00025*
X00347Y00027*
X00349Y00029*
X00351Y00031*
X00351Y00034*
X00352Y00037*
X00351Y00039*
X00351Y00042*
X00349Y00044*
X00347Y00046*
X00345Y00048*
X00343Y0005*
X0034Y0005*
X00338Y00051*
G37*
G36*
X00622Y00054D02*
X00619Y00053D01*
X00616Y00053*
X00614Y00051*
X00612Y00049*
X0061Y00047*
X00609Y00045*
X00608Y00042*
X00607Y0004*
X00608Y00037*
X00609Y00034*
X0061Y00032*
X00612Y0003*
X00614Y00028*
X00616Y00027*
X00619Y00026*
X00622Y00025*
X00624Y00026*
X00627Y00027*
X00629Y00028*
X00631Y0003*
X00633Y00032*
X00635Y00034*
X00635Y00037*
X00636Y0004*
X00635Y00042*
X00635Y00045*
X00633Y00047*
X00631Y00049*
X00629Y00051*
X00627Y00053*
X00624Y00053*
X00622Y00054*
G37*
G36*
X00603Y0014D02*
X006Y0014D01*
X00598Y00139*
X00595Y00138*
X00593Y00136*
X00591Y00134*
X0059Y00131*
X00589Y00129*
X00589Y00126*
X00589Y00123*
X0059Y00121*
X00591Y00118*
X00593Y00116*
X00595Y00114*
X00598Y00113*
X006Y00112*
X00603Y00112*
X00606Y00112*
X00608Y00113*
X00611Y00114*
X00613Y00116*
X00615Y00118*
X00616Y00121*
X00617Y00123*
X00617Y00126*
X00617Y00129*
X00616Y00131*
X00615Y00134*
X00613Y00136*
X00611Y00138*
X00608Y00139*
X00606Y0014*
X00603Y0014*
G37*
G36*
X00036Y00175D02*
X00033Y00174D01*
X0003Y00174*
X00028Y00172*
X00026Y0017*
X00024Y00168*
X00023Y00166*
X00022Y00163*
X00021Y00161*
X00022Y00158*
X00023Y00155*
X00024Y00153*
X00026Y00151*
X00028Y00149*
X0003Y00148*
X00033Y00147*
X00036Y00146*
X00038Y00147*
X00041Y00148*
X00043Y00149*
X00045Y00151*
X00047Y00153*
X00049Y00155*
X00049Y00158*
X0005Y00161*
X00049Y00163*
X00049Y00166*
X00047Y00168*
X00045Y0017*
X00043Y00172*
X00041Y00174*
X00038Y00174*
X00036Y00175*
G37*
G36*
X00687Y00102D02*
X00684Y00102D01*
X00681Y00101*
X00679Y001*
X00677Y00098*
X00675Y00096*
X00674Y00093*
X00673Y00091*
X00672Y00088*
X00673Y00085*
X00674Y00083*
X00675Y0008*
X00677Y00078*
X00679Y00076*
X00681Y00075*
X00684Y00074*
X00687Y00074*
X00689Y00074*
X00692Y00075*
X00694Y00076*
X00696Y00078*
X00698Y0008*
X007Y00083*
X007Y00085*
X00701Y00088*
X007Y00091*
X007Y00093*
X00698Y00096*
X00696Y00098*
X00694Y001*
X00692Y00101*
X00689Y00102*
X00687Y00102*
G37*
G36*
X00661Y00139D02*
X00658Y00138D01*
X00655Y00138*
X00653Y00136*
X00651Y00134*
X00649Y00132*
X00648Y0013*
X00647Y00127*
X00646Y00125*
X00647Y00122*
X00648Y00119*
X00649Y00117*
X00651Y00115*
X00653Y00113*
X00655Y00112*
X00658Y00111*
X00661Y0011*
X00663Y00111*
X00666Y00112*
X00668Y00113*
X0067Y00115*
X00672Y00117*
X00674Y00119*
X00674Y00122*
X00675Y00125*
X00674Y00127*
X00674Y0013*
X00672Y00132*
X0067Y00134*
X00668Y00136*
X00666Y00138*
X00663Y00138*
X00661Y00139*
G37*
G36*
X0066Y00465D02*
X00655Y00464D01*
X00651Y00462*
X00647Y0046*
X00643Y00458*
X00639Y00455*
X00636Y00451*
X00634Y00447*
X00632Y00443*
X0063Y00439*
X00629Y00435*
X0066*
Y00465*
G37*
G36*
X0067D02*
Y00435D01*
X007*
X00699Y00439*
X00697Y00443*
X00695Y00447*
X00693Y00451*
X0069Y00455*
X00686Y00458*
X00682Y0046*
X00678Y00462*
X00674Y00464*
X0067Y00465*
G37*
G36*
X007Y00425D02*
X0067D01*
Y00394*
X00674Y00395*
X00678Y00397*
X00682Y00399*
X00686Y00401*
X0069Y00404*
X00693Y00408*
X00695Y00412*
X00697Y00416*
X00699Y0042*
X007Y00425*
G37*
G36*
X00608Y00424D02*
X00605Y00423D01*
X00602Y00423*
X006Y00421*
X00598Y00419*
X00596Y00417*
X00595Y00415*
X00594Y00412*
X00593Y0041*
X00594Y00407*
X00595Y00404*
X00596Y00402*
X00598Y004*
X006Y00398*
X00602Y00397*
X00605Y00396*
X00608Y00395*
X0061Y00396*
X00613Y00397*
X00615Y00398*
X00617Y004*
X00619Y00402*
X00621Y00404*
X00621Y00407*
X00622Y0041*
X00621Y00412*
X00621Y00415*
X00619Y00417*
X00617Y00419*
X00615Y00421*
X00613Y00423*
X0061Y00423*
X00608Y00424*
G37*
G36*
X00704Y00495D02*
X00701Y00494D01*
X00698Y00494*
X00696Y00492*
X00694Y0049*
X00692Y00488*
X00691Y00486*
X0069Y00483*
X00689Y00481*
X0069Y00478*
X00691Y00475*
X00692Y00473*
X00694Y00471*
X00696Y00469*
X00698Y00468*
X00701Y00467*
X00704Y00466*
X00706Y00467*
X00709Y00468*
X00711Y00469*
X00713Y00471*
X00715Y00473*
X00717Y00475*
X00717Y00478*
X00718Y00481*
X00717Y00483*
X00717Y00486*
X00715Y00488*
X00713Y0049*
X00711Y00492*
X00709Y00494*
X00706Y00494*
X00704Y00495*
G37*
G36*
X00608Y005D02*
X00605Y00499D01*
X00602Y00499*
X006Y00497*
X00598Y00495*
X00596Y00493*
X00595Y00491*
X00594Y00488*
X00593Y00486*
X00594Y00483*
X00595Y0048*
X00596Y00478*
X00598Y00476*
X006Y00474*
X00602Y00473*
X00605Y00472*
X00608Y00471*
X0061Y00472*
X00613Y00473*
X00615Y00474*
X00617Y00476*
X00619Y00478*
X00621Y0048*
X00621Y00483*
X00622Y00486*
X00621Y00488*
X00621Y00491*
X00619Y00493*
X00617Y00495*
X00615Y00497*
X00613Y00499*
X0061Y00499*
X00608Y005*
G37*
G36*
X00539Y00468D02*
X00536Y00467D01*
X00533Y00467*
X00531Y00465*
X00529Y00463*
X00527Y00461*
X00526Y00459*
X00525Y00456*
X00524Y00454*
X00525Y00451*
X00526Y00448*
X00527Y00446*
X00529Y00444*
X00531Y00442*
X00533Y00441*
X00536Y0044*
X00539Y00439*
X00541Y0044*
X00544Y00441*
X00546Y00442*
X00548Y00444*
X0055Y00446*
X00552Y00448*
X00552Y00451*
X00553Y00454*
X00552Y00456*
X00552Y00459*
X0055Y00461*
X00548Y00463*
X00546Y00465*
X00544Y00467*
X00541Y00467*
X00539Y00468*
G37*
G36*
X00646Y00494D02*
X00643Y00493D01*
X0064Y00493*
X00638Y00491*
X00636Y00489*
X00634Y00487*
X00633Y00485*
X00632Y00482*
X00631Y0048*
X00632Y00477*
X00633Y00474*
X00634Y00472*
X00636Y0047*
X00638Y00468*
X0064Y00467*
X00643Y00466*
X00646Y00465*
X00648Y00466*
X00651Y00467*
X00653Y00468*
X00655Y0047*
X00657Y00472*
X00659Y00474*
X00659Y00477*
X0066Y0048*
X00659Y00482*
X00659Y00485*
X00657Y00487*
X00655Y00489*
X00653Y00491*
X00651Y00493*
X00648Y00493*
X00646Y00494*
G37*
G36*
X00317Y00375D02*
X00314Y00374D01*
X00311Y00374*
X00309Y00372*
X00307Y0037*
X00305Y00368*
X00304Y00366*
X00303Y00363*
X00302Y00361*
X00303Y00358*
X00304Y00355*
X00305Y00353*
X00307Y00351*
X00309Y00349*
X00311Y00348*
X00314Y00347*
X00317Y00346*
X00319Y00347*
X00322Y00348*
X00324Y00349*
X00326Y00351*
X00328Y00353*
X0033Y00355*
X0033Y00358*
X00331Y00361*
X0033Y00363*
X0033Y00366*
X00328Y00368*
X00326Y0037*
X00324Y00372*
X00322Y00374*
X00319Y00374*
X00317Y00375*
G37*
G36*
X0004Y0039D02*
X00037Y00389D01*
X00034Y00389*
X00032Y00387*
X0003Y00385*
X00028Y00383*
X00027Y00381*
X00026Y00378*
X00025Y00376*
X00026Y00373*
X00027Y0037*
X00028Y00368*
X0003Y00366*
X00032Y00364*
X00034Y00363*
X00037Y00362*
X0004Y00361*
X00042Y00362*
X00045Y00363*
X00047Y00364*
X00049Y00366*
X00051Y00368*
X00053Y0037*
X00053Y00373*
X00054Y00376*
X00053Y00378*
X00053Y00381*
X00051Y00383*
X00049Y00385*
X00047Y00387*
X00045Y00389*
X00042Y00389*
X0004Y0039*
G37*
G36*
X00065Y00365D02*
X0006Y00365D01*
X00055Y00364*
X00051Y00362*
X00047Y0036*
X00043Y00358*
X00039Y00355*
X00036Y00351*
X00034Y00347*
X00032Y00343*
X0003Y00339*
X00029Y00334*
X00029Y0033*
X00029Y00325*
X0003Y0032*
X00032Y00316*
X00034Y00312*
X00036Y00308*
X00039Y00304*
X00043Y00301*
X00047Y00299*
X00051Y00297*
X00055Y00295*
X0006Y00294*
X00065Y00294*
X00069Y00294*
X00074Y00295*
X00078Y00297*
X00082Y00299*
X00086Y00301*
X0009Y00304*
X00093Y00308*
X00095Y00312*
X00097Y00316*
X00099Y0032*
X001Y00325*
X001Y0033*
X001Y00334*
X00099Y00339*
X00097Y00343*
X00095Y00347*
X00093Y00351*
X0009Y00355*
X00086Y00358*
X00082Y0036*
X00078Y00362*
X00074Y00364*
X00069Y00365*
X00065Y00365*
G37*
G36*
X00665D02*
X0066Y00365D01*
X00655Y00364*
X00651Y00362*
X00647Y0036*
X00643Y00358*
X00639Y00355*
X00636Y00351*
X00634Y00347*
X00632Y00343*
X0063Y00339*
X00629Y00334*
X00629Y0033*
X00629Y00325*
X0063Y0032*
X00632Y00316*
X00634Y00312*
X00636Y00308*
X00639Y00304*
X00643Y00301*
X00647Y00299*
X00651Y00297*
X00655Y00295*
X0066Y00294*
X00665Y00294*
X00669Y00294*
X00674Y00295*
X00678Y00297*
X00682Y00299*
X00686Y00301*
X0069Y00304*
X00693Y00308*
X00695Y00312*
X00697Y00316*
X00699Y0032*
X007Y00325*
X007Y0033*
X007Y00334*
X00699Y00339*
X00697Y00343*
X00695Y00347*
X00693Y00351*
X0069Y00355*
X00686Y00358*
X00682Y0036*
X00678Y00362*
X00674Y00364*
X00669Y00365*
X00665Y00365*
G37*
G36*
X00065Y00465D02*
X0006Y00465D01*
X00055Y00464*
X00051Y00462*
X00047Y0046*
X00043Y00458*
X00039Y00455*
X00036Y00451*
X00034Y00447*
X00032Y00443*
X0003Y00439*
X00029Y00434*
X00029Y0043*
X00029Y00425*
X0003Y0042*
X00032Y00416*
X00034Y00412*
X00036Y00408*
X00039Y00404*
X00043Y00401*
X00047Y00399*
X00051Y00397*
X00055Y00395*
X0006Y00394*
X00065Y00394*
X00069Y00394*
X00074Y00395*
X00078Y00397*
X00082Y00399*
X00086Y00401*
X0009Y00404*
X00093Y00408*
X00095Y00412*
X00097Y00416*
X00099Y0042*
X001Y00425*
X001Y0043*
X001Y00434*
X00099Y00439*
X00097Y00443*
X00095Y00447*
X00093Y00451*
X0009Y00455*
X00086Y00458*
X00082Y0046*
X00078Y00462*
X00074Y00464*
X00069Y00465*
X00065Y00465*
G37*
G36*
X0066Y00425D02*
X00629D01*
X0063Y0042*
X00632Y00416*
X00634Y00412*
X00636Y00408*
X00639Y00404*
X00643Y00401*
X00647Y00399*
X00651Y00397*
X00655Y00395*
X0066Y00394*
Y00425*
G37*
G36*
X00211Y0039D02*
X00208Y00389D01*
X00205Y00389*
X00203Y00387*
X00201Y00385*
X00199Y00383*
X00198Y00381*
X00197Y00378*
X00196Y00376*
X00197Y00373*
X00198Y0037*
X00199Y00368*
X00201Y00366*
X00203Y00364*
X00205Y00363*
X00208Y00362*
X00211Y00361*
X00213Y00362*
X00216Y00363*
X00218Y00364*
X0022Y00366*
X00222Y00368*
X00224Y0037*
X00224Y00373*
X00225Y00376*
X00224Y00378*
X00224Y00381*
X00222Y00383*
X0022Y00385*
X00218Y00387*
X00216Y00389*
X00213Y00389*
X00211Y0039*
G37*
G36*
X0039Y00398D02*
X00387Y00397D01*
X00384Y00397*
X00382Y00395*
X0038Y00393*
X00378Y00391*
X00377Y00389*
X00376Y00386*
X00375Y00384*
X00376Y00381*
X00377Y00378*
X00378Y00376*
X0038Y00374*
X00382Y00372*
X00384Y00371*
X00387Y0037*
X0039Y00369*
X00392Y0037*
X00395Y00371*
X00397Y00372*
X00399Y00374*
X00401Y00376*
X00403Y00378*
X00403Y00381*
X00404Y00384*
X00403Y00386*
X00403Y00389*
X00401Y00391*
X00399Y00393*
X00397Y00395*
X00395Y00397*
X00392Y00397*
X0039Y00398*
G37*
G36*
X00561Y01703D02*
X00558Y01703D01*
X00556Y01702*
X00553Y01701*
X00551Y01699*
X00549Y01697*
X00548Y01694*
X00547Y01692*
X00547Y01689*
X00547Y01686*
X00548Y01684*
X00549Y01681*
X00551Y01679*
X00553Y01677*
X00556Y01676*
X00558Y01675*
X00561Y01675*
X00564Y01675*
X00566Y01676*
X00569Y01677*
X00571Y01679*
X00573Y01681*
X00574Y01684*
X00575Y01686*
X00575Y01689*
X00575Y01692*
X00574Y01694*
X00573Y01697*
X00571Y01699*
X00569Y01701*
X00566Y01702*
X00564Y01703*
X00561Y01703*
G37*
G36*
X007Y01665D02*
X0067D01*
Y01635*
X007*
Y01665*
G37*
G36*
X0066D02*
X00629D01*
Y01635*
X0066*
Y01665*
G37*
G36*
X00028Y01714D02*
X00025Y01713D01*
X00022Y01713*
X0002Y01711*
X00018Y01709*
X00016Y01707*
X00015Y01705*
X00014Y01702*
X00013Y017*
X00014Y01697*
X00015Y01694*
X00016Y01692*
X00018Y0169*
X0002Y01688*
X00022Y01687*
X00025Y01686*
X00028Y01685*
X0003Y01686*
X00033Y01687*
X00035Y01688*
X00037Y0169*
X00039Y01692*
X00041Y01694*
X00041Y01697*
X00042Y017*
X00041Y01702*
X00041Y01705*
X00039Y01707*
X00037Y01709*
X00035Y01711*
X00033Y01713*
X0003Y01713*
X00028Y01714*
G37*
G36*
X00045Y01751D02*
X00042Y0175D01*
X00039Y0175*
X00037Y01748*
X00035Y01746*
X00033Y01744*
X00032Y01742*
X00031Y01739*
X0003Y01737*
X00031Y01734*
X00032Y01731*
X00033Y01729*
X00035Y01727*
X00037Y01725*
X00039Y01724*
X00042Y01723*
X00045Y01722*
X00047Y01723*
X0005Y01724*
X00052Y01725*
X00054Y01727*
X00056Y01729*
X00058Y01731*
X00058Y01734*
X00059Y01737*
X00058Y01739*
X00058Y01742*
X00056Y01744*
X00054Y01746*
X00052Y01748*
X0005Y0175*
X00047Y0175*
X00045Y01751*
G37*
G36*
X00422Y01735D02*
X00417Y01734D01*
X00412Y01731*
X00409Y01726*
X00408Y01721*
X00409Y01715*
X00412Y0171*
X00417Y01707*
X00422Y01706*
X00428Y01707*
X00432Y0171*
X00435Y01715*
X00437Y01721*
X00435Y01726*
X00432Y01731*
X00428Y01734*
X00422Y01735*
G37*
G36*
X00119Y01714D02*
X00116Y01713D01*
X00113Y01713*
X00111Y01711*
X00109Y01709*
X00107Y01707*
X00106Y01705*
X00105Y01702*
X00104Y017*
X00105Y01697*
X00106Y01694*
X00107Y01692*
X00109Y0169*
X00111Y01688*
X00113Y01687*
X00116Y01686*
X00119Y01685*
X00121Y01686*
X00124Y01687*
X00126Y01688*
X00128Y0169*
X0013Y01692*
X00132Y01694*
X00132Y01697*
X00133Y017*
X00132Y01702*
X00132Y01705*
X0013Y01707*
X00128Y01709*
X00126Y01711*
X00124Y01713*
X00121Y01713*
X00119Y01714*
G37*
G36*
Y01662D02*
X00116Y01661D01*
X00113Y01661*
X00111Y01659*
X00109Y01657*
X00107Y01655*
X00106Y01653*
X00105Y0165*
X00104Y01648*
X00105Y01645*
X00106Y01642*
X00107Y0164*
X00109Y01638*
X00111Y01636*
X00113Y01635*
X00116Y01634*
X00119Y01633*
X00121Y01634*
X00124Y01635*
X00126Y01636*
X00128Y01638*
X0013Y0164*
X00132Y01642*
X00132Y01645*
X00133Y01648*
X00132Y0165*
X00132Y01653*
X0013Y01655*
X00128Y01657*
X00126Y01659*
X00124Y01661*
X00121Y01661*
X00119Y01662*
G37*
G36*
X00309Y01547D02*
X00306Y01546D01*
X00303Y01546*
X00301Y01544*
X00299Y01542*
X00297Y0154*
X00296Y01538*
X00295Y01535*
X00294Y01533*
X00295Y0153*
X00296Y01527*
X00297Y01525*
X00299Y01523*
X00301Y01521*
X00303Y0152*
X00306Y01519*
X00309Y01518*
X00311Y01519*
X00314Y0152*
X00316Y01521*
X00318Y01523*
X0032Y01525*
X00322Y01527*
X00322Y0153*
X00323Y01533*
X00322Y01535*
X00322Y01538*
X0032Y0154*
X00318Y01542*
X00316Y01544*
X00314Y01546*
X00311Y01546*
X00309Y01547*
G37*
G36*
X00431Y01546D02*
X00428Y01545D01*
X00425Y01545*
X00423Y01543*
X00421Y01541*
X00419Y01539*
X00418Y01537*
X00417Y01534*
X00416Y01532*
X00417Y01529*
X00418Y01526*
X00419Y01524*
X00421Y01522*
X00423Y0152*
X00425Y01519*
X00428Y01518*
X00431Y01517*
X00433Y01518*
X00436Y01519*
X00438Y0152*
X0044Y01522*
X00442Y01524*
X00444Y01526*
X00444Y01529*
X00445Y01532*
X00444Y01534*
X00444Y01537*
X00442Y01539*
X0044Y01541*
X00438Y01543*
X00436Y01545*
X00433Y01545*
X00431Y01546*
G37*
G36*
X00379D02*
X00376Y01545D01*
X00373Y01545*
X00371Y01543*
X00369Y01541*
X00367Y01539*
X00366Y01537*
X00365Y01534*
X00364Y01532*
X00365Y01529*
X00366Y01526*
X00367Y01524*
X00369Y01522*
X00371Y0152*
X00373Y01519*
X00376Y01518*
X00379Y01517*
X00381Y01518*
X00384Y01519*
X00386Y0152*
X00388Y01522*
X0039Y01524*
X00392Y01526*
X00392Y01529*
X00393Y01532*
X00392Y01534*
X00392Y01537*
X0039Y01539*
X00388Y01541*
X00386Y01543*
X00384Y01545*
X00381Y01545*
X00379Y01546*
G37*
G36*
X00035Y0159D02*
X00032Y01589D01*
X00029Y01589*
X00027Y01587*
X00025Y01585*
X00023Y01583*
X00022Y01581*
X00021Y01578*
X0002Y01576*
X00021Y01573*
X00022Y0157*
X00023Y01568*
X00025Y01566*
X00027Y01564*
X00029Y01563*
X00032Y01562*
X00035Y01561*
X00037Y01562*
X0004Y01563*
X00042Y01564*
X00044Y01566*
X00046Y01568*
X00048Y0157*
X00048Y01573*
X00049Y01576*
X00048Y01578*
X00048Y01581*
X00046Y01583*
X00044Y01585*
X00042Y01587*
X0004Y01589*
X00037Y01589*
X00035Y0159*
G37*
G36*
X007Y01625D02*
X0067D01*
Y01594*
X007*
Y01625*
G37*
G36*
X0066D02*
X00629D01*
Y01594*
X0066*
Y01625*
G37*
G36*
X001Y01665D02*
X00029D01*
Y01594*
X001*
Y01665*
G37*
G36*
X00104Y01751D02*
X00101Y0175D01*
X00098Y0175*
X00096Y01748*
X00094Y01746*
X00092Y01744*
X00091Y01742*
X0009Y01739*
X00089Y01737*
X0009Y01734*
X00091Y01731*
X00092Y01729*
X00094Y01727*
X00096Y01725*
X00098Y01724*
X00101Y01723*
X00104Y01722*
X00106Y01723*
X00109Y01724*
X00111Y01725*
X00114Y01727*
X00115Y01729*
X00117Y01731*
X00117Y01734*
X00118Y01737*
X00117Y01739*
X00117Y01742*
X00115Y01744*
X00114Y01746*
X00111Y01748*
X00109Y0175*
X00106Y0175*
X00104Y01751*
G37*
G36*
X00532Y01965D02*
X00449D01*
Y01878*
X00532*
Y01965*
G37*
G36*
X0028D02*
X00197D01*
Y01878*
X0028*
Y01965*
G37*
G36*
X00611Y01899D02*
X00608Y01898D01*
X00605Y01898*
X00603Y01896*
X00601Y01894*
X00599Y01892*
X00598Y0189*
X00597Y01887*
X00596Y01885*
X00597Y01882*
X00598Y01879*
X00599Y01877*
X00601Y01875*
X00603Y01873*
X00605Y01872*
X00608Y01871*
X00611Y0187*
X00613Y01871*
X00616Y01872*
X00618Y01873*
X0062Y01875*
X00622Y01877*
X00624Y01879*
X00624Y01882*
X00625Y01885*
X00624Y01887*
X00624Y0189*
X00622Y01892*
X0062Y01894*
X00618Y01896*
X00616Y01898*
X00613Y01898*
X00611Y01899*
G37*
G36*
X00046Y01966D02*
X00043Y01965D01*
X0004Y01965*
X00038Y01963*
X00036Y01961*
X00034Y01959*
X00033Y01957*
X00032Y01954*
X00031Y01952*
X00032Y01949*
X00033Y01946*
X00034Y01944*
X00036Y01942*
X00038Y0194*
X0004Y01939*
X00043Y01938*
X00046Y01937*
X00048Y01938*
X00051Y01939*
X00053Y0194*
X00055Y01942*
X00057Y01944*
X00059Y01946*
X00059Y01949*
X0006Y01952*
X00059Y01954*
X00059Y01957*
X00057Y01959*
X00055Y01961*
X00053Y01963*
X00051Y01965*
X00048Y01965*
X00046Y01966*
G37*
G36*
X00105Y01968D02*
X00102Y01967D01*
X00099Y01967*
X00097Y01965*
X00095Y01963*
X00093Y01961*
X00092Y01959*
X00091Y01956*
X0009Y01954*
X00091Y01951*
X00092Y01948*
X00093Y01946*
X00095Y01944*
X00097Y01942*
X00099Y01941*
X00102Y0194*
X00105Y01939*
X00107Y0194*
X0011Y01941*
X00112Y01942*
X00114Y01944*
X00116Y01946*
X00118Y01948*
X00118Y01951*
X00119Y01954*
X00118Y01956*
X00118Y01959*
X00116Y01961*
X00114Y01963*
X00112Y01965*
X0011Y01967*
X00107Y01967*
X00105Y01968*
G37*
G36*
X00611Y01967D02*
X00608Y01966D01*
X00605Y01966*
X00603Y01964*
X00601Y01962*
X00599Y0196*
X00598Y01958*
X00597Y01955*
X00596Y01953*
X00597Y0195*
X00598Y01947*
X00599Y01945*
X00601Y01943*
X00603Y01941*
X00605Y0194*
X00608Y01939*
X00611Y01938*
X00613Y01939*
X00616Y0194*
X00618Y01941*
X0062Y01943*
X00622Y01945*
X00624Y01947*
X00624Y0195*
X00625Y01953*
X00624Y01955*
X00624Y01958*
X00622Y0196*
X0062Y01962*
X00618Y01964*
X00616Y01966*
X00613Y01966*
X00611Y01967*
G37*
G36*
X00142D02*
X00139Y01966D01*
X00136Y01966*
X00134Y01964*
X00132Y01962*
X0013Y0196*
X00129Y01958*
X00128Y01955*
X00127Y01953*
X00128Y0195*
X00129Y01947*
X0013Y01945*
X00132Y01943*
X00134Y01941*
X00136Y0194*
X00139Y01939*
X00142Y01938*
X00144Y01939*
X00147Y0194*
X00149Y01941*
X00151Y01943*
X00153Y01945*
X00155Y01947*
X00155Y0195*
X00156Y01953*
X00155Y01955*
X00155Y01958*
X00153Y0196*
X00151Y01962*
X00149Y01964*
X00147Y01966*
X00144Y01966*
X00142Y01967*
G37*
G36*
X00589Y01871D02*
Y01841D01*
X00619*
X00618Y01845*
X00616Y01849*
X00614Y01853*
X00612Y01857*
X00609Y01861*
X00605Y01864*
X00601Y01866*
X00597Y01868*
X00593Y0187*
X00589Y01871*
G37*
G36*
X00684Y01871D02*
X00679Y01871D01*
X00674Y0187*
X0067Y01868*
X00666Y01866*
X00662Y01864*
X00658Y01861*
X00655Y01857*
X00653Y01853*
X00651Y01849*
X00649Y01845*
X00648Y0184*
X00648Y01836*
X00648Y01831*
X00649Y01826*
X00651Y01822*
X00653Y01818*
X00655Y01814*
X00658Y0181*
X00662Y01807*
X00666Y01805*
X0067Y01803*
X00674Y01801*
X00679Y018*
X00684Y018*
X00688Y018*
X00693Y01801*
X00697Y01803*
X00701Y01805*
X00705Y01807*
X00709Y0181*
X00712Y01814*
X00714Y01818*
X00716Y01822*
X00718Y01826*
X00719Y01831*
X00719Y01836*
X00719Y0184*
X00718Y01845*
X00716Y01849*
X00714Y01853*
X00712Y01857*
X00709Y01861*
X00705Y01864*
X00701Y01866*
X00697Y01868*
X00693Y0187*
X00688Y01871*
X00684Y01871*
G37*
G36*
X0017Y0181D02*
X00167Y0181D01*
X00164Y01809*
X00161Y01807*
X00159Y01805*
X00157Y01803*
X00155Y018*
X00154Y01797*
X00154Y01794*
X00154Y01791*
X00155Y01788*
X00157Y01785*
X00159Y01782*
X00161Y0178*
X00164Y01779*
X00167Y01778*
X0017Y01778*
X00173Y01778*
X00176Y01779*
X00179Y0178*
X00182Y01782*
X00184Y01785*
X00185Y01788*
X00186Y01791*
X00186Y01794*
X00186Y01797*
X00185Y018*
X00184Y01803*
X00182Y01805*
X00179Y01807*
X00176Y01809*
X00173Y0181*
X0017Y0181*
G37*
G36*
X00611Y01798D02*
X00608Y01797D01*
X00605Y01797*
X00603Y01795*
X00601Y01793*
X00599Y01791*
X00598Y01789*
X00597Y01786*
X00596Y01784*
X00597Y01781*
X00598Y01778*
X00599Y01776*
X00601Y01774*
X00603Y01772*
X00605Y01771*
X00608Y0177*
X00611Y01769*
X00613Y0177*
X00616Y01771*
X00618Y01772*
X0062Y01774*
X00622Y01776*
X00624Y01778*
X00624Y01781*
X00625Y01784*
X00624Y01786*
X00624Y01789*
X00622Y01791*
X0062Y01793*
X00618Y01795*
X00616Y01797*
X00613Y01797*
X00611Y01798*
G37*
G36*
X00579Y01831D02*
X00548D01*
X00549Y01826*
X00551Y01822*
X00553Y01818*
X00555Y01814*
X00558Y0181*
X00562Y01807*
X00566Y01805*
X0057Y01803*
X00574Y01801*
X00579Y018*
Y01831*
G37*
G36*
Y01871D02*
X00574Y0187D01*
X0057Y01868*
X00566Y01866*
X00562Y01864*
X00558Y01861*
X00555Y01857*
X00553Y01853*
X00551Y01849*
X00549Y01845*
X00548Y01841*
X00579*
Y01871*
G37*
G36*
X00147Y01867D02*
X00144Y01867D01*
X00141Y01866*
X00139Y01865*
X00137Y01863*
X00135Y01861*
X00134Y01858*
X00133Y01856*
X00132Y01853*
X00133Y0185*
X00134Y01848*
X00135Y01845*
X00137Y01843*
X00139Y01841*
X00141Y0184*
X00144Y01839*
X00147Y01839*
X00149Y01839*
X00152Y0184*
X00154Y01841*
X00156Y01843*
X00158Y01845*
X0016Y01848*
X0016Y0185*
X00161Y01853*
X0016Y01856*
X0016Y01858*
X00158Y01861*
X00156Y01863*
X00154Y01865*
X00152Y01866*
X00149Y01867*
X00147Y01867*
G37*
G36*
X00619Y01831D02*
X00589D01*
Y018*
X00593Y01801*
X00597Y01803*
X00601Y01805*
X00605Y01807*
X00609Y0181*
X00612Y01814*
X00614Y01818*
X00616Y01822*
X00618Y01826*
X00619Y01831*
G37*
G36*
X00619Y01212D02*
X00616Y01211D01*
X00613Y01211*
X00611Y01209*
X00609Y01207*
X00607Y01205*
X00606Y01203*
X00605Y012*
X00604Y01198*
X00605Y01195*
X00606Y01192*
X00607Y0119*
X00609Y01188*
X00611Y01186*
X00613Y01185*
X00616Y01184*
X00619Y01183*
X00621Y01184*
X00624Y01185*
X00626Y01186*
X00628Y01188*
X0063Y0119*
X00632Y01192*
X00632Y01195*
X00633Y01198*
X00632Y012*
X00632Y01203*
X0063Y01205*
X00628Y01207*
X00626Y01209*
X00624Y01211*
X00621Y01211*
X00619Y01212*
G37*
G36*
X00689Y01192D02*
X00686Y01191D01*
X00683Y01191*
X00681Y01189*
X00679Y01187*
X00677Y01185*
X00676Y01183*
X00675Y0118*
X00674Y01178*
X00675Y01175*
X00676Y01172*
X00677Y0117*
X00679Y01168*
X00681Y01166*
X00683Y01165*
X00686Y01164*
X00689Y01163*
X00691Y01164*
X00694Y01165*
X00696Y01166*
X00698Y01168*
X007Y0117*
X00702Y01172*
X00702Y01175*
X00703Y01178*
X00702Y0118*
X00702Y01183*
X007Y01185*
X00698Y01187*
X00696Y01189*
X00694Y01191*
X00691Y01191*
X00689Y01192*
G37*
G36*
X00222Y01132D02*
X00219Y01131D01*
X00216Y01131*
X00214Y01129*
X00212Y01127*
X0021Y01125*
X00209Y01123*
X00208Y01121*
X00207*
X00207Y01122*
X00205Y01125*
X00203Y01127*
X00201Y01128*
X00199Y0113*
X00196Y01131*
X00194Y01131*
X00191Y01131*
X00188Y0113*
X00186Y01128*
X00184Y01127*
X00182Y01125*
X00181Y01122*
X0018Y0112*
X00179Y01117*
X0018Y01114*
X00181Y01111*
X00182Y01109*
X00184Y01107*
X00186Y01105*
X00188Y01104*
X00191Y01103*
X00194Y01103*
X00196Y01103*
X00199Y01104*
X00201Y01105*
X00203Y01107*
X00205Y01109*
X00207Y01111*
X00207Y01113*
X00208*
X00209Y01112*
X0021Y0111*
X00212Y01108*
X00214Y01106*
X00216Y01105*
X00219Y01104*
X00222Y01103*
X00224Y01104*
X00227Y01105*
X00229Y01106*
X00231Y01108*
X00233Y0111*
X00235Y01112*
X00235Y01115*
X00236Y01118*
X00235Y0112*
X00235Y01123*
X00233Y01125*
X00231Y01127*
X00229Y01129*
X00227Y01131*
X00224Y01131*
X00222Y01132*
G37*
G36*
X00065Y01265D02*
X0006Y01265D01*
X00055Y01264*
X00051Y01262*
X00047Y0126*
X00043Y01258*
X00039Y01255*
X00036Y01251*
X00034Y01247*
X00032Y01243*
X0003Y01239*
X00029Y01234*
X00029Y0123*
X00029Y01225*
X0003Y0122*
X00032Y01216*
X00034Y01212*
X00036Y01208*
X00039Y01204*
X00043Y01201*
X00047Y01199*
X00051Y01197*
X00055Y01195*
X0006Y01194*
X00065Y01194*
X00069Y01194*
X00074Y01195*
X00078Y01197*
X00082Y01199*
X00086Y01201*
X0009Y01204*
X00093Y01208*
X00095Y01212*
X00097Y01216*
X00099Y0122*
X001Y01225*
X001Y0123*
X001Y01234*
X00099Y01239*
X00097Y01243*
X00095Y01247*
X00093Y01251*
X0009Y01255*
X00086Y01258*
X00082Y0126*
X00078Y01262*
X00074Y01264*
X00069Y01265*
X00065Y01265*
G37*
G36*
Y01365D02*
X0006Y01365D01*
X00055Y01364*
X00051Y01362*
X00047Y0136*
X00043Y01358*
X00039Y01355*
X00036Y01351*
X00034Y01347*
X00032Y01343*
X0003Y01339*
X00029Y01334*
X00029Y0133*
X00029Y01325*
X0003Y0132*
X00032Y01316*
X00034Y01312*
X00036Y01308*
X00039Y01304*
X00043Y01301*
X00047Y01299*
X00051Y01297*
X00055Y01295*
X0006Y01294*
X00065Y01294*
X00069Y01294*
X00074Y01295*
X00078Y01297*
X00082Y01299*
X00086Y01301*
X0009Y01304*
X00093Y01308*
X00095Y01312*
X00097Y01316*
X00099Y0132*
X001Y01325*
X001Y0133*
X001Y01334*
X00099Y01339*
X00097Y01343*
X00095Y01347*
X00093Y01351*
X0009Y01355*
X00086Y01358*
X00082Y0136*
X00078Y01362*
X00074Y01364*
X00069Y01365*
X00065Y01365*
G37*
G36*
X00136Y01257D02*
X00133Y01256D01*
X0013Y01256*
X00128Y01254*
X00126Y01252*
X00124Y0125*
X00123Y01248*
X00122Y01245*
X00121Y01243*
X00122Y0124*
X00123Y01237*
X00124Y01235*
X00126Y01233*
X00128Y01231*
X0013Y0123*
X00133Y01229*
X00136Y01228*
X00138Y01229*
X00141Y0123*
X00143Y01231*
X00145Y01233*
X00147Y01235*
X00149Y01237*
X00149Y0124*
X0015Y01243*
X00149Y01245*
X00149Y01248*
X00147Y0125*
X00145Y01252*
X00143Y01254*
X00141Y01256*
X00138Y01256*
X00136Y01257*
G37*
G36*
X00253Y01263D02*
X0025Y01262D01*
X00247Y01262*
X00245Y0126*
X00243Y01258*
X00241Y01256*
X0024Y01254*
X00239Y01251*
X00238Y01249*
X00239Y01246*
X0024Y01243*
X00241Y01241*
X00243Y01239*
X00245Y01237*
X00247Y01236*
X00247*
Y01235*
X00247*
X00245Y01233*
X00243Y01231*
X00241Y01229*
X0024Y01227*
X00239Y01224*
X00238Y01222*
X00239Y01219*
X0024Y01216*
X00241Y01214*
X00243Y01212*
X00245Y0121*
X00247Y01209*
X0025Y01208*
X00253Y01207*
X00255Y01208*
X00258Y01209*
X0026Y0121*
X00262Y01212*
X00264Y01214*
X00266Y01216*
X00266Y01219*
X00267Y01222*
X00266Y01224*
X00266Y01227*
X00264Y01229*
X00262Y01231*
X0026Y01233*
X00258Y01235*
X00258*
Y01236*
X00258*
X0026Y01237*
X00262Y01239*
X00264Y01241*
X00266Y01243*
X00266Y01246*
X00267Y01249*
X00266Y01251*
X00266Y01254*
X00264Y01256*
X00262Y01258*
X0026Y0126*
X00258Y01262*
X00255Y01262*
X00253Y01263*
G37*
G36*
X00257Y01131D02*
X00254Y0113D01*
X00251Y0113*
X00249Y01128*
X00247Y01126*
X00245Y01124*
X00244Y01122*
X00243Y01119*
X00242Y01117*
X00243Y01114*
X00244Y01111*
X00245Y01109*
X00247Y01107*
X00249Y01105*
X00251Y01104*
X00254Y01103*
X00257Y01102*
X00259Y01103*
X00262Y01104*
X00264Y01105*
X00266Y01107*
X00268Y01109*
X0027Y01111*
X0027Y01114*
X00271Y01117*
X0027Y01119*
X0027Y01122*
X00268Y01124*
X00266Y01126*
X00264Y01128*
X00262Y0113*
X00259Y0113*
X00257Y01131*
G37*
G36*
X00303Y00996D02*
X003Y00995D01*
X00297Y00995*
X00295Y00993*
X00293Y00991*
X00291Y00989*
X0029Y00987*
X00289Y00984*
X00288Y00982*
X00289Y00979*
X00288Y00978*
X00286Y00979*
X00283Y00978*
X0028Y00978*
X00278Y00976*
X00276Y00974*
X00274Y00972*
X00273Y0097*
X00272Y00967*
X00271Y00965*
X00272Y00962*
X00273Y00959*
X00274Y00957*
X00276Y00955*
X00278Y00953*
X0028Y00952*
X00283Y00951*
X00286Y0095*
X00288Y00951*
X00291Y00952*
X00293Y00953*
X00295Y00955*
X00297Y00957*
X00299Y00959*
X00299Y00962*
X003Y00965*
X00299Y00967*
X003Y00968*
X00303Y00967*
X00303Y00967*
X00304Y00967*
X00303Y00965*
X00304Y00962*
X00305Y00959*
X00306Y00957*
X00308Y00955*
X0031Y00953*
X00312Y00952*
X00315Y00951*
X00318Y0095*
X0032Y00951*
X00323Y00952*
X00325Y00953*
X00327Y00955*
X00329Y00957*
X00331Y00959*
X00331Y00962*
X00332Y00965*
X00331Y00967*
X00331Y0097*
X00329Y00972*
X00327Y00974*
X00325Y00976*
X00323Y00978*
X0032Y00978*
X00318Y00979*
X00317Y00979*
X00316Y00979*
X00317Y00982*
X00316Y00984*
X00316Y00987*
X00314Y00989*
X00312Y00991*
X0031Y00993*
X00308Y00995*
X00305Y00995*
X00303Y00996*
G37*
G36*
X00351D02*
X00348Y00995D01*
X00345Y00995*
X00343Y00993*
X00341Y00991*
X00339Y00989*
X00338Y00987*
X00337Y00984*
X00336Y00982*
X00337Y00979*
X00338Y00976*
X00339Y00974*
X00341Y00972*
X00343Y0097*
X00345Y00969*
X00348Y00968*
X00351Y00967*
X00353Y00968*
X00356Y00969*
X00358Y0097*
X0036Y00972*
X00362Y00974*
X00364Y00976*
X00364Y00979*
X00365Y00982*
X00364Y00984*
X00364Y00987*
X00362Y00989*
X0036Y00991*
X00358Y00993*
X00356Y00995*
X00353Y00995*
X00351Y00996*
G37*
G36*
X00492Y00994D02*
X00489Y00993D01*
X00486Y00993*
X00484Y00991*
X00482Y00989*
X0048Y00987*
X00479Y00985*
X00478Y00982*
X00477Y0098*
X00478Y00977*
X00479Y00974*
X0048Y00972*
X00482Y0097*
X00484Y00968*
X00486Y00967*
X00489Y00966*
X00492Y00965*
X00494Y00966*
X00497Y00967*
X00499Y00968*
X00501Y0097*
X00503Y00972*
X00505Y00974*
X00505Y00977*
X00506Y0098*
X00505Y00982*
X00505Y00985*
X00503Y00987*
X00501Y00989*
X00499Y00991*
X00497Y00993*
X00494Y00993*
X00492Y00994*
G37*
G36*
X00665Y01065D02*
X0066Y01065D01*
X00655Y01064*
X00651Y01062*
X00647Y0106*
X00643Y01058*
X00639Y01055*
X00636Y01051*
X00634Y01047*
X00632Y01043*
X0063Y01039*
X00629Y01034*
X00629Y0103*
X00629Y01025*
X0063Y0102*
X00632Y01016*
X00634Y01012*
X00636Y01008*
X00639Y01004*
X00643Y01001*
X00647Y00999*
X00651Y00997*
X00655Y00995*
X0066Y00994*
X00665Y00994*
X00669Y00994*
X00674Y00995*
X00678Y00997*
X00682Y00999*
X00686Y01001*
X0069Y01004*
X00693Y01008*
X00695Y01012*
X00697Y01016*
X00699Y0102*
X007Y01025*
X007Y0103*
X007Y01034*
X00699Y01039*
X00697Y01043*
X00695Y01047*
X00693Y01051*
X0069Y01055*
X00686Y01058*
X00682Y0106*
X00678Y01062*
X00674Y01064*
X00669Y01065*
X00665Y01065*
G37*
G36*
Y01165D02*
X0066Y01165D01*
X00655Y01164*
X00651Y01162*
X00647Y0116*
X00643Y01158*
X00639Y01155*
X00636Y01151*
X00634Y01147*
X00632Y01143*
X0063Y01139*
X00629Y01134*
X00629Y0113*
X00629Y01125*
X0063Y0112*
X00632Y01116*
X00634Y01112*
X00636Y01108*
X00639Y01104*
X00643Y01101*
X00647Y01099*
X00651Y01097*
X00655Y01095*
X0066Y01094*
X00665Y01094*
X00669Y01094*
X00674Y01095*
X00678Y01097*
X00682Y01099*
X00686Y01101*
X0069Y01104*
X00693Y01108*
X00695Y01112*
X00697Y01116*
X00699Y0112*
X007Y01125*
X007Y0113*
X007Y01134*
X00699Y01139*
X00697Y01143*
X00695Y01147*
X00693Y01151*
X0069Y01155*
X00686Y01158*
X00682Y0116*
X00678Y01162*
X00674Y01164*
X00669Y01165*
X00665Y01165*
G37*
G36*
X00084Y0109D02*
X00081Y01089D01*
X00078Y01089*
X00076Y01087*
X00074Y01085*
X00072Y01083*
X00071Y01081*
X0007Y01078*
X00069Y01076*
X0007Y01073*
X00071Y0107*
X00072Y01068*
X00074Y01066*
X00075Y01065*
X00074Y01064*
X00074Y01064*
X00069Y01065*
X00065Y01065*
X0006Y01065*
X00055Y01064*
X00051Y01062*
X00047Y0106*
X00043Y01058*
X00039Y01055*
X00036Y01051*
X00034Y01047*
X00032Y01043*
X0003Y01039*
X00029Y01034*
X00029Y0103*
X00029Y01025*
X0003Y0102*
X00032Y01016*
X00034Y01012*
X00036Y01008*
X00039Y01004*
X00043Y01001*
X00047Y00999*
X00051Y00997*
X00055Y00995*
X0006Y00994*
X00065Y00994*
X00069Y00994*
X00074Y00995*
X00078Y00997*
X00082Y00999*
X00086Y01001*
X0009Y01004*
X00093Y01008*
X00095Y01012*
X00097Y01016*
X00099Y0102*
X001Y01025*
X001Y0103*
X001Y01034*
X00099Y01039*
X00097Y01043*
X00095Y01047*
X00093Y01051*
X0009Y01055*
X00086Y01058*
X00082Y0106*
X00082Y01061*
X00082Y01062*
X00084Y01061*
X00086Y01062*
X00089Y01063*
X00091Y01064*
X00093Y01066*
X00095Y01068*
X00097Y0107*
X00097Y01073*
X00098Y01076*
X00097Y01078*
X00097Y01081*
X00095Y01083*
X00093Y01085*
X00091Y01087*
X00089Y01089*
X00086Y01089*
X00084Y0109*
G37*
G36*
X00033Y01091D02*
X0003Y0109D01*
X00027Y0109*
X00025Y01088*
X00023Y01086*
X00021Y01084*
X0002Y01082*
X00019Y01079*
X00018Y01077*
X00019Y01074*
X0002Y01071*
X00021Y01069*
X00023Y01067*
X00025Y01065*
X00027Y01064*
X0003Y01063*
X00033Y01062*
X00035Y01063*
X00038Y01064*
X0004Y01065*
X00042Y01067*
X00044Y01069*
X00046Y01071*
X00046Y01074*
X00047Y01077*
X00046Y01079*
X00046Y01082*
X00044Y01084*
X00042Y01086*
X0004Y01088*
X00038Y0109*
X00035Y0109*
X00033Y01091*
G37*
G36*
X0066Y01325D02*
X00629D01*
X0063Y0132*
X00632Y01316*
X00634Y01312*
X00636Y01308*
X00639Y01304*
X00643Y01301*
X00647Y01299*
X00651Y01297*
X00655Y01295*
X0066Y01294*
Y01325*
G37*
G36*
X0069Y01493D02*
X00687Y01492D01*
X00684Y01492*
X00682Y0149*
X0068Y01488*
X00678Y01486*
X00677Y01484*
X00676Y01481*
X00675Y01479*
X00676Y01476*
X00677Y01473*
X00678Y01471*
X0068Y01469*
X00682Y01467*
X00684Y01466*
X00687Y01465*
X0069Y01464*
X00692Y01465*
X00695Y01466*
X00697Y01467*
X00699Y01469*
X00701Y01471*
X00703Y01473*
X00703Y01476*
X00704Y01479*
X00703Y01481*
X00703Y01484*
X00701Y01486*
X00699Y01488*
X00697Y0149*
X00695Y01492*
X00692Y01492*
X0069Y01493*
G37*
G36*
X0012Y01476D02*
X00117Y01475D01*
X00114Y01475*
X00112Y01473*
X0011Y01471*
X00108Y01469*
X00107Y01467*
X00106Y01464*
X00105Y01462*
X00106Y01459*
X00107Y01456*
X00108Y01454*
X0011Y01452*
X00112Y0145*
X00114Y01449*
X00117Y01448*
X0012Y01447*
X00122Y01448*
X00125Y01449*
X00127Y0145*
X00129Y01452*
X00131Y01454*
X00133Y01456*
X00133Y01459*
X00134Y01462*
X00133Y01464*
X00133Y01467*
X00131Y01469*
X00129Y01471*
X00127Y01473*
X00125Y01475*
X00122Y01475*
X0012Y01476*
G37*
G36*
X00184Y01471D02*
X00181Y0147D01*
X00178Y0147*
X00176Y01468*
X00174Y01466*
X00172Y01464*
X00171Y01462*
X0017Y01459*
X00169Y01457*
X0017Y01454*
X00171Y01451*
X00172Y01449*
X00174Y01447*
X00176Y01445*
X00178Y01444*
X00181Y01443*
X00184Y01442*
X00186Y01443*
X00189Y01444*
X00191Y01445*
X00193Y01447*
X00195Y01449*
X00197Y01451*
X00197Y01454*
X00198Y01457*
X00197Y01459*
X00197Y01462*
X00195Y01464*
X00193Y01466*
X00191Y01468*
X00189Y0147*
X00186Y0147*
X00184Y01471*
G37*
G36*
X00065Y01565D02*
X0006Y01565D01*
X00055Y01564*
X00051Y01562*
X00047Y0156*
X00043Y01558*
X00039Y01555*
X00036Y01551*
X00034Y01547*
X00032Y01543*
X0003Y01539*
X00029Y01534*
X00029Y0153*
X00029Y01525*
X0003Y0152*
X00032Y01516*
X00034Y01512*
X00036Y01508*
X00039Y01504*
X00043Y01501*
X00047Y01499*
X00051Y01497*
X00055Y01495*
X0006Y01494*
X00065Y01494*
X00069Y01494*
X00074Y01495*
X00078Y01497*
X00082Y01499*
X00086Y01501*
X0009Y01504*
X00093Y01508*
X00095Y01512*
X00097Y01516*
X00099Y0152*
X001Y01525*
X001Y0153*
X001Y01534*
X00099Y01539*
X00097Y01543*
X00095Y01547*
X00093Y01551*
X0009Y01555*
X00086Y01558*
X00082Y0156*
X00078Y01562*
X00074Y01564*
X00069Y01565*
X00065Y01565*
G37*
G36*
X0012Y01546D02*
X00117Y01545D01*
X00114Y01545*
X00112Y01543*
X0011Y01541*
X00108Y01539*
X00107Y01537*
X00106Y01534*
X00105Y01532*
X00106Y01529*
X00107Y01526*
X00108Y01524*
X0011Y01522*
X00112Y0152*
X00114Y01519*
X00117Y01518*
X0012Y01517*
X00122Y01518*
X00125Y01519*
X00127Y0152*
X00129Y01522*
X00131Y01524*
X00133Y01526*
X00133Y01529*
X00134Y01532*
X00133Y01534*
X00133Y01537*
X00131Y01539*
X00129Y01541*
X00127Y01543*
X00125Y01545*
X00122Y01545*
X0012Y01546*
G37*
G36*
X00547Y01541D02*
X00544Y0154D01*
X00541Y0154*
X00539Y01538*
X00537Y01536*
X00535Y01534*
X00534Y01532*
X00533Y01529*
X00532Y01527*
X00533Y01524*
X00534Y01521*
X00535Y01519*
X00537Y01517*
X00539Y01515*
X00541Y01514*
X00544Y01513*
X00547Y01512*
X00549Y01513*
X00552Y01514*
X00554Y01515*
X00556Y01517*
X00558Y01519*
X0056Y01521*
X0056Y01524*
X00561Y01527*
X0056Y01529*
X0056Y01532*
X00558Y01534*
X00556Y01536*
X00554Y01538*
X00552Y0154*
X00549Y0154*
X00547Y01541*
G37*
G36*
X00481D02*
X00478Y0154D01*
X00475Y0154*
X00473Y01538*
X00471Y01536*
X00469Y01534*
X00468Y01532*
X00467Y01529*
X00466Y01527*
X00467Y01524*
X00468Y01521*
X00469Y01519*
X00471Y01517*
X00473Y01515*
X00475Y01514*
X00478Y01513*
X00481Y01512*
X00483Y01513*
X00486Y01514*
X00488Y01515*
X0049Y01517*
X00492Y01519*
X00494Y01521*
X00494Y01524*
X00495Y01527*
X00494Y01529*
X00494Y01532*
X00492Y01534*
X0049Y01536*
X00488Y01538*
X00486Y0154*
X00483Y0154*
X00481Y01541*
G37*
G36*
X00065Y01465D02*
X0006Y01465D01*
X00055Y01464*
X00051Y01462*
X00047Y0146*
X00043Y01458*
X00039Y01455*
X00036Y01451*
X00034Y01447*
X00032Y01443*
X0003Y01439*
X00029Y01434*
X00029Y0143*
X00029Y01425*
X0003Y0142*
X00032Y01416*
X00034Y01412*
X00036Y01408*
X00039Y01404*
X00043Y01401*
X00047Y01399*
X00051Y01397*
X00055Y01395*
X0006Y01394*
X00065Y01394*
X00069Y01394*
X00074Y01395*
X00078Y01397*
X00082Y01399*
X00086Y01401*
X0009Y01404*
X00093Y01408*
X00095Y01412*
X00097Y01416*
X00099Y0142*
X001Y01425*
X001Y0143*
X001Y01434*
X00099Y01439*
X00097Y01443*
X00095Y01447*
X00093Y01451*
X0009Y01455*
X00086Y01458*
X00082Y0146*
X00078Y01462*
X00074Y01464*
X00069Y01465*
X00065Y01465*
G37*
G36*
X0066Y01365D02*
X00655Y01364D01*
X00651Y01362*
X00647Y0136*
X00643Y01358*
X00639Y01355*
X00636Y01351*
X00634Y01347*
X00632Y01343*
X0063Y01339*
X00629Y01335*
X0066*
Y01365*
G37*
G36*
X00576Y01324D02*
X00573Y01323D01*
X0057Y01323*
X00568Y01321*
X00566Y01319*
X00564Y01317*
X00563Y01315*
X00562Y01312*
X00561Y0131*
X00562Y01307*
X00563Y01304*
X00564Y01302*
X00566Y013*
X00568Y01298*
X0057Y01297*
X00573Y01296*
X00576Y01295*
X00578Y01296*
X00581Y01297*
X00583Y01298*
X00585Y013*
X00587Y01302*
X00589Y01304*
X00589Y01307*
X0059Y0131*
X00589Y01312*
X00589Y01315*
X00587Y01317*
X00585Y01319*
X00583Y01321*
X00581Y01323*
X00578Y01323*
X00576Y01324*
G37*
G36*
X00253Y01323D02*
X0025Y01322D01*
X00247Y01322*
X00245Y0132*
X00243Y01318*
X00241Y01316*
X0024Y01314*
X00239Y01311*
X00238Y01309*
X00239Y01306*
X0024Y01303*
X00241Y01301*
X00243Y01299*
X00245Y01297*
X00247Y01296*
X0025Y01295*
X00253Y01294*
X00255Y01295*
X00258Y01296*
X0026Y01297*
X00262Y01299*
X00264Y01301*
X00266Y01303*
X00266Y01306*
X00267Y01309*
X00266Y01311*
X00266Y01314*
X00264Y01316*
X00262Y01318*
X0026Y0132*
X00258Y01322*
X00255Y01322*
X00253Y01323*
G37*
G36*
X00478Y01377D02*
X00475Y01376D01*
X00472Y01376*
X0047Y01374*
X00468Y01372*
X00466Y0137*
X00465Y01368*
X00464Y01365*
X00463Y01363*
X00464Y0136*
X00465Y01357*
X00466Y01355*
X00468Y01353*
X0047Y01351*
X00472Y0135*
X00475Y01349*
X00478Y01348*
X0048Y01349*
X00483Y0135*
X00485Y01351*
X00487Y01353*
X00489Y01355*
X00491Y01357*
X00491Y0136*
X00492Y01363*
X00491Y01365*
X00491Y01368*
X00489Y0137*
X00487Y01372*
X00485Y01374*
X00483Y01376*
X0048Y01376*
X00478Y01377*
G37*
G36*
X00491Y01407D02*
X00488Y01406D01*
X00485Y01406*
X00483Y01404*
X00481Y01402*
X00479Y014*
X00478Y01398*
X00477Y01395*
X00476Y01393*
X00477Y0139*
X00478Y01387*
X00479Y01385*
X00481Y01383*
X00483Y01381*
X00485Y0138*
X00488Y01379*
X00491Y01378*
X00493Y01379*
X00496Y0138*
X00498Y01381*
X005Y01383*
X00502Y01385*
X00504Y01387*
X00504Y0139*
X00505Y01393*
X00504Y01395*
X00504Y01398*
X00502Y014*
X005Y01402*
X00498Y01404*
X00496Y01406*
X00493Y01406*
X00491Y01407*
G37*
G36*
X001Y01406D02*
X00097Y01405D01*
X00094Y01405*
X00092Y01403*
X0009Y01401*
X00088Y01399*
X00087Y01397*
X00086Y01394*
X00085Y01392*
X00086Y01389*
X00087Y01386*
X00088Y01384*
X0009Y01382*
X00092Y0138*
X00094Y01379*
X00097Y01378*
X001Y01377*
X00102Y01378*
X00105Y01379*
X00107Y0138*
X00109Y01382*
X00111Y01384*
X00113Y01386*
X00113Y01389*
X00114Y01392*
X00113Y01394*
X00113Y01397*
X00111Y01399*
X00109Y01401*
X00107Y01403*
X00105Y01405*
X00102Y01405*
X001Y01406*
G37*
G36*
X00154Y01394D02*
X00151Y01393D01*
X00148Y01393*
X00146Y01391*
X00144Y01389*
X00142Y01387*
X00141Y01385*
X0014Y01382*
X00139Y0138*
X0014Y01377*
X00141Y01374*
X00142Y01372*
X00144Y0137*
X00146Y01368*
X00148Y01367*
X00151Y01366*
X00154Y01365*
X00156Y01366*
X00159Y01367*
X00161Y01368*
X00163Y0137*
X00165Y01372*
X00167Y01374*
X00167Y01377*
X00168Y0138*
X00167Y01382*
X00167Y01385*
X00165Y01387*
X00163Y01389*
X00161Y01391*
X00159Y01393*
X00156Y01393*
X00154Y01394*
G37*
%LNmb1180-3*%
%LPD*%
G54D31*
X00608Y0133D02*
X00665D01*
G54D37*
X00584Y01836D03*
X00665Y0043D03*
Y0133D03*
G54D39*
X00665Y0163D03*
G54D40*
X0045Y00858D03*
X00616Y01495D03*
X0012Y0143D03*
X00478Y01275D03*
X00142Y01908D03*
X00517Y01527D03*
X00477Y01596D03*
X00345D03*
X00377Y00529D03*
X00251Y01342D03*
X00269Y00642D03*
X00154Y00979D03*
X00296Y01225D03*
G54D41*
X00463Y00643D03*
X0039Y01287D03*
X006Y00607D03*
X00281Y01709D03*
X00313Y01663D03*
X00416Y01762D03*
X00086Y00124D03*
X00605Y00373D03*
X00418Y00199D03*
X0034Y01223D03*
G54D42*
X00419Y00238D03*
M02*