%FSTAX23Y23*%
%MOIN*%
%SFA1B1*%

%IPPOS*%
%ADD10R,0.040000X0.032000*%
%ADD11R,0.039370X0.035430*%
%ADD12R,0.035430X0.039370*%
%ADD13R,0.053150X0.015750*%
%ADD14R,0.015750X0.053150*%
%ADD15R,0.059060X0.074800*%
%ADD16R,0.035430X0.031500*%
%ADD17R,0.039370X0.070870*%
%ADD18R,0.023620X0.086610*%
%ADD19R,0.043310X0.059060*%
%ADD20R,0.011810X0.023620*%
%ADD21R,0.023620X0.011810*%
%ADD22R,0.135830X0.135830*%
%ADD23R,0.017720X0.019690*%
%ADD24R,0.078740X0.047240*%
%ADD25R,0.039370X0.039370*%
%ADD26R,0.078740X0.145670*%
%ADD27R,0.019690X0.047240*%
%ADD28R,0.047240X0.019690*%
%ADD29C,0.010000*%
%ADD30C,0.005000*%
%ADD31C,0.020000*%
%ADD32C,0.018000*%
%ADD33C,0.016000*%
%ADD34C,0.006000*%
%ADD35C,0.057090*%
%ADD36R,0.070870X0.074800*%
%ADD37C,0.059060*%
%ADD38R,0.059060X0.059060*%
%ADD39R,0.059060X0.059060*%
%ADD40C,0.016000*%
%ADD41C,0.020000*%
%ADD42C,0.025000*%
%LNmb1180-1*%
%LPD*%
G36*
X00537Y01469D02*
X00517Y01449D01*
X00497Y01469*
Y01479*
X00537*
Y01469*
G37*
G36*
X00631Y00481D02*
X00631Y0048D01*
X00632Y00474*
X00635Y00469*
X0064Y00466*
X00642Y00466*
X00643Y00458*
X00639Y00455*
X00631Y00443*
X00628Y0043*
X00631Y00416*
X00639Y00404*
X00651Y00396*
X00665Y00393*
X00678Y00396*
X00687Y00402*
X00694Y00398*
Y00361*
X00687Y00357*
X00678Y00363*
X00665Y00366*
X00651Y00363*
X00639Y00355*
X00631Y00343*
X00628Y0033*
X00631Y00316*
X00639Y00304*
X00651Y00296*
X00665Y00293*
X00678Y00296*
X00687Y00302*
X00694Y00298*
Y00261*
X00687Y00257*
X00678Y00263*
X00665Y00266*
X00651Y00263*
X00639Y00255*
X00631Y00243*
X00628Y0023*
X00631Y00216*
X00639Y00204*
X00651Y00196*
X00665Y00193*
X00678Y00196*
X00687Y00202*
X00694Y00198*
Y00079*
X00664Y00049*
X00632*
X00632Y0005*
X00627Y00053*
X00622Y00054*
X00616Y00053*
X00611Y0005*
X00608Y00045*
X00607Y0004*
X00608Y00034*
X00611Y00029*
X00616Y00026*
X00622Y00025*
X00627Y00026*
X00632Y00029*
X00632Y0003*
X00668*
X00674Y00033*
X00674*
X0071Y00069*
X00712Y00075*
X0072Y00073*
Y00009*
X00523*
Y00075*
X00432*
Y00009*
X00303*
Y00027*
X00327*
X00327Y00026*
X00332Y00023*
X00338Y00022*
X00343Y00023*
X00348Y00026*
X00351Y00031*
X00352Y00037*
X00351Y00042*
X00348Y00047*
X00343Y0005*
X00338Y00051*
X00332Y0005*
X00327Y00047*
X00327Y00046*
X00303*
Y00158*
X00266*
Y00187*
X00264Y00193*
X00244Y00213*
X00238Y00216*
X00191*
X00162Y00245*
Y0026*
X00178*
Y00308*
X00127*
Y00297*
X00092*
X0009Y00304*
X00098Y00316*
X00101Y0033*
X00098Y00343*
X0009Y00355*
X00078Y00363*
X00078Y00364*
X00121Y00366*
X00127Y00361*
Y00352*
X00178*
Y00366*
X002*
X002Y00365*
X00205Y00362*
X00211Y00361*
X00216Y00362*
X0022Y00365*
X00227Y00361*
Y00313*
Y00312*
X00222Y00307*
X00215*
Y00287*
X00234*
Y00306*
Y00307*
X00238Y00312*
X00243Y00307*
Y00302*
X00246Y00296*
X00249Y00292*
Y00256*
X00297*
X00304*
X00352*
Y00292*
X00357Y00298*
X00359Y00303*
X00367Y00301*
Y00287*
X00386*
Y00307*
X00381*
X00376Y00312*
Y00313*
Y00367*
X00383Y00371*
X00384Y0037*
X0039Y00369*
X00395Y0037*
X004Y00373*
X00403Y00378*
X00404Y00384*
X00403Y00389*
X004Y00394*
X00399Y00394*
Y00398*
X00416*
Y00398*
X00423*
X00432*
Y00371*
X00423*
Y00323*
X00469*
Y00308*
X00454*
Y00284*
X00449*
Y00279*
X00423*
Y00282*
X00417Y00277*
X00415*
X00396*
Y00256*
X004*
X00404Y00249*
X00401Y00245*
X004Y00238*
X00401Y0023*
X00405Y00224*
X0041Y00221*
Y00213*
X00406Y0021*
X00402Y00205*
X00401Y00199*
X00402Y00192*
X00406Y00187*
X00411Y00183*
X00418Y00182*
X00424Y00183*
X00429Y00187*
X00433Y00192*
X00434Y00199*
X00433Y00205*
X00429Y0021*
X00428Y00211*
X00426Y00219*
Y0022*
X0043Y00223*
X00476*
X00481Y00224*
X00486Y00227*
X00494Y00235*
X00495Y00238*
X00497Y0024*
X00498Y00245*
Y00254*
X00516*
Y00254*
X00524*
Y00254*
X00534*
Y0027*
X00544*
Y00254*
X00553*
Y00254*
X00561*
Y00254*
X00591*
Y00286*
X00584*
Y00292*
Y00317*
X00538*
Y00327*
X00584*
Y00351*
Y00351*
X00589Y00356*
X00605*
X00611Y00358*
X00616Y00361*
X0062Y00366*
X00621Y00373*
X0062Y00379*
X00616Y00384*
X00611Y00388*
X00605Y00389*
X00592*
Y00398*
X00593*
Y00445*
X00542*
X00534*
X00483*
Y00398*
X00534*
X00542*
X0056*
Y00389*
X00553*
Y00389*
X00524*
Y00389*
X00516*
Y00389*
X00503*
X00501Y00389*
X00465*
Y00398*
X00474*
Y00445*
X00423*
X00417Y00448*
X00416Y0045*
Y00461*
X00423*
X00444*
Y00485*
X00448*
Y0049*
X00474*
Y00502*
X00483*
Y0049*
X00509*
Y00485*
X00514*
Y00461*
X00534*
X00542*
X00563*
Y00485*
X00567*
Y0049*
X00593*
Y00502*
X0061*
X00631Y00481*
G37*
G36*
X00175Y00453D02*
X00155Y00473D01*
X00135Y00453*
Y00483*
X00175*
Y00453*
G37*
G36*
X00109Y01419D02*
X00114Y01416D01*
X0012Y01415*
X00122Y01416*
X00128Y01411*
Y014*
X00128Y01399*
X00111Y01382*
X00108Y01376*
Y01332*
X001Y01331*
X00101Y0133*
X001Y01328*
X00108Y01327*
Y01232*
X001Y01231*
X00098Y01243*
X0009Y01255*
X00078Y01263*
X00065Y01266*
X00051Y01263*
X00039Y01255*
X00031Y01244*
X00024Y01246*
Y01313*
X00031Y01315*
X00039Y01304*
X00051Y01296*
X0006Y01294*
Y01329*
Y01365*
X00051Y01363*
X00039Y01355*
X00031Y01344*
X00024Y01346*
Y01376*
X00047Y01399*
X00051Y01396*
X00065Y01393*
X00078Y01396*
X0009Y01404*
X00098Y01416*
X00099Y01421*
X00107Y01423*
X00109Y01419*
G37*
G36*
X00272Y01396D02*
D01*
Y01348*
X00264Y01347*
X00264Y01347*
X00261Y01352*
X00256Y01355*
X00251Y01356*
X00245Y01355*
X00238Y01365*
Y01366*
X00187*
X00179*
X00159*
Y01342*
Y01318*
X00179*
X00187*
X00238*
Y01324*
X00245Y01328*
X00245Y01328*
X00251Y01327*
X00256Y01328*
X00261Y01331*
X00264Y01336*
X00264Y01336*
X00272Y01335*
Y01298*
X00306*
X00306Y01297*
X00312Y01291*
X0031Y01283*
X00309Y01283*
X00304Y0128*
X00304Y01279*
X00238*
Y01303*
X00187*
X00179*
X00128*
X00127Y01304*
Y01318*
X00128*
X00132*
X00149*
Y01342*
Y01366*
X00132*
X00131*
X00128Y01373*
X00142Y01387*
X00204*
X00211Y01389*
X00219Y01398*
X0022Y014*
X00238*
X00246*
X00272*
Y01396*
G37*
G36*
X00537Y01429D02*
X00497D01*
Y01459*
X00517Y01439*
X00537Y01459*
Y01429*
G37*
G36*
X00233Y0045D02*
X00213Y0047D01*
X00193Y0045*
Y0048*
X00233*
Y0045*
G37*
G36*
X00175Y00443D02*
Y00433D01*
X00135*
Y00443*
X00155Y00463*
X00175Y00443*
G37*
G36*
X0041Y0044D02*
Y0043D01*
X0037*
Y0044*
X0039Y0046*
X0041Y0044*
G37*
G36*
Y0045D02*
X0039Y0047D01*
X0037Y0045*
Y0048*
X0041*
Y0045*
G37*
G36*
X00351D02*
X00331Y0047D01*
X00311Y0045*
Y0048*
X00351*
Y0045*
G37*
G36*
X00292D02*
X00272Y0047D01*
X00252Y0045*
Y0048*
X00292*
Y0045*
G37*
G36*
X00653Y00663D02*
X00651Y00663D01*
X00639Y00655*
X00631Y00643*
X00628Y0063*
X00631Y00616*
X00637Y00607*
X00573Y00543*
X00491*
Y00558*
X00526*
X00532Y00561*
X00576Y00605*
X00584Y00602*
X00584Y006*
X00588Y00595*
X00593Y00591*
X006Y0059*
X00606Y00591*
X00611Y00595*
X00615Y006*
X00616Y00607*
X00615Y00613*
X00611Y00618*
X00606Y00622*
X006Y00623*
X00599Y00627*
X00643Y00671*
X00652*
X00653Y00663*
G37*
G36*
X00108Y01127D02*
Y01032D01*
X001Y01031*
X00098Y01043*
X0009Y01055*
X00078Y01063*
X00065Y01066*
X00051Y01063*
X00039Y01055*
X00031Y01044*
X00024Y01046*
Y01113*
X00031Y01115*
X00039Y01104*
X00051Y01096*
X00065Y01093*
X00078Y01096*
X0009Y01104*
X00098Y01116*
X001Y01128*
X00108Y01127*
G37*
G36*
X00301Y01034D02*
Y01024D01*
X00261*
Y01034*
X00281Y01054*
X00301Y01034*
G37*
G36*
X00108Y01027D02*
Y00932D01*
X001Y00931*
X00098Y00943*
X0009Y00955*
X00078Y00963*
X00065Y00966*
X00051Y00963*
X00039Y00955*
X00031Y00944*
X00024Y00946*
Y01013*
X00031Y01015*
X00039Y01004*
X00051Y00996*
X00065Y00993*
X00078Y00996*
X0009Y01004*
X00098Y01016*
X001Y01028*
X00108Y01027*
G37*
G36*
X00385Y01234D02*
X00384Y01234D01*
X00379Y01231*
X00376Y01226*
X00375Y01221*
X00376Y01215*
X00378Y01212*
X00374Y01205*
X00372*
Y01107*
X0038*
Y01093*
X00383Y01086*
X00397Y01072*
X00403Y0107*
X00432*
Y01055*
X00483*
X00491*
X00542*
X0055*
X00571*
Y01079*
X00581*
Y01055*
X006*
Y0104*
X0055*
X00542*
X00522*
Y01016*
Y00992*
X00542*
X0055*
X00564*
Y00973*
X00557Y00966*
X00489*
X0048Y00963*
X00466Y00949*
X00463Y00941*
Y00931*
X00421*
Y00954*
X00422Y00954*
X00425Y00959*
X00426Y00965*
X00425Y0097*
X00422Y00975*
X00417Y00978*
X00412Y00979*
X00406Y00978*
X00401Y00975*
X004Y00972*
X00392*
X00391Y00975*
X00386Y00978*
X00381Y00979*
X00375Y00978*
X0037Y00975*
X00367Y0097*
X00366Y00965*
X00367Y00959*
X0037Y00954*
X00371Y00954*
Y00931*
X00326*
Y00954*
X00328Y00954*
X00331Y00959*
X00332Y00965*
X00331Y0097*
X00328Y00975*
X00323Y00978*
X00318Y00979*
X00312Y00978*
X00307Y00975*
X00306Y00972*
X00298*
X00296Y00975*
X00291Y00978*
X00287Y00984*
X00287Y00986*
Y00986*
X00289Y00992*
X00307*
Y00992*
X00314*
X00335*
Y01016*
X00339*
Y01021*
X00365*
Y01026*
X00373Y01029*
X00394Y01008*
X00402Y01004*
X00432*
Y00992*
X00483*
X00491*
X00512*
Y01016*
Y0104*
X00491*
X00483*
X00432*
Y01028*
X00407*
X00365Y0107*
Y01103*
X00357*
Y01107*
Y01205*
X00355*
Y01217*
X00356Y01223*
X00355Y01229*
X00351Y01234*
X00346Y01238*
X0034Y01239*
X00342Y01242*
X00384*
X00385Y01234*
G37*
G36*
X00301Y01044D02*
X00281Y01064D01*
X00261Y01044*
Y01074*
X00301*
Y01044*
G37*
G36*
X00243Y01111D02*
X00246Y01106D01*
X00247Y01106*
Y01105*
X0025Y01099*
X00255Y01094*
Y01075*
X00254Y01074*
Y01044*
X00256Y01039*
X00256Y01038*
X00256Y01038*
X00255Y01036*
X00255*
Y01035*
X00254Y01034*
Y01024*
X00255Y01023*
Y00998*
X00251*
X00245Y00996*
X00242Y00998*
X00238Y01002*
Y01011*
X00218*
Y00992*
X00231*
X00234Y00985*
X00191Y00942*
X00188Y00935*
Y00861*
X00168*
Y00829*
Y00797*
Y00791*
X00166*
X0016Y00789*
X00159Y00789*
X00153Y00788*
X00148Y00785*
X00145Y0078*
X00144Y00775*
X00145Y00769*
X00148Y00764*
X00147Y0076*
X00144Y00755*
X00143Y0075*
X00144Y00744*
X00147Y00739*
X00152Y00736*
X00154Y00736*
X00153Y00728*
X00131*
X0013Y0073*
X00125Y00733*
X00124Y00736*
X00124Y00736*
X00127Y00743*
Y00992*
X00128*
X00132*
X00137*
X00141Y00985*
X0014Y00984*
X00139Y00979*
X0014Y00973*
X00143Y00968*
X00148Y00965*
X00154Y00964*
X00159Y00965*
X00164Y00968*
X00167Y00973*
X00168Y00979*
X00167Y00984*
X00165Y00986*
Y00992*
X00179*
X00187*
X00208*
Y01016*
Y0104*
X00187*
X00179*
X00132*
X00128*
X00127Y01041*
Y01055*
X00128*
X00179*
X00187*
X00238*
Y01103*
X00237*
X00233Y0111*
X00235Y01112*
X00235Y01113*
X00243*
X00243Y01111*
G37*
G36*
X00273Y01253D02*
X00262Y01243D01*
X0026Y01236*
Y01236*
X00258Y01235*
X00253Y01236*
X00247Y01235*
X00246Y01234*
X00239Y01237*
Y01243*
X00187*
Y01215*
X00186Y01214*
Y01184*
X00188Y01179*
X00188Y01178*
X00188Y01178*
X00187Y01176*
X00187*
Y01175*
X00186Y01174*
Y01164*
X00187Y01163*
Y01132*
X00206*
X00209Y01125*
X00208Y01123*
X00207Y01118*
X00207Y01116*
X00206Y01115*
X00203Y01109*
Y01103*
X00187*
X00179*
X00128*
X00127Y01104*
Y01255*
X00128*
X00179*
X00187*
X00238*
Y0126*
X0027*
X00273Y01253*
G37*
G36*
X00697Y009D02*
Y00859D01*
X0069Y00855*
X00678Y00863*
X00665Y00866*
X00651Y00863*
X00639Y00855*
X00631Y00843*
X0063Y00836*
X00622Y00837*
Y00874*
X00647Y00899*
X00651Y00896*
X00665Y00893*
X00678Y00896*
X0069Y00904*
X00697Y009*
G37*
G36*
X0072Y00685D02*
Y00451D01*
X00712Y00449*
X0071Y00455*
X00679Y00486*
X00673Y00489*
Y00495*
X00678Y00496*
X0069Y00504*
X00698Y00516*
X00701Y0053*
X00698Y00543*
X0069Y00555*
X00678Y00563*
X00665Y00566*
X00651Y00563*
X00639Y00555*
X00631Y00543*
X00629Y00532*
X00598*
X00595Y00539*
X00652Y00596*
X00665Y00593*
X00678Y00596*
X0069Y00604*
X00698Y00616*
X00701Y0063*
X00698Y00643*
X0069Y00655*
X00678Y00663*
X00665Y00666*
X0067Y00671*
X00692*
X00698Y00674*
X00698*
X00713Y00688*
X0072Y00685*
G37*
G36*
X00233Y01174D02*
Y01164D01*
X00193*
Y01174*
X00213Y01194*
X00233Y01174*
G37*
G36*
Y01184D02*
X00213Y01204D01*
X00193Y01184*
Y01214*
X00233*
Y01184*
G37*
G36*
X00629Y01236D02*
X00628Y0123D01*
X00631Y01216*
X00639Y01204*
X00651Y01196*
X00665Y01193*
X00678Y01196*
X00682Y01199*
X00697Y01184*
Y01159*
X0069Y01155*
X00678Y01163*
X00665Y01166*
X00651Y01163*
X00639Y01155*
X00631Y01143*
X00628Y0113*
X00631Y01116*
X00634Y01111*
X00609Y01086*
X00601Y01089*
Y01103*
X0059*
X00587Y0111*
X00589Y01113*
X0059Y01119*
X00589Y01124*
X00587Y01126*
Y01132*
X00601*
Y0118*
X0055*
X00542*
X00522*
Y01156*
X00517*
Y01151*
X00491*
Y01132*
X005*
X00504Y01125*
X00503Y01124*
X00502Y01119*
X00503Y01113*
X00506Y0111*
X00502Y01103*
X00491*
X00483*
X00461*
X00457Y01107*
Y01108*
Y01151*
X00422*
Y01107*
X00426*
X00432Y01101*
Y01088*
X00407*
X00399Y01096*
Y01107*
X00407*
Y01205*
X00405*
X00401Y01212*
X00403Y01215*
X00404Y01221*
X00403Y01226*
X004Y01231*
X00395Y01234*
X00394Y01234*
X00395Y01242*
X00487*
X00489Y01234*
X00484Y01231*
X00483Y01232*
X00478Y01233*
X00472Y01232*
X00467Y01229*
X00464Y01224*
X00463Y01219*
X00464Y01213*
X00467Y01208*
X00472Y01205*
X00478Y01204*
X00483Y01205*
X00484Y01206*
X00491Y01202*
Y01195*
X00542*
X0055*
X00571*
Y01219*
X00575*
Y01224*
X00601*
Y01242*
X00624*
X00629Y01236*
G37*
G36*
X00351Y0044D02*
Y0043D01*
X00311*
Y0044*
X00331Y0046*
X00351Y0044*
G37*
G36*
X00031Y00281D02*
X00038Y00278D01*
X00127*
Y0026*
X00143*
Y00241*
X00146Y00235*
X00181Y002*
X00187Y00197*
X00234*
X00248Y00183*
Y00158*
X00212*
Y00009*
X00009*
Y00293*
X00016Y00296*
X00031Y00281*
G37*
G36*
X0066Y01963D02*
X00658Y01961D01*
X0065Y01949*
X00647Y01936*
X0065Y01922*
X00658Y0191*
X0067Y01902*
X00684Y01899*
X00697Y01902*
X00709Y0191*
X00713Y01915*
X0072Y01913*
Y01858*
X00713Y01856*
X00709Y01861*
X00697Y01869*
X00684Y01872*
X0067Y01869*
X00658Y01861*
X0065Y01849*
X00647Y01836*
X0065Y01822*
X00658Y0181*
X0067Y01802*
X00684Y01799*
X00697Y01802*
X00709Y0181*
X00713Y01815*
X0072Y01813*
Y01771*
X00719*
X00715*
X00648*
Y01745*
X00646*
X00639Y01742*
X00626Y01729*
X00619Y01733*
X00619Y01731*
X00548*
X0055Y01722*
X00558Y0171*
X0057Y01702*
X0057Y01702*
X00582Y01694*
X00582Y01694*
X00581Y01689*
X00582Y01683*
X00585Y01678*
X0059Y01675*
X00596Y01674*
X00601Y01675*
X00606Y01678*
X00609Y01683*
X00609Y01686*
X00641Y01718*
X00648Y01715*
Y017*
X00715*
X0072Y01694*
Y01198*
X00713Y01195*
X00695Y01212*
X00698Y01216*
X00701Y0123*
X00698Y01243*
X0069Y01255*
X00678Y01263*
X00665Y01266*
X00651Y01263*
X00645Y01259*
X00643Y0126*
X00601*
Y01274*
X00575*
Y01279*
X00571*
Y01303*
X0055*
X00542*
X00491*
Y01291*
X00484Y01287*
X00483Y01288*
X00478Y01289*
X00472Y01288*
X00467Y01285*
X00464Y0128*
X00463Y01275*
X00464Y01269*
X00466Y01267*
X00462Y01261*
X00454*
X00451Y01267*
X00454Y01271*
X00455Y01277*
X00454Y01282*
X00451Y01287*
X00446Y0129*
X00441Y01291*
Y01292*
X00446Y01298*
X00457*
Y01396*
X00461Y014*
X00471*
X00473Y01399*
X00477Y01394*
X00476Y01393*
X00477Y01387*
X0048Y01382*
X00485Y01379*
X00491Y01378*
X00496Y01379*
X00498Y0138*
X00505Y01377*
Y01366*
X00491*
Y01318*
X00542*
X0055*
X00601*
Y01366*
X0055*
X00542*
X00528*
Y014*
X00543*
Y014*
X0055*
X00557*
X00562Y01394*
X00561Y01392*
X00562Y01386*
X00565Y01381*
X0057Y01378*
X00576Y01377*
X00581Y01378*
X00586Y01381*
X00589Y01386*
X0059Y01392*
X00589Y01397*
X0059Y014*
X00601*
Y01448*
X0055*
X00549*
X00543Y01453*
Y01459*
X00544Y01461*
X0055Y01463*
X00601*
Y01479*
X00608Y01483*
X0061Y01481*
X00616Y0148*
X00621Y01481*
X00626Y01484*
X00629Y01489*
X0063Y01495*
X00629Y015*
X00626Y01505*
X00621Y01508*
X00616Y01509*
X0061Y01508*
X00608Y01506*
X00602Y0151*
X00601Y01511*
X00601*
X00585*
Y01536*
X00601*
Y01584*
X0055*
X00542*
X00505*
X00501Y01591*
X0051Y01599*
X00542*
X0055*
X00571*
Y01623*
Y01647*
X0055*
X00542*
X00492*
X00491*
X00487Y01651*
Y01656*
X00492Y01661*
X00506*
Y01685*
Y01709*
X00434*
Y01661*
X00439*
Y01656*
Y01612*
X00461Y0161*
X00464Y01603*
X00463Y01601*
X00462Y01596*
X00463Y0159*
X00464Y01588*
X00461Y01581*
X00439Y01579*
Y01535*
X00487*
Y01536*
X00491*
X00498*
X00503Y0153*
X00502Y01527*
X00503Y01521*
X00505Y01519*
Y01511*
X00491*
Y0148*
X0049Y01479*
Y01469*
X00491Y01468*
Y01467*
X00491*
X00492Y01465*
X00492Y01465*
X00492Y01464*
X0049Y01459*
Y01429*
X00491Y01428*
Y01407*
X00485Y01406*
X00481Y01403*
X00478Y01405*
X00475Y01407*
X00474Y01407*
Y01448*
X00423*
X00415*
X00364*
X00356*
X00305*
X00297*
X00246*
X00238*
X00187*
X00179*
X00128*
X00125Y01443*
X0012Y01444*
X00114Y01443*
X00109Y0144*
X00107Y01436*
X00099Y01438*
X00098Y01443*
X0009Y01455*
X00078Y01463*
X00065Y01466*
X00051Y01463*
X00039Y01455*
X00031Y01443*
X00028Y0143*
X00031Y01416*
X00034Y01412*
X00016Y01394*
X00009Y01397*
Y0197*
X00035*
X00037Y01963*
X00035Y01962*
X00032Y01957*
X00031Y01952*
X00032Y01946*
X00022Y01939*
X00017*
Y01868*
X00073*
X00076*
X00078*
X00099*
Y01904*
Y01939*
X00078*
X00076*
X00075*
X00073*
X00071*
X00069*
X00059Y01946*
X0006Y01952*
X00059Y01957*
X00056Y01962*
X00054Y01963*
X00056Y0197*
X00191*
X00197Y01965*
Y01927*
X0028*
Y01964*
X00282Y01965*
X0029*
Y01927*
X00325*
Y01922*
X0033*
Y01878*
X0035*
X00353Y01871*
X00332Y0185*
X00331Y01848*
X00318*
Y01815*
Y01783*
X00356*
X00358Y01778*
X00361Y01776*
Y01734*
X00358Y01731*
X00346*
X00346Y01732*
X00343Y01737*
X00338Y0174*
X00333Y01741*
X00327Y0174*
X00322Y01737*
X00319Y01732*
X00318Y01727*
X00319Y01721*
X00322Y01716*
Y01713*
X00319Y01708*
X00318Y01703*
X00319Y01697*
X00322Y01692*
X00327Y01689*
X00333Y01688*
X00338Y01689*
X00343Y01692*
X00346Y01697*
X00346Y01698*
X00368*
X00375Y01701*
X00391Y01717*
X00394Y01724*
Y01752*
X00402Y01754*
X00404Y01751*
X00409Y01747*
X00416Y01746*
X00422Y01747*
X00427Y0175*
X00431Y01748*
X00434Y01746*
Y01724*
X00536*
Y01772*
X00528*
Y01838*
X00526Y01845*
X00492Y01878*
Y01878*
X00492Y01878*
X00497*
Y01922*
X00502*
Y01927*
X00532*
Y01965*
Y01965*
X00537Y0197*
X00658*
X0066Y01963*
G37*
G36*
X00321Y00392D02*
D01*
X00324Y00385*
X00325Y00384*
Y00312*
X0032Y00307*
X00304*
X00297*
X00278*
Y00312*
Y00382*
X00278Y00382*
X00281Y00389*
Y00398*
X00298*
X00305*
X00315*
X00321Y00392*
G37*
G36*
X00292Y0044D02*
Y0043D01*
X00252*
Y0044*
X00272Y0046*
X00292Y0044*
G37*
G36*
X00233D02*
Y0043D01*
X00193*
Y0044*
X00213Y0046*
X00233Y0044*
G37*
%LNmb1180-2*%
%LPC*%
G36*
X00365Y01011D02*
X00345D01*
Y00992*
X00365*
Y01011*
G37*
G36*
X00589Y00085D02*
X00569D01*
Y00064*
X00589*
Y00085*
G37*
G36*
X00473Y00158D02*
X00432D01*
Y00085*
X00473*
Y00158*
G37*
G36*
X00086Y0014D02*
X00079Y00139D01*
X00074Y00135*
X0007Y0013*
X00069Y00124*
X0007Y00118*
X00074Y00112*
X00079Y00109*
X00086Y00108*
X00092Y00109*
X00097Y00112*
X00101Y00118*
X00102Y00124*
X00101Y0013*
X00097Y00135*
X00092Y00139*
X00086Y0014*
G37*
G36*
X00523Y00158D02*
X00483D01*
Y00085*
X00523*
Y00158*
G37*
G36*
X00559Y00085D02*
X00538D01*
Y00064*
X00559*
Y00085*
G37*
G36*
Y00054D02*
X00538D01*
Y00033*
X00559*
Y00054*
G37*
G36*
X00197D02*
X00177D01*
Y00033*
X00197*
Y00054*
G37*
G36*
Y00152D02*
X00146D01*
Y00138*
X00138*
X0013Y00134*
X00118Y00123*
X00115Y00115*
Y00061*
X00113Y00059*
X00112Y00054*
X00113Y00048*
X00116Y00043*
X00121Y0004*
X00127Y00039*
X00132Y0004*
X00137Y00043*
X00138Y00046*
X00146Y00043*
Y00033*
X00167*
Y00059*
Y00085*
X00146*
X00144*
X00138Y0009*
Y001*
X00146*
X00197*
Y00152*
G37*
G36*
Y00085D02*
X00177D01*
Y00064*
X00197*
Y00085*
G37*
G36*
X00238Y0104D02*
X00218D01*
Y01021*
X00238*
Y0104*
G37*
G36*
X00589Y00054D02*
X00569D01*
Y00033*
X00589*
Y00054*
G37*
G36*
X00415Y00307D02*
X00396D01*
Y00287*
X00415*
Y00307*
G37*
G36*
X00205D02*
X00186D01*
Y00287*
X00205*
Y00307*
G37*
G36*
X00474Y0048D02*
X00454D01*
Y00461*
X00474*
Y0048*
G37*
G36*
X00178Y00342D02*
X00158D01*
Y00323*
X00178*
Y00342*
G37*
G36*
X00148D02*
X00127D01*
Y00323*
X00148*
Y00342*
G37*
G36*
X00444Y00308D02*
X00423D01*
Y00289*
X00444*
Y00308*
G37*
G36*
X00386Y00277D02*
X00367D01*
Y00256*
X00386*
Y00277*
G37*
G36*
X00065Y00266D02*
X00051Y00263D01*
X00039Y00255*
X00031Y00243*
X00028Y0023*
X00031Y00216*
X00039Y00204*
X00051Y00196*
X00065Y00193*
X00078Y00196*
X0009Y00204*
X00098Y00216*
X00101Y0023*
X00098Y00243*
X0009Y00255*
X00078Y00263*
X00065Y00266*
G37*
G36*
X00593Y0048D02*
X00573D01*
Y00461*
X00593*
Y0048*
G37*
G36*
X00589Y00152D02*
X00538D01*
Y001*
X00589*
Y0011*
X00596Y00114*
X00598Y00113*
X00603Y00112*
X00609Y00113*
X00613Y00116*
X00616Y00121*
X00617Y00126*
X00616Y00131*
X00613Y00136*
X00609Y00139*
X00603Y0014*
X00598Y00139*
X00596Y00138*
X00589Y00142*
Y00152*
G37*
G36*
X00234Y00277D02*
X00215D01*
Y00256*
X00234*
Y00277*
G37*
G36*
X00205D02*
X00186D01*
Y00256*
X00205*
Y00277*
G37*
G36*
X00504Y0048D02*
X00483D01*
Y00461*
X00504*
Y0048*
G37*
G36*
X00536Y0168D02*
X00516D01*
Y01661*
X00536*
Y0168*
G37*
G36*
X00297Y01681D02*
X00232D01*
Y01654*
X00251*
X00253Y01651*
X00259Y01647*
X00265Y01646*
X00313*
X00319Y01647*
X00324Y01651*
X00328Y01656*
X00329Y01663*
X00328Y01669*
X00324Y01674*
X00319Y01678*
X00313Y01679*
X00297*
Y01681*
G37*
G36*
X00536Y01709D02*
X00516D01*
Y0169*
X00536*
Y01709*
G37*
G36*
X00579Y01771D02*
X0057Y01769D01*
X00558Y01761*
X0055Y01749*
X00548Y01741*
X00579*
Y01771*
G37*
G36*
X00281Y01755D02*
X00265D01*
X00259Y01754*
X00259Y01753*
X00232*
Y01726*
X00259*
X00259Y01725*
X00265Y01724*
X00265*
Y01714*
X00264Y01709*
X00265Y01702*
X00269Y01697*
X00274Y01693*
X00281Y01692*
X00287Y01693*
X00292Y01697*
X00296Y01702*
X00297Y01709*
X00296Y01714*
Y01726*
X00297*
Y01753*
X00287*
X00286Y01754*
X00281Y01755*
G37*
G36*
X007Y01665D02*
X00629D01*
Y01594*
X007*
Y01665*
G37*
G36*
X001D02*
X00029D01*
Y01594*
X001*
Y01665*
G37*
G36*
X00601Y01618D02*
X00581D01*
Y01599*
X00601*
Y01618*
G37*
G36*
Y01647D02*
X00581D01*
Y01628*
X00601*
Y01647*
G37*
G36*
X00408Y01617D02*
X0036D01*
Y01607*
X00352*
X0035Y01609*
X00345Y0161*
X00339Y01609*
X00334Y01606*
X00331Y01601*
X0033Y01596*
X00331Y0159*
X00334Y01585*
X00339Y01582*
X00345Y01581*
X0035Y01582*
X00352Y01584*
X0036*
Y01574*
X00408*
Y01617*
G37*
G36*
X00589Y01771D02*
Y01741D01*
X00619*
X00617Y01749*
X00609Y01761*
X00597Y01769*
X00589Y01771*
G37*
G36*
X0028Y01917D02*
X00232D01*
Y01878*
X0028*
Y01917*
G37*
G36*
X00222D02*
X00197D01*
Y01878*
X00222*
Y01917*
G37*
G36*
X0032D02*
X0029D01*
Y01878*
X0032*
Y01917*
G37*
G36*
X00132Y01939D02*
X00109D01*
Y01904*
Y01868*
X00132*
Y01889*
X00138Y01894*
X00142Y01893*
X00147Y01894*
X00152Y01897*
X00155Y01902*
X00156Y01908*
X00155Y01913*
X00152Y01918*
X00147Y01921*
X00142Y01922*
X00138Y01921*
X00132Y01926*
Y01939*
G37*
G36*
X00532Y01917D02*
X00507D01*
Y01878*
X00532*
Y01917*
G37*
G36*
X00271Y0185D02*
Y01815D01*
Y01781*
X0028Y01783*
X00291Y01791*
X00292Y01792*
X00299Y01789*
Y01783*
X00308*
Y01815*
Y01848*
X00299*
Y01842*
X00292Y01839*
X00291Y0184*
X0028Y01848*
X00271Y0185*
G37*
G36*
X00261Y01811D02*
X00232D01*
X00234Y01802*
X00241Y01791*
X00253Y01783*
X00261Y01781*
Y01811*
G37*
G36*
X00584Y01872D02*
X0057Y01869D01*
X00558Y01861*
X0055Y01849*
X00547Y01836*
X0055Y01822*
X00558Y0181*
X0057Y01802*
X00584Y01799*
X00597Y01802*
X00609Y0181*
X00617Y01822*
X0062Y01836*
X00617Y01849*
X00609Y01861*
X00597Y01869*
X00584Y01872*
G37*
G36*
X00078Y01821D02*
D01*
X00076*
X00075*
X00073*
X00071*
X00017*
Y0175*
X00028*
X00032Y01743*
X00031Y01742*
X0003Y01737*
X00031Y01731*
X00034Y01726*
X00039Y01723*
X00045Y01722*
X0005Y01723*
X00055Y01726*
X00058Y01731*
X00059Y01737*
X00058Y01742*
X00057Y01743*
Y0175*
X00073*
X00076*
X00078*
X00087*
X00091Y01743*
X0009Y01742*
X00089Y01737*
X0009Y01731*
X00093Y01726*
X00098Y01723*
X00104Y01722*
X00109Y01723*
X00114Y01726*
X00117Y01731*
X00118Y01737*
X00117Y01742*
X00116Y01743*
Y0175*
X00132*
X00132*
X00138Y01744*
Y01726*
X00154*
Y01681*
X00138*
Y01654*
X00157*
X00159Y01651*
X00164Y01647*
X0017Y01646*
X00177Y01647*
X00182Y01651*
X00184Y01654*
X00203*
Y01681*
X00187*
Y01726*
X00203*
Y01753*
X00187*
Y01794*
X00185Y018*
X00182Y01805*
X00177Y01809*
X0017Y0181*
X00164Y01809*
X00159Y01805*
X00155Y018*
X00154Y01794*
Y01753*
X00138*
X00137*
X00132Y01759*
Y01821*
X00078*
G37*
G36*
X00261Y0185D02*
X00253Y01848D01*
X00241Y0184*
X00234Y01829*
X00232Y01821*
X00261*
Y0185*
G37*
G36*
X0067Y01565D02*
Y01535D01*
X007*
X00698Y01543*
X0069Y01555*
X00678Y01563*
X0067Y01565*
G37*
G36*
X001Y01325D02*
X0007D01*
Y01294*
X00078Y01296*
X0009Y01304*
X00098Y01316*
X001Y01325*
G37*
G36*
X00665Y01366D02*
X00651Y01363D01*
X00639Y01355*
X00631Y01343*
X00628Y0133*
X00631Y01316*
X00639Y01304*
X00651Y01296*
X00665Y01293*
X00678Y01296*
X0069Y01304*
X00698Y01316*
X00701Y0133*
X00698Y01343*
X0069Y01355*
X00678Y01363*
X00665Y01366*
G37*
G36*
X0007Y01365D02*
Y01335D01*
X001*
X00098Y01343*
X0009Y01355*
X00078Y01363*
X0007Y01365*
G37*
G36*
X00179Y01511D02*
D01*
X00159*
Y01487*
Y01463*
X00179*
X00187*
X00208*
Y01487*
Y01511*
X00187*
X00179*
G37*
G36*
X00665Y01466D02*
X00651Y01463D01*
X00639Y01455*
X00631Y01443*
X00628Y0143*
X00631Y01416*
X00639Y01404*
X00651Y01396*
X00665Y01393*
X00678Y01396*
X0069Y01404*
X00698Y01416*
X00701Y0143*
X00698Y01443*
X0069Y01455*
X00678Y01463*
X00665Y01466*
G37*
G36*
X00435Y01205D02*
X00422D01*
Y01161*
X00435*
Y01205*
G37*
G36*
X00512Y0118D02*
X00491D01*
Y01161*
X00512*
Y0118*
G37*
G36*
X00457Y01205D02*
X00445D01*
Y01161*
X00457*
Y01205*
G37*
G36*
X00601Y01303D02*
X00581D01*
Y01284*
X00601*
Y01303*
G37*
G36*
Y01214D02*
X00581D01*
Y01195*
X00601*
Y01214*
G37*
G36*
X00356Y01511D02*
D01*
X00336*
Y01487*
Y01463*
X00356*
X00364*
X00385*
Y01487*
Y01511*
X00364*
X00356*
G37*
G36*
X0066Y01525D02*
X00629D01*
X00631Y01516*
X00639Y01504*
X00651Y01496*
X0066Y01494*
Y01525*
G37*
G36*
X00065Y01566D02*
X00051Y01563D01*
X00039Y01555*
X00031Y01543*
X00028Y0153*
X00031Y01516*
X00039Y01504*
X00051Y01496*
X00065Y01493*
X00078Y01496*
X0009Y01504*
X00098Y01516*
X00101Y0153*
X00098Y01543*
X0009Y01555*
X00078Y01563*
X00065Y01566*
G37*
G36*
X007Y01525D02*
X0067D01*
Y01494*
X00678Y01496*
X0069Y01504*
X00698Y01516*
X007Y01525*
G37*
G36*
X0066Y01565D02*
X00651Y01563D01*
X00639Y01555*
X00631Y01543*
X00629Y01535*
X0066*
Y01565*
G37*
G36*
X00309Y01547D02*
X00303Y01546D01*
X00298Y01543*
X00298Y01542*
X00282*
X00275Y01539*
X00265Y01529*
X00262Y01523*
Y01511*
X00246*
X00238*
X00218*
Y01487*
Y01463*
X00238*
X00246*
X00297*
X00305*
X00326*
Y01487*
Y01511*
X00312*
X00311Y01511*
X00311Y01519*
X00313Y01519*
X00314Y01519*
X00319Y01522*
X00322Y01527*
X00323Y01533*
X00322Y01538*
X00319Y01543*
X00314Y01546*
X00309Y01547*
G37*
G36*
X00149Y01482D02*
X00128D01*
Y01463*
X00149*
Y01482*
G37*
G36*
X00415Y01511D02*
D01*
X00395*
Y01487*
Y01463*
X00415*
X00423*
X00444*
Y01487*
Y01511*
X00423*
X00415*
G37*
G36*
X00474Y01482D02*
X00454D01*
Y01463*
X00474*
Y01482*
G37*
G36*
Y01511D02*
X00454D01*
Y01492*
X00474*
Y01511*
G37*
G36*
X00149D02*
X00128D01*
Y01492*
X00149*
Y01511*
G37*
%LNmb1180-3*%
%LPD*%
G54D10*
X00281Y01014D03*
Y01081D03*
X00155Y0049D03*
Y00423D03*
X00213Y01154D03*
Y01221D03*
X00272Y0042D03*
Y00487D03*
X00331Y0042D03*
Y00487D03*
X0039Y0042D03*
Y00487D03*
X00517Y01489D03*
Y01422D03*
X00213Y0042D03*
Y00487D03*
G54D11*
X00154Y01016D03*
Y01079D03*
X00213Y01279D03*
Y01342D03*
X00576Y01016D03*
Y01079D03*
Y01487D03*
Y01424D03*
X00154Y01487D03*
Y01424D03*
X00331Y01487D03*
Y01424D03*
X0046Y01748D03*
Y01685D03*
X00517Y0156D03*
Y01623D03*
X00576D03*
Y0156D03*
X00272Y01487D03*
Y01424D03*
X00213D03*
Y01487D03*
X00517Y01156D03*
Y01219D03*
Y01016D03*
Y01079D03*
X00458Y01016D03*
Y01079D03*
X0034Y01016D03*
Y01079D03*
X00154Y01342D03*
Y01279D03*
X00153Y00347D03*
Y00284D03*
X00449Y00347D03*
Y00284D03*
Y00485D03*
Y00422D03*
X00568Y00485D03*
Y00422D03*
X00509D03*
Y00485D03*
X00517Y01279D03*
Y01342D03*
X00576D03*
Y01279D03*
X00511Y01748D03*
Y01685D03*
X00576Y01219D03*
Y01156D03*
X00213Y01016D03*
Y01079D03*
X00449Y01424D03*
Y01487D03*
X0039D03*
Y01424D03*
G54D12*
X00328Y00282D03*
X00391D03*
X00273D03*
X0021D03*
G54D13*
X00265Y0174D03*
X0017D03*
X00265Y01668D03*
X0017D03*
G54D14*
X00313Y01816D03*
X00339D03*
X00365D03*
X0039D03*
X00416D03*
G54D15*
X00404Y01922D03*
X00325D03*
G54D16*
X00384Y01596D03*
X00463Y01634D03*
Y01557D03*
G54D17*
X00351Y00354D03*
X00252D03*
G54D18*
X0044Y01347D03*
X0039D03*
X0034D03*
X0029D03*
X0044Y01156D03*
X0039D03*
X0034D03*
X0029D03*
G54D19*
X00045Y01904D03*
Y01785D03*
X00104D03*
Y01904D03*
G54D20*
X00296Y00642D03*
X00315D03*
X00335D03*
X00355D03*
X00374D03*
X00394D03*
X00414D03*
X00433D03*
Y00827D03*
X00414D03*
X00394D03*
X00374D03*
X00355D03*
X00335D03*
X00315D03*
X00296D03*
G54D21*
X00457Y00666D03*
Y00685D03*
Y00705D03*
Y00725D03*
Y00744D03*
Y00764D03*
Y00784D03*
Y00803D03*
X00272D03*
Y00784D03*
Y00764D03*
Y00744D03*
Y00725D03*
Y00705D03*
Y00685D03*
Y00666D03*
G54D22*
X00365Y00735D03*
G54D23*
X00576Y00373D03*
X00539D03*
X00576Y0027D03*
X00501D03*
X00539D03*
X00501Y00373D03*
G54D24*
X00539Y00322D03*
G54D25*
X00564Y00126D03*
Y00059D03*
X00172Y00126D03*
Y00059D03*
G54D26*
X00257Y0008D03*
X00478D03*
G54D27*
X00254Y00567D03*
X00286D03*
X00317D03*
X00349D03*
X0038D03*
X00412D03*
X00443D03*
X00475D03*
Y00902D03*
X00443D03*
X00412D03*
X0038D03*
X00349D03*
X00317D03*
X00286D03*
X00254D03*
G54D28*
X00532Y00624D03*
Y00656D03*
Y00687D03*
Y00719D03*
Y0075D03*
Y00782D03*
Y00813D03*
Y00845D03*
X00197D03*
Y00813D03*
Y00782D03*
Y0075D03*
Y00719D03*
Y00687D03*
Y00656D03*
Y00624D03*
G54D29*
X00439Y01816D02*
X00452Y01803D01*
X00483Y00085D02*
X00509Y00059D01*
X00362Y00291D02*
X00391Y0032D01*
X00393Y00143D02*
Y00285D01*
X00211Y00325D02*
X00239Y00296D01*
X00254Y00567D02*
Y00599D01*
X00269Y00614D02*
Y00642D01*
X00254Y00599D02*
X00269Y00614D01*
X00431Y01527D02*
Y01532D01*
Y01527D02*
X00449Y01509D01*
Y01487D02*
Y01509D01*
X0039Y01487D02*
X00449D01*
X00331D02*
X0039D01*
X00154D02*
X00213D01*
X0013D02*
X00154D01*
X0012Y01477D02*
X0013Y01487D01*
X0012Y01462D02*
Y01477D01*
X00154Y01342D02*
Y0138D01*
Y00979D02*
Y01016D01*
X00433Y00841D02*
X0045Y00858D01*
X00465*
X00603Y01106D02*
Y01118D01*
X00576Y01079D02*
X00603Y01106D01*
X00509Y00059D02*
X00564D01*
X00412Y00124D02*
X00445D01*
X00391Y00287D02*
X00393Y00285D01*
X0034Y00993D02*
X00351Y00982D01*
X0034Y00993D02*
Y01016D01*
X00195Y00347D02*
X0021Y00332D01*
X00153Y00347D02*
X00195D01*
X00568Y00485D02*
X00607D01*
X00509D02*
X00568D01*
X00449D02*
X00509D01*
X00539Y0027D02*
Y00322D01*
X0012Y0143D02*
X00153D01*
X0044Y0135D02*
Y01421D01*
X00449Y0143*
X00491Y01393D02*
X00516D01*
X00576Y01119D02*
Y01156D01*
X00443D02*
X00517D01*
Y00984D02*
Y01016D01*
X00576Y01079D02*
Y0108D01*
X00478Y01275D02*
X00478Y01274D01*
X00478Y01275D02*
X00512D01*
X00517Y01279*
X00475Y00868D02*
Y00902D01*
X00465Y00858D02*
X00475Y00868D01*
X00433Y00827D02*
Y00841D01*
X00213Y01342D02*
X00252D01*
X00517D02*
Y01428D01*
Y01342D02*
X00576D01*
X00513Y0098D02*
X00517Y00984D01*
X00492Y0098D02*
X00513D01*
X00457Y00822D02*
X0048Y00845D01*
X00457Y00803D02*
Y00822D01*
X00045Y01737D02*
Y01785D01*
X00045Y01737D02*
X00045Y01737D01*
X00104D02*
Y01785D01*
Y01953D02*
X00105Y01954D01*
X00104Y01904D02*
Y01953D01*
X00045Y01904D02*
Y01951D01*
X00046Y01952*
X00325Y01922D02*
X00404D01*
X00502*
X00227D02*
X00325D01*
X00266Y01816D02*
X00313D01*
X00511Y01685D02*
X00557D01*
X00561Y01689*
X00517Y01495D02*
Y01527D01*
X00576Y01623D02*
Y01675D01*
X00561Y01689D02*
X00576Y01675D01*
X00489Y01596D02*
X00517Y01623D01*
X00477Y01596D02*
X00489D01*
X00345D02*
X00384D01*
X00345D02*
D01*
X00374Y0061D02*
Y00642D01*
X0038Y00567D02*
Y00604D01*
X00375Y00609D02*
X0038Y00604D01*
X00375Y00609D02*
Y00609D01*
X00374Y0061D02*
X00375Y00609D01*
X0038Y00532D02*
Y00567D01*
X00377Y00529D02*
X0038Y00532D01*
X00127Y00054D02*
Y00115D01*
X00138Y00126*
X00172*
Y00017D02*
Y00059D01*
Y00063*
X00393Y00143D02*
X00412Y00124D01*
X00394Y00284D02*
X00449D01*
X00239Y00284D02*
Y00296D01*
X00211Y00325D02*
Y00332D01*
X0034Y01079D02*
X00402Y01016D01*
X00458*
X00495Y00845D02*
X00532D01*
X00495Y00845D02*
X00495Y00845D01*
X0048Y00845D02*
X00495D01*
X00532*
X00296Y00638D02*
Y00642D01*
X00269D02*
X00296D01*
X00475Y00941D02*
X00489Y00955D01*
X00561*
X00475Y00902D02*
Y00941D01*
X00561Y00955D02*
X00576Y00969D01*
Y00966D02*
Y00969D01*
Y01016*
X00135Y00926D02*
X00176Y00967D01*
X00135Y00774D02*
Y00926D01*
X00213Y00985D02*
Y01016D01*
X00195Y00967D02*
X00213Y00985D01*
X00176Y00967D02*
X00195D01*
X00576Y01219D02*
X00609D01*
X00619Y0121*
Y01198D02*
Y0121D01*
G54D30*
X00048Y00391D02*
X00203D01*
X00204Y00392*
X00207*
X00213Y00398*
X00015Y00311D02*
Y0138D01*
Y00311D02*
X00038Y00288D01*
X00015Y0138D02*
X00065Y0143D01*
X00331Y01424D02*
Y0143D01*
X00313Y01406D02*
X00331Y01424D01*
X00313Y01304D02*
Y01406D01*
X00213Y0143D02*
X00272D01*
X00138Y01396D02*
X00204D01*
X00213Y01405*
Y01424D02*
Y0143D01*
X00118Y01376D02*
X00138Y01396D01*
X00213Y01405D02*
Y01424D01*
X00252Y00307D02*
Y00354D01*
X00103Y00728D02*
X00118Y00743D01*
X0012Y00719D02*
X00197D01*
X00213Y01079D02*
Y01109D01*
X00222Y01118*
X00154Y01079D02*
X00213D01*
X00428Y00861D02*
X00443Y00876D01*
X00414Y00861D02*
X00428D01*
X00394Y0087D02*
X00412Y00888D01*
X00394Y00827D02*
Y0087D01*
X0038Y00867D02*
Y00902D01*
X00443Y00876D02*
Y00902D01*
X0061Y01074D02*
X00665Y01129D01*
Y0113*
X00158Y0075D02*
X00159D01*
X00159Y0075*
X00197*
X00286Y00526D02*
Y00567D01*
X00272Y00511D02*
X00286Y00526D01*
X00272Y00487D02*
Y00511D01*
X00317Y00527D02*
X00331Y00513D01*
X00317Y00527D02*
Y00567D01*
X00331Y00487D02*
Y00513D01*
Y00392D02*
X00351Y00371D01*
X00331Y00392D02*
Y0042D01*
X00351Y00354D02*
Y00371D01*
X00252Y0037D02*
X00272Y00389D01*
X00252Y00354D02*
Y0037D01*
X00272Y00389D02*
Y0042D01*
X00665Y00622D02*
Y0063D01*
X00577Y00534D02*
X00665Y00622D01*
X00449Y00534D02*
X00577D01*
X00621Y00986D02*
X00665Y0103D01*
X00559Y00813D02*
X00569Y00823D01*
X00532Y00813D02*
X00559D01*
X00624Y00789D02*
X00665Y0083D01*
X00624Y00709D02*
Y00789D01*
X00565Y00782D02*
X0058Y00797D01*
X00532Y00782D02*
X00565D01*
X00477Y00784D02*
X00506Y00813D01*
X00457Y00784D02*
X00477D01*
X00506Y00813D02*
X00532D01*
X00282Y01533D02*
X00309D01*
X00122Y00687D02*
X00197D01*
X00457Y00666D02*
X00479D01*
X00491Y00633D02*
Y00654D01*
X00479Y00666D02*
X00491Y00654D01*
Y00633D02*
X00499Y00624D01*
X00532*
X00459Y00617D02*
X00475Y00601D01*
X00442Y00617D02*
X00459D01*
X00433Y00625D02*
X00442Y00617D01*
X00433Y00625D02*
Y00642D01*
X00475Y00567D02*
Y00601D01*
X00559Y00624D02*
X00665Y0073D01*
X00532Y00624D02*
X00559D01*
X0024Y00725D02*
X00272D01*
X00234Y00719D02*
X0024Y00725D01*
X00197Y00719D02*
X00234D01*
X00571Y00656D02*
X00624Y00709D01*
X00532Y00656D02*
X00571D01*
X00502Y00782D02*
X00532D01*
X00484Y00764D02*
X00502Y00782D01*
X00443Y00539D02*
X00449Y00534D01*
X00443Y00539D02*
Y00567D01*
X00658Y00523D02*
X00665Y0053D01*
X00584Y00687D02*
X00613Y00716D01*
X00532Y00687D02*
X00584D01*
X00457Y00764D02*
X00484D01*
X00272Y00803D02*
Y00816D01*
X00243Y00845D02*
X00272Y00816D01*
X00197Y00845D02*
X00243D01*
X00283Y00827D02*
X00296D01*
X00254Y00856D02*
X00283Y00827D01*
X00254Y00856D02*
Y00902D01*
X00197Y00687D02*
X00227D01*
X00245Y00705*
X00272*
X00443Y00567D02*
Y00595D01*
X00414Y00624D02*
X00443Y00595D01*
X00414Y00624D02*
Y00642D01*
X00412Y00567D02*
Y00597D01*
X00394Y00615D02*
X00412Y00597D01*
X00349Y00567D02*
Y00602D01*
X00495Y0075D02*
X00532D01*
X00489Y00744D02*
X00495Y0075D01*
X00457Y00744D02*
X00489D01*
X00497Y00719D02*
X00532D01*
X00504Y00687D02*
X00532D01*
X00486Y00705D02*
X00504Y00687D01*
X00457Y00705D02*
X00486D01*
X00504Y00656D02*
X00532D01*
X00475Y00685D02*
X00504Y00656D01*
X00457Y00685D02*
X00475D01*
X00349Y00865D02*
Y00902D01*
X00315Y00827D02*
Y00845D01*
X00286Y00874D02*
X00315Y00845D01*
X00286Y00874D02*
Y00902D01*
X00564Y0075D02*
X00591Y00777D01*
X00581Y00719D02*
X00602Y0074D01*
X00532Y00719D02*
X00581D01*
X0039Y00384D02*
Y0042D01*
X00331Y00487D02*
X0039D01*
X00532Y0075D02*
X00564D01*
X00154Y00487D02*
X00213D01*
X00209Y00484D02*
X00213Y00487D01*
X00272*
X00315Y00624D02*
Y00642D01*
X00286Y00567D02*
Y00595D01*
X00315Y00624*
X00317Y00567D02*
Y00601D01*
X00335Y00619*
Y00642*
X00272Y01493D02*
Y01523D01*
X00282Y01533*
X00576Y01392D02*
Y0143D01*
X00478Y01219D02*
X00517D01*
X00478Y01219D02*
X00478Y01219D01*
X0039Y01093D02*
Y01159D01*
X0038Y00964D02*
X00381Y00965D01*
X00432Y01268D02*
X00441Y01277D01*
X00412Y00888D02*
Y00902D01*
X00414Y00861D02*
X00414Y0086D01*
Y00827D02*
Y0086D01*
X00317Y00865D02*
Y00902D01*
Y00865D02*
X00335Y00847D01*
Y00827D02*
Y00847D01*
X00213Y01154D02*
X00242D01*
X00213Y01221D02*
X00252D01*
X00242Y01154D02*
X00269Y01181D01*
X00281Y00993D02*
Y01014D01*
X00154Y01279D02*
X00213D01*
X00269Y01236D02*
X00284Y01251D01*
X00222Y0127D02*
X00315D01*
X00213Y01279D02*
X00222Y0127D01*
X00313Y01304D02*
X00349Y01268D01*
X00432*
X00457Y00725D02*
X00491D01*
X00497Y00719*
X00197Y00656D02*
X0023D01*
X00236Y00663*
X00355Y00608D02*
Y00642D01*
X00349Y00602D02*
X00355Y00608D01*
X00264Y01492D02*
X00272D01*
X00213Y00398D02*
Y0042D01*
X00038Y00288D02*
X00137D01*
X0004Y00376D02*
X00041Y00375D01*
X00646Y0048D02*
X00673D01*
X00706Y00695D02*
Y01188D01*
X00692Y00681D02*
X00706Y00695D01*
X00665Y0123D02*
X00706Y01188D01*
X00339Y01816D02*
Y01844D01*
X00367Y01872*
X00511Y01748D02*
X00519Y01757D01*
X00451Y01676D02*
X0046Y01685D01*
X00596Y01689D02*
X00599D01*
X00646Y01736*
X00684*
X00463Y01557D02*
X00466Y0156D01*
X00451Y01557D02*
X00463D01*
X00576Y01493D02*
Y0156D01*
X00466D02*
X00576D01*
X00463Y01634D02*
Y01682D01*
X0046Y01685D02*
X00463Y01682D01*
X00237Y00746D02*
X00271D01*
X00197Y0075D02*
X00232D01*
X00237Y00746*
X00614Y00512D02*
X00646Y0048D01*
X00412Y00534D02*
X00424Y00523D01*
X00412Y00534D02*
Y00567D01*
X00424Y00523D02*
X00658D01*
X00394Y00617D02*
Y00642D01*
Y00615D02*
Y00617D01*
X00349Y00532D02*
Y00567D01*
Y00532D02*
X0037Y00512D01*
X00614*
X00026Y00414D02*
X00048Y00391D01*
X00026Y00414D02*
Y00691D01*
X00065Y0073*
X00112Y00428D02*
Y00515D01*
X00166Y00782D02*
X00197D01*
X00159Y00775D02*
X00166Y00782D01*
X00103Y00662D02*
X00168Y00598D01*
X00103Y00662D02*
Y00728D01*
X00112Y00515D02*
X00168Y00571D01*
X00564Y00126D02*
X00603D01*
X00112Y00428D02*
X00121Y0042D01*
X00154*
X0004Y00376D02*
X00211D01*
X00622Y0004D02*
X00668D01*
X00153Y00241D02*
X00187Y00207D01*
X00238*
X00257Y00187*
X00153Y00241D02*
Y00272D01*
Y00284*
X00257Y0008D02*
Y00187D01*
Y0008D02*
X0026Y00077D01*
Y00058D02*
Y00077D01*
Y00058D02*
X00282Y00037D01*
X00338*
X00137Y00288D02*
X00153Y00272D01*
X00367Y01872D02*
X00486D01*
X00519Y01838*
Y01757D02*
Y01838D01*
X00475Y00567D02*
X00526D01*
X00639Y00681*
X00692*
X00668Y0004D02*
X00704Y00076D01*
Y00449*
X00673Y0048D02*
X00704Y00449D01*
X00517Y01079D02*
Y01119D01*
X00328Y00282D02*
X00351Y00304D01*
Y00354*
X00252Y00302D02*
X00273Y00282D01*
X00252Y00302D02*
Y00307D01*
X00257Y01105D02*
Y01117D01*
Y01105D02*
X00281Y01081D01*
X0039Y01093D02*
X00403Y01079D01*
X00458*
X00591Y00777D02*
Y00887D01*
X00602Y0074D02*
Y00882D01*
X00613Y00716D02*
Y00878D01*
X00197Y00624D02*
X0023D01*
X00259Y00685D02*
X00272D01*
X00236Y00663D02*
X00259Y00685D01*
X00244Y00639D02*
Y00641D01*
X00269Y00666*
X00272*
X0023Y00624D02*
X00244Y00639D01*
X00247Y00641*
Y00642*
X00168Y00571D02*
Y00596D01*
Y00598*
X00249Y00764D02*
X00272D01*
X00197Y00782D02*
X00231D01*
X00249Y00764*
X00231Y00813D02*
X00246Y00798D01*
X00197Y00813D02*
X00231D01*
X0026Y00784D02*
X00272D01*
X00246Y00798D02*
X0026Y00784D01*
X00317Y00964D02*
X00318Y00965D01*
X00374Y00827D02*
Y00861D01*
X0038Y00867*
X00355Y00827D02*
Y00859D01*
X00349Y00865D02*
X00355Y00859D01*
X00513Y00877D02*
X00554D01*
X00569Y00823D02*
Y00862D01*
X00554Y00877D02*
X00569Y00862D01*
X00277Y00989D02*
X00281Y00993D01*
X00613Y00878D02*
X00665Y0093D01*
X00602Y00882D02*
X00621Y00901D01*
Y00986*
X00591Y00887D02*
X0061Y00906D01*
Y01074*
X00412Y00965D02*
X00412Y00964D01*
Y00902D02*
Y00964D01*
X0038Y00902D02*
Y00964D01*
X00317Y00902D02*
Y00964D01*
X00286Y00965D02*
X00286Y00964D01*
Y00902D02*
Y00964D01*
X00254Y00902D02*
Y00965D01*
X00254Y00966D02*
X00254Y00965D01*
X00197Y00935D02*
X00251Y00989D01*
X00277*
X00197Y00845D02*
Y00935D01*
X00554Y00934D02*
X0058Y00908D01*
X00514Y00934D02*
X00554D01*
X0058Y00797D02*
Y00908D01*
X0039Y01159D02*
Y01221D01*
X00269Y01181D02*
Y01236D01*
X00284Y01251D02*
X00643D01*
X00665Y0123*
X00118Y00743D02*
Y01376D01*
G54D31*
X00568Y00422D02*
X00576Y00413D01*
X00509Y00422D02*
X00568D01*
X00449Y00367D02*
Y00422D01*
Y00367D02*
X00454Y00373D01*
X0034Y0135D02*
X0039D01*
Y01287D02*
Y0135D01*
Y0143*
X00454Y00373D02*
X00484D01*
X00501*
X00265Y01663D02*
X00313D01*
X0017D02*
Y0174D01*
Y01794*
X00576Y00373D02*
Y00413D01*
Y00373D02*
X00605D01*
G54D32*
X0034Y01159D02*
Y01223D01*
X0029Y01159D02*
X0034D01*
Y01079D02*
Y01159D01*
X00265Y0174D02*
X00281D01*
X00416Y01762D02*
Y01816D01*
X00281Y01709D02*
Y0174D01*
G54D33*
X00487Y0027D02*
X00501D01*
X00484Y00267D02*
X00487Y0027D01*
X00484Y00267D02*
Y00373D01*
Y00245D02*
Y00267D01*
X00476Y00238D02*
X00484Y00245D01*
X00419Y00238D02*
X00476D01*
G54D34*
X00333Y01703D02*
X00338Y01708D01*
X00368*
X00384Y01724*
Y0178*
X0039Y01785*
Y01816*
X00338Y01722D02*
X00362D01*
X0037Y0173*
X00333Y01727D02*
X00338Y01722D01*
X00365Y01816D02*
Y0185D01*
Y01785D02*
Y01816D01*
Y01785D02*
X0037Y0178D01*
X00365Y0185D02*
X00375Y0186D01*
X0037Y0173D02*
Y0178D01*
X00375Y0186D02*
X00481D01*
X0046Y01748D02*
X00508Y01796D01*
X00481Y0186D02*
X00508Y01833D01*
Y01796D02*
Y01833D01*
G54D35*
X00266Y01816D03*
X00463D03*
G54D36*
X0049Y01922D03*
X00239D03*
G54D37*
X00684Y01936D03*
Y01836D03*
X00584D03*
Y01736D03*
X00065Y0053D03*
Y0043D03*
Y0033D03*
Y0023D03*
Y0063D03*
Y0103D03*
Y0093D03*
Y0083D03*
Y0073D03*
Y0123D03*
Y0133D03*
Y0143D03*
Y0153D03*
Y0113D03*
X00665Y0053D03*
Y0043D03*
Y0033D03*
Y0023D03*
Y0063D03*
Y0103D03*
Y0093D03*
Y0083D03*
Y0073D03*
Y0123D03*
Y0133D03*
Y0143D03*
Y0153D03*
Y0113D03*
G54D38*
X00684Y01736D03*
G54D39*
X00065Y0163D03*
X00665D03*
G54D40*
X00431Y01532D03*
X00033Y01077D03*
X00084Y01076D03*
X00176Y00967D03*
X00136Y01243D03*
X00154Y0138D03*
X0045Y00858D03*
X00414Y00861D03*
X00474Y01192D03*
X00119Y017D03*
Y01648D03*
X00576Y01119D03*
X00619Y01271D03*
X00608Y0054D03*
X00603Y01118D03*
X00632Y00278D03*
X00158Y0075D03*
X0012Y0072D03*
X00159Y00775D03*
X00608Y00486D03*
Y0041D03*
X00616Y01495D03*
X00708Y01684D03*
X00379Y01532D03*
X00708Y01785D03*
X00035Y01576D03*
X00028Y017D03*
X00142Y01953D03*
X00611Y01784D03*
Y01953D03*
X00708Y01885D03*
X00611D03*
X00619Y01198D03*
X00578Y00577D03*
X00036Y00161D03*
X00122Y00687D03*
X00309Y01533D03*
X00045Y01737D03*
X0039Y00384D03*
X0012Y0143D03*
X00253Y01388D03*
X00491Y01393D03*
X00576Y01392D03*
X00441Y01277D03*
X00478Y01275D03*
X00492Y0098D03*
X00381Y00965D03*
X00412D03*
X00222Y01118D03*
X00257Y01117D03*
X00315Y0127D03*
X0012Y01462D03*
X00253Y01309D03*
X00576Y01189D03*
Y0131D03*
X00478Y01363D03*
X0012Y01532D03*
X00184Y01457D03*
X00478Y01313D03*
X00417Y01287D03*
X00253Y01249D03*
X003Y01287D03*
X00194Y01117D03*
X00437Y0098D03*
X00686Y0028D03*
X0069Y01479D03*
X00689Y0138D03*
Y0128D03*
Y01178D03*
X00351Y00982D03*
X00033Y00271D03*
X0004Y00376D03*
X00104Y01737D03*
X00105Y01954D03*
X00046Y01952D03*
X00704Y00481D03*
X00646Y0048D03*
X00142Y01908D03*
X00561Y01689D03*
X00596Y01689D03*
X00547Y01527D03*
X00517D03*
X00477Y01596D03*
X00345D03*
X00303Y00982D03*
X00286Y00965D03*
X00135Y00774D03*
X00377Y00529D03*
X00394Y00617D03*
X00603Y00126D03*
X00113Y00253D03*
X00211Y00376D03*
Y00332D03*
X00539Y00454D03*
X00479D03*
X00317Y00361D03*
X00622Y0004D03*
X00634Y0037D03*
X00127Y00054D03*
X00172Y00017D03*
X00706Y0004D03*
X00661Y00125D03*
X00687Y00187D03*
X00687Y00088D03*
X00599Y00203D03*
X0054Y00165D03*
X00338Y00081D03*
X00338Y00037D03*
X00418Y00166D03*
X00035Y0002D03*
X00204Y00166D03*
X00422Y01721D03*
X0043Y01626D03*
X00376D03*
X00147Y01853D03*
X00365Y01686D03*
X00517Y01119D03*
X00251Y01342D03*
X00495Y00845D03*
X00236Y00663D03*
X00269Y00642D03*
X00247Y00642D03*
X00168Y00596D03*
X00246Y00798D03*
X00645Y00783D03*
X00318Y00965D03*
X00354Y0086D03*
X00513Y00877D03*
X00154Y00979D03*
X00075D03*
X00547Y0098D03*
X00634Y0087D03*
X00254Y00966D03*
X00514Y00934D03*
X00689Y00978D03*
X00644Y00979D03*
X00333Y01703D03*
Y01727D03*
X00481Y01527D03*
X00318Y01235D03*
X00253Y01222D03*
X00296Y01225D03*
X0039Y01221D03*
X00478Y01219D03*
X0044Y0122D03*
X001Y01392D03*
G54D41*
X00463Y00643D03*
X0039Y01287D03*
X006Y00607D03*
X00359Y00688D03*
Y00735D03*
X0031Y00688D03*
Y00735D03*
X00281Y01709D03*
X00313Y01663D03*
X00416Y01762D03*
X0017Y01794D03*
X00086Y00124D03*
X00605Y00373D03*
X00418Y00199D03*
X0034Y01223D03*
G54D42*
X00419Y00238D03*
M02*