%FSTAX23Y23*%
%MOIN*%
%SFA1B1*%

%IPPOS*%
%ADD10R,0.040000X0.032000*%
%ADD11R,0.039370X0.035430*%
%ADD12R,0.035430X0.039370*%
%ADD13R,0.053150X0.015750*%
%ADD14R,0.015750X0.053150*%
%ADD15R,0.059060X0.074800*%
%ADD16R,0.035430X0.031500*%
%ADD17R,0.039370X0.070870*%
%ADD18R,0.023620X0.086610*%
%ADD19R,0.043310X0.059060*%
%ADD20R,0.011810X0.023620*%
%ADD21R,0.023620X0.011810*%
%ADD22R,0.135830X0.135830*%
%ADD23R,0.017720X0.019690*%
%ADD24R,0.078740X0.047240*%
%ADD25R,0.039370X0.039370*%
%ADD26R,0.078740X0.145670*%
%ADD27R,0.019690X0.047240*%
%ADD28R,0.047240X0.019690*%
%LNmb1180-1*%
%LPD*%
G36*
X00233Y0045D02*
X00213Y0047D01*
X00193Y0045*
Y0048*
X00233*
Y0045*
G37*
G36*
X00175Y00443D02*
Y00433D01*
X00135*
Y00443*
X00155Y00463*
X00175Y00443*
G37*
G36*
X00351Y0045D02*
X00331Y0047D01*
X00311Y0045*
Y0048*
X00351*
Y0045*
G37*
G36*
X00292D02*
X00272Y0047D01*
X00252Y0045*
Y0048*
X00292*
Y0045*
G37*
G36*
Y0044D02*
Y0043D01*
X00252*
Y0044*
X00272Y0046*
X00292Y0044*
G37*
G36*
X00233D02*
Y0043D01*
X00193*
Y0044*
X00213Y0046*
X00233Y0044*
G37*
G36*
X0041D02*
Y0043D01*
X0037*
Y0044*
X0039Y0046*
X0041Y0044*
G37*
G36*
X00351D02*
Y0043D01*
X00311*
Y0044*
X00331Y0046*
X00351Y0044*
G37*
G36*
X00233Y01184D02*
X00213Y01204D01*
X00193Y01184*
Y01214*
X00233*
Y01184*
G37*
G36*
Y01174D02*
Y01164D01*
X00193*
Y01174*
X00213Y01194*
X00233Y01174*
G37*
G36*
X00537Y01469D02*
X00517Y01449D01*
X00497Y01469*
Y01479*
X00537*
Y01469*
G37*
G36*
Y01429D02*
X00497D01*
Y01459*
X00517Y01439*
X00537Y01459*
Y01429*
G37*
G36*
X00175Y00453D02*
X00155Y00473D01*
X00135Y00453*
Y00483*
X00175*
Y00453*
G37*
G36*
X0041Y0045D02*
X0039Y0047D01*
X0037Y0045*
Y0048*
X0041*
Y0045*
G37*
G36*
X00301Y01044D02*
X00281Y01064D01*
X00261Y01044*
Y01074*
X00301*
Y01044*
G37*
G36*
Y01034D02*
Y01024D01*
X00261*
Y01034*
X00281Y01054*
X00301Y01034*
G37*
G54D10*
X00281Y01014D03*
Y01081D03*
X00155Y0049D03*
Y00423D03*
X00213Y01154D03*
Y01221D03*
X00272Y0042D03*
Y00487D03*
X00331Y0042D03*
Y00487D03*
X0039Y0042D03*
Y00487D03*
X00517Y01489D03*
Y01422D03*
X00213Y0042D03*
Y00487D03*
G54D11*
X00154Y01016D03*
Y01079D03*
X00213Y01279D03*
Y01342D03*
X00576Y01016D03*
Y01079D03*
Y01487D03*
Y01424D03*
X00154Y01487D03*
Y01424D03*
X00331Y01487D03*
Y01424D03*
X0046Y01748D03*
Y01685D03*
X00517Y0156D03*
Y01623D03*
X00576D03*
Y0156D03*
X00272Y01487D03*
Y01424D03*
X00213D03*
Y01487D03*
X00517Y01156D03*
Y01219D03*
Y01016D03*
Y01079D03*
X00458Y01016D03*
Y01079D03*
X0034Y01016D03*
Y01079D03*
X00154Y01342D03*
Y01279D03*
X00153Y00347D03*
Y00284D03*
X00449Y00347D03*
Y00284D03*
Y00485D03*
Y00422D03*
X00568Y00485D03*
Y00422D03*
X00509D03*
Y00485D03*
X00517Y01279D03*
Y01342D03*
X00576D03*
Y01279D03*
X00511Y01748D03*
Y01685D03*
X00576Y01219D03*
Y01156D03*
X00213Y01016D03*
Y01079D03*
X00449Y01424D03*
Y01487D03*
X0039D03*
Y01424D03*
G54D12*
X00328Y00282D03*
X00391D03*
X00273D03*
X0021D03*
G54D13*
X00265Y0174D03*
X0017D03*
X00265Y01668D03*
X0017D03*
G54D14*
X00313Y01816D03*
X00339D03*
X00365D03*
X0039D03*
X00416D03*
G54D15*
X00404Y01922D03*
X00325D03*
G54D16*
X00384Y01596D03*
X00463Y01634D03*
Y01557D03*
G54D17*
X00351Y00354D03*
X00252D03*
G54D18*
X0044Y01347D03*
X0039D03*
X0034D03*
X0029D03*
X0044Y01156D03*
X0039D03*
X0034D03*
X0029D03*
G54D19*
X00045Y01904D03*
Y01785D03*
X00104D03*
Y01904D03*
G54D20*
X00296Y00642D03*
X00315D03*
X00335D03*
X00355D03*
X00374D03*
X00394D03*
X00414D03*
X00433D03*
Y00827D03*
X00414D03*
X00394D03*
X00374D03*
X00355D03*
X00335D03*
X00315D03*
X00296D03*
G54D21*
X00457Y00666D03*
Y00685D03*
Y00705D03*
Y00725D03*
Y00744D03*
Y00764D03*
Y00784D03*
Y00803D03*
X00272D03*
Y00784D03*
Y00764D03*
Y00744D03*
Y00725D03*
Y00705D03*
Y00685D03*
Y00666D03*
G54D22*
X00365Y00735D03*
G54D23*
X00576Y00373D03*
X00539D03*
X00576Y0027D03*
X00501D03*
X00539D03*
X00501Y00373D03*
G54D24*
X00539Y00322D03*
G54D25*
X00564Y00126D03*
Y00059D03*
X00172Y00126D03*
Y00059D03*
G54D26*
X00257Y0008D03*
X00478D03*
G54D27*
X00254Y00567D03*
X00286D03*
X00317D03*
X00349D03*
X0038D03*
X00412D03*
X00443D03*
X00475D03*
Y00902D03*
X00443D03*
X00412D03*
X0038D03*
X00349D03*
X00317D03*
X00286D03*
X00254D03*
G54D28*
X00532Y00624D03*
Y00656D03*
Y00687D03*
Y00719D03*
Y0075D03*
Y00782D03*
Y00813D03*
Y00845D03*
X00197D03*
Y00813D03*
Y00782D03*
Y0075D03*
Y00719D03*
Y00687D03*
Y00656D03*
Y00624D03*
M02*